<svg height="512" viewBox="0 0 512 512" width="512" xmlns="http://www.w3.org/2000/svg"><g><g><circle cx="256" cy="256" fill="#acabb1" r="239"/><circle cx="256" cy="256" fill="#ffda44" r="192"/><path d="m212 344.971-68.485-68.486 16.97-16.97 51.515 51.514 139.515-139.514 16.97 16.97z" fill="#91cc04"/></g><g><path d="m504 256a248 248 0 0 1 -423.36 175.36 248.045 248.045 0 0 1 -29-315.9 8 8 0 1 1 13.17 9.08 232.014 232.014 0 0 0 355.24 295.51 232.016 232.016 0 0 0 -293.12-356.86l12.66 15.06-54.98 9.75 19.04-52.49 12.93 15.38a248.01 248.01 0 0 1 387.42 205.11z"/><path d="m256 456c110.28 0 200-89.72 200-200s-89.72-200-200-200-200 89.72-200 200 89.72 200 200 200zm0-384c101.458 0 184 82.542 184 184s-82.542 184-184 184-184-82.542-184-184 82.542-184 184-184z"/><path d="m256 104a8 8 0 0 0 8-8v-8a8 8 0 0 0 -16 0v8a8 8 0 0 0 8 8z"/><path d="m256 408a8 8 0 0 0 -8 8v8a8 8 0 0 0 16 0v-8a8 8 0 0 0 -8-8z"/><path d="m416 264h8a8 8 0 0 0 0-16h-8a8 8 0 0 0 0 16z"/><path d="m88 264h8a8 8 0 0 0 0-16h-8a8 8 0 0 0 0 16z"/><path d="m369.137 150.863a7.974 7.974 0 0 0 5.656-2.343l5.657-5.657a8 8 0 1 0 -11.312-11.314l-5.658 5.657a8 8 0 0 0 5.657 13.657z"/><path d="m137.206 382.794a7.974 7.974 0 0 0 5.657-2.343l5.658-5.657a8 8 0 1 0 -11.315-11.315l-5.657 5.658a8 8 0 0 0 5.657 13.657z"/><path d="m374.794 363.479a8 8 0 1 0 -11.315 11.315l5.658 5.657a8 8 0 0 0 11.314-11.314z"/><path d="m137.207 148.52a8 8 0 1 0 11.313-11.314l-5.658-5.657a8 8 0 1 0 -11.312 11.314z"/><path d="m137.857 282.143 68.486 68.485a8 8 0 0 0 11.314 0l156.486-156.485a8 8 0 0 0 0-11.315l-16.971-16.971a8 8 0 0 0 -11.315 0l-133.857 133.859-45.857-45.859a8 8 0 0 0 -11.315 0l-16.971 16.971a8 8 0 0 0 0 11.315zm22.628-11.315 45.858 45.859a8 8 0 0 0 11.314 0l133.858-133.859 5.657 5.657-145.172 145.172-57.172-57.172z"/></g></g></svg>