<svg id="Capa_1" enable-background="new 0 0 512 512" height="512" viewBox="0 0 512 512" width="512" xmlns="http://www.w3.org/2000/svg"><path d="m295 412h-280c-8.284 0-15-6.716-15-15v-82c0-85.468 69.532-155 155-155s155 69.532 155 155v82c0 8.284-6.716 15-15 15z" fill="#00afff"/><path d="m295 412c8.284 0 15-6.716 15-15v-82c0-85.468-69.532-155-155-155v252z" fill="#008cfa"/><path d="m155 190c-52.383 0-95-42.617-95-95s42.617-95 95-95 95 42.617 95 95-42.617 95-95 95z" fill="#ffd0af"/><path d="m250 95c0-52.383-42.617-95-95-95v190c52.383 0 95-42.617 95-95z" fill="#fabe8c"/><path d="m497 412h-280c-8.284 0-15-6.716-15-15v-82c0-85.468 69.532-155 155-155s155 69.532 155 155v82c0 8.284-6.716 15-15 15z" fill="#ff823c"/><path d="m497 412c8.284 0 15-6.716 15-15v-82c0-85.468-69.532-155-155-155v252z" fill="#f06923"/><path d="m357 190c-52.383 0-95-42.617-95-95s42.617-95 95-95 95 42.617 95 95-42.617 95-95 95z" fill="#ffd0af"/><path d="m452 95c0-52.383-42.617-95-95-95v190c52.383 0 95-42.617 95-95z" fill="#fabe8c"/><path d="m357 512c-63.411 0-115-51.589-115-115s51.589-115 115-115 115 51.589 115 115-51.589 115-115 115z" fill="#fff064"/><path d="m357 282c63.411 0 115 51.589 115 115s-51.589 115-115 115z" fill="#ffdc1e"/><path d="m397 382h-25v-25c0-8.284-6.716-15-15-15s-15 6.716-15 15v25h-25c-8.284 0-15 6.716-15 15s6.716 15 15 15h25v25c0 8.284 6.716 15 15 15s15-6.716 15-15v-25h25c8.284 0 15-6.716 15-15s-6.716-15-15-15z" fill="#556e87"/><path d="m357 452c8.284 0 15-6.716 15-15v-25h25c8.284 0 15-6.716 15-15s-6.716-15-15-15h-25v-25c0-8.284-6.716-15-15-15z" fill="#435569"/></svg>