<?xml version="1.0" encoding="UTF-8" standalone="no"?>
<!-- Generator: Adobe Illustrator 16.0.0, SVG Export Plug-In . SVG Version: 6.00 Build 0)  -->

<svg
   xmlns:dc="http://purl.org/dc/elements/1.1/"
   xmlns:cc="http://creativecommons.org/ns#"
   xmlns:rdf="http://www.w3.org/1999/02/22-rdf-syntax-ns#"
   xmlns:svg="http://www.w3.org/2000/svg"
   xmlns="http://www.w3.org/2000/svg"
   xmlns:sodipodi="http://sodipodi.sourceforge.net/DTD/sodipodi-0.dtd"
   xmlns:inkscape="http://www.inkscape.org/namespaces/inkscape"
   version="1.1"
   id="housefly"
   x="0px"
   y="0px"
   width="252px"
   height="313px"
   viewBox="0 0 252 313"
   enable-background="new 0 0 252 313"
   xml:space="preserve"
   sodipodi:docname="ladybug.svg"
   inkscape:version="0.92.0 r15299"><title
     id="title181">ladybug</title><metadata
     id="metadata179"><rdf:RDF><cc:Work
         rdf:about=""><dc:format>image/svg+xml</dc:format><dc:type
           rdf:resource="http://purl.org/dc/dcmitype/StillImage" /><dc:title>ladybug</dc:title><dc:date>8/3/2017</dc:date><dc:creator><cc:Agent><dc:title>cactus cowboy</dc:title></cc:Agent></dc:creator></cc:Work></rdf:RDF></metadata><defs
     id="defs177" /><sodipodi:namedview
     pagecolor="#ffffff"
     bordercolor="#666666"
     borderopacity="1"
     objecttolerance="10"
     gridtolerance="10"
     guidetolerance="10"
     inkscape:pageopacity="0"
     inkscape:pageshadow="2"
     inkscape:window-width="1920"
     inkscape:window-height="1052"
     id="namedview175"
     showgrid="false"
     inkscape:zoom="1"
     inkscape:cx="126"
     inkscape:cy="156.5"
     inkscape:window-x="-9"
     inkscape:window-y="-9"
     inkscape:window-maximized="1"
     inkscape:current-layer="housefly" /><filter
     id="AI_GaussianBlur_4"><feGaussianBlur
       stdDeviation="4"
       id="feGaussianBlur10" /></filter><g
     id="ladybug_parts"><path
       d="M131.96,56.576c6.548,0,5.563,0,11.76,0c3.662,0,8.45-1.057,12.321,1.831c3.029,2.253,3.521,8.097,3.521,8.097   c2.043-4.153,3.733-6.196,8.028-0.21c7.464,10.282,15.705,20.563,18.168,28.027c2.396,7.112,0.212,12.323-6.197,14.013   c-8.237,2.042-37.953,4.083-49.079,4.083c-11.128,0-40.775-2.041-49.013-4.083c-6.479-1.69-8.663-6.901-6.197-14.013   c2.464-7.463,10.704-17.745,18.097-28.027c4.297-5.985,8.803-3.873,10.563,0.634c0,0,0.776-4.576,4.438-7.394   c3.448-2.677,5.21-2.958,8.941-2.958C123.509,56.576,125.34,56.576,131.96,56.576z"
       id="path13" /><path
       d="M116.045,57.209c1.057-11.55-7.043-13.732-15.844-16.689C85.976,35.731,89.92,28.76,88.863,24.816   c-1.268-4.859-5.775-3.873-4.154,2.675c1.69,6.619,5.562,9.93,12.816,13.662c6.969,3.592,16.901,3.029,16.901,15.422   C114.426,58.266,116.045,57.209,116.045,57.209z"
       id="path15" /><path
       d="M111.749,58.054c-2.465-3.732-8.662-5.985-10.141-4.999c-1.831,1.336,1.69,3.45,1.69,4.788c0,3.45,2.463,6.125,2.463,6.125   L111.749,58.054z"
       id="path17" /><path
       d="M76.891,90.587l5.353-8.661l-1.619-1.62c-1.268,4.084-9.508,6.972-7.465-1.689c2.112-8.662,10.351-25.139,7.887-36.688   c-2.466-11.55-5-15.563-5.352-18.521c-0.423-3.309-4.578-8.238-5.001-6.197c0-2.041-1.196-11.548-4.507-10.703   c-4.366,0.986,1.198,9.084,1.621,11.125c-0.776,4.507-1.621,3.733,1.69,7.395c3.309,3.732,10.491,14.083,6.97,21.9   c-8.237,18.098-7.393,31.689-6.97,35.421C69.92,86.081,76.891,90.587,76.891,90.587z"
       id="path19" /><path
       d="M144.916,57.209c-0.986-11.55,7.041-13.732,15.914-16.689c14.225-4.789,10.281-11.76,11.338-15.704   c1.197-4.859,5.775-3.873,4.085,2.675c-1.621,6.619-5.563,9.93-12.747,13.662c-7.112,3.592-16.899,3.029-16.899,15.422   C146.606,58.266,144.916,57.209,144.916,57.209z"
       id="path21" /><path
       d="M150.269,56.364c2.465-3.731,8.661-5.985,10.14-4.929c1.762,1.267-1.691,3.45-1.691,4.718c0,3.521-2.463,6.197-2.463,6.197   L150.269,56.364z"
       id="path23" /><path
       d="M184.068,90.587l-5.352-8.661l1.689-1.62c1.197,4.084,9.436,6.972,7.396-1.689c-2.043-8.662-10.281-25.139-7.817-36.688   c2.467-11.55,4.93-15.563,5.352-18.521c0.423-3.309,4.506-8.238,4.929-6.197c0-2.041,1.268-11.548,4.578-10.703   c4.226,0.986-1.267,9.084-1.689,11.125c0.845,4.507,1.689,3.733-1.621,7.395c-3.309,3.732-10.561,14.083-7.041,21.9   c8.239,18.098,7.465,31.689,7.041,35.421C191.11,86.081,184.068,90.587,184.068,90.587z"
       id="path25" /><path
       d="M119.143,56.576c0-2.465,2.815-7.395,10.703-7.395c7.887,0,11.197,3.663,11.972,7.395H119.143z"
       id="path27" /><path
       fill="#A6A6A6"
       stroke="#000000"
       stroke-width="0"
       d="M107.807,59.884c2.463-2.041,4.998-3.097,5.561-3.097   c2.113,0,5.354,1.267,6.833,1.83c1.407,0.634,2.464,0.844,0.422,3.099c-2.112,2.253-16.69,18.379-17.958,19.576   c-1.268,1.269-5.139,0-9.505,2.113c-4.296,2.042-5.987,7.395-8.664,7.818h0.845c-3.52,0.985-7.604,0-7.392-2.254   c3.662-6.619,8.028-12.183,15.42-22.465c1.903-2.675,7.042-7.464,10.563,0.423C104.284,64.181,107.807,59.884,107.807,59.884z"
       id="path29" /><path
       d="M114.144,56.998c0.772,1.69,2.958,8.028,2.322,9.083l-3.871,3.874c-3.239-0.14-8.873-1.972-8.663-3.028   C104.494,62.351,109.919,56.576,114.144,56.998z"
       id="path31" /><radialGradient
       id="shell_1_"
       cx="127.9785"
       cy="208.5488"
       r="111.5194"
       fx="18.431"
       fy="229.4276"
       gradientTransform="matrix(-0.4797 0.8774 -0.8776 -0.4798 372.399 196.3179)"
       gradientUnits="userSpaceOnUse"><stop
         offset="0.154"
         style="stop-color:#FFAD00"
         id="stop33" /><stop
         offset="0.5052"
         style="stop-color:#A67803"
         id="stop35" /><stop
         offset="0.8453"
         style="stop-color:#554806"
         id="stop37" /><stop
         offset="1"
         style="stop-color:#353507"
         id="stop39" /></radialGradient><path
       id="shell"
       fill="url(#shell_1_)"
       d="M130.058,306.632c52.814-6.619,105.558-87.039,66.827-171.118   c-6.266-13.52-11.549-25.562-26.406-22.252c-14.86,3.311-30.492,2.465-45.349,2.465h3.308c-14.857,0-30.49,0.845-45.35-2.465   c-14.857-3.31-19.999,8.873-26.406,22.252c-40.42,84.079,20.631,172.316,66.403,171.118c4.93-2.887,3.734-10.35,3.734-10.35   S123.931,304.169,130.058,306.632z" /><path
       d="M48.864,223.327c-2.041,3.31-18.942,32.18-12.394,54.432c1.339,4.367,1.69,5.776-2.041,6.198   c-3.732,0.423-16.9,5.353-15.282,8.664c-6.125,2.886-15.632,10.702-4.506,14.787c-2.886-2.889,1.268-9.437,4.506-11.126   c2.113,4.998,5.775,1.689,8.241-2.468c4.507-7.533,10.351-10.702,14.857-10.279c4.578,0.422,4.437,0.845,2.888-5.776   c-6.197-25.982,4.999-46.193,4.999-46.193L48.864,223.327z"
       id="path43" /><path
       d="M203.927,223.327c2.043,3.31,18.943,32.18,12.325,54.432c-1.341,4.367-1.62,5.776,2.04,6.198   c3.732,0.423,16.973,5.353,15.282,8.664c6.195,2.886,15.702,10.702,4.507,14.787c2.887-2.889-1.198-9.437-4.507-11.126   c-2.043,4.998-5.774,1.689-8.24-2.468c-4.508-7.533-10.281-10.702-14.858-10.279c-4.506,0.422-4.437,0.845-2.889-5.776   c6.197-25.982-4.928-46.193-4.928-46.193L203.927,223.327z"
       id="path45" /><path
       d="M175.831,113.262c13.661-0.423,25.562,15.704,29.294,26.408c0,0,13.588,6.971,20.209,10.281   c5.211,2.605,10.281,3.731,12.747,1.267c2.536-2.465,6.619,4.085,5.773,9.859c11.196-8.663-2.887-14.437-12.323-17.323   c-10.773-3.31-19.998-5.493-28.027-20.563c-6.619-12.394-22.674-14.014-28.872-14.859l-0.421,0.422   c-17.325,5.774-82.883,3.24-95.277-0.845c-6.127,0.845-22.252,2.465-28.802,14.859c-8.097,15.07-17.322,17.323-28.096,20.563   c-9.436,2.886-23.451,8.661-12.324,17.322c-0.846-5.773,3.311-12.323,5.774-9.859c2.466,2.464,7.536,1.338,12.748-1.267   c6.618-3.311,20.208-10.281,20.208-10.281c3.733-10.704,15.705-26.831,29.294-26.409c6.551,1.69,38.309,3.311,48.238,2.466   C147.804,115.728,172.168,113.262,175.831,113.262z"
       id="path47" /><path
       fill="#A6A6A6"
       d="M156.678,58.617c-0.496-0.352-3.03-1.83-6.62-1.83c-2.114,0-5.352,1.267-6.761,1.83   c-1.479,0.634-2.467,0.844-0.423,3.099c2.042,2.253,16.688,18.379,17.956,19.576c1.198,1.269,5.143,0,9.437,2.113   c4.365,2.042,5.986,7.395,8.662,7.818h-0.775c3.45,0.985,7.605,0,7.396-2.254c-3.733-6.619-8.028-12.183-15.492-22.465   c-1.832-2.675-6.973-7.464-10.494,0.423C158.93,63.055,156.678,58.617,156.678,58.617z"
       id="path49" /><path
       d="M149.353,56.998c-0.846,1.69-2.958,8.028-2.394,9.083l3.944,3.874c3.167-0.14,8.73-1.902,8.659-3.028   C158.859,57.913,154.423,56.505,149.353,56.998z"
       id="path51" /><path
       d="M151.254,67.842c1.407,0,2.534-1.056,2.534-2.324c0-1.337-1.127-2.323-2.534-2.323c-1.549,0-2.677,0.985-2.677,2.323   C148.577,66.786,149.705,67.842,151.254,67.842z"
       id="path53" /><path
       d="M151.254,67.49c1.127,0,2.185-0.846,2.185-1.972s-1.058-1.972-2.185-1.972c-1.27,0-2.323,0.846-2.323,1.972   S149.984,67.49,151.254,67.49z"
       id="path55" /><path
       d="M151.254,67.208c0.985,0,1.83-0.705,1.83-1.69c0-0.915-0.845-1.689-1.83-1.689c-1.128,0-1.973,0.775-1.973,1.689   C149.281,66.503,150.126,67.208,151.254,67.208z"
       id="path57" /><path
       d="M151.254,66.927c0.845,0,1.549-0.634,1.549-1.409c0-0.774-0.704-1.409-1.549-1.409c-0.985,0-1.69,0.635-1.69,1.409   C149.563,66.293,150.269,66.927,151.254,66.927z"
       id="path59" /><path
       d="M151.254,66.716c0.703,0,1.339-0.494,1.339-1.198c0-0.705-0.636-1.196-1.339-1.196c-0.774,0-1.408,0.492-1.408,1.196   C149.846,66.222,150.479,66.716,151.254,66.716z"
       id="path61" /><path
       fill="none"
       stroke="#000000"
       stroke-width="0.071"
       d="M189.842,7.352c2.889-1.759,7.256-1.267,9.719,2.676"
       id="path63" /><path
       fill="none"
       stroke="#000000"
       stroke-width="0.071"
       d="M71.752,6.296c-2.958-1.76-7.254-1.267-9.719,2.676"
       id="path65" /><path
       d="M7.599,158.612c2.113,2.042,5.774,4.929,8.663,2.042"
       id="path67" /><path
       d="M247.587,156.993c-1.619,2.041-2.887,6.125-7.817,4.507"
       id="path69" /><path
       d="M234.419,307.408c2.886,0.844,8.237-0.423,8.66-2.467"
       id="path71" /><path
       d="M9.29,303.745c2.465,2.464,5.351,4.93,10.28,2.887"
       id="path73" /><path
       fill="#B2B2B2"
       d="M107.17,68.97c-1.898-0.846-5.42-3.311-8.027-0.776c-2.181,2.184-17.604,22.042-18.518,23.028   c-0.845,0.773,3.099,0.422,3.52,0.069c1.338-1.337,14.294-19.013,16.689-20.703C103.722,68.547,107.383,69.11,107.17,68.97z"
       id="path75" /><path
       fill="#BFBFBF"
       d="M105.552,68.335c-1.761-1.268-5.069-3.662-7.604-1.056c-2.254,2.183-18.45,22.041-18.872,23.308   c-0.213,0.635,2.958,1.198,3.098,1.057c1.196-1.62,14.999-20.352,17.393-22.042C102.454,67.561,105.692,68.406,105.552,68.335z"
       id="path77" /><path
       fill="#CCCCCC"
       d="M104.003,67.49c-1.057-2.042-4.929-4.084-7.535-1.55c-2.183,2.184-17.606,22.042-18.52,23.028   c-0.845,0.774,1.618,2.464,2.041,2.041c1.339-1.408,15.773-21.054,18.168-22.674C101.046,66.293,104.144,67.702,104.003,67.49z"
       id="path79" /><path
       fill="#D9D9D9"
       d="M77.948,88.968c3.662-6.619,8.028-12.183,15.42-22.465c1.903-2.675,7.042-7.464,10.563,0.423   c-1.899-1.479-4.366-1.901-7.674,0.563C92.242,70.519,79.989,91.009,77.948,88.968z"
       id="path81" /><path
       fill="#B2B2B2"
       d="M156.254,68.97c1.972-0.846,5.493-3.311,8.027-0.776c2.323,2.325,17.747,22.183,18.591,23.028   c0.773,0.773-3.099,0.422-3.52,0.069c-1.409-1.337-14.366-19.013-16.692-20.703C159.775,68.547,156.041,69.11,156.254,68.97z"
       id="path83" /><path
       fill="#BFBFBF"
       d="M157.944,68.476c1.759-1.196,5.07-3.59,7.676-0.985c2.182,2.112,18.448,22.042,18.871,23.238   c0.211,0.634-2.958,1.268-3.099,1.057c-1.268-1.549-15.069-20.281-17.465-21.97C161.043,67.771,157.731,68.616,157.944,68.476z"
       id="path85" /><path
       fill="#CCCCCC"
       d="M159.493,67.49c0.986-2.042,4.929-4.084,7.464-1.55c2.182,2.184,17.674,22.042,18.592,23.028   c0.772,0.774-1.62,2.464-2.043,2.041c-1.409-1.408-15.844-21.054-18.17-22.674C162.45,66.293,159.353,67.702,159.493,67.49z"
       id="path87" /><path
       fill="#D9D9D9"
       d="M185.549,88.968c-3.733-6.619-8.028-12.183-15.492-22.465c-1.832-2.675-5.987-7.464-10.494,0.423   c1.831-1.479,4.365-1.901,7.605,0.563C171.183,70.519,183.506,91.009,185.549,88.968z"
       id="path89" /><path
       fill="#111111"
       d="M143.297,112.135c7.183,0,13.097-5.634,13.097-12.535c0-6.971-5.914-12.534-13.097-12.534   c-7.254,0-13.17,5.563-13.17,12.534C130.127,106.501,136.043,112.135,143.297,112.135z"
       id="path91" /><path
       fill="#1A1A1A"
       d="M143.297,110.868c6.479,0,11.76-4.999,11.76-11.267c0-6.196-5.281-11.268-11.76-11.268   c-6.55,0-11.9,5.072-11.9,11.268C131.396,105.869,136.747,110.868,143.297,110.868z"
       id="path93" /><path
       fill="#333333"
       d="M143.297,109.741c5.774,0,10.632-4.506,10.632-10.141c0-5.633-4.857-10.14-10.632-10.14   c-5.914,0-10.705,4.507-10.705,10.14C132.592,105.235,137.383,109.741,143.297,109.741z"
       id="path95" /><path
       fill="#4D4D4D"
       d="M143.297,108.755c5.21,0,9.506-4.083,9.506-9.155c0-5.069-4.296-9.153-9.506-9.153   c-5.353,0-9.577,4.084-9.577,9.153C133.72,104.672,137.944,108.755,143.297,108.755z"
       id="path97" /><path
       fill="#666666"
       d="M143.297,107.77c4.718,0,8.592-3.591,8.592-8.169c0-4.507-3.874-8.238-8.592-8.238   c-4.789,0-8.591,3.731-8.591,8.238C134.706,104.179,138.508,107.77,143.297,107.77z"
       id="path99" /><path
       fill="#7F7F7F"
       d="M143.297,106.996c4.294,0,7.745-3.31,7.745-7.395c0-4.084-3.451-7.393-7.745-7.393   c-4.296,0-7.817,3.309-7.817,7.393C135.479,103.686,139.001,106.996,143.297,106.996z"
       id="path101" /><path
       fill="#999999"
       d="M143.297,106.291c3.802,0,6.972-3.028,6.972-6.69c0-3.731-3.17-6.689-6.972-6.689   c-3.875,0-7.042,2.958-7.042,6.689C136.255,103.263,139.422,106.291,143.297,106.291z"
       id="path103" /><path
       fill="#B2B2B2"
       d="M143.297,105.587c3.449,0,6.197-2.676,6.197-5.987c0-3.309-2.748-5.984-6.197-5.984   c-3.521,0-6.338,2.676-6.338,5.984C136.959,102.911,139.776,105.587,143.297,105.587z"
       id="path105" /><path
       fill="#CCCCCC"
       d="M143.297,104.953c3.098,0,5.634-2.323,5.634-5.352c0-2.958-2.536-5.421-5.634-5.421   c-3.17,0-5.705,2.464-5.705,5.421C137.592,102.63,140.127,104.953,143.297,104.953z"
       id="path107" /><path
       fill="#E5E5E5"
       d="M143.297,104.46c2.745,0,5.071-2.184,5.071-4.86c0-2.676-2.326-4.858-5.071-4.858   c-2.816,0-5.143,2.183-5.143,4.858C138.154,102.277,140.48,104.46,143.297,104.46z"
       id="path109" /><path
       fill="#F2F2F2"
       d="M143.297,103.967c2.535,0,4.507-1.9,4.507-4.366c0-2.395-1.972-4.366-4.507-4.366   c-2.534,0-4.578,1.971-4.578,4.366C138.719,102.066,140.763,103.967,143.297,103.967z"
       id="path111" /><path
       d="M96.258,225.087c10.28,0,18.658-8.38,18.658-18.659c0-10.282-8.378-18.732-18.658-18.732   c-10.282,0-18.663,8.45-18.663,18.732C77.595,216.707,85.976,225.087,96.258,225.087z"
       id="path113" /><path
       d="M60.836,202.063c6.409,0,11.62-9.155,11.62-20.354c0-11.266-5.211-20.422-11.62-20.422c-6.479,0-11.69,9.156-11.69,20.422   C49.146,192.907,54.356,202.063,60.836,202.063z"
       id="path115" /><path
       d="M93.44,277.973c6.479-4.225,7.394-14.156,2.181-22.253c-5.279-8.168-14.788-11.337-21.266-7.112   c-6.479,4.225-7.465,14.225-2.182,22.322C77.385,279.026,86.961,282.197,93.44,277.973z"
       id="path117" /><path
       d="M157.31,225.087c-10.351,0-18.661-8.38-18.661-18.659c0-10.282,8.311-18.732,18.661-18.732   c10.281,0,18.662,8.45,18.662,18.732C175.972,216.707,167.591,225.087,157.31,225.087z"
       id="path119" /><path
       d="M192.73,202.063c-6.409,0-11.688-9.155-11.688-20.354c0-11.266,5.279-20.422,11.688-20.422   c6.479,0,11.69,9.156,11.69,20.422C204.421,192.907,199.209,202.063,192.73,202.063z"
       id="path121" /><path
       d="M160.125,277.973c-6.478-4.225-7.464-14.156-2.181-22.253c5.21-8.168,14.789-11.337,21.267-7.112   c6.407,4.225,7.393,14.225,2.182,22.322C176.112,279.026,166.604,282.197,160.125,277.973z"
       id="path123" /><path
       d="M128.861,162.768c5.35-0.423,9.857-2.958,13.873-7.396c7.955-8.801,7.745-22.111-0.636-29.717   c-8.379-7.533-21.617-6.548-29.646,2.326c-7.959,8.802-7.745,22.111,0.633,29.716c4.156,3.731,8.663,5.493,14.015,5.071   c0.282-0.213,0.704-1.268,0.845-1.69C127.805,161.922,128.228,162.768,128.861,162.768z"
       id="path125" /><path
       fill="none"
       stroke="#000000"
       stroke-width="1.3385"
       d="M128.015,128.121c0,0-0.845,156.259-1.617,166.116"
       id="path127" /><path
       d="M130.482,125.233c1.616-2.958,2.884-4.929,3.942-7.253c1.055-2.253,1.478-2.465-1.833-2.465l-4.154,0.212l-4.152-0.212   c-3.382,0-2.89,0.212-1.832,2.465c1.056,2.324,2.253,4.295,3.944,7.253C127.945,127.909,129.564,127.276,130.482,125.233z"
       id="path129" /><path
       fill="#252525"
       d="M102.382,115.586c0,0,19.999,0.563,21.903-0.071c1.406-0.422-6.903,9.576-8.1,11.408   c-1.551,2.394-3.381,4.156-6.48-0.493C106.538,121.783,100.904,115.586,102.382,115.586z"
       id="path131" /><path
       fill="#404040"
       d="M104.003,116.432c0,0,17.042,0.422,18.661-0.071c1.267-0.422-5.845,8.169-6.903,9.718   c-1.335,2.042-2.884,3.451-5.491-0.424C107.594,121.643,102.806,116.432,104.003,116.432z"
       id="path133" /><path
       fill="#595959"
       d="M105.413,117.135c0,0,14.506,0.352,15.843-0.14c1.055-0.282-4.998,6.971-5.845,8.309   c-1.128,1.69-2.466,3.027-4.72-0.352C108.438,121.572,104.355,117.135,105.413,117.135z"
       id="path135" /><path
       fill="#737373"
       d="M106.606,117.699c0,0,12.326,0.351,13.452-0.071c0.986-0.21-4.225,5.916-5.001,7.042   c-0.914,1.48-2.041,2.535-3.943-0.351C109.214,121.502,105.762,117.699,106.606,117.699z"
       id="path137" /><path
       fill="#8C8C8C"
       d="M107.666,118.192c0,0,10.421,0.282,11.477,0c0.776-0.211-3.662,5-4.227,5.915   c-0.844,1.268-1.83,2.184-3.448-0.21C109.847,121.431,106.891,118.192,107.666,118.192z"
       id="path139" /><path
       fill="#A6A6A6"
       d="M108.511,118.614c0,0,8.871,0.282,9.786,0c0.636-0.21-3.098,4.225-3.591,5.07   c-0.775,1.057-1.548,1.831-2.888-0.21C110.41,121.36,107.874,118.614,108.511,118.614z"
       id="path141" /><path
       fill="#252525"
       d="M131.326,115.516c0,0,19.999,0.494,21.97-0.141c1.408-0.492-6.901,9.577-8.168,11.479   c-1.549,2.324-3.382,4.084-6.479-0.563C135.552,121.643,129.846,115.516,131.326,115.516z"
       id="path143" /><path
       fill="#404040"
       d="M133.017,116.291c0,0,17.041,0.422,18.658-0.071c1.269-0.352-5.843,8.099-6.9,9.717   c-1.336,2.044-2.887,3.521-5.492-0.491C136.606,121.502,131.817,116.291,133.017,116.291z"
       id="path145" /><path
       fill="#595959"
       d="M134.425,116.995c0,0,14.506,0.422,15.844-0.07c1.057-0.282-5,6.9-5.845,8.239   c-1.127,1.69-2.465,3.028-4.719-0.353C137.451,121.431,133.366,116.995,134.425,116.995z"
       id="path147" /><path
       fill="#737373"
       d="M135.62,117.628c0,0,12.323,0.282,13.451-0.07c0.913-0.353-4.226,5.845-5.001,6.972   c-0.915,1.479-2.041,2.535-3.943-0.282C138.228,121.36,134.774,117.628,135.62,117.628z"
       id="path149" /><path
       fill="#8C8C8C"
       d="M136.677,118.122c0,0,10.422,0.21,11.479-0.072c0.775-0.281-3.662,4.93-4.226,5.916   c-0.845,1.268-1.831,2.184-3.449-0.211C138.86,121.29,135.902,118.122,136.677,118.122z"
       id="path151" /><path
       fill="#A6A6A6"
       d="M137.592,118.544c0,0,8.803,0.21,9.719-0.07c0.633-0.211-3.099,4.225-3.591,5.07   c-0.775,1.058-1.549,1.831-2.89-0.211C139.422,121.221,136.888,118.544,137.592,118.544z"
       id="path153" /><path
       fill="none"
       stroke="#000000"
       stroke-width="0.071"
       d="M11.332,158.612c2.041,2.042,5.774,4.929,8.661,2.042"
       id="path155" /><path
       fill="none"
       stroke="#000000"
       stroke-width="0.071"
       d="M251.319,156.993c-1.69,2.041-2.889,6.125-7.818,4.507"
       id="path157" /><path
       fill="none"
       stroke="#000000"
       stroke-width="0.071"
       d="M238.081,307.408c2.887,0.844,8.309-0.423,8.661-2.467"
       id="path159" /><path
       fill="none"
       stroke="#000000"
       stroke-width="0.071"
       d="M13.022,303.745c2.463,2.464,5.352,4.93,10.281,2.887"
       id="path161" /><path
       fill="#252525"
       d="M130.482,306.632c36.686,3.24,109.71-77.108,66.402-171.118c-6.266-13.52-11.549-25.562-26.406-22.252   c15.702,1.267,41.548,47.815,35.491,95.629c-5.774,45.35-33.802,89.854-75.067,89.854   C122.664,298.745,130.482,306.632,130.482,306.632z"
       id="path163" /><path
       fill="#252525"
       d="M123.085,306.632c-36.686,3.24-109.712-77.108-66.403-171.118c6.198-13.52,11.549-25.562,26.406-22.252   c-15.703,1.267-41.547,47.815-35.491,95.629c5.774,45.35,33.873,89.854,75.067,89.854   C130.902,298.745,123.085,306.632,123.085,306.632z"
       id="path165" /><path
       fill="#FFFFFF"
       d="M78.581,114.107c-0.492,0.776-13.239-1.901-24.788,31.337c-2.323,6.479-1.196,10,2.466-0.845   C62.033,127.276,78.229,114.601,78.581,114.107z"
       id="path167" /></g><g
     filter="url(#AI_GaussianBlur_4)"
     id="g172"><circle
       fill="#F8FFB8"
       cx="169"
       cy="141"
       r="10"
       id="circle170" /></g></svg>