<svg id="Capa_1" enable-background="new 0 0 512 512" height="512" viewBox="0 0 512 512" width="512" xmlns="http://www.w3.org/2000/svg"><g><g><g><g><g><g><g><circle cx="256" cy="256" fill="#ffce00" r="256"/></g></g></g></g></g></g><path d="m512 256c0-7.153-.293-14.238-.869-21.242l-115.999-116.808-204.004 69.255-73.798 207.31 117.577 116.628c6.956.568 13.99.857 21.093.857 141.385 0 256-114.615 256-256z" fill="#ffa300"/><g><path d="m256 60c-108.248 0-196 87.752-196 196s87.752 196 196 196 196-87.752 196-196-87.752-196-196-196zm0 238.226c-23.321 0-42.226-18.905-42.226-42.226s18.905-42.226 42.226-42.226 42.226 18.905 42.226 42.226-18.905 42.226-42.226 42.226z" fill="#555a66"/></g><g><path d="m452 256c0-108.208-87.687-195.933-195.879-195.998v153.776c23.265.065 42.105 18.943 42.105 42.223s-18.841 42.157-42.105 42.223v153.776c108.192-.067 195.879-87.793 195.879-196z" fill="#333940"/></g><g><path d="m256 161.438c-52.225 0-94.562 42.337-94.562 94.562s42.337 94.562 94.562 94.562 94.562-42.337 94.562-94.562-42.337-94.562-94.562-94.562zm0 126.624c-17.708 0-32.062-14.355-32.062-32.062s14.354-32.062 32.062-32.062c17.707 0 32.062 14.355 32.062 32.062s-14.355 32.062-32.062 32.062z" fill="#ff73a5"/></g><g><path d="m350.562 256c0-52.185-42.272-94.495-94.441-94.561v62.502c17.651.065 31.941 14.392 31.941 32.059s-14.29 31.993-31.941 32.059v62.502c52.169-.066 94.441-42.376 94.441-94.561z" fill="#ff468c"/></g></g></svg>