<?xml version="1.0" encoding="UTF-8" standalone="no"?>
<!-- Created with Inkscape (http://www.inkscape.org/) -->

<svg
   xmlns:dc="http://purl.org/dc/elements/1.1/"
   xmlns:cc="http://creativecommons.org/ns#"
   xmlns:rdf="http://www.w3.org/1999/02/22-rdf-syntax-ns#"
   xmlns:svg="http://www.w3.org/2000/svg"
   xmlns="http://www.w3.org/2000/svg"
   xmlns:sodipodi="http://sodipodi.sourceforge.net/DTD/sodipodi-0.dtd"
   xmlns:inkscape="http://www.inkscape.org/namespaces/inkscape"
   version="1.1"
   id="svg3289"
   xml:space="preserve"
   width="800"
   height="800"
   viewBox="0 0 800 800"
   sodipodi:docname="sunbeams-green-yellow-svg.svg"
   inkscape:version="0.92.4 (5da689c313, 2019-01-14)"><metadata
     id="metadata3295"><rdf:RDF><cc:Work
         rdf:about=""><dc:format>image/svg+xml</dc:format><dc:type
           rdf:resource="http://purl.org/dc/dcmitype/StillImage" /><dc:title></dc:title></cc:Work></rdf:RDF></metadata><defs
     id="defs3293"><clipPath
       clipPathUnits="userSpaceOnUse"
       id="clipPath3305"><path
         d="M 0,600 H 600 V 0 H 0 Z"
         id="path3303"
         inkscape:connector-curvature="0" /></clipPath><linearGradient
       x1="0"
       y1="0"
       x2="1"
       y2="0"
       gradientUnits="userSpaceOnUse"
       gradientTransform="matrix(292.61133,0,0,-292.61133,307.74512,346.13672)"
       spreadMethod="pad"
       id="linearGradient3325"><stop
         style="stop-opacity:1;stop-color:#fff7a8"
         offset="0"
         id="stop3319" /><stop
         style="stop-opacity:1;stop-color:#fff100"
         offset="0.5"
         id="stop3321" /><stop
         style="stop-opacity:1;stop-color:#ffd700"
         offset="1"
         id="stop3323" /></linearGradient><linearGradient
       x1="0"
       y1="0"
       x2="1"
       y2="0"
       gradientUnits="userSpaceOnUse"
       gradientTransform="matrix(297.31348,0,0,-297.31348,303.04297,407.3291)"
       spreadMethod="pad"
       id="linearGradient3349"><stop
         style="stop-opacity:1;stop-color:#fff7a8"
         offset="0"
         id="stop3343" /><stop
         style="stop-opacity:1;stop-color:#fff100"
         offset="0.5"
         id="stop3345" /><stop
         style="stop-opacity:1;stop-color:#ffd700"
         offset="1"
         id="stop3347" /></linearGradient><linearGradient
       x1="0"
       y1="0"
       x2="1"
       y2="0"
       gradientUnits="userSpaceOnUse"
       gradientTransform="matrix(280.74561,0,0,-280.74561,285.0835,449.83984)"
       spreadMethod="pad"
       id="linearGradient3373"><stop
         style="stop-opacity:1;stop-color:#fff7a8"
         offset="0"
         id="stop3367" /><stop
         style="stop-opacity:1;stop-color:#fff100"
         offset="0.5"
         id="stop3369" /><stop
         style="stop-opacity:1;stop-color:#ffd700"
         offset="1"
         id="stop3371" /></linearGradient><linearGradient
       x1="0"
       y1="0"
       x2="1"
       y2="0"
       gradientUnits="userSpaceOnUse"
       gradientTransform="matrix(109.09424,0,0,-109.09424,249.65283,449.24512)"
       spreadMethod="pad"
       id="linearGradient3397"><stop
         style="stop-opacity:1;stop-color:#fff7a8"
         offset="0"
         id="stop3391" /><stop
         style="stop-opacity:1;stop-color:#fff100"
         offset="0.5"
         id="stop3393" /><stop
         style="stop-opacity:1;stop-color:#ffd700"
         offset="1"
         id="stop3395" /></linearGradient><linearGradient
       x1="0"
       y1="0"
       x2="1"
       y2="0"
       gradientUnits="userSpaceOnUse"
       gradientTransform="matrix(119.21875,0,0,-119.21875,180.03613,448.26855)"
       spreadMethod="pad"
       id="linearGradient3421"><stop
         style="stop-opacity:1;stop-color:#fff7a8"
         offset="0"
         id="stop3415" /><stop
         style="stop-opacity:1;stop-color:#fff100"
         offset="0.5"
         id="stop3417" /><stop
         style="stop-opacity:1;stop-color:#ffd700"
         offset="1"
         id="stop3419" /></linearGradient><linearGradient
       x1="0"
       y1="0"
       x2="1"
       y2="0"
       gradientUnits="userSpaceOnUse"
       gradientTransform="matrix(260.11035,0,0,-260.11035,38.558594,444.85645)"
       spreadMethod="pad"
       id="linearGradient3445"><stop
         style="stop-opacity:1;stop-color:#fff7a8"
         offset="0"
         id="stop3439" /><stop
         style="stop-opacity:1;stop-color:#fff100"
         offset="0.5"
         id="stop3441" /><stop
         style="stop-opacity:1;stop-color:#ffd700"
         offset="1"
         id="stop3443" /></linearGradient><linearGradient
       x1="0"
       y1="0"
       x2="1"
       y2="0"
       gradientUnits="userSpaceOnUse"
       gradientTransform="matrix(298.271,0,0,-298.271,0.8022461,375.34961)"
       spreadMethod="pad"
       id="linearGradient3469"><stop
         style="stop-opacity:1;stop-color:#fff7a8"
         offset="0"
         id="stop3463" /><stop
         style="stop-opacity:1;stop-color:#fff100"
         offset="0.5"
         id="stop3465" /><stop
         style="stop-opacity:1;stop-color:#ffd700"
         offset="1"
         id="stop3467" /></linearGradient><linearGradient
       x1="0"
       y1="0"
       x2="1"
       y2="0"
       gradientUnits="userSpaceOnUse"
       gradientTransform="matrix(299.59814,0,0,-299.59814,0.8022461,271.61719)"
       spreadMethod="pad"
       id="linearGradient3493"><stop
         style="stop-opacity:1;stop-color:#fff7a8"
         offset="0"
         id="stop3487" /><stop
         style="stop-opacity:1;stop-color:#fff100"
         offset="0.5"
         id="stop3489" /><stop
         style="stop-opacity:1;stop-color:#ffd700"
         offset="1"
         id="stop3491" /></linearGradient><linearGradient
       x1="0"
       y1="0"
       x2="1"
       y2="0"
       gradientUnits="userSpaceOnUse"
       gradientTransform="matrix(301.63428,0,0,-301.63428,0.8022461,215.77148)"
       spreadMethod="pad"
       id="linearGradient3517"><stop
         style="stop-opacity:1;stop-color:#fff7a8"
         offset="0"
         id="stop3511" /><stop
         style="stop-opacity:1;stop-color:#fff100"
         offset="0.5"
         id="stop3513" /><stop
         style="stop-opacity:1;stop-color:#ffd700"
         offset="1"
         id="stop3515" /></linearGradient><linearGradient
       x1="0"
       y1="0"
       x2="1"
       y2="0"
       gradientUnits="userSpaceOnUse"
       gradientTransform="matrix(310.34131,0,0,-310.34131,0.8022461,143.2998)"
       spreadMethod="pad"
       id="linearGradient3541"><stop
         style="stop-opacity:1;stop-color:#fff7a8"
         offset="0"
         id="stop3535" /><stop
         style="stop-opacity:1;stop-color:#fff100"
         offset="0.5"
         id="stop3537" /><stop
         style="stop-opacity:1;stop-color:#ffd700"
         offset="1"
         id="stop3539" /></linearGradient><linearGradient
       x1="0"
       y1="0"
       x2="1"
       y2="0"
       gradientUnits="userSpaceOnUse"
       gradientTransform="matrix(163.9126,0,0,-163.9126,171.14209,143.61328)"
       spreadMethod="pad"
       id="linearGradient3565"><stop
         style="stop-opacity:1;stop-color:#fff7a8"
         offset="0"
         id="stop3559" /><stop
         style="stop-opacity:1;stop-color:#fff100"
         offset="0.5"
         id="stop3561" /><stop
         style="stop-opacity:1;stop-color:#ffd700"
         offset="1"
         id="stop3563" /></linearGradient><linearGradient
       x1="0"
       y1="0"
       x2="1"
       y2="0"
       gradientUnits="userSpaceOnUse"
       gradientTransform="matrix(73.021484,0,0,-73.021484,309.14551,144.38574)"
       spreadMethod="pad"
       id="linearGradient3589"><stop
         style="stop-opacity:1;stop-color:#fff7a8"
         offset="0"
         id="stop3583" /><stop
         style="stop-opacity:1;stop-color:#fff100"
         offset="0.5"
         id="stop3585" /><stop
         style="stop-opacity:1;stop-color:#ffd700"
         offset="1"
         id="stop3587" /></linearGradient><linearGradient
       x1="0"
       y1="0"
       x2="1"
       y2="0"
       gradientUnits="userSpaceOnUse"
       gradientTransform="matrix(174.61914,0,0,-174.61914,310.28418,145.65137)"
       spreadMethod="pad"
       id="linearGradient3613"><stop
         style="stop-opacity:1;stop-color:#fff7a8"
         offset="0"
         id="stop3607" /><stop
         style="stop-opacity:1;stop-color:#fff100"
         offset="0.5"
         id="stop3609" /><stop
         style="stop-opacity:1;stop-color:#ffd700"
         offset="1"
         id="stop3611" /></linearGradient><linearGradient
       x1="0"
       y1="0"
       x2="1"
       y2="0"
       gradientUnits="userSpaceOnUse"
       gradientTransform="matrix(289.93359,0,0,-289.93359,310.42285,152.20996)"
       spreadMethod="pad"
       id="linearGradient3637"><stop
         style="stop-opacity:1;stop-color:#fff7a8"
         offset="0"
         id="stop3631" /><stop
         style="stop-opacity:1;stop-color:#fff100"
         offset="0.5"
         id="stop3633" /><stop
         style="stop-opacity:1;stop-color:#ffd700"
         offset="1"
         id="stop3635" /></linearGradient><linearGradient
       x1="0"
       y1="0"
       x2="1"
       y2="0"
       gradientUnits="userSpaceOnUse"
       gradientTransform="matrix(290.83105,0,0,-290.83105,309.52539,269.55762)"
       spreadMethod="pad"
       id="linearGradient3661"><stop
         style="stop-opacity:1;stop-color:#fff7a8"
         offset="0"
         id="stop3655" /><stop
         style="stop-opacity:1;stop-color:#fff100"
         offset="0.5"
         id="stop3657" /><stop
         style="stop-opacity:1;stop-color:#ffd700"
         offset="1"
         id="stop3659" /></linearGradient></defs><sodipodi:namedview
     pagecolor="#ffffff"
     bordercolor="#666666"
     borderopacity="1"
     objecttolerance="10"
     gridtolerance="10"
     guidetolerance="10"
     inkscape:pageopacity="0"
     inkscape:pageshadow="2"
     inkscape:window-width="1920"
     inkscape:window-height="1018"
     id="namedview3291"
     showgrid="false"
     inkscape:zoom="0.91406934"
     inkscape:cx="411.86441"
     inkscape:cy="406.77966"
     inkscape:window-x="-8"
     inkscape:window-y="-8"
     inkscape:window-maximized="1"
     inkscape:current-layer="g3297" /><g
     id="g3297"
     inkscape:groupmode="layer"
     inkscape:label="radial-15-publicdomainvectors.org [Converted]"
     transform="matrix(1.3333333,0,0,-1.3333333,0,800)"><g
       id="g3299"><g
         id="g3301"
         clip-path="url(#clipPath3305)"><g
           id="g3307"><g
             id="g3309"><g
               id="g3315"><g
                 id="g3317"><path
                   d="m 600.356,336.94 c -24.202,7.497 -48.817,14.41 -74.031,20.06 -83.439,18.677 -192.144,11.729 -218.58,-58.127 13.817,72.648 118.608,98.264 203.391,94.096 30.218,-1.501 59.923,-4.895 89.22,-9.037 z"
                   style="fill:url(#linearGradient3325);stroke:none"
                   id="path3327"
                   inkscape:connector-curvature="0" /></g></g></g></g><path
           d="m 600.356,396.772 c -30.324,3.056 -61.051,5.358 -92.249,5.665 -85.567,0.812 -190.566,-29.009 -201.489,-103.004 -2.014,74.06 95.28,121.309 179.141,134.976 38.473,6.255 76.768,9.234 114.597,11.389 z"
           style="fill:#22b573;fill-opacity:1;fill-rule:nonzero;stroke:none"
           id="path3329"
           inkscape:connector-curvature="0" /><g
           id="g3331"><g
             id="g3333"><g
               id="g3339"><g
                 id="g3341"><path
                   d="m 600.356,459.635 c -39.478,-3.843 -79.465,-8.455 -119.529,-16.606 -83.924,-17.126 -180.513,-68.515 -175.428,-143.29 -17.712,72.12 67.683,138.955 146.929,169.865 49.068,19.114 99.06,32.301 148.028,45.314 z"
                   style="fill:url(#linearGradient3349);stroke:none"
                   id="path3351"
                   inkscape:connector-curvature="0" /></g></g></g></g><path
           d="M 600.356,531.056 C 549.267,515.105 496.87,499.31 445.72,476.999 367.129,442.698 283.312,371.968 304.146,299.779 c -32.604,66.953 37.066,150.416 108.201,197.243 61.302,40.33 126.777,69.728 188.009,102.34 z"
           style="fill:#22b573;fill-opacity:1;fill-rule:nonzero;stroke:none"
           id="path3353"
           inkscape:connector-curvature="0" /><g
           id="g3355"><g
             id="g3357"><g
               id="g3363"><g
                 id="g3365"><path
                   d="M 565.829,600.127 C 512.554,569.735 456.741,540.384 404.356,502.875 334.565,452.872 267.28,365.944 302.917,299.552 c -46.035,58.828 4.791,155.235 64.676,215.942 30.41,30.812 63.036,58.196 95.58,84.633 z"
                   style="fill:url(#linearGradient3373);stroke:none"
                   id="path3375"
                   inkscape:connector-curvature="0" /></g></g></g></g><path
           d="M 441.71,600.127 C 413.293,574.8 385,548.524 358.575,519.555 300.667,456.021 252.94,356.773 301.767,299.071 c -57.431,48.141 -27.709,153.235 18.275,225.177 16.998,26.582 35.528,51.623 54.52,75.879 z"
           style="fill:#22b573;fill-opacity:1;fill-rule:nonzero;stroke:none"
           id="path3377"
           inkscape:connector-curvature="0" /><g
           id="g3379"><g
             id="g3381"><g
               id="g3387"><g
                 id="g3389"><path
                   d="m 358.747,600.127 c -16.89,-23.689 -33.309,-48.086 -48.355,-73.779 -43.446,-74.303 -69.547,-181.485 -9.645,-227.985 -66.32,35.408 -59.028,144.547 -28.974,224.578 9.979,26.565 21.422,52.169 33.457,77.186 z"
                   style="fill:url(#linearGradient3397);stroke:none"
                   id="path3399"
                   inkscape:connector-curvature="0" /></g></g></g></g><path
           d="m 291.647,600.127 c -10.776,-25.058 -20.965,-50.662 -29.738,-77.129 -27.074,-81.812 -30.403,-192.223 37.989,-225.536 -72.37,21.199 -87.771,129.58 -75.017,214.207 4.566,30.144 11.004,59.554 18.167,88.458 z"
           style="fill:#22b573;fill-opacity:1;fill-rule:nonzero;stroke:none"
           id="path3401"
           inkscape:connector-curvature="0" /><g
           id="g3403"><g
             id="g3405"><g
               id="g3411"><g
                 id="g3413"><path
                   d="m 230.06,600.127 c -6.069,-29.593 -11.409,-59.677 -14.83,-90.439 -9.513,-85.741 10.062,-194.532 84.025,-213.278 -75.371,6.123 -112.79,109.029 -117.869,194.544 -2.165,36.887 -1.428,73.286 0.132,109.173 z"
                   style="fill:url(#linearGradient3421);stroke:none"
                   id="path3423"
                   inkscape:connector-curvature="0" /></g></g></g></g><path
           d="m 168.046,600.127 c -0.126,-37.212 0.549,-74.952 4.315,-113.104 8.501,-85.924 50.051,-188.394 126.48,-191.77 -75.232,-9.248 -132.991,83.79 -155.691,166.46 -12.681,46.268 -20.437,92.736 -27.676,138.414 z"
           style="fill:#22b573;fill-opacity:1;fill-rule:nonzero;stroke:none"
           id="path3425"
           inkscape:connector-curvature="0" /><g
           id="g3427"><g
             id="g3429"><g
               id="g3435"><g
                 id="g3437"><path
                   d="m 100.416,600.127 c 9.574,-47.55 19.475,-96.034 34.721,-144.12 C 161.274,373.651 222.968,281.881 298.669,294.038 226.713,269.781 151.166,349.012 111.805,425.222 82.074,482.871 61.04,542.72 38.559,600.127 Z"
                   style="fill:url(#linearGradient3445);stroke:none"
                   id="path3447"
                   inkscape:connector-curvature="0" /></g></g></g></g><path
           d="M 20.106,600.127 C 46.745,540.618 71.189,477.933 105.146,417.988 147.808,342.806 226.905,265.669 298.747,292.816 233.038,254.571 142.969,316.616 88.686,383.057 55.773,423.376 28.019,466.218 0.802,508.161 v 91.966 z"
           style="fill:#22b573;fill-opacity:1;fill-rule:nonzero;stroke:none"
           id="path3449"
           inkscape:connector-curvature="0" /><g
           id="g3451"><g
             id="g3453"><g
               id="g3459"><g
                 id="g3461"><path
                   d="M 0.802,481.827 C 26.574,445.66 53.181,409.104 83.666,374.604 140.965,309.857 234.075,250.572 299.073,291.638 242.341,240.954 141.631,283.253 74.778,337.028 48.583,358.115 24.266,380.666 0.802,403.524 Z"
                   style="fill:url(#linearGradient3469);stroke:none"
                   id="path3471"
                   inkscape:connector-curvature="0" /></g></g></g></g><path
           d="M 0.802,385.982 C 23.386,365.906 46.739,346.178 71.612,327.72 141.049,276.212 244.183,237.24 299.632,290.552 254.241,229.507 147.191,250.336 70.68,289.109 46.531,301.365 23.371,314.791 0.802,328.688 Z"
           style="fill:#22b573;fill-opacity:1;fill-rule:nonzero;stroke:none"
           id="path3473"
           inkscape:connector-curvature="0" /><g
           id="g3475"><g
             id="g3477"><g
               id="g3483"><g
                 id="g3485"><path
                   d="M 0.802,314.555 C 23.061,302.149 45.855,290.205 69.507,279.344 148.069,243.319 256.791,226.257 300.4,289.604 268.256,220.717 159.405,219.231 76.578,241.356 50.692,248.282 25.512,256.519 0.802,265.325 Z"
                   style="fill:url(#linearGradient3493);stroke:none"
                   id="path3495"
                   inkscape:connector-curvature="0" /></g></g></g></g><path
           d="m 0.802,252.438 c 25.037,-7.777 50.52,-14.982 76.65,-20.885 84.266,-18.995 193.984,-13.502 223.897,57.281 -17.543,-73.863 -123.563,-97.536 -209.112,-93.01 -30.999,1.654 -61.438,5.209 -91.435,9.472 z"
           style="fill:#22b573;fill-opacity:1;fill-rule:nonzero;stroke:none"
           id="path3497"
           inkscape:connector-curvature="0" /><g
           id="g3499"><g
             id="g3501"><g
               id="g3507"><g
                 id="g3509"><path
                   d="m 0.802,192.427 c 30.978,-3.141 62.394,-5.576 94.324,-6.022 86.306,-1.167 192.357,26.607 207.311,101.871 C 300.28,212.531 201.561,167.737 117.005,154.48 77.931,148.373 39.106,145.456 0.802,143.266 Z"
                   style="fill:url(#linearGradient3517);stroke:none"
                   id="path3519"
                   inkscape:connector-curvature="0" /></g></g></g></g><path
           d="m 0.802,129.386 c 39.899,3.903 80.366,8.471 120.988,16.47 84.599,16.7 182.485,65.516 181.828,142.099 C 316.94,213.541 229.735,149.56 149.837,119.127 100.283,100.28 49.981,87.107 0.802,73.941 Z"
           style="fill:#22b573;fill-opacity:1;fill-rule:nonzero;stroke:none"
           id="path3521"
           inkscape:connector-curvature="0" /><g
           id="g3523"><g
             id="g3525"><g
               id="g3531"><g
                 id="g3533"><path
                   d="m 0.802,-1.285 v 59.031 c 51.24,16.129 103.89,31.934 155.516,53.93 79.226,33.806 164.818,101.566 148.527,176.209 C 333.129,218.003 261.108,137.595 189.338,91.319 133.548,55.393 74.771,27.897 18.901,-1.285 Z"
                   style="fill:url(#linearGradient3541);stroke:none"
                   id="path3543"
                   inkscape:connector-curvature="0" /></g></g></g></g><path
           d="m 53.418,-1.285 c 47.674,26.973 96.936,53.78 143.82,86.657 70.421,49.424 140.054,133.209 108.824,202.7 C 348.086,225.757 294.365,132.36 233.812,72.298 207.133,45.857 178.959,21.854 150.717,-1.285 Z"
           style="fill:#22b573;fill-opacity:1;fill-rule:nonzero;stroke:none"
           id="path3545"
           inkscape:connector-curvature="0" /><g
           id="g3547"><g
             id="g3549"><g
               id="g3555"><g
                 id="g3557"><path
                   d="m 171.142,-1.285 c 24.419,21.973 48.651,44.75 71.646,69.405 58.578,62.867 109.271,159.083 64.43,220.391 C 361.149,236.502 328.034,134.164 281.329,62.928 266.69,40.628 251.058,19.372 235.051,-1.285 Z"
                   style="fill:url(#linearGradient3565);stroke:none"
                   id="path3567"
                   inkscape:connector-curvature="0" /></g></g></g></g><path
           d="m 250.229,-1.285 c 14.133,20.021 27.892,40.573 40.764,61.995 44.195,73.569 73.761,178.06 17.268,228.471 C 371.728,249.81 360.663,142.949 329.819,63.657 321.161,41.433 311.551,19.858 301.487,-1.285 Z"
           style="fill:#22b573;fill-opacity:1;fill-rule:nonzero;stroke:none"
           id="path3569"
           inkscape:connector-curvature="0" /><g
           id="g3571"><g
             id="g3573"><g
               id="g3579"><g
                 id="g3581"><path
                   d="m 314.597,-1.285 c 8.988,21.138 17.528,42.673 25.148,64.791 27.914,81.05 35.024,189.264 -30.599,226.551 C 379.282,265.054 390.798,158.373 377.147,74.491 372.94,48.759 367.455,23.548 361.39,-1.285 Z"
                   style="fill:url(#linearGradient3589);stroke:none"
                   id="path3591"
                   inkscape:connector-curvature="0" /></g></g></g></g><path
           d="m 373.955,-1.285 c 5.145,25.496 9.703,51.356 12.942,77.705 10.428,84.994 -5.248,192.212 -77.068,214.683 73.648,-9.495 107.309,-111.311 111.391,-196.117 1.554,-32.47 0.983,-64.563 -0.323,-96.271 z"
           style="fill:#22b573;fill-opacity:1;fill-rule:nonzero;stroke:none"
           id="path3593"
           inkscape:connector-curvature="0" /><g
           id="g3595"><g
             id="g3597"><g
               id="g3603"><g
                 id="g3605"><path
                   d="m 433.964,-1.285 c 0.043,33.027 -0.644,66.45 -3.606,100.198 -7.518,85.223 -45.316,186.732 -120.074,193.358 73.802,6.429 128.106,-85.993 149.787,-168.013 11.056,-41.945 18.254,-84.029 24.832,-125.543 z"
                   style="fill:url(#linearGradient3613);stroke:none"
                   id="path3615"
                   inkscape:connector-curvature="0" /></g></g></g></g><path
           d="m 499.559,-1.285 c -8.711,43.418 -17.922,87.509 -31.366,131.301 -25.112,81.72 -83.43,172.971 -157.709,163.495 70.583,22.043 143.198,-56.826 181.484,-132.482 27.058,-53.485 46.904,-108.8 67.548,-162.314 z"
           style="fill:#22b573;fill-opacity:1;fill-rule:nonzero;stroke:none"
           id="path3617"
           inkscape:connector-curvature="0" /><g
           id="g3619"><g
             id="g3621"><g
               id="g3627"><g
                 id="g3629"><path
                   d="m 600.356,-1.285 h -22.954 c -24.514,55.725 -47.63,113.836 -78.694,169.646 -41.583,74.652 -117.898,151.563 -188.285,126.407 64.12,36.638 151.811,-25.135 205.053,-91.094 31.628,-39.213 58.515,-80.777 84.88,-121.577 z"
                   style="fill:url(#linearGradient3637);stroke:none"
                   id="path3639"
                   inkscape:connector-curvature="0" /></g></g></g></g><path
           d="m 600.356,108.377 c -24.895,35.065 -50.582,70.429 -79.823,103.879 -56.245,64.304 -147.164,123.363 -210.434,83.729 54.735,49.506 153.599,7.691 219.445,-45.686 25.005,-20.282 48.306,-41.921 70.812,-63.886 z"
           style="fill:#22b573;fill-opacity:1;fill-rule:nonzero;stroke:none"
           id="path3641"
           inkscape:connector-curvature="0" /><g
           id="g3643"><g
             id="g3645"><g
               id="g3651"><g
                 id="g3653"><path
                   d="m 600.356,203.889 c -21.624,19.248 -43.956,38.139 -67.662,55.86 -68.45,51.121 -169.918,89.634 -223.169,37.36 42.837,60.099 148.449,40.149 224.021,1.718 23.052,-11.734 45.204,-24.564 66.81,-37.866 z"
                   style="fill:url(#linearGradient3661);stroke:none"
                   id="path3663"
                   inkscape:connector-curvature="0" /></g></g></g></g><path
           d="m 600.356,275.044 c -21.312,11.873 -43.119,23.284 -65.706,33.679 -77.645,35.696 -185.153,51.876 -225.921,-10.636 28.979,67.93 136.605,70.799 218.584,49.012 24.926,-6.636 49.204,-14.533 73.043,-23.011 z"
           style="fill:#22b573;fill-opacity:1;fill-rule:nonzero;stroke:none"
           id="path3665"
           inkscape:connector-curvature="0" /></g></g></g></svg>