<svg height="512" viewBox="0 0 58 58" width="512" xmlns="http://www.w3.org/2000/svg"><g id="Page-1" fill="none" fill-rule="evenodd"><g id="022---Phone-and-Email"><path id="Path" d="m49.17 27.37-16.72 14.54-1.48 1.29c-1.1305856.9798138-2.8094144.9798138-3.94 0l-1.48-1.29-16.72-14.54c.68029674-.8647981 1.7196913-1.3697521 2.82-1.37h34.7c1.1003087.0002479 2.1397033.5052019 2.82 1.37z" fill="#f3d55b"/><path id="Path" d="m25.55 41.91-16.8 14.61c-.48975663-.6590143-.75288737-1.4589318-.75-2.28v-24.48c-.00388476-.8679916.28896208-1.7112494.83-2.39z" fill="#f0c419"/><path id="Path" d="m50 29.76v24.48c.0028874.8210682-.2602434 1.6209857-.75 2.28l-16.8-14.61 16.72-14.54c.5410379.6787506.8338848 1.5220084.83 2.39z" fill="#f0c419"/><path id="Path" d="m49.25 56.52c-.6738776.9292787-1.752102 1.479545-2.9 1.48h-34.7c-1.147898-.000455-2.22612243-.5507213-2.9-1.48l16.8-14.61 1.48 1.29c1.1305856.9798138 2.8094144.9798138 3.94 0l1.48-1.29z" fill="#f29c1f"/><path id="Path" d="m58 16v3c0 1.6568542-1.3431458 3-3 3h-12c-1.6568542 0-3-1.3431458-3-3v-3z" fill="#24ae5f"/><path id="Path" d="m58 11v5h-18v-3.28c-.0001509-.9962762-.7335356-1.8405213-1.72-1.98-3.0748937-.4397783-6.1742699-.6869268-9.28-.74-3.1057301.0530732-6.2051063.3002217-9.28.74-.9864644.1394787-1.7198491.9837238-1.72 1.98v3.28h-18v-5c0-8 13-11 29-11s29 3 29 11z" fill="#4fba6f"/><path id="Path" d="m18 16v3c0 1.6568542-1.3431458 3-3 3h-12c-1.65685425 0-3-1.3431458-3-3v-3z" fill="#24ae5f"/></g></g></svg>