<svg id="Icons" enable-background="new 0 0 512 512" height="512" viewBox="0 0 512 512" width="512" xmlns="http://www.w3.org/2000/svg"><g><circle cx="256" cy="256" fill="#f39e22" r="256"/><g><g><path d="m458.88 409.72v2.42c-8.71 11.31-18.35 21.87-28.8 31.57-26.21 24.31-57.53 43.21-92.16 54.9v-88.89c0-24.86 20.14-45.02 45.01-45.02h30.94c24.87 0 45.01 20.16 45.01 45.02z" fill="#dd5e26"/><path d="m430.08 409.72v33.99c-26.21 24.31-57.53 43.21-92.16 54.9v-88.89c0-24.86 20.14-45.02 45.01-45.02h2.13c24.87 0 45.02 20.16 45.02 45.02z" fill="#ea792e"/></g><g><path d="m378.415 345.799v21.707c0 11.04 8.954 19.98 19.994 19.98 3.703 0 7.171-1.009 10.142-2.763 5.886-3.468 9.838-9.879 9.838-17.216v-21.707h-39.974z" fill="#f5b890"/><path d="m418.388 345.799v21.707c0 7.337-3.952 13.748-9.838 17.216v-23.199c-6.95 2.902-14.591 4.504-22.605 4.504-2.556 0-5.071-.166-7.531-.47v-19.759h39.974z" fill="#d48d77"/></g><g><g><g><path d="m454.656 280.606h-9.911v-31.015h9.911c8.565 0 15.507 6.943 15.507 15.507.001 8.565-6.942 15.508-15.507 15.508z" fill="#d48d77"/><path d="m455.157 271.753h-10.412v-13.309h10.412c3.675 0 6.654 2.979 6.654 6.654 0 3.675-2.979 6.655-6.654 6.655z" fill="#c17e62"/></g><g><path d="m322.801 249.591h4.341v31.015h-4.341c-8.565 0-15.507-6.943-15.507-15.507-.001-8.565 6.942-15.508 15.507-15.508z" fill="#d48d77"/><path d="m322.3 258.444h4.841v13.309h-4.841c-3.675 0-6.654-2.979-6.654-6.654 0-3.676 2.979-6.655 6.654-6.655z" fill="#c17e62"/></g></g><path d="m338.562 249.591v10c-12.671 0-22.942-10.272-22.942-22.942v-46.626h22.942z" fill="#b26e2b"/><g><path d="m327.14 215.074v81.687c0 16.235 6.577 30.937 17.216 41.576 7.682 7.669 17.465 13.223 28.408 15.738 4.242.967 8.65 1.478 13.182 1.478 32.47 0 58.806-26.322 58.806-58.792v-81.687c0-17.797-14.439-32.222-32.235-32.222h-53.155c-3.122 0-6.135.442-8.995 1.285-13.417 3.883-23.227 16.264-23.227 30.937z" fill="#d48d77"/><path d="m327.14 215.074v81.687c0 16.235 6.577 30.937 17.216 41.576 7.682 7.669 17.465 13.223 28.408 15.738 26.142-5.983 45.624-29.375 45.624-57.314v-31.254c0-40.664-29.348-74.461-68.022-81.369-13.416 3.882-23.226 16.263-23.226 30.936z" fill="#f5b890"/><g fill="#eea47d"><path d="m369.316 269.205h11.988c4.924 0 8.915 3.991 8.915 8.915 0 4.924-3.991 8.915-8.915 8.915h-11.988c-4.924 0-8.915-3.991-8.915-8.915 0-4.923 3.992-8.915 8.915-8.915z"/><path d="m370.904 182.851h15.039v92.405h-15.039z" transform="matrix(-1 0 0 -1 756.847 458.108)"/></g><g fill="#334353"><path d="m401.902 234.334c4.499 0 8.147 3.648 8.147 8.147v14.22c0 4.499-3.648 8.147-8.147 8.147-4.499 0-8.147-3.648-8.147-8.147v-14.22c0-4.5 3.647-8.147 8.147-8.147z"/><path d="m354.945 234.334c4.499 0 8.147 3.648 8.147 8.147v14.22c0 4.499-3.648 8.147-8.147 8.147-4.499 0-8.147-3.648-8.147-8.147v-14.22c0-4.5 3.648-8.147 8.147-8.147z"/></g><g><path d="m383.814 319.892c14.114 0 25.596-11.482 25.596-25.596 0-2.671-2.165-4.836-4.836-4.836s-4.836 2.165-4.836 4.836c0 8.78-7.143 15.923-15.924 15.923-2.671 0-4.836 2.165-4.836 4.836 0 2.672 2.165 4.837 4.836 4.837z" fill="#c17e62"/></g></g><g><path d="m444.745 280.606h9.912c1.733 0 3.394-.297 4.95-.821v4.134c0 8.224-6.667 14.89-14.89 14.89z" fill="#b26e2b"/><path d="m444.745 249.554h9.911c1.65 0 3.209.327 4.7.804l.249.013v-40.576c0-18.828-15.263-34.091-34.091-34.091h-39.57v8.515c0 11.112 9.008 20.121 20.121 20.121 6.805 0 12.322 5.517 12.322 12.322v7.233c0 14.171 11.488 25.659 25.659 25.659l.698.037v-.037z" fill="#b26e2b"/><path d="m323.937 204.34h84.552c7.908 0 14.318-6.41 14.318-14.318 0-7.908-6.41-14.318-14.318-14.318h-84.552c-7.908 0-14.318 6.41-14.318 14.318 0 7.908 6.411 14.318 14.318 14.318z" fill="#dd8c29"/></g></g><g><g><g><path d="m473.573 223.74v32.772c0 3.688-2.986 6.665-6.665 6.665s-6.665-2.977-6.665-6.665v-32.772c0-18.572-7.669-35.394-20.003-47.443-11.979-11.739-28.373-18.972-46.412-18.972-5.145 0-10.29.595-15.284 1.768-11.73 2.764-22.491 8.7-31.155 17.186-.178.16-.347.328-.524.506-12.538 12.538-19.452 29.218-19.452 46.954v32.772c0 3.688-2.986 6.665-6.665 6.665s-6.665-2.977-6.665-6.665v-32.771c0-20.038 7.349-38.948 20.767-53.663.844-.924 1.706-1.831 2.595-2.719 10.504-10.504 23.655-17.853 38.051-21.247 5.998-1.404 12.165-2.115 18.332-2.115 23.326 0 44.351 10.068 58.951 26.099 12.912 14.164 20.794 33.002 20.794 53.645z" fill="#e9465e"/></g><path d="m452.779 170.094c-4.034 2.301-8.22 4.381-12.538 6.203-11.979-11.739-28.373-18.972-46.412-18.972-5.145 0-10.29.595-15.284 1.768-11.73 2.764-22.491 8.7-31.155 17.186-4.319-1.822-8.504-3.892-12.538-6.203.844-.924 1.706-1.831 2.595-2.719 10.504-10.504 23.655-17.853 38.051-21.247 5.998-1.404 12.165-2.115 18.332-2.115 23.324 0 44.349 10.069 58.949 26.099z" fill="#ee6781"/></g><g><g><path d="m494.02 276.799c0 5.181-1.28 10.059-3.546 14.342-5.154 9.766-15.408 16.422-27.218 16.422h-8.628c-5.474 0-9.917-4.443-9.917-9.917v-41.694c0-5.474 4.443-9.917 9.917-9.917h8.628c3.617 0 7.091.622 10.317 1.777 4.345 1.537 8.237 4.034 11.436 7.233 5.572 5.572 9.011 13.259 9.011 21.754z" fill="#e9465e"/><path d="m494.02 276.799c0 5.181-1.28 10.059-3.546 14.342h-6.993c-5.474 0-9.908-4.434-9.908-9.908v-33.421c4.345 1.537 8.237 4.034 11.436 7.233 5.572 5.572 9.011 13.259 9.011 21.754z" fill="#ee6781"/></g><g><path d="m460.243 246.035v61.527h-5.616c-5.474 0-9.917-4.443-9.917-9.917v-41.694c0-5.474 4.443-9.917 9.917-9.917h5.616z" fill="#334353"/><path d="m460.243 246.035v37.135h-5.616c-5.474 0-9.917-4.443-9.917-9.917v-17.302c0-5.474 4.443-9.917 9.917-9.917h5.616z" fill="#3e4e60"/></g></g><g><g><path d="m327.413 246.035h-3.012c-3.617 0-7.091.622-10.317 1.777-4.345 1.537-8.237 4.034-11.436 7.233-5.572 5.572-9.01 13.259-9.01 21.753 0 5.181 1.28 10.059 3.546 14.342 5.154 9.766 15.408 16.422 27.218 16.422h3.012v-61.527z" fill="#e9465e"/><path d="m293.637 276.799c0 5.181 1.28 10.059 3.546 14.342h6.993c5.474 0 9.908-4.434 9.908-9.908v-33.421c-4.345 1.537-8.237 4.034-11.436 7.233-5.572 5.572-9.011 13.259-9.011 21.754z" fill="#ee6781"/></g></g><g><g><path d="m363.615 328.607c0 .417-.062.827-.169 1.208-.524 1.866-2.239 3.235-4.274 3.235-22.935 0-35.465-9.89-43.231-34.15-.747-2.337.542-4.834 2.879-5.58.053-.018.098-.027.151-.036 2.293-.666 4.701.622 5.438 2.906 6.611 20.651 15.711 27.974 34.763 27.974 2.453-.001 4.443 1.99 4.443 4.443z" fill="#3e4e60"/><path d="m363.615 328.607c0 .417-.062.827-.169 1.208-.382.107-.791.169-1.208.169-22.944 0-35.465-9.89-43.231-34.141-.275-.862-.275-1.751-.036-2.559 2.293-.666 4.701.622 5.438 2.906 6.611 20.651 15.711 27.974 34.763 27.974 2.453-.001 4.443 1.99 4.443 4.443z" fill="#3f5d77"/></g><g><path d="m378.055 325.816v5.581c0 3.954-3.208 7.162-7.162 7.162h-14.556c-3.954 0-7.162-3.208-7.162-7.162v-5.581c0-3.955 3.208-7.162 7.162-7.162h14.556c3.954 0 7.162 3.208 7.162 7.162z" fill="#334353"/><path d="m378.055 325.816v1.937c0 3.954-3.208 7.162-7.162 7.162h-14.556c-3.954 0-7.162-3.208-7.162-7.162v-1.937c0-3.955 3.208-7.162 7.162-7.162h14.556c3.954 0 7.162 3.208 7.162 7.162z" fill="#3e4e60"/><path d="m368.115 321.245h-9.787c-2.059 0-3.728 1.669-3.728 3.728 0 2.059 1.669 3.728 3.728 3.728h9.787c2.059 0 3.728-1.669 3.728-3.728 0-2.059-1.669-3.728-3.728-3.728z" fill="#3f5d77"/></g></g></g></g><g><g><path d="m462.93 406.75c-46.56 63.8-121.91 105.25-206.93 105.25s-160.37-41.45-206.93-105.25z" fill="#c17e62"/><g fill="#d48d77"><path d="m380.58 406.75v72.95c-6.668 3.708-13.507 7.145-20.48 10.25v-83.2z"/><path d="m462.92 406.75c-4.978 6.838-10.303 13.422-15.94 19.73v-19.73z"/><path d="m200.532 406.75v42.24c0 5.66-4.59 10.25-10.25 10.25-5.65 0-10.24-4.59-10.24-10.25v-42.24z"/><path d="m305.71 437.94v69.23c-6.74 1.33-13.57 2.39-20.49 3.17v-72.4c0-5.65 4.59-10.24 10.24-10.24 5.656.004 10.249 4.576 10.25 10.24z"/><path d="m427.21 434.63v11.68c-6.53 5.9-13.37 11.45-20.49 16.63v-28.31c.528-13.576 19.964-13.571 20.49 0z"/><path d="m248.63 406.75v105.14c-6.849-.186-13.674-.653-20.48-1.39v-103.75z"/><path d="m163.68 460.62v34.23c-6.98-2.7-13.81-5.7-20.48-8.98v-25.25c.518-13.58 19.966-13.573 20.48 0z"/><path d="m95.83 407.27v48.44c-7.145-5.736-13.984-11.856-20.48-18.32v-30.12c0-.17 0-.35.01-.52h20.46c.01.18.01.35.01.52z"/></g></g></g><g><g><path d="m168.125 339.096h-32.812c-5.809 0-10.519 4.709-10.519 10.519v43.331h53.85v-43.331c-.001-5.809-4.71-10.519-10.519-10.519z" fill="#334353"/><path d="m213.412 392.946h-123.386c-6.301 0-11.408 5.108-11.408 11.408 0 6.301 5.108 11.408 11.408 11.408h123.386c6.301 0 11.408-5.108 11.408-11.408 0-6.3-5.108-11.408-11.408-11.408z" fill="#334353"/><path d="m189.757 392.946h-76.077c-3.885 0-7.034 3.149-7.034 7.034 0 3.885 3.149 7.034 7.034 7.034h76.078c3.885 0 7.034-3.149 7.034-7.034 0-3.884-3.15-7.034-7.035-7.034z" fill="#3e4e60"/><path d="m267.81 214.97v128.724c0 3.51-1.043 6.79-2.846 9.533-2.261 3.51-5.747 6.126-9.865 7.272-1.502.435-3.107.664-4.727.664h-197.307c-1.652 0-3.225-.229-4.727-.664-4.118-1.146-7.604-3.763-9.865-7.272-1.802-2.743-2.846-6.024-2.846-9.533v-128.724c0-1.62.229-3.225.656-4.727 1.628-5.826 6.205-10.427 12.055-12.055 1.502-.427 3.107-.656 4.727-.656h197.307c1.652 0 3.225.229 4.727.656 5.826 1.628 10.427 6.205 12.055 12.055.427 1.502.656 3.106.656 4.727z" fill="#3f5d77"/><path d="m61.057 214.97v128.724c0 3.51-1.044 6.79-2.854 9.533-2.261 3.51-5.747 6.126-9.865 7.272-4.118-1.146-7.604-3.763-9.865-7.272-1.802-2.743-2.846-6.024-2.846-9.533v-128.724c0-7.984 5.359-14.719 12.711-16.782 7.352 2.063 12.719 8.798 12.719 16.782z" fill="#3e4e60"/><path d="m267.81 214.97v128.724c0 3.51-1.043 6.79-2.846 9.533-2.261 3.51-5.747 6.126-9.865 7.272-4.118-1.146-7.605-3.763-9.865-7.272-1.81-2.743-2.854-6.024-2.854-9.533v-128.724c0-8.008 5.391-14.743 12.719-16.782 7.32 2.039 12.711 8.774 12.711 16.782z" fill="#3f6c8e"/><path d="m267.81 325.18v18.513c0 3.51-1.043 6.79-2.846 9.533-2.261 3.51-5.747 6.126-9.865 7.272-1.502.435-3.107.664-4.727.664h-197.307c-1.652 0-3.225-.229-4.727-.664-4.118-1.146-7.604-3.763-9.865-7.272-1.802-2.743-2.846-6.024-2.846-9.533v-18.513z" fill="#3e4e60"/><path d="m61.057 325.18v18.513c0 3.51-1.044 6.79-2.854 9.533-2.261 3.51-5.747 6.126-9.865 7.272-4.118-1.146-7.604-3.763-9.865-7.272-1.802-2.743-2.846-6.024-2.846-9.533v-18.513z" fill="#334353"/><path d="m267.81 325.18v18.513c0 3.51-1.043 6.79-2.846 9.533-2.261 3.51-5.747 6.126-9.865 7.272-4.118-1.146-7.605-3.763-9.865-7.272-1.81-2.743-2.854-6.024-2.854-9.533v-18.513z" fill="#3f5d77"/><path d="m165.606 343.172h-27.775c-3.578 0-6.479 2.901-6.479 6.479 0 3.578 2.901 6.479 6.479 6.479h27.775c3.578 0 6.479-2.901 6.479-6.479 0-3.578-2.901-6.479-6.479-6.479z" fill="#334353"/><path d="m203.495 210.247h-82.636c-3.511 0-6.358-2.846-6.358-6.358 0-3.511 2.846-6.358 6.358-6.358h82.636c3.511 0 6.358 2.846 6.358 6.358-.001 3.511-2.847 6.358-6.358 6.358z" fill="#3f6c8e"/><path d="m244.083 338.469h-184.729c-6.082 0-11.012-4.93-11.012-11.012v-106.198c0-6.082 4.93-11.012 11.012-11.012h184.73c6.082 0 11.012 4.93 11.012 11.012v106.199c-.001 6.081-4.931 11.011-11.013 11.011z" fill="#e9465e"/></g><g><g><g><path d="m200.92 320.51-28.349-16.986c-3.514-2.105-7.535-3.216-11.634-3.216h-18.434c-4.102 0-8.124 1.111-11.638 3.216l-28.345 16.986c-7.357 4.408-16.58-1.517-15.628-10.039l1.045-9.358 4.369-39.054c2.202-19.715 18.875-34.627 38.717-34.627h41.392c19.839 0 36.511 14.912 38.714 34.627l4.369 39.058 1.045 9.354c.953 8.522-8.265 14.448-15.623 10.039z" fill="#334353"/><path d="m200.92 320.51-28.349-16.986c-3.514-2.105-7.535-3.216-11.634-3.216h-9.219v-72.876h20.698c19.839 0 36.511 14.912 38.714 34.627l4.369 39.058 1.045 9.354c.952 8.522-8.266 14.448-15.624 10.039z" fill="#3e4e60"/></g><g><path d="m215.499 301.117c-2.566 5-9.091 7.466-14.579 4.176l-26.244-15.721c-4.892-2.934-10.492-4.482-16.197-4.482h-13.522c-5.705 0-11.305 1.548-16.197 4.482l-26.24 15.721c-5.492 3.29-12.017.824-14.583-4.18l4.369-39.054c2.202-19.715 18.875-34.627 38.717-34.627h41.392c19.839 0 36.511 14.912 38.714 34.627z" fill="#3e4e60"/><path d="m215.499 301.117c-2.566 5-9.091 7.466-14.579 4.176l-26.244-15.721c-4.892-2.934-10.492-4.482-16.197-4.482h-6.761v-57.658h20.698c19.839 0 36.511 14.912 38.714 34.627z" fill="#3f5d77"/></g></g><g><path d="m137.091 258.16v3.987c0 1.837-1.488 3.326-3.326 3.326h-4.579c-1.837 0-3.326 1.488-3.326 3.322v5.685c0 1.834-1.488 3.322-3.322 3.322h-3.991c-1.834 0-3.322-1.488-3.322-3.322v-5.685c0-1.834-1.488-3.322-3.326-3.322h-4.579c-1.837 0-3.326-1.488-3.326-3.326v-3.987c0-.033 0-.07.004-.103.051-1.79 1.518-3.223 3.322-3.223h4.579c1.837 0 3.326-1.488 3.326-3.322v-3.48c0-1.834 1.488-3.322 3.322-3.322h3.991c1.834 0 3.322 1.488 3.322 3.322v3.48c0 1.834 1.488 3.322 3.326 3.322h4.579c1.804 0 3.27 1.433 3.322 3.223.004.033.004.07.004.103z" fill="#2d2c33"/><path d="m137.088 258.057c-.051 1.786-1.518 3.219-3.322 3.219h-4.579c-1.837 0-3.326 1.488-3.326 3.326v5.681c0 1.837-1.488 3.326-3.322 3.326h-3.991c-1.834 0-3.322-1.488-3.322-3.326v-5.681c0-1.837-1.488-3.326-3.326-3.326h-4.579c-1.804 0-3.27-1.433-3.322-3.219.051-1.79 1.518-3.223 3.322-3.223h4.579c1.837 0 3.326-1.488 3.326-3.322v-3.48c0-1.834 1.488-3.322 3.322-3.322h3.991c1.834 0 3.322 1.488 3.322 3.322v3.48c0 1.834 1.488 3.322 3.326 3.322h4.579c1.804 0 3.27 1.433 3.322 3.223z" fill="#334353"/><path d="m130.516 256.001h-6.205v-4.073c0-.936-.759-1.695-1.695-1.695-.936 0-1.695.759-1.695 1.695v4.073h-6.205c-.936 0-1.695.759-1.695 1.695s.759 1.695 1.695 1.695h6.205v5.09c0 .936.759 1.695 1.695 1.695.936 0 1.695-.759 1.695-1.695v-5.09h6.205c.936 0 1.695-.759 1.695-1.695s-.759-1.695-1.695-1.695z" fill="#3f5d77"/></g><g><g><path d="m188.349 247.334c0 3.441-2.792 6.233-6.233 6.233s-6.233-2.792-6.233-6.233c0-.535.067-1.053.198-1.55.687-2.691 3.129-4.679 6.035-4.679s5.349 1.988 6.035 4.679c.131.497.198 1.015.198 1.55z" fill="#53b976"/><path d="m188.151 245.784c-.687 2.691-3.129 4.683-6.035 4.683s-5.349-1.992-6.035-4.683c.687-2.691 3.129-4.679 6.035-4.679s5.349 1.988 6.035 4.679z" fill="#78c795"/></g><g><path d="m188.349 275.174c0 3.441-2.792 6.233-6.233 6.233s-6.233-2.792-6.233-6.233c0-.535.067-1.053.198-1.55.687-2.691 3.129-4.679 6.035-4.679s5.349 1.988 6.035 4.679c.131.497.198 1.016.198 1.55z" fill="#7d73ff"/><path d="m188.151 273.624c-.687 2.691-3.129 4.683-6.035 4.683s-5.349-1.992-6.035-4.683c.687-2.691 3.129-4.679 6.035-4.679s5.349 1.988 6.035 4.679z" fill="#b5b3ff"/></g><g><g><path d="m202.268 259.991c0 3.441-2.792 6.233-6.233 6.233s-6.233-2.792-6.233-6.233c0-.535.067-1.053.198-1.55.687-2.691 3.129-4.679 6.035-4.679s5.349 1.988 6.035 4.679c.131.497.198 1.015.198 1.55z" fill="#e9465e"/><path d="m202.07 258.441c-.687 2.691-3.129 4.683-6.035 4.683s-5.349-1.992-6.035-4.683c.687-2.691 3.129-4.679 6.035-4.679s5.349 1.987 6.035 4.679z" fill="#ee6781"/></g><g><path d="m174.427 259.991c0 3.441-2.792 6.233-6.233 6.233s-6.233-2.792-6.233-6.233c0-.535.067-1.053.198-1.55.687-2.691 3.129-4.679 6.035-4.679s5.349 1.988 6.035 4.679c.13.497.198 1.015.198 1.55z" fill="#ea7589"/><path d="m174.229 258.441c-.687 2.691-3.129 4.683-6.035 4.683s-5.349-1.992-6.035-4.683c.687-2.691 3.129-4.679 6.035-4.679s5.348 1.987 6.035 4.679z" fill="#ff9fb4"/></g></g></g><g><path d="m170.826 238.946c0 3.266-2.651 5.918-5.921 5.918h-26.372c-1.633 0-3.116-.662-4.188-1.734s-1.734-2.55-1.734-4.184c0-3.27 2.651-5.921 5.921-5.921h26.372c1.633 0 3.115.662 4.188 1.734 1.072 1.072 1.734 2.554 1.734 4.187z" fill="#334353"/><path d="m170.826 238.946c0 3.266-2.651 5.918-5.921 5.918h-13.186v-11.839h13.186c1.633 0 3.115.662 4.188 1.734 1.071 1.072 1.733 2.554 1.733 4.187z" fill="#3e4e60"/></g></g></g><g id="Speech-bubble_1_"><path d="m253.329 186.812c3.548 0 7.024-1.733 9.112-4.923l35.082-53.616c3.289-5.027 1.881-11.768-3.147-15.057-5.026-3.289-11.767-1.88-15.057 3.146l-35.082 53.616c-3.289 5.027-1.881 11.768 3.147 15.057 1.836 1.202 3.903 1.777 5.945 1.777z" fill="#ebd9ea"/><path d="m349.09 36.41v67.93c0 9.58-3.24 18.4-8.7 25.43-7.58 9.76-19.44 16.05-32.77 16.05h-105.05c-13.33 0-25.19-6.29-32.77-16.05-5.46-7.03-8.7-15.85-8.7-25.43v-67.93c0-7.37 1.92-14.28 5.3-20.28 1.85-.7 3.72-1.37 5.6-2.02 26.31-9.14 54.58-14.11 84-14.11 28.87 0 56.63 4.78 82.52 13.6 1.61.54 3.21 1.1 4.8 1.69 3.67 6.18 5.77 13.41 5.77 21.12z" fill="#ebd9ea"/><path d="m349.09 36.41v67.93c0 9.58-3.24 18.4-8.7 25.43-5.45-7.03-8.7-15.85-8.7-25.43v-67.93c0-8.43 2.51-16.26 6.83-22.81 1.61.54 3.21 1.1 4.8 1.69 3.67 6.18 5.77 13.41 5.77 21.12z" fill="#fff"/><path d="m178.5 36.41v67.93c0 9.58-3.24 18.4-8.7 25.43-5.46-7.03-8.7-15.85-8.7-25.43v-67.93c0-7.37 1.92-14.28 5.3-20.28 1.85-.7 3.72-1.37 5.6-2.02 4.12 6.44 6.5 14.09 6.5 22.3z" fill="#c1b7d3"/><g><g><g><path d="m224.991 68.947h47.115l-21.436-45.892c-2.804-6.003-8.83-9.839-15.456-9.839h-25.395c-5.059 0-8.405 5.256-6.264 9.839z" fill="#c0405c"/><g fill="#e9465e"><path d="m235.851 68.947h-10.86l-21.436-45.892c-2.141-4.584 1.205-9.839 6.264-9.839z"/><path d="m272.106 68.947h-10.86l-26.032-55.731c6.626 0 12.652 3.836 15.456 9.839z"/></g></g><g><path d="m285.2 68.947h-47.115l21.436-45.892c2.804-6.003 8.83-9.839 15.456-9.839h25.395c5.059 0 8.405 5.256 6.264 9.839z" fill="#e9465e"/><g fill="#ee6781"><path d="m274.34 68.947h10.86l21.436-45.892c2.141-4.584-1.205-9.839-6.264-9.839z"/><path d="m238.084 68.947h10.86l26.032-55.731c-6.626 0-12.652 3.836-15.456 9.839z"/></g></g></g><g><g><g><circle cx="255.095" cy="95.921" fill="#f9c744" r="40.423"/><path d="m255.095 136.345c22.325 0 40.423-18.098 40.423-40.423s-18.098-40.423-40.423-40.423z" fill="#fad98f"/></g><g><g><path d="m255.095 130.316c-18.965 0-34.395-15.429-34.395-34.395s15.43-34.395 34.395-34.395 34.395 15.43 34.395 34.395-15.43 34.395-34.395 34.395zm0-66.512c-17.709 0-32.117 14.408-32.117 32.117s14.408 32.117 32.117 32.117 32.117-14.408 32.117-32.117-14.408-32.117-32.117-32.117z" fill="#ea792e"/></g><g><path d="m255.095 130.316v-2.278c17.709 0 32.117-14.408 32.117-32.117s-14.408-32.117-32.117-32.117v-2.278c18.965 0 34.395 15.43 34.395 34.395s-15.43 34.395-34.395 34.395z" fill="#f39e22"/></g></g><g><circle cx="255.095" cy="95.921" fill="#ea792e" r="26.975"/><path d="m255.095 122.896c14.898 0 26.975-12.077 26.975-26.975s-12.077-26.975-26.975-26.975z" fill="#f39e22"/></g></g><g><path d="m265.563 108.924h-5.808v-29.982c0-1.106-.312-1.972-.94-2.6-1.47-1.47-3.941-1.024-5.642.055 0 0-8.574 5.31-8.574 5.31-.96.592-1.438 1.422-1.438 2.489-.039 1.487 1.182 3.257 2.766 3.208.407 0 .866-.146 1.383-.443l5.31-3.264v25.225h-5.753c-2.248 0-3.374.94-3.374 2.821 0 1.956 1.126 2.932 3.374 2.932h18.697c2.213 0 3.319-.976 3.319-2.932-.001-1.879-1.108-2.819-3.32-2.819z" fill="#f4e6f4"/><path d="m268.882 111.745c0 1.956-1.106 2.932-3.319 2.932h-10.468v-39.113c2.431-.678 4.748.69 4.66 3.378v29.982h5.808c2.212 0 3.319.94 3.319 2.821z" fill="#fff"/></g></g></g></g></g></svg>