<svg id="Icons" enable-background="new 0 0 512 512" height="512" viewBox="0 0 512 512" width="512" xmlns="http://www.w3.org/2000/svg"><g><g><circle cx="256" cy="256" fill="#15be79" r="256"/><path d="m512 256c0 141.38-114.62 256-256 256v-512c141.38 0 256 114.62 256 256z" fill="#fa4654"/></g><g><g><g><path d="m123.41 396.76v78.27c-24.33-14.76-46-33.45-64.12-55.2-7.17-8.59-13.77-17.65-19.78-27.14 1.99-15.37 15.13-27.25 31.06-27.25h21.52c17.31 0 31.32 14.03 31.32 31.32z" fill="#c0405c"/><path d="m123.41 396.76v78.27c-24.33-14.76-46-33.45-64.12-55.2v-23.07c0-17.29 14.02-31.32 31.32-31.32h1.48c17.31 0 31.32 14.03 31.32 31.32z" fill="#fa4654"/></g><g><path d="m95.235 352.289v15.103c0 7.681-6.23 13.901-13.911 13.901-2.576 0-4.989-.702-7.056-1.923-4.095-2.413-6.845-6.874-6.845-11.979v-15.103h27.812z" fill="#9b5b42"/><path d="m67.423 352.289v15.103c0 5.105 2.75 9.566 6.845 11.979v-16.141c4.836 2.019 10.152 3.134 15.728 3.134 1.779 0 3.528-.115 5.24-.327v-13.747h-27.813z" fill="#8e4e3f"/></g><g><g><g><path d="m42.188 306.929h6.896v-21.579h-6.896c-5.959 0-10.79 4.831-10.79 10.79.001 5.959 4.831 10.789 10.79 10.789z" fill="#8e4e3f"/><path d="m41.84 300.77h7.244v-9.26h-7.244c-2.557 0-4.63 2.073-4.63 4.63 0 2.557 2.073 4.63 4.63 4.63z" fill="#723e33"/></g><g><path d="m133.93 285.35h-3.02v21.579h3.02c5.959 0 10.79-4.831 10.79-10.79-.001-5.958-4.831-10.789-10.79-10.789z" fill="#8e4e3f"/><path d="m134.278 291.51h-3.368v9.26h3.368c2.557 0 4.63-2.073 4.63-4.63 0-2.557-2.073-4.63-4.63-4.63z" fill="#723e33"/></g></g><g><path d="m130.911 261.335v56.835c0 11.296-4.576 21.525-11.978 28.927-5.345 5.336-12.152 9.2-19.766 10.95-2.951.673-6.018 1.029-9.171 1.029-22.592 0-40.915-18.314-40.915-40.906v-56.835c0-12.382 10.046-22.419 22.428-22.419h36.984c2.172 0 4.268.308 6.258.894 9.334 2.701 16.16 11.315 16.16 21.525z" fill="#8e4e3f"/><path d="m130.911 261.335v56.835c0 11.296-4.576 21.525-11.978 28.927-5.345 5.336-12.152 9.2-19.766 10.95-18.189-4.163-31.744-20.438-31.744-39.877v-21.746c0-28.293 20.419-51.807 47.328-56.614 9.334 2.701 16.16 11.315 16.16 21.525z" fill="#9b5b42"/><g><g fill="#8e4e3f"><path d="m101.565 298.997h-8.341c-3.426 0-6.203 2.777-6.203 6.203 0 3.426 2.777 6.203 6.203 6.203h8.341c3.426 0 6.203-2.777 6.203-6.203 0-3.426-2.777-6.203-6.203-6.203z"/><path d="m95.229 262.508c-2.889 0-5.232 2.342-5.232 5.232v35.468h10.464v-35.468c0-2.89-2.343-5.232-5.232-5.232z"/></g></g><g fill="#334353"><path d="m78.894 274.735c-3.131 0-5.668 2.538-5.668 5.668v9.894c0 3.131 2.538 5.668 5.668 5.668 3.131 0 5.668-2.538 5.668-5.668v-9.894c0-3.131-2.538-5.668-5.668-5.668z"/><path d="m111.564 274.735c-3.131 0-5.668 2.538-5.668 5.668v9.894c0 3.131 2.538 5.668 5.668 5.668 3.131 0 5.668-2.538 5.668-5.668v-9.894c.001-3.131-2.537-5.668-5.668-5.668z"/></g><g><path d="m91.478 334.263c-9.82 0-17.809-7.989-17.809-17.809 0-1.858 1.506-3.365 3.365-3.365s3.365 1.506 3.365 3.365c0 6.109 4.97 11.079 11.08 11.079 1.858 0 3.365 1.506 3.365 3.365s-1.507 3.365-3.366 3.365z" fill="#723e33"/></g></g></g><g><g><g><path d="m29.027 267.364v22.802c0 2.566 2.077 4.637 4.637 4.637s4.637-2.071 4.637-4.637v-22.802c0-12.922 5.336-24.626 13.917-33.009 8.334-8.167 19.741-13.2 32.292-13.2 3.58 0 7.159.414 10.634 1.23 8.161 1.923 15.648 6.053 21.676 11.958.124.111.241.229.365.352 8.724 8.724 13.534 20.329 13.534 32.669v22.802c0 2.566 2.077 4.637 4.637 4.637s4.637-2.071 4.637-4.637v-22.802c0-13.942-5.113-27.099-14.449-37.337-.587-.643-1.187-1.274-1.805-1.892-7.308-7.308-16.458-12.421-26.474-14.783-4.173-.977-8.464-1.471-12.755-1.471-16.23 0-30.858 7.005-41.016 18.159-8.983 9.854-14.467 22.961-14.467 37.324z" fill="#c0405c"/></g><path d="m43.495 230.039c2.807 1.601 5.719 3.048 8.724 4.316 8.334-8.167 19.741-13.2 32.292-13.2 3.58 0 7.159.414 10.634 1.23 8.161 1.923 15.648 6.053 21.676 11.958 3.005-1.268 5.917-2.708 8.724-4.316-.587-.643-1.187-1.274-1.805-1.892-7.308-7.308-16.458-12.421-26.474-14.783-4.173-.977-8.464-1.471-12.755-1.471-16.23-.001-30.858 7.004-41.016 18.158z" fill="#fa4654"/></g><g><g><path d="m14.801 304.28c0 3.605.89 6.999 2.467 9.979 3.586 6.795 10.721 11.426 18.938 11.426h6.003c3.809 0 6.9-3.091 6.9-6.9v-29.009c0-3.808-3.091-6.9-6.9-6.9h-6.003c-2.516 0-4.934.433-7.178 1.237-3.023 1.07-5.731 2.807-7.957 5.033-3.878 3.876-6.27 9.224-6.27 15.134z" fill="#c0405c"/><path d="m14.801 304.28c0 3.605.89 6.999 2.467 9.979h4.866c3.809 0 6.894-3.085 6.894-6.894v-23.253c-3.023 1.07-5.731 2.807-7.957 5.033-3.878 3.877-6.27 9.225-6.27 15.135z" fill="#fa4654"/></g><g><path d="m38.301 282.876v42.809h3.908c3.809 0 6.9-3.091 6.9-6.9v-29.009c0-3.808-3.091-6.9-6.9-6.9z" fill="#334353"/><path d="m38.301 282.876v25.838h3.908c3.809 0 6.9-3.091 6.9-6.9v-12.038c0-3.808-3.091-6.9-6.9-6.9z" fill="#3e4e60"/></g></g><g><g><path d="m130.72 282.876h2.096c2.516 0 4.934.433 7.178 1.237 3.023 1.07 5.731 2.807 7.957 5.033 3.877 3.877 6.269 9.225 6.269 15.135 0 3.605-.89 6.999-2.467 9.979-3.586 6.795-10.721 11.426-18.938 11.426h-2.096v-42.81z" fill="#c0405c"/><path d="m154.221 304.28c0 3.605-.89 6.999-2.467 9.979h-4.866c-3.809 0-6.894-3.085-6.894-6.894v-23.253c3.023 1.07 5.731 2.807 7.957 5.033 3.877 3.877 6.27 9.225 6.27 15.135z" fill="#fa4654"/></g></g><g><g><path d="m105.532 340.327c0 .29.043.575.117.841.365 1.298 1.558 2.251 2.974 2.251 15.957 0 24.675-6.881 30.079-23.76.519-1.626-.377-3.363-2.003-3.883-.037-.012-.068-.019-.105-.025-1.595-.464-3.271.433-3.784 2.022-4.6 14.368-10.931 19.463-24.187 19.463-1.706-.001-3.091 1.384-3.091 3.091z" fill="#3e4e60"/><path d="m105.532 340.327c0 .29.043.575.117.841.266.074.55.117.841.117 15.964 0 24.675-6.881 30.079-23.754.192-.6.192-1.218.025-1.781-1.595-.464-3.271.433-3.784 2.022-4.6 14.368-10.931 19.463-24.187 19.463-1.706 0-3.091 1.385-3.091 3.092z" fill="#3f5d77"/></g><g><path d="m95.485 338.385v3.883c0 2.751 2.232 4.983 4.983 4.983h10.127c2.751 0 4.983-2.232 4.983-4.983v-3.883c0-2.751-2.232-4.983-4.983-4.983h-10.127c-2.751 0-4.983 2.232-4.983 4.983z" fill="#334353"/><path d="m95.485 338.385v1.348c0 2.751 2.232 4.983 4.983 4.983h10.127c2.751 0 4.983-2.232 4.983-4.983v-1.348c0-2.751-2.232-4.983-4.983-4.983h-10.127c-2.751 0-4.983 2.232-4.983 4.983z" fill="#3e4e60"/><path d="m102.402 335.205h6.809c1.433 0 2.594 1.161 2.594 2.594 0 1.433-1.161 2.594-2.594 2.594h-6.809c-1.433 0-2.594-1.161-2.594-2.594-.001-1.433 1.161-2.594 2.594-2.594z" fill="#3f5d77"/></g></g></g></g></g><g><g><path d="m473.08 391.76c-21.176 33.77-50.052 62.313-84.18 83.08v-78.08c-.006-3.931.746-7.866 2.19-11.52h-.01c3.839-9.938 13.027-17.563 23.53-19.43 7.432-1.108 22.381-.299 27.39-.53 15.055-.236 28.93 11.554 31.08 26.48z" fill="#528f66"/><path d="m453.34 396.76v22.32c-18.18 21.97-39.96 40.86-64.44 55.76v-78.08c-.012-3.937.755-7.858 2.19-11.52h-.01c3.831-9.94 13.036-17.566 23.53-19.43 19.755-3.905 38.771 10.479 38.73 30.95z" fill="#53b976"/></g><g><path d="m417.218 352.07v15.177c0 7.719 6.26 13.969 13.979 13.969 2.589 0 5.014-.705 7.091-1.932 4.115-2.425 6.878-6.907 6.878-12.037v-15.177z" fill="#f5b890"/><path d="m445.166 352.07v15.177c0 5.13-2.763 9.612-6.878 12.037v-16.22c-4.859 2.029-10.202 3.149-15.804 3.149-1.787 0-3.546-.116-5.265-.328v-13.815z" fill="#d48d77"/></g><g><g><path d="m381.807 261.502v56.72c0 11.273 4.567 21.481 11.954 28.868 5.334 5.325 12.127 9.181 19.725 10.928 2.945.672 6.006 1.027 9.153 1.027 22.546 0 40.832-18.277 40.832-40.822v-56.72c0-12.357-10.026-22.373-22.383-22.373h-36.908c-2.168 0-4.26.307-6.245.892-9.316 2.695-16.128 11.291-16.128 21.48z" fill="#d48d77"/><path d="m381.807 261.502v56.72c0 11.273 4.567 21.481 11.954 28.868 5.334 5.325 12.127 9.181 19.725 10.928 18.152-4.154 31.679-20.397 31.679-39.796v-21.702c0-28.235-20.378-51.702-47.231-56.499-9.315 2.696-16.127 11.292-16.127 21.481z" fill="#f5b890"/><g fill="#eea47d"><path d="m411.093 299.088h8.324c3.419 0 6.19 2.771 6.19 6.19 0 3.419-2.771 6.19-6.19 6.19h-8.324c-3.419 0-6.19-2.771-6.19-6.19-.001-3.419 2.771-6.19 6.19-6.19z"/><path d="m412.195 239.128h10.442v64.162h-10.442z" transform="matrix(-1 0 0 -1 834.832 542.417)"/></g><g fill="#334353"><path d="m437.291 278.447c3.124 0 5.657 2.533 5.657 5.657v9.874c0 3.124-2.533 5.657-5.657 5.657-3.124 0-5.657-2.533-5.657-5.657v-9.874c0-3.124 2.533-5.657 5.657-5.657z"/><path d="m404.686 278.447c3.124 0 5.657 2.533 5.657 5.657v9.874c0 3.124-2.533 5.657-5.657 5.657-3.124 0-5.657-2.533-5.657-5.657v-9.874c.001-3.124 2.533-5.657 5.657-5.657z"/></g><g><path d="m421.159 334.282c9.8 0 17.773-7.973 17.773-17.772 0-1.855-1.503-3.358-3.358-3.358s-3.358 1.503-3.358 3.358c0 6.096-4.96 11.057-11.057 11.057-1.855 0-3.358 1.503-3.358 3.358s1.504 3.357 3.358 3.357z" fill="#c17e62"/></g></g><g><path d="m376.147 265.561c0-14.012 5.684-26.703 14.865-35.884 6.55-6.549 14.89-11.32 24.215-13.52 3.749-.877 7.655-1.346 11.669-1.346 28.036 0 50.749 22.713 50.749 50.749l-.09 55.52c-.023 14.33-11.646 25.934-25.976 25.934 7.348-7.382 11.892-17.556 11.892-28.793v-47.013h-39.901c-9.603 0-17.388-7.785-17.388-17.389 0 9.603-7.785 17.389-17.389 17.389h-6.985v47.013c0 11.235 4.538 21.411 11.882 28.793-9.688 0-17.542-7.854-17.542-17.542v-63.911z" fill="#deb36f"/><path d="m376.147 265.561c0-14.012 5.684-26.703 14.865-35.884 6.55-6.549 14.89-11.32 24.215-13.52 22.4 5.276 39.08 25.381 39.08 49.403v5.648h-30.737c-9.603 0-17.388-7.785-17.388-17.389 0 9.603-7.785 17.389-17.389 17.389h-6.985v47.013c0 11.235 4.538 21.411 11.882 28.793-9.688 0-17.542-7.854-17.542-17.542v-63.911z" fill="#fbcb74"/></g><g><g><path d="m470.348 307.004h-6.882v-21.535h6.882c5.947 0 10.768 4.821 10.768 10.768 0 5.946-4.821 10.767-10.768 10.767z" fill="#d48d77"/><path d="m470.696 300.856h-7.229v-9.241h7.229c2.552 0 4.621 2.069 4.621 4.621-.001 2.552-2.069 4.62-4.621 4.62z" fill="#c17e62"/></g><g><path d="m378.794 285.468h3.014v21.535h-3.014c-5.947 0-10.768-4.821-10.768-10.768.001-5.946 4.821-10.767 10.768-10.767z" fill="#d48d77"/><path d="m378.447 291.615h3.361v9.241h-3.361c-2.552 0-4.621-2.069-4.621-4.621 0-2.551 2.069-4.62 4.621-4.62z" fill="#c17e62"/></g></g></g><g><g><g><path d="m483.439 265.719v22.699c-.196 6.094-9.034 6.114-9.232 0v-22.699c-.003-25.375-20.663-46.002-46.002-46.001-24.836-.386-46.419 21.126-46.001 46.002v22.699c-.16 6.069-9.049 6.125-9.232 0v-22.699c-.48-29.905 25.411-55.692 55.234-55.233 30.513.003 55.244 24.844 55.233 55.232z" fill="#528f66"/></g><path d="m469.036 228.563c-2.794 1.594-5.693 3.034-8.685 4.296-8.297-8.131-19.652-13.141-32.147-13.141-3.564 0-7.127.412-10.586 1.225-8.124 1.914-15.578 6.026-21.579 11.904-2.991-1.262-5.89-2.696-8.685-4.296.585-.64 1.182-1.268 1.797-1.883 7.275-7.275 16.384-12.365 26.355-14.716 4.155-.973 8.426-1.465 12.697-1.465 16.158-.001 30.721 6.972 40.833 18.076z" fill="#53b976"/></g><g><g><path d="m497.601 302.47c.051 11.556-9.439 21.333-21.308 21.308h-5.976c-3.792 0-6.869-3.077-6.869-6.869v-28.879c0-3.791 3.077-6.869 6.869-6.869h5.976c11.537-.098 21.401 9.574 21.308 21.309z" fill="#528f66"/><path d="m497.601 302.47c0 3.588-.886 6.967-2.456 9.934h-4.844c-3.792 0-6.863-3.071-6.863-6.863v-23.148c3.01 1.065 5.705 2.794 7.921 5.01 3.86 3.859 6.242 9.183 6.242 15.067z" fill="#53b976"/></g><g><path d="m474.206 281.162v42.616h-3.89c-3.792 0-6.869-3.077-6.869-6.869v-28.879c0-3.791 3.077-6.869 6.869-6.869h3.89z" fill="#334353"/><path d="m474.206 281.162v25.721h-3.89c-3.792 0-6.869-3.077-6.869-6.869v-11.984c0-3.791 3.077-6.869 6.869-6.869h3.89z" fill="#3e4e60"/></g></g><g><g><path d="m382.203 281.162c-12.391-.962-23.429 8.569-23.395 21.308-.091 12.447 10.811 22.303 23.395 21.308z" fill="#528f66"/><path d="m358.808 302.47c0 3.588.886 6.967 2.456 9.934h4.844c3.792 0 6.863-3.071 6.863-6.863v-23.148c-3.01 1.065-5.705 2.794-7.921 5.01-3.86 3.859-6.242 9.183-6.242 15.067z" fill="#53b976"/></g></g><g><g><path d="m407.278 338.354c0 .289-.043.573-.117.837-.363 1.293-1.551 2.24-2.961 2.24-15.886 0-24.564-6.85-29.943-23.653-.517-1.619.375-3.348 1.994-3.865.037-.012.068-.019.105-.025 1.588-.462 3.256.431 3.767 2.013 4.579 14.304 10.882 19.376 24.078 19.376 1.698 0 3.077 1.378 3.077 3.077z" fill="#3e4e60"/><path d="m407.278 338.354c0 .289-.043.573-.117.837-.265.074-.548.117-.837.117-15.892 0-24.564-6.85-29.944-23.647-.191-.597-.191-1.213-.025-1.773 1.588-.462 3.256.431 3.767 2.013 4.579 14.304 10.882 19.376 24.078 19.376 1.699 0 3.078 1.378 3.078 3.077z" fill="#3f5d77"/></g><g><path d="m417.28 336.421v3.865c0 2.739-2.222 4.961-4.961 4.961h-10.082c-2.739 0-4.961-2.222-4.961-4.961v-3.865c0-2.739 2.222-4.961 4.961-4.961h10.082c2.739.001 4.961 2.222 4.961 4.961z" fill="#334353"/><path d="m417.28 336.421v1.342c0 2.739-2.222 4.961-4.961 4.961h-10.082c-2.739 0-4.961-2.222-4.961-4.961v-1.342c0-2.739 2.222-4.961 4.961-4.961h10.082c2.739.001 4.961 2.222 4.961 4.961z" fill="#3e4e60"/><path d="m410.395 333.255h-6.779c-1.426 0-2.582 1.156-2.582 2.582 0 1.426 1.156 2.582 2.582 2.582h6.779c1.426 0 2.582-1.156 2.582-2.582 0-1.426-1.156-2.582-2.582-2.582z" fill="#3f5d77"/></g></g></g></g><g><g><path d="m462.93 406.75c-46.56 63.8-121.91 105.25-206.93 105.25s-160.37-41.45-206.93-105.25z" fill="#c17e62"/><g fill="#d48d77"><path d="m380.58 406.75v72.95c-6.668 3.708-13.507 7.145-20.48 10.25v-83.2z"/><path d="m462.92 406.75c-4.978 6.838-10.303 13.422-15.94 19.73v-19.73z"/><path d="m200.532 406.75v42.24c0 5.66-4.59 10.25-10.25 10.25-5.65 0-10.24-4.59-10.24-10.25v-42.24z"/><path d="m305.71 437.94v69.23c-6.74 1.33-13.57 2.39-20.49 3.17v-72.4c0-5.65 4.59-10.24 10.24-10.24 5.656.004 10.249 4.576 10.25 10.24z"/><path d="m427.21 434.63v11.68c-6.53 5.9-13.37 11.45-20.49 16.63v-28.31c.528-13.576 19.964-13.571 20.49 0z"/><path d="m248.63 406.75v105.14c-6.849-.186-13.674-.653-20.48-1.39v-103.75z"/><path d="m163.68 460.62v34.23c-6.98-2.7-13.81-5.7-20.48-8.98v-25.25c.518-13.58 19.966-13.573 20.48 0z"/><path d="m95.83 407.27v48.44c-7.145-5.736-13.984-11.856-20.48-18.32v-30.12c0-.17 0-.35.01-.52h20.46c.01.18.01.35.01.52z"/></g></g></g><g><g><path d="m349.153 245.638v103.283c0 2.816-.836 5.448-2.285 7.651-1.816 2.816-4.611 4.917-7.917 5.835-1.204.347-2.489.531-3.795.531h-158.312c-1.326 0-2.591-.184-3.795-.531-3.305-.918-6.101-3.02-7.917-5.835-1.449-2.204-2.285-4.836-2.285-7.651v-103.283c0-1.306.184-2.591.531-3.795 1.306-4.673 4.979-8.366 9.671-9.671 1.204-.347 2.489-.531 3.795-.531h158.312c1.326 0 2.591.184 3.795.531 4.672 1.306 8.365 4.979 9.671 9.671.347 1.204.531 2.489.531 3.795z" fill="#3f5d77"/><path d="m346.868 356.573c-2.489 3.836-6.794 6.366-11.712 6.366h-158.312c-4.917 0-9.222-2.53-11.712-6.366 5.529-15.792 20.567-27.096 38.216-27.096h105.283c17.67 0 32.707 11.303 38.237 27.096z" fill="#334353"/><path d="m183.251 245.638v103.283c0 2.816-.837 5.448-2.285 7.651-1.816 2.816-4.611 4.917-7.917 5.835-3.305-.918-6.101-3.02-7.917-5.835-1.449-2.204-2.285-4.836-2.285-7.651v-103.283c0-6.407 4.305-11.814 10.202-13.466 5.897 1.653 10.202 7.06 10.202 13.466z" fill="#3e4e60"/><g fill="#3f6c8e"><path d="m349.153 245.638v103.283c0 2.816-.836 5.448-2.285 7.651-1.816 2.816-4.611 4.917-7.917 5.835-3.305-.918-6.101-3.02-7.917-5.835-1.449-2.204-2.285-4.836-2.285-7.651v-103.283c0-6.427 4.326-11.834 10.202-13.466 5.876 1.632 10.202 7.039 10.202 13.466z"/><path d="m216.254 250.688h79.493c5.113 0 9.258-4.145 9.258-9.258 0-5.113-4.145-9.258-9.258-9.258h-79.493c-5.113 0-9.258 4.145-9.258 9.258-.001 5.113 4.144 9.258 9.258 9.258z"/></g></g><path d="m269.164 345.234h-26.328c-4.661 0-8.44 3.779-8.44 8.44v34.768h43.209v-34.768c-.001-4.661-3.78-8.44-8.441-8.44z" fill="#3e4e60"/><g><path d="m305.502 388.442h-99.004c-5.055 0-9.154 4.098-9.154 9.154 0 5.056 4.098 9.154 9.154 9.154h99.004c5.056 0 9.154-4.098 9.154-9.154 0-5.055-4.099-9.154-9.154-9.154z" fill="#3f5d77"/><path d="m286.522 388.442h-61.044c-3.117 0-5.644 2.527-5.644 5.644 0 3.117 2.527 5.644 5.644 5.644h61.044c3.117 0 5.644-2.527 5.644-5.644 0-3.117-2.527-5.644-5.644-5.644z" fill="#3f6c8e"/></g></g><g><g><g><g><path d="m133.304 158.033-5.835-5.841-1.163-1.156h-55.163c-4.545 0-6.383 5.861-2.647 8.454l14.489 10.078c3.395 2.359 3.395 7.385 0 9.744l-14.489 10.078c-3.736 2.593-1.898 8.454 2.647 8.454h89.355c3.482 0 6.637-1.41 8.922-3.696z" fill="#ebd9ea"/><path d="m110.601 61.841c-2.413 2.413-3.903 5.741-3.903 9.423v43.541c0 5.788 1.25 11.448 3.609 16.614 1.965 4.331 4.712 8.321 8.14 11.749l7.859 7.866 1.163 1.156 5.835 5.841 36.116 36.116c2.286-2.286 3.696-5.44 3.696-8.922v-60.864z" fill="#c2aacf"/></g><g><path d="m443.503 189.391-14.489-10.078c-3.395-2.359-3.395-7.385 0-9.744l14.489-10.078c3.736-2.593 1.898-8.454-2.647-8.454h-55.163l-1.163 1.156-5.835 5.841-36.116 36.116c2.286 2.286 5.44 3.696 8.922 3.696h89.355c4.546-.001 6.383-5.862 2.647-8.455z" fill="#f9f2f9"/><path d="m401.399 61.841-62.515 62.522v60.864c0 3.482 1.41 6.636 3.696 8.922l36.116-36.116 5.835-5.841 1.163-1.156 7.859-7.866c3.428-3.429 6.175-7.418 8.14-11.749 2.359-5.166 3.609-10.827 3.609-16.614v-43.542c0-3.683-1.49-7.011-3.903-9.424z" fill="#ebd9ea"/></g><path d="m405.303 71.266v43.541c0 5.785-1.25 11.446-3.607 16.616h-291.392c-2.357-5.169-3.607-10.831-3.607-16.616v-43.541c0-3.683 1.496-7.015 3.901-9.43 2.405-2.405 5.747-3.901 9.42-3.901h271.964c3.673 0 7.015 1.496 9.42 3.901 2.405 2.415 3.901 5.748 3.901 9.43z" fill="#f9f2f9"/><path d="m405.303 71.266v43.541c0 5.785-1.25 11.446-3.607 16.616h-145.696v-73.487h135.982c3.673 0 7.015 1.496 9.42 3.901 2.405 2.414 3.901 5.747 3.901 9.429z" fill="#fff"/></g></g><g fill="#3e4e60"><path d="m253.5 74.886c2.07-.063 4.04 1.996 2.951 4.05 0 0-13.851 29.8-13.851 29.8-1.196 2.642-5.504 2.647-6.699 0 0 0-13.8-29.8-13.8-29.8-.2-.467-.299-.867-.299-1.2-.001-3.008 4.886-3.976 6.05-1.15 0 0 11.5 25.55 11.5 25.55l11.5-25.55c.531-1.133 1.414-1.7 2.648-1.7z"/><path d="m265.175 109.861c-2.689-.949-6.733-2.274-6.725-5.175-.041-1.208.861-2.614 2.101-2.6.6 0 1.283.234 2.049.7 2.98 2.141 5.984 2.935 9.7 2.95 2.433 0 4.3-.425 5.601-1.275 2.295-1.37 2.857-5.283.124-6.65-4.621-2.444-14.167-2.539-17.375-7.375-2.023-2.776-1.813-7.672.35-10.5 2.613-3.623 7.263-5.214 11.901-5.2 4.766 0 8.649 1.267 11.65 3.8.848.739 1.192 1.278 1.2 2.4.075 1.628-1.461 3.128-3.026 2.45-1.666-.723-3.521-2.325-5.099-2.775-3.982-1.431-12.086-1.202-12.075 4.475.167 3.698 3.752 4.103 7.7 5.2 4.793 1.219 8.671 2.018 11.475 5.35 3.523 4.842.478 11.965-5.1 13.925-4.137 1.806-10.079 1.628-14.451.3z"/></g><g><g><g><path d="m210.556 41v50.318c0 16.299-13.214 29.513-29.513 29.513h-7.107c-16.299 0-29.513-13.214-29.513-29.513v-50.318c0-4.62 5.232-7.295 8.977-4.59l4.24 3.061c1.98 1.43 4.653 1.43 6.632 0l9.899-7.152c.988-.717 2.153-1.072 3.318-1.072s2.329.355 3.318 1.072l9.899 7.152c1.98 1.43 4.653 1.43 6.632 0l4.24-3.061c3.747-2.706 8.978-.03 8.978 4.59z" fill="#f39e22"/><path d="m210.556 41v50.318c0 16.299-13.214 29.513-29.513 29.513h-3.554v-89.584c1.165 0 2.329.355 3.318 1.072l9.899 7.152c1.98 1.43 4.653 1.43 6.632 0l4.24-3.061c3.747-2.706 8.978-.03 8.978 4.59z" fill="#f9c744"/></g><g><path d="m199.829 53.861v33.992c0 11.012-8.928 19.939-19.939 19.939h-4.799c-11.012 0-19.939-8.928-19.939-19.939v-33.992c0-3.121 3.535-4.93 6.066-3.102l2.862 2.068c1.339.967 3.145.967 4.481 0l6.691-4.831c.668-.484 1.454-.724 2.239-.724.786 0 1.571.24 2.239.724l6.691 4.831c1.336.967 3.142.967 4.481 0l2.862-2.068c2.53-1.828 6.065-.019 6.065 3.102z" fill="#c0405c"/><path d="m199.829 53.861v33.992c0 11.012-8.928 19.939-19.939 19.939h-2.4v-60.52c.786 0 1.571.24 2.239.724l6.691 4.831c1.336.967 3.142.967 4.481 0l2.862-2.068c2.531-1.828 6.066-.019 6.066 3.102z" fill="#fa4654"/></g><path d="m205.193 91.028c-2.962 0-5.364-2.401-5.364-5.364v-37.41c0-2.962 2.401-5.364 5.364-5.364 2.962 0 5.364 2.401 5.364 5.364v37.41c-.001 2.963-2.402 5.364-5.364 5.364z" fill="#fad98f"/></g><g><g><path d="m367.577 41v50.318c0 16.299-13.214 29.513-29.513 29.513h-7.107c-16.299 0-29.513-13.214-29.513-29.513v-50.318c0-4.62 5.232-7.295 8.977-4.59l4.24 3.061c1.98 1.43 4.653 1.43 6.632 0l9.899-7.152c.988-.717 2.153-1.072 3.318-1.072s2.329.355 3.318 1.072l9.899 7.152c1.98 1.43 4.653 1.43 6.632 0l4.24-3.061c3.746-2.706 8.978-.03 8.978 4.59z" fill="#f39e22"/><path d="m367.577 41v50.318c0 16.299-13.214 29.513-29.513 29.513h-3.554v-89.584c1.165 0 2.329.355 3.318 1.072l9.899 7.152c1.98 1.43 4.653 1.43 6.632 0l4.24-3.061c3.746-2.706 8.978-.03 8.978 4.59z" fill="#f9c744"/></g><g><path d="m356.849 53.861v33.992c0 11.012-8.928 19.939-19.939 19.939h-4.799c-11.012 0-19.939-8.928-19.939-19.939v-33.992c0-3.121 3.535-4.93 6.066-3.102l2.862 2.068c1.339.967 3.145.967 4.481 0l6.691-4.831c.668-.484 1.454-.724 2.239-.724s1.571.24 2.239.724l6.691 4.831c1.336.967 3.142.967 4.481 0l2.862-2.068c2.53-1.828 6.065-.019 6.065 3.102z" fill="#528f66"/><path d="m356.849 53.861v33.992c0 11.012-8.928 19.939-19.939 19.939h-2.4v-60.52c.786 0 1.571.24 2.239.724l6.691 4.831c1.336.967 3.142.967 4.481 0l2.862-2.068c2.531-1.828 6.066-.019 6.066 3.102z" fill="#53b976"/></g><path d="m362.213 91.028c-2.962 0-5.364-2.401-5.364-5.364v-37.41c0-2.962 2.401-5.364 5.364-5.364 2.962 0 5.364 2.401 5.364 5.364v37.41c0 2.963-2.402 5.364-5.364 5.364z" fill="#fad98f"/></g></g></g></g></svg>