<?xml version="1.0" encoding="UTF-8"?>
<svg viewBox="0 0 1010 259.33066" xmlns="http://www.w3.org/2000/svg" xmlns:xlink="http://www.w3.org/1999/xlink">
 <defs>
  <linearGradient id="b">
   <stop stop-color="#eda7ad" stop-opacity="0" offset="0"/>
   <stop stop-color="#ffe5e7" stop-opacity=".81132" offset=".32911"/>
   <stop stop-color="#ffe5e7" offset=".51125"/>
   <stop stop-color="#fdd1d5" stop-opacity="0" offset="1"/>
  </linearGradient>
  <linearGradient id="a">
   <stop stop-color="#fff" offset="0"/>
   <stop stop-color="#fff" stop-opacity="0" offset="1"/>
  </linearGradient>
  <linearGradient id="d">
   <stop stop-color="#610505" offset="0"/>
   <stop stop-color="#310303" offset="1"/>
  </linearGradient>
  <linearGradient id="c">
   <stop stop-color="#310603" offset="0"/>
   <stop stop-color="#ae1c3d" stop-opacity="0" offset="1"/>
  </linearGradient>
  <linearGradient id="e">
   <stop stop-color="#fee471" offset="0"/>
   <stop stop-color="#d1aa2f" offset=".22621"/>
   <stop stop-color="#f0ce70" offset=".38404"/>
   <stop stop-color="#e3ba46" offset=".5"/>
   <stop stop-color="#ffffe4" offset=".65417"/>
   <stop stop-color="#ffffa0" offset=".75895"/>
   <stop stop-color="#feef76" offset=".87947"/>
   <stop stop-color="#dfb23b" offset="1"/>
  </linearGradient>
  <linearGradient id="i" x1="276.42" x2="948.56" y1="496.65" y2="676.75" gradientUnits="userSpaceOnUse" spreadMethod="reflect">
   <stop stop-color="#fee471" offset="0"/>
   <stop stop-color="#c6922a" offset=".22621"/>
   <stop stop-color="#f0ce70" offset=".38404"/>
   <stop stop-color="#e3ba46" offset=".52925"/>
   <stop stop-color="#ffffe4" offset=".62606"/>
   <stop stop-color="#ffffa0" offset=".65758"/>
   <stop stop-color="#feef76" offset=".71158"/>
   <stop stop-color="#dfb23b" offset="1"/>
  </linearGradient>
  <linearGradient id="q" x1="557.7" x2="694.35" y1="1520.7" y2="1482.4" gradientUnits="userSpaceOnUse" xlink:href="#e"/>
  <linearGradient id="p" x1="-450" x2="-317.14" y1="1477.4" y2="1490.2" gradientTransform="matrix(-1 0 0 1 272.58 20)" gradientUnits="userSpaceOnUse" xlink:href="#a"/>
  <linearGradient id="o" x1="-153.26" x2="-217.65" gradientUnits="userSpaceOnUse" xlink:href="#c"/>
  <linearGradient id="n" x1="593.73" x2="504.38" y1="1475.4" y2="1486.3" gradientTransform="matrix(-1 0 0 1 405.41 -950.62)" gradientUnits="userSpaceOnUse" xlink:href="#d" spreadMethod="reflect"/>
  <linearGradient id="m" x1="689.87" x2="826.51" y1="570.12" y2="531.74" gradientUnits="userSpaceOnUse" xlink:href="#e"/>
  <linearGradient id="l" x1="690.4" x2="754.79" gradientUnits="userSpaceOnUse" xlink:href="#c"/>
  <linearGradient id="k" x1="-450" x2="-317.14" y1="1477.4" y2="1490.2" gradientTransform="matrix(-1 0 0 1 404.74 -930.62)" gradientUnits="userSpaceOnUse" xlink:href="#a"/>
  <linearGradient id="j" x1="725.89" x2="636.55" y1="524.81" y2="535.64" gradientUnits="userSpaceOnUse" xlink:href="#d" spreadMethod="reflect"/>
  <linearGradient id="h" x1="152.29" x2="216.5" y1="232.34" y2="231.81" gradientTransform="matrix(1.4398 -.01538 .02728 1.2642 -474.08 163.2)" gradientUnits="userSpaceOnUse" xlink:href="#b"/>
  <linearGradient id="g" x1="152.29" x2="216.5" y1="232.34" y2="231.81" gradientTransform="matrix(-1.4398 -.01538 -.02728 1.2642 1011.7 163.2)" gradientUnits="userSpaceOnUse" xlink:href="#b"/>
  <radialGradient id="f" cx="136.62" cy="1474.4" r="523.26" gradientTransform="matrix(.45586 0 0 .34176 206.51 -42.537)" gradientUnits="userSpaceOnUse" xlink:href="#a" spreadMethod="reflect"/>
 </defs>
 <g transform="matrix(.85106 0 0 .85106 281.43 -301.52)">
  <g transform="matrix(-1 0 0 1 404.98 -950.62)">
   <path d="m559.79 1416.1c-0.0401 0.606-0.0685 1.2098-0.0685 1.8259v147.82c0 15.126 13.603 28.945 30.419 27.389 50.446-4.669 63.929-39.84 133.75-39.84-15.515-22.565-47.354-39.14-75.982-60.99 5.9599-27.391 54.488-70.487 75.982-90.111-69.524-0.3696-66.96 39.84-136.78 39.84-14.514 0-26.383-11.651-27.32-25.928z" fill="#800000"/>
   <path d="m700.1 1424c-6.2808 5.9592-12.617 12.284-18.406 18.781-30.881 11.313-42.931 33.312-94.562 33.312-14.514 0-26.406-11.66-27.344-25.938-0.0401 0.606-0.0625 1.1964-0.0625 1.8125v-14c0-0.6161 0.0224-1.2065 0.0625-1.8125 0.93776 14.277 12.83 25.938 27.344 25.938 60.728 0 66.707-30.411 112.97-38.094zm-9.8438 98.594c5.874 3.8694 11.306 7.6067 16.219 11.562-55.079 5.2519-70.38 34.78-116.31 39.031-16.816 1.5566-30.438-12.28-30.438-27.406v-14c0 15.126 13.621 28.963 30.438 27.406 41.072-3.8012 57.67-27.797 100.09-36.594z" fill="url(#q)"/>
   <path d="m720.69 1402.2c-66.255 0.865-64.828 39.844-133.56 39.844-14.514 0-26.406-11.66-27.344-25.938-0.0401 0.606-0.0625 1.1964-0.0625 1.8125v147.81c0 15.126 13.621 28.963 30.438 27.406 50.446-4.669 63.925-39.844 133.75-39.844-15.515-21.85-47.367-39.127-75.996-60.978 5.9599-27.391 54.501-70.492 75.996-90.116-1.0863-0.01-2.1671-0.014-3.2188 0z" fill="url(#p)" opacity=".25"/>
  </g>
  <path d="m-154.8 465.5c0.0401 0.606 0.0625 1.1964 0.0625 1.8125v147.81c0 15.126-13.621 28.963-30.438 27.406-12.503-1.1571-22.712-4.189-32.094-8.0937v-147.41c9.4918 2.6975 20.769 4.4063 35.125 4.4063 14.514 0 26.406-11.66 27.344-25.938z" fill="url(#o)" opacity=".8"/>
  <path d="m-278.51 489.77c32.667 11.313 44.36 33.67 95.991 33.67 14.514 0 26.406-11.66 27.344-25.938 0.0401 0.606 0.0625 1.1964 0.0625 1.8125v-10c0-0.6161-0.0224-1.2065-0.0625-1.8125-0.93776 14.277-12.83 25.938-27.344 25.938-60.728 0-63.136-27.554-110.11-38.094m-6.375 106.87c55.079 5.2519 67.523 34.066 113.46 38.317 16.816 1.5566 30.438-12.28 30.438-27.406v-10c0 15.126-13.621 28.963-30.438 27.406-41.072-3.8012-58.741-27.797-101.17-36.594" fill="none" opacity=".8" stroke="#7d2300" stroke-dasharray="1.5, 1.5" stroke-linecap="round" stroke-width=".75"/>
  <path d="m-154.56 612.97c0.0401-0.606-0.0257-1.2171 0.0685-1.826 6.5916-42.605 2.0928-88.24-0.25254-130.85-0.83145-15.104-12.262-27.389-27.389-27.389-69.524-0.3697 42.596-0.1598-27.229-0.1598-14.514 0-17.811-11.651-18.749-25.928-0.04 0.606-0.11097 1.2113-0.0685 1.8259 2.9038 42.024-4.7666 84.449-8.5714 127.82-1.3221 15.069 12.262 27.389 27.389 27.389 69.524 0.3697-42.596 0.1598 27.229 0.1598 14.514 0 26.635 14.682 27.573 28.959z" fill="url(#n)"/>
  <path d="m691.96 465.5c-0.04 0.606-0.068 1.2098-0.068 1.8259v147.82c0 15.126 13.603 28.945 30.419 27.389 50.446-4.669 63.929-39.84 133.75-39.84-15.515-22.565-47.354-39.14-75.982-60.99 5.9599-27.391 54.488-70.487 75.982-90.111-69.524-0.3696-66.96 39.84-136.78 39.84-14.514 0-26.383-11.651-27.32-25.928z" fill="#800000"/>
  <path d="m832.26 473.35c-6.2808 5.9592-12.618 12.284-18.406 18.781-30.881 11.313-42.931 33.312-94.562 33.312-14.514 0-26.406-11.66-27.344-25.938-0.04 0.606-0.062 1.1964-0.062 1.8125v-14c0-0.6161 0.022-1.2065 0.062-1.8125 0.9377 14.277 12.83 25.938 27.344 25.938 60.728 0 66.707-30.411 112.97-38.094zm-9.8438 98.594c5.8741 3.8694 11.306 7.6067 16.219 11.562-55.079 5.2519-70.38 34.78-116.31 39.031-16.816 1.5566-30.438-12.28-30.438-27.406v-14c0 15.126 13.621 28.963 30.438 27.406 41.072-3.8012 57.67-27.797 100.09-36.594z" fill="url(#m)"/>
  <path d="m691.95 465.5c-0.04 0.606-0.062 1.1964-0.062 1.8125v147.81c0 15.126 13.621 28.963 30.438 27.406 12.503-1.1571 22.712-4.189 32.094-8.0937v-147.41c-9.4918 2.6975-20.769 4.4063-35.125 4.4063-14.514 0-26.406-11.66-27.344-25.938z" fill="url(#l)" opacity=".8"/>
  <path d="m815.28 489.77c-32.667 11.313-44.36 33.67-95.991 33.67-14.514 0-26.406-11.66-27.344-25.938-0.04 0.606-0.062 1.1964-0.062 1.8125v-10c0-0.6161 0.022-1.2065 0.062-1.8125 0.9377 14.277 12.83 25.938 27.344 25.938 60.728 0 63.136-27.554 110.11-38.094m6.375 106.87c-55.079 5.2519-67.522 34.066-113.46 38.317-16.816 1.5566-30.438-12.28-30.438-27.406v-10c0 15.126 13.621 28.963 30.438 27.406 41.072-3.8012 58.741-27.797 101.17-36.594" fill="none" opacity=".8" stroke="#7d2300" stroke-dasharray="1.5, 1.5" stroke-linecap="round" stroke-width=".75"/>
  <path d="m852.85 451.6c-66.255 0.865-64.828 39.844-133.56 39.844-14.514 0-26.406-11.66-27.344-25.938-0.04 0.606-0.062 1.1964-0.062 1.8125v147.81c0 15.126 13.621 28.963 30.438 27.406 50.446-4.669 63.925-39.844 133.75-39.844-15.515-21.85-47.368-39.127-75.996-60.978 5.9599-27.391 54.502-70.492 75.996-90.116-1.0863-0.01-2.1671-0.014-3.2188 0z" fill="url(#k)" opacity=".25"/>
  <path d="m691.85 612.17c-0.04-0.606 0.034-1.2184-0.068-1.826-6.3982-37.806-3.7509-84.227 0.5357-130.05 1.409-15.061 12.262-27.389 27.389-27.389 69.524-0.3697-42.596-0.1598 27.229-0.1598 14.514 0 14.261-0.034 20.249-26.938-12.336 49.943 4.7515 87.143 7.1396 130.65 0.829 15.104-12.262 27.389-27.389 27.389-69.524 0.3697 42.596 0.1598-27.229 0.1598-14.514 0-26.918 13.883-27.856 28.16z" fill="url(#j)"/>
  <path d="m-171.65 366.07c-12.851 0.3059-25.325 3.4126-37.719 10.094-13.315 7.1776-25.355 17.274-27.375 27.375 6.5648 60.212 4.8057 106.55 0 147.81-0.0713 0.6118 0.0225 1.2065 0.0625 1.8124 0.93776-14.277 13.118-22.878 27.312-25.906 104.19-22.223 206.69 120 478.16 120s373.97-142.22 478.16-120c14.195 3.0278 26.375 11.629 27.312 25.906 0.04-0.6059 0.1509-1.2029 0.062-1.8124-7.2978-50.313-6.0093-99.4 0-147.81-4.0406-15.152-14.06-20.197-27.375-27.375-99.153-53.449-202.42 122.64-478.16 119.78-241.27 2.5-350.48-132.02-440.44-129.88z" fill="#a00"/>
  <path d="m-171.65 386.07c-12.851 0.3059-25.325 3.4129-37.719 10.094-11.372 6.13-21.779 14.396-25.844 22.969 0.36448 4.1044 0.68155 8.1494 0.96875 12.125 4.6039-7.895 14.334-15.411 24.875-21.094 12.394-6.6809 24.867-9.7878 37.719-10.094 89.96-2.1416 199.17 132.38 440.44 129.88 275.74 2.8571 379-173.23 478.16-119.78 10.888 5.8693 19.58 10.322 24.594 20.031 0.3318-3.89 0.6946-7.7759 1.0938-11.656-4.7815-11.372-13.962-16.054-25.688-22.375-99.153-53.449-202.42 122.64-478.16 119.78-241.27 2.5-350.48-132.02-440.44-129.88zm-15.719 104.84c-7.3684 0.043-14.674 0.7812-22 2.3438-10.029 2.1393-19.05 7.0723-23.812 14.812-0.25499 5.3124-0.56054 10.516-0.9375 15.625 4.4459-8.6918 14.027-14.15 24.75-16.438 104.19-22.223 206.69 120 478.16 120s373.97-142.22 478.16-120c10.244 2.1852 19.448 7.2829 24.125 15.312-0.4363-5.2399-0.7951-10.44-1.0625-15.656-4.9228-7.0808-13.538-11.625-23.062-13.656-104.19-22.223-206.69 120-478.16 120-252.38 0-358.73-122.91-456.16-122.34z" fill="url(#i)"/>
  <path d="m-171.65 366.07c-12.851 0.3059-25.325 3.4127-37.719 10.094-13.315 7.1776-25.355 17.274-27.375 27.375 6.5648 60.212 4.8057 106.55 0 147.81 0 0.6159 0.0225 1.2065 0.0625 1.8124 0.93776-14.277 13.118-22.878 27.312-25.906 104.19-22.223 206.69 120 478.16 120 2.1209 0 4.2434-0.014 6.3438-0.031 243.64-1.997 349.58-118.83 444.88-122.25 9.037-0.3246 17.984 0.3714 26.938 2.2812 14.195 3.0278 26.375 11.629 27.312 25.906 0.04-0.6059 0.062-1.1965 0.062-1.8124-7.2978-50.314-6.0093-99.4 0-147.81-4.0406-15.152-14.06-20.197-27.375-27.375-32.534-17.538-65.507-10.364-104.88 7.0938-1.8747 0.8313-3.7832 1.6861-5.6875 2.5625-24.756 11.393-52.062 26.457-83.344 41.781-2.4063 1.1787-4.8274 2.351-7.2812 3.5312-14.723 7.0813-30.307 14.166-46.906 20.906-2.7665 1.1235-5.5831 2.2407-8.4062 3.3438-16.939 6.6184-34.893 12.851-54.031 18.344-3.1897 0.9153-6.401 1.8143-9.6562 2.6874-9.7658 2.6196-19.839 5.035-30.219 7.2188-1.7299 0.364-3.4713 0.712-5.2188 1.0625-10.485 2.103-21.299 3.9622-32.438 5.5313-1.8565 0.2615-3.7186 0.5359-5.5938 0.7812-11.251 1.4719-22.836 2.629-34.781 3.4688-1.9909 0.1399-3.9892 0.2852-6 0.4062-8.0431 0.4842-16.258 0.8029-24.625 0.9688-2.0918 0.041-4.1688 0.073-6.2812 0.094-4.2248 0.041-8.5041 0.045-12.812 0-241.27 2.5-350.48-132.02-440.44-129.88z" fill="url(#f)" opacity=".2"/>
  <path d="m-234.24 429.25c4.6039-7.895 14.334-15.411 24.875-21.094 12.394-6.6809 24.867-9.7878 37.719-10.094 89.96-2.1416 199.17 132.38 440.44 129.88 275.74 2.8571 379-173.23 478.16-119.78 10.888 5.8693 19.58 10.322 24.594 20.031m1.0937-7.6563c-4.7815-11.372-13.962-16.054-25.687-22.375-99.153-53.449-202.42 122.64-478.16 119.78-241.27 2.5-350.48-132.02-440.44-129.88-12.851 0.3059-25.325 3.4129-37.719 10.094-11.372 6.13-21.779 14.396-25.844 22.969m1.0938 100.56c4.4459-8.6918 14.027-14.15 24.75-16.438 104.19-22.223 206.69 120 478.16 120s373.97-142.22 478.16-120c10.244 2.1852 19.448 7.2829 24.125 15.312m-1.0625-11.656c-4.9227-7.0808-13.538-11.625-23.062-13.656-104.19-22.223-206.69 120-478.16 120-252.38 0-358.73-122.91-456.16-122.34-7.3684 0.043-14.674 0.7812-22 2.3438-10.029 2.1393-19.05 7.0723-23.812 14.812" fill="none" opacity=".75" stroke="#462b19" stroke-dasharray="1.5, 1.5" stroke-linecap="round" stroke-width=".75"/>
  <path d="m-171.65 366.07c-12.851 0.3059-25.325 3.4128-37.719 10.094-13.315 7.1776-25.355 17.274-27.375 27.375 6.5648 60.212 4.8057 106.55 0 147.81 0 0.6159 0.0225 1.2065 0.0625 1.8124 0.93776-14.277 13.118-22.878 27.312-25.906 19.03-4.0591 38.012-2.607 57.969 2.4375l-3.5-162.56c-5.6703-0.8283-11.249-1.1934-16.75-1.0625z" fill="url(#h)" opacity=".5"/>
  <path d="m709.23 366.07c12.852 0.3059 25.325 3.4128 37.719 10.094 13.315 7.1776 25.355 17.274 27.375 27.375-6.5648 60.212-4.8057 106.55 0 147.81 0 0.6159-0.023 1.2065-0.062 1.8124-0.9378-14.277-13.118-22.878-27.312-25.906-19.03-4.0591-38.012-2.607-57.969 2.4375l3.5-162.56c5.6703-0.8283 11.249-1.1934 16.75-1.0625z" fill="url(#g)" opacity=".5"/>
 </g>
</svg>
