<?xml version="1.0" encoding="UTF-8"?>
<svg version="1.1" viewBox="0 0 512 128" xmlns="http://www.w3.org/2000/svg" xmlns:xlink="http://www.w3.org/1999/xlink">
 <defs>
  <filter id="n" x="-.019646" y="-.10001" width="1.0393" color-interpolation-filters="sRGB">
   <feGaussianBlur stdDeviation="4.5426535"/>
  </filter>
  <radialGradient id="c" cx="638.15" cy="461.1" r="45.984" gradientTransform="matrix(-1.958 0 0 -13.995 1862.1 6882.8)" gradientUnits="userSpaceOnUse" xlink:href="#m"/>
  <linearGradient id="m">
   <stop stop-color="#980101" offset="0"/>
   <stop stop-color="#f56a0a" offset=".20109"/>
   <stop stop-color="#d40000" offset=".39499"/>
   <stop stop-color="#660a0a" offset="1"/>
  </linearGradient>
  <linearGradient id="e" x1="624.28" x2="649.1" y1="422.99" y2="422.99" gradientUnits="userSpaceOnUse" xlink:href="#f"/>
  <linearGradient id="f">
   <stop stop-color="#980101" offset="0"/>
   <stop stop-color="#fb8b00" offset=".44671"/>
   <stop stop-color="#d40000" offset=".81367"/>
   <stop stop-color="#888" offset="1"/>
  </linearGradient>
  <radialGradient id="b" cx="914.62" cy="-407.24" r="19.094" fx="920.79" fy="-414.95" gradientTransform="matrix(-2.2091 0 0 -5.452 2936.9 -2774.2)" gradientUnits="userSpaceOnUse" xlink:href="#k"/>
  <linearGradient id="k">
   <stop stop-color="#670101" offset="0"/>
   <stop stop-color="#c62400" offset=".28287"/>
   <stop stop-color="#de5116" offset=".44252"/>
   <stop stop-color="#e27f4e" offset=".69376"/>
   <stop stop-color="#c63200" offset=".86399"/>
   <stop stop-color="#3c0000" offset="1"/>
  </linearGradient>
  <linearGradient id="d" x1="652.82" x2="704.67" y1="450.43" y2="450.43" gradientUnits="userSpaceOnUse" xlink:href="#f"/>
  <linearGradient id="l" x1="644.83" x2="827.37" y1="478.28" y2="478.28" gradientTransform="matrix(2.0095 0 0 1 -649.46 0)" gradientUnits="userSpaceOnUse">
   <stop stop-color="#a3a3a3" offset="0"/>
   <stop stop-color="#980101" offset="0"/>
   <stop stop-color="#fd3301" offset=".17497"/>
   <stop stop-color="#f39f3e" offset=".47699"/>
   <stop stop-color="#fd3301" offset=".76874"/>
   <stop stop-color="#980101" offset="1"/>
  </linearGradient>
  <radialGradient id="j" cx="828.16" cy="681.68" r="177.95" gradientTransform="matrix(.99996 -.017338 .0086111 2.041 -6.5605 -919.65)" gradientUnits="userSpaceOnUse" xlink:href="#a"/>
  <linearGradient id="a">
   <stop stop-color="#fff6cf" offset="0"/>
  </linearGradient>
  <radialGradient id="i" cx="828.16" cy="681.68" r="177.95" gradientTransform="matrix(.99996 -.00052878 .0086111 .062247 -6.5605 421.64)" gradientUnits="userSpaceOnUse" xlink:href="#a"/>
  <radialGradient id="h" cx="828.16" cy="681.68" r="177.95" gradientTransform="matrix(.7513 -.00026439 .0064698 .031123 199.31 574.66)" gradientUnits="userSpaceOnUse" xlink:href="#a"/>
  <radialGradient id="g" cx="828.16" cy="681.68" r="177.95" gradientTransform="matrix(.7513 -.00026439 .0064698 .031123 199.31 442.45)" gradientUnits="userSpaceOnUse" xlink:href="#a"/>
 </defs>
 <g transform="translate(-24.071 260.82)">
  <g transform="matrix(1.0261 0 0 1.0261 -5976.1 -2199.2)">
   <g transform="matrix(.96137 0 0 .96137 5808.7 3399.6)">
    <g transform="matrix(1.3266 0 0 1.5057 -319.01 -2281.9)">
     <path transform="matrix(.58163 0 0 .2733 -10.62 376.55)" d="m543.17 488.82c27.462-4.1405 26.976 15.109 49.144 15.776 13.845 0.41699 34.088-9.0044 38.05 0.56592 7.8777 19.027-24.559 17.168-21.602 32.562 2.4731 12.87 22.964 13.405 30.625 1.3944 7.5763-11.878 27.607-6.9552 27.846 4.5494 0 22.797-23.846 16.348-23.846 31.357 0 12.592 20.626 19.646 38.285 22.229h287.29c17.659-2.5837 28.921-9.6375 28.921-22.229 0-15.009-23.846-8.5603-23.846-31.357 0.2392-11.505 20.27-16.428 27.846-4.5494 7.6609 12.011 28.152 11.476 30.625-1.3944 2.9578-15.393-29.479-13.535-21.602-32.562 3.9625-9.5703 24.205-0.14893 38.05-0.56592 22.168-0.66764 21.682-19.917 49.144-15.776" enable-background="new" fill="none" filter="url(#n)" opacity=".12775" stroke="#000" stroke-width="13.039"/>
     <g transform="matrix(.94701 0 0 .94701 -493.67 1007.9)" fill-rule="evenodd" stroke-width="1px">
      <path transform="matrix(.63765 0 0 .27712 489.55 -658.96)" d="m543.67 385.3c27.462-2.9693 26.971 11.314 49.144 11.314 21.929 0 42.824-12.471 42.824 16.107l-0.12446 110.89c-0.0716 7.1717-25.761 3.5014-31.563 2.8909-19.15 0-17.858-33.305-56.922-33.305 6.8666-1.9226 21.837-42.875 31.229-39.074-4.2198-8.9685-22.385-68.82-34.588-68.82z" enable-background="new" fill="url(#c)"/>
      <path transform="matrix(.63765 0 0 .27712 489.55 -658.96)" d="m616.84 446.99c6.6573 6.6573 18.305 2.0035 18.305-6.0442 0-15.305 3.9088-40.727-5.784-45.126 10.916 15.085-23.115 12.769-20.618 24.564 2.8425 20.115 5.1373 23.647 8.0964 26.606z" enable-background="new" fill="url(#e)"/>
      <path d="m877.63-542.72s2.8018 33.431 3.4394 33.847c0.63765 0.41568 2.71 2.0091 8.7677 2.0091 8.8207 0 7.4405-1.7476 13.449-2.4279 4.1703-0.47218 12.772-0.60973 12.528-2.8373l-0.78823-29.16c-0.25121-2.2847-12.615-3.2647-17.446-0.90411-4.8849 2.3869-17.995 2.7069-19.949-0.52626z" enable-background="new" fill="url(#b)"/>
      <path transform="matrix(.63765 0 0 .27712 489.55 -658.96)" d="m653.84 473.74c6.6573 6.6573 19.082-0.74568 18.146-8.7388l-4.7361-40.453c0 16.599-23.889 11.327-23.889 22.847 1.3425 20.115 7.5199 23.386 10.479 26.345z" enable-background="new" fill="url(#d)"/>
     </g>
     <g transform="matrix(-.94701 0 0 .94701 1425 1007.9)" fill-rule="evenodd" stroke-width="1px">
      <path transform="matrix(.63765 0 0 .27712 489.55 -658.96)" d="m543.67 385.3c27.462-2.9693 26.971 11.314 49.144 11.314 21.929 0 42.824-12.471 42.824 16.107l-0.12446 110.89c-0.0716 7.1717-25.761 3.5014-31.563 2.8909-19.15 0-17.858-33.305-56.922-33.305 6.8666-1.9226 21.837-42.875 31.229-39.074-4.2198-8.9685-22.385-68.82-34.588-68.82z" enable-background="new" fill="url(#c)"/>
      <path transform="matrix(.63765 0 0 .27712 489.55 -658.96)" d="m616.84 446.99c6.6573 6.6573 18.305 2.0035 18.305-6.0442 0-15.305 3.9088-40.727-5.784-45.126 10.916 15.085-23.115 12.769-20.618 24.564 2.8425 20.115 5.1373 23.647 8.0964 26.606z" enable-background="new" fill="url(#e)"/>
      <path d="m877.63-542.72s2.8018 33.431 3.4394 33.847c0.63765 0.41568 2.71 2.0091 8.7677 2.0091 8.8207 0 7.4405-1.7476 13.449-2.4279 4.1703-0.47218 12.772-0.60973 12.528-2.8373l-0.78823-29.16c-0.25121-2.2847-12.615-3.2647-17.446-0.90411-4.8849 2.3869-17.995 2.7069-19.949-0.52626z" enable-background="new" fill="url(#b)"/>
      <path transform="matrix(.63765 0 0 .27712 489.55 -658.96)" d="m653.84 473.74c6.6573 6.6573 19.082-0.74568 18.146-8.7388l-4.7361-40.453c0 16.599-23.889 11.327-23.889 22.847 1.3425 20.115 7.5199 23.386 10.479 26.345z" enable-background="new" fill="url(#d)"/>
     </g>
     <g transform="matrix(.60387 0 0 .26243 -30.062 383.9)" enable-background="new">
      <path d="m701.63 599.98c-39.667-3.6008-44.174-6.9161-50.942-23.335-2.8418-6.8943-7.3266-129.47-7.3266-129.47 0 11.289 35.083 14.399 58.125 15.91h244.3c23.041-1.5104 44.273 0.57241 53.483-17.922 0 0-3.1552 124.59-5.997 131.48-6.7677 16.418-6.6598 19.641-46.292 23.335z" fill="url(#l)" fill-rule="evenodd" stroke-width="1px"/>
      <path d="m1094.7 489.53c-6.8666-1.9226-21.838-37.479-31.229-33.678m-520.34-68.062c27.462-2.9693 26.976 10.835 49.144 11.314 13.845 0.29904 34.088-6.4573 38.05 0.40584 7.8777 13.645-24.559 12.312-21.602 23.351 2.4731 9.2297 22.964 9.6134 30.625 1 7.5763-8.5184 27.607-4.9878 27.846 3.2626 0 16.349-23.846 11.724-23.846 22.487 0 9.03 20.626 14.089 38.285 15.941h287.29c17.659-1.8529 28.921-6.9114 28.921-15.941 0-10.764-23.846-6.1388-23.846-22.487 0.2392-8.2503 20.27-11.781 27.846-3.2626 7.6609 8.6134 28.152 8.2297 30.625-1 2.9578-11.039-29.479-9.7065-21.602-23.351 3.9625-6.8632 24.205-0.1068 38.05-0.40584 22.168-0.47879 21.682-14.283 49.144-11.314m-551.57 101.74c6.8666-1.9226 21.837-37.479 31.229-33.678" fill="none" opacity=".54185" stroke="#e9d675" stroke-width="2.6118"/>
      <path d="m701.63 599.98c-39.667-3.6008-44.174-6.9161-50.942-23.335-2.8418-6.8943-7.3266-129.47-7.3266-129.47 0 11.289 35.083 14.399 58.125 15.91h244.3c23.041-1.5104 44.273 0.57241 53.483-17.922 0 0-3.1552 124.59-5.997 131.48-6.7677 16.418-6.6598 19.641-46.292 23.335z" fill="url(#j)" fill-rule="evenodd" opacity=".66045" stroke-width="1px"/>
      <path d="m701.63 467.98c-39.667-0.10981-44.174-0.21092-50.942-0.71165-2.8418-0.21025-7.3266-3.9486-7.3266-3.9486 0 0.34429 35.083 0.43914 58.125 0.48521h244.3c23.041-0.0461 44.273 0.0174 53.483-0.54657 0 0-3.1552 3.7997-5.997 4.0099-6.7677 0.50073-6.6598 0.59901-46.292 0.71165z" fill="url(#i)" fill-rule="evenodd" stroke-width="1px"/>
      <path d="m731.39 597.83c-29.803-0.0549-33.189-0.10546-38.274-0.35582-2.1351-0.10513-5.5047-1.9743-5.5047-1.9743 0 0.17215 26.359 0.21958 43.671 0.24261h183.55c17.312-0.023 33.264 9e-3 40.183-0.27328 0 0-2.3706 1.8998-4.5057 2.005-5.0848 0.25036-5.0037 0.2995-34.781 0.35582z" fill="url(#h)" fill-rule="evenodd" opacity=".5" stroke-width="1px"/>
      <path d="m731.39 465.62c-29.803-0.0549-33.189-0.10546-38.274-0.35582-2.1351-0.10513-5.5047-1.9743-5.5047-1.9743 0 0.17215 26.359 0.21958 43.671 0.24261h183.55c17.312-0.023 33.264 9e-3 40.183-0.27328 0 0-2.3706 1.8998-4.5057 2.005-5.0848 0.25036-5.0037 0.2995-34.781 0.35582z" fill="url(#g)" fill-rule="evenodd" opacity=".5" stroke-width="1px"/>
     </g>
    </g>
   </g>
  </g>
 </g>
</svg>
