<?xml version="1.0" encoding="UTF-8"?>
<svg viewBox="0 0 1276.21 214.30673" xmlns="http://www.w3.org/2000/svg" xmlns:xlink="http://www.w3.org/1999/xlink">
 <defs>
  <linearGradient id="e">
   <stop stop-color="#0e0e0e" offset="0"/>
   <stop stop-color="#9e9e9e" offset=".27433"/>
   <stop stop-color="#868686" offset="1"/>
  </linearGradient>
  <linearGradient id="a">
   <stop offset="0"/>
   <stop stop-color="#b6b6b6" offset=".56972"/>
   <stop offset="1"/>
  </linearGradient>
  <linearGradient id="n" x1="309.29" x2="325.88" y1="942.08" y2="942.69" gradientUnits="userSpaceOnUse">
   <stop offset="0"/>
   <stop stop-color="#b6b6b6" offset=".75931"/>
   <stop offset="1"/>
  </linearGradient>
  <linearGradient id="l" x1="292.08" x2="368.12" y1="933.33" y2="920.03" gradientUnits="userSpaceOnUse">
   <stop stop-color="#4c4c4c" offset="0"/>
   <stop offset=".48633"/>
   <stop stop-color="#3b3b3b" offset="1"/>
  </linearGradient>
  <linearGradient id="j" x1="303.17" x2="386.4" y1="909.14" y2="893.5" gradientUnits="userSpaceOnUse">
   <stop stop-color="#2f2b2b" offset="0"/>
   <stop stop-color="#b6b6b6" offset=".14008"/>
   <stop stop-color="#565656" stop-opacity=".73504" offset=".5077"/>
   <stop stop-color="#9f9f9f" stop-opacity="0" offset=".86307"/>
   <stop stop-color="#0f0000" stop-opacity="0" offset="1"/>
  </linearGradient>
  <linearGradient id="i" x1="301.33" x2="380.27" y1="934.87" y2="887.98" gradientUnits="userSpaceOnUse">
   <stop stop-color="#2f2b2b" stop-opacity="0" offset="0"/>
   <stop stop-color="#b6b6b6" stop-opacity="0" offset=".14008"/>
   <stop stop-color="#565656" stop-opacity=".60684" offset=".53732"/>
   <stop stop-color="#9f9f9f" offset=".85961"/>
   <stop offset="1"/>
  </linearGradient>
  <linearGradient id="g" x1="297.12" x2="407.33" y1="898.47" y2="836.22" gradientUnits="userSpaceOnUse">
   <stop stop-color="#c1c1c1" offset="0"/>
   <stop stop-color="#454545" offset=".15467"/>
   <stop stop-color="#a69e9e" offset=".34259"/>
   <stop stop-color="#463e3e" offset=".64078"/>
   <stop stop-color="#9b9b9b" offset="1"/>
  </linearGradient>
  <linearGradient id="f" x1="305.01" x2="334.43" y1="899.71" y2="892.66" gradientUnits="userSpaceOnUse">
   <stop stop-color="#757575" offset="0"/>
   <stop offset=".5"/>
   <stop stop-color="#3e3e3e" offset="1"/>
  </linearGradient>
  <linearGradient id="d" x1="342.57" x2="457.25" gradientUnits="userSpaceOnUse">
   <stop stop-color="#5d5d5d" offset="0"/>
   <stop stop-color="#262626" offset=".5"/>
   <stop stop-color="#727272" offset="1"/>
  </linearGradient>
  <linearGradient id="c" x1="437.76" x2="456.18" y1="867.92" y2="874.2" gradientUnits="userSpaceOnUse">
   <stop offset="0"/>
   <stop stop-color="#4f4f4f" offset=".5"/>
   <stop offset="1"/>
  </linearGradient>
  <linearGradient id="b" x1="348.04" x2="366.99" y1="884.76" y2="870.52" gradientUnits="userSpaceOnUse">
   <stop offset="0"/>
   <stop stop-color="#454545" offset=".5"/>
   <stop offset="1"/>
  </linearGradient>
  <linearGradient id="o" x1="496.68" x2="497.33" y1="882.18" y2="956.82" gradientUnits="userSpaceOnUse">
   <stop stop-color="#8e8d8d" offset="0"/>
   <stop stop-color="#878787" offset="1"/>
  </linearGradient>
  <linearGradient id="m" x1="326.6" x2="297.2" y1="935.94" y2="937.09" gradientUnits="userSpaceOnUse" xlink:href="#a"/>
  <linearGradient id="k" x1="292.13" x2="302.04" gradientUnits="userSpaceOnUse" xlink:href="#a"/>
  <linearGradient id="h" x1="320.94" x2="339.78" y1="899.41" y2="895.89" gradientUnits="userSpaceOnUse" xlink:href="#a"/>
  <linearGradient id="q" x1="424.83" x2="501.59" y1="898.1" y2="915.89" gradientUnits="userSpaceOnUse" xlink:href="#e"/>
  <linearGradient id="p" x1="424.83" x2="499.55" y1="898.1" y2="912.83" gradientUnits="userSpaceOnUse" xlink:href="#e"/>
 </defs>
 <g transform="matrix(1.6975 0 0 1.6975 -495.91 -1419.5)" fill-rule="evenodd">
  <path d="m429.2 910.99 27.849-52.739c0.29507-0.46951 0.11587-1.1239-0.77415-2.0256-5.7214-5.7964-9.0134-7.4866-18.97-12.816-4.0254-2.1546-17.123-7.0149-37.183-7.0224-15.157 1.557-24.153 6.6626-31.23 10.326-6.9916 3.6194-18.588 12.56-25.286 21.822-1.0687 1.4776-1.1746 2.4476-0.7451 2.967l43.948 44.811c7.4822-7.1486 23.638-22.827 42.39-5.3226z" fill="url(#d)"/>
  <path d="m370.91 877.06-6.3988-10.228c-0.24359-0.44701-0.82544-0.60083-2.0855-0.22005-4.83 1.4596-6.9834 3.2656-10.655 5.4141-2.9678 1.7365-6.9814 3.4757-9.7898 3.9279-1.1011 0.17268-1.9253-0.14404-2.4499-0.76613l16.616 17.842c8.888-1.8524 12.337-8.464 14.763-15.97z" fill="url(#b)"/>
  <path d="m435.52 883.21 6.5628-20.426c-0.03913-1.3488 2.1585-2.0397 5.1044-1.7139 3.4516 0.3817 11.776 0.64988 12.912-1.8279-2.9705 5.2132-6.9072 15.117-9.2893 20.722-4.4805 2.2959-9.4192-0.15949-15.29 3.2451z" fill="url(#c)"/>
  <path d="m333.55 901.34-25.824 4.937-3.0273-9.368c-0.09864-1.1615 0.91123-2.4129 3.0548-3.7334 4.4384-2.7342 8.7668-5.1165 14.945-5.9821 4.3323-0.60696 9.3185-0.57023 11.325 1.5539 0.26314 0.27854 0.3856 0.62625 0.32982 1.0186l-0.80399 11.574z" fill="url(#f)"/>
  <path d="m322.19 903.9c2.3668 3.0433 16.987 0.70362 17.535-4.3839-0.19789-2.9212-0.27457-7.9736-0.14849-11.161-0.05557 2.4224-2.8409 5.6374-4.9437 6.7392-5.5232 2.894-13.012 2.6164-13.63 1e-5 0.48619 3.063 1.0854 5.743 1.1869 8.806z" fill="url(#h)"/>
  <path d="m366.83 920.1c-4.4918 5.9063-3.4222 7.5971-16.502 17.421-10.777 7.9549-28.684 9.1809-37.828 9.0357-4.0596-0.06338-6.9516-2.2145-6.8151-3.9818 0.52664 4.7098 1.1897 9.4196 1.1346 14.129 0.15091 1.55 2.4603 3.2287 8.2461 4.3028 12.416 2.305 35.689 2.4019 51.919-2.9468 24.642-8.1208 29.743-15.688 34.688-21.937 2.3216-2.9343 3.1621-8.1462 1.7209-11.007-14.019-20.267-25.421-40.533-36.602-60.8 2.0721 8.1192-5.4289 17.89-12.405 24.044-5.1334 4.5284-10.993 8.1081-17.765 10.261-6.24 1.9837-12.469 4.1462-18.99 4.2881-9.0841 0.19764-15.905-1.1895-18.225-4.9007 1.3594 5.2581 2.7038 10.516 3.2161 15.774 0.22979 2.4507 11.123 6.3555 17.612 7.6574 7.3718 1.4789 14.856 1.8152 22.36 1.8378 8.7881 0.02639 16.891-1.0911 24.236-3.1778z" fill="#707070"/>
  <path d="m321.32 943.14 0.0655-9.0739c-0.13204-2.7034-9.0967-4.9857-14.855-5.2836-6.211-0.32127-8.0543 0.97872-8.5763 1.9526l0.42198 9.9096c4.4379-1.2672 19.811 0.74205 22.944 2.4953z" fill="url(#m)"/>
  <path d="m366.83 920.1c-4.4918 5.9063-3.4222 7.5971-16.502 17.421-10.777 7.9549-28.684 9.1809-37.828 9.0357-4.0596-0.06338-6.9516-2.2145-6.8151-3.9818 0.52664 4.7098 1.1897 9.4196 1.1346 14.129 0.15091 1.55 2.4603 3.2287 8.2461 4.3028 12.416 2.305 35.689 2.4019 51.919-2.9468 24.642-8.1208 29.743-15.688 34.688-21.937 2.3216-2.9343 3.1621-8.1462 1.7209-11.007-14.019-20.267-25.421-40.533-36.602-60.8 2.0721 8.1192-5.4289 17.89-12.405 24.044-5.1334 4.5284-10.993 8.1081-17.765 10.261-6.24 1.9837-12.469 4.1462-18.99 4.2881-9.0841 0.19764-15.905-1.1895-18.225-4.9007 1.3594 5.2581 2.7038 10.516 3.2161 15.774 0.22979 2.4507 11.123 6.3555 17.612 7.6574 7.3718 1.4789 14.856 1.8152 22.36 1.8378 8.7881 0.02639 16.891-1.0911 24.236-3.1778z" fill="url(#j)"/>
  <path d="m301.65 933.09c0.03055 0.39865-0.07986 0.80873-0.25516 1.2098-0.75763 1.7332-2.7399 2.3349-4.9007 2.0675-2.1492-0.26598-4.0989-1.1013-4.3028-2.623 0.54993 3.4826 0.81538 7.1293 0.69403 10.429 0.10605 1.6412 2.1316 3.0442 4.8584 2.9133 1.8847-0.09043 4.2079-1.8201 4.2359-3.1046-0.61164-3.6308-0.52433-7.2616-0.3297-10.892z" fill="url(#k)"/>
  <path d="m366.83 920.1c-4.3392 6.1228-3.2449 7.4216-16.502 17.421-10.81 7.911-28.684 9.1809-37.828 9.0357-4.0596-0.06338-6.9516-2.2145-6.8151-3.9818 0.15349-1.9873 2.245-3.759 5.4368-4.8242 4.0485-1.351 10.334-2.1712 10.261-3.6756-0.13204-2.7034-9.0967-4.9857-14.855-5.2836-6.211-0.32127-8.0543 0.97872-8.5763 1.9526 3.4176 0.22956 4.1289 1.998 3.4458 3.5607-0.75763 1.7332-2.7399 2.3349-4.9007 2.0675-2.9244-0.36191-5.4793-1.7778-3.8287-4.671 1.058-1.8545 3.9202-3.8126 8.5763-4.2881 5.3529-0.54668 12.918 0.04422 17.306 1.8378s6.9843 2.9772 6.8151 5.4368c-0.16407 2.385-5.1403 3.856-8.4231 4.5944s-7.0302 1.3015-7.1214 3.2927c-0.05993 1.3079 1.46 1.9194 4.5944 1.9909 8.0833 0.18454 18.584-0.85073 28.179-5.0539s18.651-12.06 24.236-19.411z" fill="url(#l)"/>
  <path d="m324.66 944.12c-3.6638 0.4081-7.1172 0.51067-10.252 0.4391s-4.6544-0.68302-4.5944-1.9909c0.09123-1.9912 3.8386-2.5542 7.1214-3.2927s8.2591-2.2095 8.4231-4.5944c-0.3037 3.2173-0.77125 6.5985-0.69805 9.439z" fill="url(#n)"/>
  <path d="m366.83 920.1c-4.4918 5.9063-3.4222 7.5971-16.502 17.421-10.777 7.9549-28.684 9.1809-37.828 9.0357-4.0596-0.06338-6.9516-2.2145-6.8151-3.9818 0.52664 4.7098 1.1897 9.4196 1.1346 14.129 0.15091 1.55 2.4603 3.2287 8.2461 4.3028 12.416 2.305 35.689 2.4019 51.919-2.9468 24.642-8.1208 29.743-15.688 34.688-21.937 2.3216-2.9343 3.1621-8.1462 1.7209-11.007-14.019-20.267-25.421-40.533-36.602-60.8 2.0721 8.1192-5.4289 17.89-12.405 24.044-5.1334 4.5284-10.993 8.1081-17.765 10.261-6.24 1.9837-12.469 4.1462-18.99 4.2881-9.0841 0.19764-15.905-1.1895-18.225-4.9007 1.3594 5.2581 2.7038 10.516 3.2161 15.774 0.22979 2.4507 11.123 6.3555 17.612 7.6574 7.3718 1.4789 14.856 1.8152 22.36 1.8378 8.7881 0.02639 16.891-1.0911 24.236-3.1778z" fill="url(#i)"/>
  <path d="m400.48 836.28c-15.513 1.658-24.509 6.7636-31.586 10.427-6.9916 3.6194-18.588 12.56-25.286 21.822-2.5986 3.593 0.49508 4.1844 3.1381 2.5952 2.5756-1.5486 4.1208-2.7687 5.7418-3.5698 6.2663-3.0967 10.69-6.1863 14.299-3.248 2.0721 8.1192-5.4289 17.89-12.405 24.044-5.1334 4.5284-10.993 8.1081-17.765 10.261-6.24 1.9837-12.469 4.1462-18.99 4.2881-9.0841 0.19764-15.978-1.1466-18.225-4.9007-1.422-2.3764 1.4758-4.6462 3.3113-5.9504 4.2777-3.0394 9.2929-5.4466 18.045-7.0579 6.6633-1.2268 13.037-1.8203 17.696 1.2159 3.1138 2.029-0.98259 7.3913-3.8287 8.8826-5.5232 2.894-13.012 2.6164-13.63 1e-5 -0.3946-1.6691-0.50616-3.2102 4.3647-4.0584 3.2109-0.55915 4.298 0.752 4.968 2.0002 3.8508-1.5847 4.5865-3.3357 3.6903-4.2843-2.0068-2.1242-6.993-2.1609-11.325-1.5539-6.1783 0.86559-10.507 3.2479-14.945 5.9821-3.4355 2.1164-3.9589 4.0553-1.6738 5.7312 2.8034 1.5312 6.2305 2.7486 13.685 2.3414 6.4839-0.35416 12.442-2.7184 18.432-4.9042 6.5005-2.3722 11.926-6.1408 16.518-10.834 4.1104-4.2011 8.266-9.9782 9.7645-15.732 0.0852-1.9109 0.97973-4.0895-2.0521-3.1733-4.83 1.4596-6.9834 3.2656-10.655 5.4141-2.9678 1.7365-6.9814 3.4757-9.7898 3.9279-3.2179 0.50465-4.0712-3.1706-1.9909-6.4322 6.2307-9.1912 14.384-16.592 24.598-22.591s21.905-9.5699 35.895-10.642z" fill="url(#g)"/>
  <path d="m494.46 880.23c-10.252-0.08032-20.752-0.36232-30.755-4.2234-7.1794-2.7712-11.816-5.8286-18.843-10.179-5.176-3.2049-2.3797-5.2777 2.3251-4.7574 4.1865 0.46298 15.542 0.75895 12.544-3.8096-3.5133-5.3533-15.309-13.415-23.386-16.239-11.13-3.8917-19.675-5.3993-36.576-4.5334 20.415-0.09349 33.513 4.7668 37.539 6.9214 9.9562 5.3291 13.248 7.0193 18.97 12.816 3.9946 4.0469-6.3294 3.1126-9.5855 2.8387-8.3654-0.70388-10.346 1.7848-8.3267 4.0564 5.4017 6.0765 18.707 12.198 25.773 14.728 10.348 3.7044 20.538 4.1713 30.647 4.3317" fill="#c1c1c1"/>
  <path d="m494.79 882.18c-10.109-0.16035-20.298-0.62725-30.647-4.3317-7.0667-2.5297-20.372-8.6512-25.773-14.728-0.64044-0.72045-0.87853-1.4627-0.65359-2.1094-6.9162 23.798-14.355 48.123-22.069 71.912-1.4031 5.347 2.7172 7.7284 7.6574 10.108 21.769 10.484 48.342 14.211 72.286 13.783" fill="url(#q)"/>
  <g transform="matrix(-1 0 0 1 1336.1 0)">
   <path d="m429.2 910.99 27.849-52.739c0.29507-0.46951 0.11587-1.1239-0.77415-2.0256-5.7214-5.7964-9.0134-7.4866-18.97-12.816-4.0254-2.1546-17.123-7.0149-37.183-7.0224-15.157 1.557-24.153 6.6626-31.23 10.326-6.9916 3.6194-18.588 12.56-25.286 21.822-1.0687 1.4776-1.1746 2.4476-0.7451 2.967l43.948 44.811c7.4822-7.1486 23.638-22.827 42.39-5.3226z" fill="url(#d)"/>
   <path d="m370.91 877.06-6.3988-10.228c-0.24359-0.44701-0.82544-0.60083-2.0855-0.22005-4.83 1.4596-6.9834 3.2656-10.655 5.4141-2.9678 1.7365-6.9814 3.4757-9.7898 3.9279-1.1011 0.17268-1.9253-0.14404-2.4499-0.76613l16.616 17.842c8.888-1.8524 12.337-8.464 14.763-15.97z" fill="url(#b)"/>
   <path d="m435.52 883.21 6.5628-20.426c-0.03913-1.3488 2.1585-2.0397 5.1044-1.7139 3.4516 0.3817 11.776 0.64988 12.912-1.8279-2.9705 5.2132-6.9072 15.117-9.2893 20.722-4.4805 2.2959-9.4192-0.15949-15.29 3.2451z" fill="url(#c)"/>
   <path d="m333.55 901.34-25.824 4.937-3.0273-9.368c-0.09864-1.1615 0.91123-2.4129 3.0548-3.7334 4.4384-2.7342 8.7668-5.1165 14.945-5.9821 4.3323-0.60696 9.3185-0.57023 11.325 1.5539 0.26314 0.27854 0.3856 0.62625 0.32982 1.0186l-0.80399 11.574z" fill="url(#f)"/>
   <path d="m322.19 903.9c2.3668 3.0433 16.987 0.70362 17.535-4.3839-0.19789-2.9212-0.27457-7.9736-0.14849-11.161-0.05557 2.4224-2.8409 5.6374-4.9437 6.7392-5.5232 2.894-13.012 2.6164-13.63 1e-5 0.48619 3.063 1.0854 5.743 1.1869 8.806z" fill="url(#h)"/>
   <path d="m366.83 920.1c-4.4918 5.9063-3.4222 7.5971-16.502 17.421-10.777 7.9549-28.684 9.1809-37.828 9.0357-4.0596-0.06338-6.9516-2.2145-6.8151-3.9818 0.52664 4.7098 1.1897 9.4196 1.1346 14.129 0.15091 1.55 2.4603 3.2287 8.2461 4.3028 12.416 2.305 35.689 2.4019 51.919-2.9468 24.642-8.1208 29.743-15.688 34.688-21.937 2.3216-2.9343 3.1621-8.1462 1.7209-11.007-14.019-20.267-25.421-40.533-36.602-60.8 2.0721 8.1192-5.4289 17.89-12.405 24.044-5.1334 4.5284-10.993 8.1081-17.765 10.261-6.24 1.9837-12.469 4.1462-18.99 4.2881-9.0841 0.19764-15.905-1.1895-18.225-4.9007 1.3594 5.2581 2.7038 10.516 3.2161 15.774 0.22979 2.4507 11.123 6.3555 17.612 7.6574 7.3718 1.4789 14.856 1.8152 22.36 1.8378 8.7881 0.02639 16.891-1.0911 24.236-3.1778z" fill="#707070"/>
   <path d="m321.32 943.14 0.0655-9.0739c-0.13204-2.7034-9.0967-4.9857-14.855-5.2836-6.211-0.32127-8.0543 0.97872-8.5763 1.9526l0.42198 9.9096c4.4379-1.2672 19.811 0.74205 22.944 2.4953z" fill="url(#m)"/>
   <path d="m366.83 920.1c-4.4918 5.9063-3.4222 7.5971-16.502 17.421-10.777 7.9549-28.684 9.1809-37.828 9.0357-4.0596-0.06338-6.9516-2.2145-6.8151-3.9818 0.52664 4.7098 1.1897 9.4196 1.1346 14.129 0.15091 1.55 2.4603 3.2287 8.2461 4.3028 12.416 2.305 35.689 2.4019 51.919-2.9468 24.642-8.1208 29.743-15.688 34.688-21.937 2.3216-2.9343 3.1621-8.1462 1.7209-11.007-14.019-20.267-25.421-40.533-36.602-60.8 2.0721 8.1192-5.4289 17.89-12.405 24.044-5.1334 4.5284-10.993 8.1081-17.765 10.261-6.24 1.9837-12.469 4.1462-18.99 4.2881-9.0841 0.19764-15.905-1.1895-18.225-4.9007 1.3594 5.2581 2.7038 10.516 3.2161 15.774 0.22979 2.4507 11.123 6.3555 17.612 7.6574 7.3718 1.4789 14.856 1.8152 22.36 1.8378 8.7881 0.02639 16.891-1.0911 24.236-3.1778z" fill="url(#j)"/>
   <path d="m301.65 933.09c0.03055 0.39865-0.07986 0.80873-0.25516 1.2098-0.75763 1.7332-2.7399 2.3349-4.9007 2.0675-2.1492-0.26598-4.0989-1.1013-4.3028-2.623 0.54993 3.4826 0.81538 7.1293 0.69403 10.429 0.10605 1.6412 2.1316 3.0442 4.8584 2.9133 1.8847-0.09043 4.2079-1.8201 4.2359-3.1046-0.61164-3.6308-0.52433-7.2616-0.3297-10.892z" fill="url(#k)"/>
   <path d="m366.83 920.1c-4.3392 6.1228-3.2449 7.4216-16.502 17.421-10.81 7.911-28.684 9.1809-37.828 9.0357-4.0596-0.06338-6.9516-2.2145-6.8151-3.9818 0.15349-1.9873 2.245-3.759 5.4368-4.8242 4.0485-1.351 10.334-2.1712 10.261-3.6756-0.13204-2.7034-9.0967-4.9857-14.855-5.2836-6.211-0.32127-8.0543 0.97872-8.5763 1.9526 3.4176 0.22956 4.1289 1.998 3.4458 3.5607-0.75763 1.7332-2.7399 2.3349-4.9007 2.0675-2.9244-0.36191-5.4793-1.7778-3.8287-4.671 1.058-1.8545 3.9202-3.8126 8.5763-4.2881 5.3529-0.54668 12.918 0.04422 17.306 1.8378s6.9843 2.9772 6.8151 5.4368c-0.16407 2.385-5.1403 3.856-8.4231 4.5944s-7.0302 1.3015-7.1214 3.2927c-0.05993 1.3079 1.46 1.9194 4.5944 1.9909 8.0833 0.18454 18.584-0.85073 28.179-5.0539s18.651-12.06 24.236-19.411z" fill="url(#l)"/>
   <path d="m324.66 944.12c-3.6638 0.4081-7.1172 0.51067-10.252 0.4391s-4.6544-0.68302-4.5944-1.9909c0.09123-1.9912 3.8386-2.5542 7.1214-3.2927s8.2591-2.2095 8.4231-4.5944c-0.3037 3.2173-0.77125 6.5985-0.69805 9.439z" fill="url(#n)"/>
   <path d="m366.83 920.1c-4.4918 5.9063-3.4222 7.5971-16.502 17.421-10.777 7.9549-28.684 9.1809-37.828 9.0357-4.0596-0.06338-6.9516-2.2145-6.8151-3.9818 0.52664 4.7098 1.1897 9.4196 1.1346 14.129 0.15091 1.55 2.4603 3.2287 8.2461 4.3028 12.416 2.305 35.689 2.4019 51.919-2.9468 24.642-8.1208 29.743-15.688 34.688-21.937 2.3216-2.9343 3.1621-8.1462 1.7209-11.007-14.019-20.267-25.421-40.533-36.602-60.8 2.0721 8.1192-5.4289 17.89-12.405 24.044-5.1334 4.5284-10.993 8.1081-17.765 10.261-6.24 1.9837-12.469 4.1462-18.99 4.2881-9.0841 0.19764-15.905-1.1895-18.225-4.9007 1.3594 5.2581 2.7038 10.516 3.2161 15.774 0.22979 2.4507 11.123 6.3555 17.612 7.6574 7.3718 1.4789 14.856 1.8152 22.36 1.8378 8.7881 0.02639 16.891-1.0911 24.236-3.1778z" fill="url(#i)"/>
   <path d="m400.48 836.28c-15.513 1.658-24.509 6.7636-31.586 10.427-6.9916 3.6194-18.588 12.56-25.286 21.822-2.5986 3.593 0.49508 4.1844 3.1381 2.5952 2.5756-1.5486 4.1208-2.7687 5.7418-3.5698 6.2663-3.0967 10.69-6.1863 14.299-3.248 2.0721 8.1192-5.4289 17.89-12.405 24.044-5.1334 4.5284-10.993 8.1081-17.765 10.261-6.24 1.9837-12.469 4.1462-18.99 4.2881-9.0841 0.19764-15.978-1.1466-18.225-4.9007-1.422-2.3764 1.4758-4.6462 3.3113-5.9504 4.2777-3.0394 9.2929-5.4466 18.045-7.0579 6.6633-1.2268 13.037-1.8203 17.696 1.2159 3.1138 2.029-0.98259 7.3913-3.8287 8.8826-5.5232 2.894-13.012 2.6164-13.63 1e-5 -0.3946-1.6691-0.50616-3.2102 4.3647-4.0584 3.2109-0.55915 4.298 0.752 4.968 2.0002 3.8508-1.5847 4.5865-3.3357 3.6903-4.2843-2.0068-2.1242-6.993-2.1609-11.325-1.5539-6.1783 0.86559-10.507 3.2479-14.945 5.9821-3.4355 2.1164-3.9589 4.0553-1.6738 5.7312 2.8034 1.5312 6.2305 2.7486 13.685 2.3414 6.4839-0.35416 12.442-2.7184 18.432-4.9042 6.5005-2.3722 11.926-6.1408 16.518-10.834 4.1104-4.2011 8.266-9.9782 9.7645-15.732 0.0852-1.9109 0.97973-4.0895-2.0521-3.1733-4.83 1.4596-6.9834 3.2656-10.655 5.4141-2.9678 1.7365-6.9814 3.4757-9.7898 3.9279-3.2179 0.50465-4.0712-3.1706-1.9909-6.4322 6.2307-9.1912 14.384-16.592 24.598-22.591s21.905-9.5699 35.895-10.642z" fill="url(#g)"/>
   <path d="m494.46 880.23c-10.252-0.08032-20.752-0.36232-30.755-4.2234-7.1794-2.7712-11.816-5.8286-18.843-10.179-5.176-3.2049-2.3797-5.2777 2.3251-4.7574 4.1865 0.46298 15.542 0.75895 12.544-3.8096-3.5133-5.3533-15.309-13.415-23.386-16.239-11.13-3.8917-19.675-5.3993-36.576-4.5334 20.415-0.09349 33.513 4.7668 37.539 6.9214 9.9562 5.3291 13.248 7.0193 18.97 12.816 3.9946 4.0469-6.3294 3.1126-9.5855 2.8387-8.3654-0.70388-10.346 1.7848-8.3267 4.0564 5.4017 6.0765 18.707 12.198 25.773 14.728 10.348 3.7044 20.538 4.1713 30.647 4.3317" fill="#c1c1c1"/>
   <path d="m494.79 882.18c-10.109-0.16035-20.298-0.62725-30.647-4.3317-7.0667-2.5297-20.372-8.6512-25.773-14.728-0.64044-0.72045-0.87853-1.4627-0.65359-2.1094-6.9162 23.798-14.355 48.123-22.069 71.912-1.4031 5.347 2.7172 7.7284 7.6574 10.108 21.769 10.484 48.342 14.211 72.286 13.783" fill="url(#p)"/>
  </g>
  <path d="m842.29 880.22-0.75917 1.9493-346.92 0.0044-0.47066-1.9492 348.15-0.00441z" fill="#c1c1c1"/>
  <path d="m843.67 882.18-0.05526 74.64c-116.97 2.3076-233.94 2.5764-350.91-0.01354l-0.08122-74.627h351.05z" fill="url(#o)"/>
 </g>
</svg>
