<?xml version="1.0" encoding="UTF-8"?>
<svg viewBox="0 0 100 100" xmlns="http://www.w3.org/2000/svg">
 <defs>
  <linearGradient id="a" x1="-.09375" x2=".48125" y1=".06667" y2=".57436">
   <stop stop-color="#fff" stop-opacity=".5" offset="0"/>
   <stop stop-color="#fff" stop-opacity="0" offset="1"/>
  </linearGradient>
 </defs>
 <g transform="translate(-296.25 7.5)">
  <g transform="translate(62.596 -152.93)">
   <path d="m283.41 149.59c-10.943 18.62-53.379 52.009-27.875 62.125 15.481 4.657 22.848-4.8761 25.969-11.188h0.625c-0.02348 1.1868-0.57866 29.376-2.2188 30.75-3.5983 3.0136-8.1562 2.7812-8.1562 2.7812l0.09375 3.2812 23.812-0.09375 0.09375-3.25s-4.5267 0.2011-8.125-2.8125c-1.6403-1.3738-2.2267-29.517-2.25-30.688h0.25c2.5203 5.1573 12.084 15.834 22.604 11.768 30.762-11.398-15.469-41.966-24.823-62.674z" fill-rule="evenodd" stroke="#000" stroke-linejoin="round" stroke-width="1.25"/>
  </g>
  <path d="m345.98-3.1575c-10.943 18.62-53.379 52.009-27.875 62.125 15.481 4.657 22.848-4.8761 25.969-11.188h0.625c-0.02348 1.1868-0.57866 29.376-2.2188 30.75-3.5983 3.0136-8.1562 2.7812-8.1562 2.7812l0.09375 3.2812 23.812-0.09375 0.09375-3.25s-4.5267 0.2011-8.125-2.8125c-1.6403-1.3738-2.2267-29.517-2.25-30.688h0.25c2.5203 5.1573 12.084 15.834 22.604 11.768 30.762-11.398-15.469-41.966-24.823-62.674z" fill="url(#a)" fill-rule="evenodd"/>
 </g>
</svg>
