<svg id="Layer_3" enable-background="new 0 0 64 64" height="512" viewBox="0 0 64 64" width="512" xmlns="http://www.w3.org/2000/svg"><g><path d="m28 32h-22c-2.209 0-4-1.791-4-4v-22c0-2.209 1.791-4 4-4h22c2.209 0 4 1.791 4 4v22c0 2.209-1.791 4-4 4z" fill="#d5cec2"/><path d="m17 28-9.523-8.729c-1.578-1.447-2.477-3.49-2.477-5.632 0-4.219 3.42-7.639 7.639-7.639 1.475 0 2.852.737 3.67 1.964l.691 1.036.691-1.036c.818-1.227 2.195-1.964 3.67-1.964 4.219 0 7.639 3.42 7.639 7.639 0 2.141-.899 4.184-2.477 5.631z" fill="#c66b60"/><path d="m28 62h-22c-2.209 0-4-1.791-4-4v-22c0-2.209 1.791-4 4-4h22c2.209 0 4 1.791 4 4v22c0 2.209-1.791 4-4 4z" fill="#e7e4dd"/><path d="m58 62h-22c-2.209 0-4-1.791-4-4v-22c0-2.209 1.791-4 4-4h22c2.209 0 4 1.791 4 4v22c0 2.209-1.791 4-4 4z" fill="#d5cec2"/><path d="m58 32h-22c-2.209 0-4-1.791-4-4v-22c0-2.209 1.791-4 4-4h22c2.209 0 4 1.791 4 4v22c0 2.209-1.791 4-4 4z" fill="#e7e4dd"/><path d="m55.62 12.053-8.62-7.053-8.62 7.053c-1.206.986-2.079 2.36-2.309 3.901-.566 3.789 2.354 7.046 6.035 7.046 1.042 0 2.039-.308 2.894-.851v.245c0 2.351-.696 4.649-2 6.606h8c-1.304-1.956-2-4.255-2-6.606v-.245c.854.543 1.852.851 2.894.851 3.681 0 6.601-3.257 6.036-7.046-.23-1.541-1.104-2.914-2.31-3.901z" fill="#333"/><path d="m47 35-9 12 9 12 9-12z" fill="#c66b60"/><path d="m23 42c-.031 0-.06.004-.091.005.056-.328.091-.662.091-1.005 0-3.314-2.686-6-6-6s-6 2.686-6 6c0 .343.035.677.091 1.005-.031-.001-.06-.005-.091-.005-3.314 0-6 2.686-6 6s2.686 6 6 6c1.248 0 2.406-.381 3.366-1.033-.121 1.418-.529 2.818-1.259 4.096l-1.107 1.937h10l-1.107-1.937c-.73-1.278-1.139-2.678-1.259-4.096.96.652 2.118 1.033 3.366 1.033 3.314 0 6-2.686 6-6s-2.686-6-6-6z" fill="#333"/><path d="m17.691 7.964-.691 1.036-.691-1.036c-.818-1.227-2.195-1.964-3.67-1.964-4.219 0-7.639 3.42-7.639 7.639 0 2.141.899 4.184 2.477 5.631l5.663 5.191c6.383-2.913 10.828-9.335 10.828-16.809 0-.408-.035-.807-.061-1.209-.798-.282-1.652-.443-2.546-.443-1.475 0-2.852.737-3.67 1.964z" fill="#e47c6e"/><path d="m38.38 12.053c-1.206.987-2.079 2.36-2.309 3.901-.566 3.789 2.354 7.046 6.035 7.046 1.042 0 2.039-.308 2.894-.851v.245c0 .288-.011.575-.032.86 3.679-3.379 5.999-8.213 5.999-13.602 0-.495-.036-.982-.074-1.467l-3.893-3.185z" fill="#4d4d4d"/><path d="m50.948 40.264-3.948-5.264-9 12 6.046 8.061c4.216-3.388 6.921-8.579 6.921-14.409 0-.131-.017-.258-.019-.388z" fill="#e47c6e"/><path d="m20.967 40.653c0-1.6-.225-3.143-.607-4.623-.958-.65-2.115-1.03-3.36-1.03-3.314 0-6 2.686-6 6 0 .343.035.677.091 1.005-.031-.001-.06-.005-.091-.005-3.314 0-6 2.686-6 6s2.686 6 6 6c1.248 0 2.406-.381 3.366-1.033-.062.735-.206 1.464-.428 2.175 4.277-3.385 7.029-8.611 7.029-14.489z" fill="#4d4d4d"/><g><path d="m16.324 28.736c.19.175.433.263.675.263.243 0 .485-.087.676-.263l9.522-8.729c1.78-1.632 2.801-3.953 2.801-6.368 0-4.764-3.875-8.639-8.638-8.639-1.732 0-3.345.82-4.361 2.207-1.018-1.387-2.63-2.207-4.36-2.207-4.765 0-8.64 3.875-8.64 8.64 0 2.415 1.021 4.736 2.802 6.368zm-3.685-21.736c1.143 0 2.204.567 2.838 1.52l.691 1.036c.186.277.497.444.831.444h.001c.334 0 .646-.167.832-.445l.69-1.036c.633-.952 1.694-1.519 2.838-1.519 3.66 0 6.638 2.978 6.638 6.639 0 1.856-.784 3.64-2.151 4.894l-8.848 8.109-8.848-8.109c-1.368-1.254-2.152-3.039-2.152-4.894 0-3.661 2.979-6.639 6.64-6.639z"/><path d="m62.999 27.999v-21.999c0-2.757-2.242-5-5-5h-21.999c-1.642 0-3.089.806-4 2.031-.912-1.226-2.359-2.031-4.001-2.031h-21.999c-2.758 0-5 2.242-5 5v22c0 1.642.805 3.088 2.031 4-1.226.911-2.031 2.358-2.031 4v22c0 2.757 2.242 5 5 5h21.999c1.642 0 3.089-.806 4-2.031.912 1.225 2.358 2.031 4 2.031h21.999c2.758 0 5-2.243 5-5v-22c0-1.642-.805-3.088-2.031-4 1.227-.913 2.032-2.359 2.032-4.001zm-30.999 5.032c-.292-.393-.638-.739-1.031-1.031.393-.292.739-.639 1.031-1.031.292.393.638.739 1.031 1.031-.393.292-.739.638-1.031 1.031zm-29-27.031c0-1.654 1.346-3 3-3h21.999c1.654 0 3 1.346 3 3v22c0 1.654-1.346 3-3 3h-21.999c-1.654 0-3-1.346-3-3zm27.999 51.999c0 1.654-1.346 3-3 3h-21.999c-1.654 0-3-1.346-3-3v-21.999c0-1.654 1.346-3 3-3h21.999c1.654 0 3 1.346 3 3zm30 0c0 1.654-1.346 3-3 3h-21.999c-1.654 0-3-1.346-3-3v-21.999c0-1.654 1.346-3 3-3h21.999c1.654 0 3 1.346 3 3zm0-30c0 1.654-1.346 3-3 3h-21.999c-1.654 0-3-1.346-3-3v-21.999c0-1.654 1.346-3 3-3h21.999c1.654 0 3 1.346 3 3z"/><path d="m56.253 11.279-8.62-7.054c-.369-.3-.897-.299-1.267 0l-8.621 7.054c-1.461 1.195-2.407 2.803-2.665 4.527-.309 2.071.289 4.158 1.641 5.726 1.353 1.568 3.315 2.468 5.385 2.468.615 0 1.225-.09 1.812-.266-.207 1.68-.802 3.288-1.751 4.712-.204.307-.224.701-.049 1.026.174.325.513.528.882.528h7.998c.369 0 .708-.203.882-.528.175-.325.155-.72-.049-1.026-.949-1.423-1.543-3.031-1.75-4.711.587.176 1.197.266 1.812.266 2.069 0 4.032-.899 5.385-2.468 1.352-1.568 1.949-3.655 1.641-5.727-.259-1.724-1.205-3.332-2.666-4.527zm-.491 8.946c-.972 1.127-2.382 1.774-3.869 1.774-.827 0-1.642-.24-2.356-.694-.307-.195-.696-.208-1.019-.033-.32.176-.518.512-.518.876v.245c0 1.957.438 3.865 1.279 5.605h-4.56c.841-1.741 1.28-3.65 1.28-5.605v-.245c0-.365-.199-.7-.519-.876-.319-.175-.711-.163-1.018.032-.717.454-1.532.694-2.358.694-1.487 0-2.897-.646-3.869-1.774-.986-1.143-1.404-2.608-1.179-4.124.185-1.231.878-2.394 1.954-3.274l7.987-6.535 7.987 6.535c1.076.881 1.77 2.043 1.954 3.274.228 1.517-.19 2.982-1.176 4.125z"/><path d="m47.8 34.399c-.379-.504-1.222-.503-1.601 0l-9 12c-.267.355-.267.844 0 1.2l9 12c.189.252.485.4.801.4.314 0 .61-.148.8-.4l9-12c.267-.355.267-.844 0-1.2zm-.8 22.934-7.75-10.333 7.75-10.334 7.749 10.334z"/><path d="m23.999 41.07c0-.024 0-.047 0-.071 0-3.86-3.14-7-6.999-7-3.86 0-7 3.14-7 7v.071c-3.389.486-6 3.408-6 6.929 0 3.86 3.14 7 7 7 .694 0 1.378-.102 2.031-.299-.191.653-.457 1.277-.794 1.867l-1.106 1.937c-.177.31-.175.689.004.998.179.308.509.498.865.498h9.999c.357 0 .687-.189.865-.498.179-.308.181-.688.003-.998l-1.106-1.937c-.337-.589-.603-1.213-.794-1.867.653.198 1.337.3 2.032.3 3.86 0 7-3.14 7-7 0-3.521-2.611-6.443-6-6.93zm-1 11.929c-1.005 0-1.975-.297-2.804-.86-.317-.215-.733-.229-1.067-.036-.332.195-.523.563-.491.947.138 1.621.604 3.138 1.388 4.508l.252.44h-6.554l.252-.44c.782-1.37 1.249-2.886 1.388-4.507.032-.384-.158-.753-.491-.948-.332-.193-.749-.18-1.067.036-.829.563-1.799.86-2.804.86-2.758 0-5-2.243-5-5s2.242-5 4.969-5c.021.002.084.005.104.005.327.035.579-.122.774-.347.193-.225.277-.524.229-.817-.053-.308-.077-.583-.077-.84 0-2.757 2.242-5 5-5 2.757 0 4.999 2.243 4.999 5 0 .254-.024.529-.077.84-.049.293.035.592.229.817.19.221.468.348.758.347.023 0 .07-.003.11-.004 2.748.01 4.98 2.249 4.98 5 0 2.756-2.242 4.999-5 4.999z"/></g></g></svg>