<?xml version="1.0"?>
<svg xmlns:rdf="http://www.w3.org/1999/02/22-rdf-syntax-ns#" xmlns="http://www.w3.org/2000/svg" xmlns:cc="http://creativecommons.org/ns#" xmlns:xlink="http://www.w3.org/1999/xlink" xmlns:dc="http://purl.org/dc/elements/1.1/" xmlns:svg="http://www.w3.org/2000/svg" id="svg4423" viewBox="0 0 911.23 307.82" version="1.1">
  <defs id="defs3">
    <filter id="filter3946" color-interpolation-filters="sRGB">
      <feGaussianBlur id="feGaussianBlur3948" stdDeviation="6.3057345"/>
    </filter>
    <linearGradient id="linearGradient4395" y2="107.97" xlink:href="#linearGradient3926" gradientUnits="userSpaceOnUse" x2="428.46" y1="96.561" x1="106.48"/>
    <linearGradient id="linearGradient3926">
      <stop id="stop3928" stop-color="#cead00" offset="0"/>
      <stop id="stop3930" stop-color="#ffd600" stop-opacity="0" offset="1"/>
    </linearGradient>
    <linearGradient id="linearGradient4397" y2="175.15" gradientUnits="userSpaceOnUse" x2="351.14" y1="-14.991" x1="361.28">
      <stop id="stop4115" stop-color="#ff9e00" offset="0"/>
      <stop id="stop4117" stop-color="#ff9e00" stop-opacity="0" offset="1"/>
    </linearGradient>
    <linearGradient id="linearGradient4399" y2="107.97" xlink:href="#linearGradient3926" gradientUnits="userSpaceOnUse" x2="428.46" gradientTransform="matrix(-1 0 0 1 759.07 -.0000029225)" y1="96.561" x1="106.48"/>
    <linearGradient id="linearGradient4468" y2="114.31" gradientUnits="userSpaceOnUse" x2="372.51" gradientTransform="matrix(1.049 0 0 1 -34.942 0)" y1="-20.062" x1="372.57">
      <stop id="stop3957" stop-color="#fff" offset="0"/>
      <stop id="stop3959" stop-color="#fff" stop-opacity="0" offset="1"/>
    </linearGradient>
  </defs>
  <g id="layer1" transform="translate(98.473 -153.24)">
    <g id="g4366" transform="matrix(1.2746 0 0 1.2746 -126.54 158.8)">
      <path id="path3128" opacity=".55" filter="url(#filter3946)" d="m59.554 218.28c238.16-29.156 380.82-27.888 640.2 0v-185.13c-260.56-16.479-402.05-25.353-640.2 0v185.13z" transform="matrix(1 0 0 .88446 0 27.554)"/>
      <path id="rect3092" fill="#520" d="m35.469 186.59c233.25 18.971 461.86 14.719 688.38 0v-185.13c-209.17 13.128-422.72 23.421-688.38 0v185.13z"/>
      <path id="path3914" fill="#ffd600" d="m704.59 7.6875c-219.21 14.59-439.8 19.43-658.86-0.3137-8.626-3.2794-4.002 7.7732-5.136 12.595v162c225.55 17.934 452.49 14.402 678.12-0.125v-175c-4.7083 0.28125-9.4167 0.5625-14.125 0.84375z"/>
      <path id="path3924" fill="url(#linearGradient4395)" d="m704.59 7.6875c-219.21 14.59-439.8 19.43-658.86-0.3137-8.626-3.2794-4.002 7.7732-5.136 12.595v162c225.55 17.934 452.49 14.402 678.12-0.125v-175c-4.7083 0.28125-9.4167 0.5625-14.125 0.84375z"/>
      <path id="path4111" fill="url(#linearGradient4397)" d="m54.473 7.6875c219.21 14.59 439.81 19.43 658.87-0.3137 8.6211-3.2794 3.9974 7.7727 5.1312 12.595v162c-225.55 17.934-452.49 14.402-678.12-0.125v-175c4.7083 0.28125 9.4167 0.5625 14.125 0.84375z"/>
      <path id="path3934" fill="url(#linearGradient4399)" d="m54.473 7.6875c219.21 14.59 439.81 19.43 658.87-0.3137 8.6211-3.2794 3.9974 7.7727 5.1312 12.595v162c-225.55 17.934-452.49 14.402-678.12-0.125v-175c4.7083 0.28125 9.4167 0.5625 14.125 0.84375z"/>
      <path id="path3950" fill="url(#linearGradient4468)" d="m694.6 14.844c-205.18 18.109-411.7 12.481-617.26 3.437-18.447 2.553-21.193 30.558-4.821 37.657 93.851 28.952 193.53 31.76 291.33 34.05 112.18 2.02 224.72-1.034 335.96-15.457 12.307-6.6808 13.725-22.188 12.228-34.375 2.5237-10.812-4.0974-25.869-17.44-25.312z"/>
    </g>
  </g>
  <metadata>
    <rdf:RDF>
      <cc:Work>
        <dc:format>image/svg+xml</dc:format>
        <dc:type rdf:resource="http://purl.org/dc/dcmitype/StillImage"/>
        <cc:license rdf:resource="http://creativecommons.org/licenses/publicdomain/"/>
        <dc:publisher>
          <cc:Agent rdf:about="http://openclipart.org/">
            <dc:title>Openclipart</dc:title>
          </cc:Agent>
        </dc:publisher>
        <dc:title>Glossy bended Banner</dc:title>
        <dc:date>2010-08-13T14:26:33</dc:date>
        <dc:description>Bended glossy Banner</dc:description>
        <dc:source>http://openclipart.org/detail/79969/glossy-bended-banner-by-inky2010</dc:source>
        <dc:creator>
          <cc:Agent>
            <dc:title>inky2010</dc:title>
          </cc:Agent>
        </dc:creator>
        <dc:subject>
          <rdf:Bag>
            <rdf:li>3D</rdf:li>
            <rdf:li>Banner</rdf:li>
            <rdf:li>bended</rdf:li>
            <rdf:li>border</rdf:li>
            <rdf:li>clip art</rdf:li>
            <rdf:li>clipart</rdf:li>
            <rdf:li>frame</rdf:li>
            <rdf:li>gloss</rdf:li>
            <rdf:li>glossy</rdf:li>
            <rdf:li>inky2010</rdf:li>
            <rdf:li>internet</rdf:li>
            <rdf:li>shaded</rdf:li>
            <rdf:li>vector</rdf:li>
            <rdf:li>web</rdf:li>
            <rdf:li>web page</rdf:li>
            <rdf:li>website</rdf:li>
          </rdf:Bag>
        </dc:subject>
      </cc:Work>
      <cc:License rdf:about="http://creativecommons.org/licenses/publicdomain/">
        <cc:permits rdf:resource="http://creativecommons.org/ns#Reproduction"/>
        <cc:permits rdf:resource="http://creativecommons.org/ns#Distribution"/>
        <cc:permits rdf:resource="http://creativecommons.org/ns#DerivativeWorks"/>
      </cc:License>
    </rdf:RDF>
  </metadata>
</svg>
