<?xml version="1.0"?>
<svg xmlns:rdf="http://www.w3.org/1999/02/22-rdf-syntax-ns#" xmlns="http://www.w3.org/2000/svg" xmlns:cc="http://creativecommons.org/ns#" xmlns:dc="http://purl.org/dc/elements/1.1/" xmlns:svg="http://www.w3.org/2000/svg" id="Layer_1" xml:space="preserve" viewBox="0 0 44 44" version="1.1" y="0px" x="0px">
<path id="path3" fill="#BD2025" d="m44 36c0 4.418-3.582 8-8 8h-28c-4.418 0-8-3.582-8-8v-28c0-4.419 3.582-8 8-8h28c4.418 0 8 3.581 8 8v28z"/>
<path id="path5" fill="#FDBE10" d="m44 36c0 4.418-3.582 8-8 8h-28c-4.418 0-8-3.582-8-8v-28c0-4.419 3.582-8 8-8h28c4.418 0 8 3.581 8 8v28z"/>
<linearGradient id="SVGID_1_" y2="8.2891" gradientUnits="userSpaceOnUse" y1="41.843" x2="22" x1="22">
	<stop id="stop8" stop-color="#F5EA13" offset="0"/>
	<stop id="stop10" stop-color="#FDBE10" offset="1"/>
</linearGradient>
<path id="path12" fill="url(#SVGID_1_)" d="m43.167 35.47c0 4.25-3.447 7.696-7.697 7.696h-26.94c-4.25 0-7.696-3.446-7.696-7.696v-26.94c0-4.251 3.446-7.697 7.696-7.697h26.94c4.25 0 7.697 3.446 7.697 7.697v26.94z"/>
<linearGradient id="SVGID_2_" y2="10.537" gradientUnits="userSpaceOnUse" y1="8.8491" x2="36.342" x1="5.5923">
	<stop id="stop15" stop-color="#FCCA3D" offset="0"/>
	<stop id="stop17" stop-color="#FBD664" offset="1"/>
</linearGradient>
<path id="path19" fill="url(#SVGID_2_)" d="m44 14.292v-6.292c0-4.419-3.582-8-8-8h-28c-4.418 0-8 3.581-8 8v6.24c10.92 6.027 26.297 9.684 44 0.052z"/>
<metadata><rdf:RDF><cc:Work><dc:format>image/svg+xml</dc:format><dc:type rdf:resource="http://purl.org/dc/dcmitype/StillImage"/><cc:license rdf:resource="http://creativecommons.org/licenses/publicdomain/"/><dc:publisher><cc:Agent rdf:about="http://openclipart.org/"><dc:title>Openclipart</dc:title></cc:Agent></dc:publisher><dc:title>yellow icon</dc:title><dc:date>2010-08-02T23:59:59</dc:date><dc:description>Set of Icons for use with mobiles, web tec.</dc:description><dc:source>http://openclipart.org/detail/76549/yellow-icon-by-shokunin</dc:source><dc:creator><cc:Agent><dc:title>shokunin</dc:title></cc:Agent></dc:creator><dc:subject><rdf:Bag><rdf:li>clip art</rdf:li><rdf:li>clipart</rdf:li><rdf:li>eye candy icons</rdf:li><rdf:li>icon</rdf:li><rdf:li>mobile phone</rdf:li><rdf:li>phone icons</rdf:li><rdf:li>svg</rdf:li><rdf:li>tiny</rdf:li></rdf:Bag></dc:subject></cc:Work><cc:License rdf:about="http://creativecommons.org/licenses/publicdomain/"><cc:permits rdf:resource="http://creativecommons.org/ns#Reproduction"/><cc:permits rdf:resource="http://creativecommons.org/ns#Distribution"/><cc:permits rdf:resource="http://creativecommons.org/ns#DerivativeWorks"/></cc:License></rdf:RDF></metadata></svg>
