<svg xmlns="http://www.w3.org/2000/svg" width="224.2" height="312.8"><rect ry="10.6" rx="10.6" width="223.2" height="311.8" x="2314.3" y="590" fill="#fff" stroke="#000" transform="translate(-2314 -589)"/><path d="M63 280c-1 1-4-8-7-14l-2-6c2-2 6-1 9 2 4 2 6 6 6 6zm-29-7v-4l11-11H34l-1-4V77l12 12v123s-6 0-6 3c-1 2 7 2 7 2v38h6l-18 18zm39-22l-4-9c-5 1-7-6-2-7 2 0 5 3 6 6v10zm1-11c-2-3-3-12-6-12-3 1-5-1-4-3 1-6 11-1 13 1l-3 14zm-20-26l1-6-2-9c6-5 15-10 17-7 1 12 0 18-1 27l-2 1-3-1-8-4zm101-91c-1-9-1-23 1-29 1-2 13 6 14 7v2l1 10v3l-16 7zm-6-38l2-8c1 0 2 7 5 9 5 0 5 3 4 5 0 0-1 2-3 2-4-2-10-3-8-8zm-65-6c-1-1 2-8 9-6 3-6 3-20 5-20 2-1 26-8 25-2s-2 35-11 43c-1 1 14 11 14 11l15-10-1 22c0 13 2 22 6 35-1 2 3 10 6 18l11 19c-10-4-20-2-31-6l-1 45s6 3 7 5l1 2c0 4-3 8-8 6l-5 21-25 2 2-12v-8c1-10 4-22 9-23-1 1-12-9-14-10-7 3-15 9-15 9l1-17-1-23c-2-15-9-29-14-40l-5-11c8-1 16 0 30 4l-1-46-7-4c-2-1-1-4-2-4zm67-10v-6l5 10h3c3 3 0 6-3 6-2-1-5-5-5-10zm28 156l-1-122c3-1 6 1 9-3-2-3-6-2-9-3V60l-5-1 8-8 2-2 7-8c1 2 1 4-6 11-6 5-6 5 0 4 6 0 7 0 6 2v179zM162 36l1 1 8 17c-6 2-13-3-15-8s4-13 6-10z" fill="#e2cf00"/><path d="M32 28v257l161 1-1-258zm53 54l1 1-1 1c-19 6-39 22-39 22V89L34 76V30h48l14 24-3 18c-1 0-5 0-8 3-1 2-2 4 0 7zm91 53l1-2h-3l2-2h-3l3-3h-4l3-2h-4l3-3h-5l4-2h-4l2-2h-3l4-3 6 1v19zm2-32c10 0 12-5 1-6l-1-34v-3h-6l18-19 1 196-12-12v-39c-5-4-7-11-9-15l-7-3 1-5v-2l-2 8 7 3 1 2-2 7 8 3 1 1-1 7 2 1v1h-2v8l2 1v2h-2l-2-3 1-8-9-2-1-1 2-9-10-3 4 7-4 1-1 35h-7a2 2 0 00-1 5h-1l-3-3 5-4v-1l-6 5 3 3-2 1-2-2-5 5 1 1c3 7-2 11-7 9l-5 21-25 2v-1l-1 1-27-2v-2c0-3 0-3 2-2 4 0 7-1 9-5l-1-10-1-5 2-3 1-1-3 1c-2 1-2 2 0 7l1 4h-2l-2-2c-3-1-1 0 1 2 2 1 2 2 0 1l-5 1-1-1v-4c1-8 2-16 7-21 8-6 19-2 26 4l1-1c-5-3-12-8-20-7l10-7 14 11 1-1-15-11-15 10 1-13-7 5 5 8-5 6v1c-2 3-3 8-3 13l-1 12-3-8c-1-3-1-3-2-2-7 0-4-12 4-4l1 1-3-9c-1-2-1-2-3-2-2 1-3 0-3-3 0-5 6-3 9-1l-2-3-1-1v-3l5-5-4-6v-2l5-6-5-5v-2l4-6-6-4v-2l3-6-5-4-1-3 2-7-6-3-1-3 2-7-6-3-2-3 1-7-7-2-2-3 1-6h-2v-1h2v-3l-1-5c-2-1-2-2 1-2h1l1 1-1 9 9 2 1 1-1 8 8 3 1 2-2 8 8 4 1 2-4 7 8 4v2l-4 8 9 7-1-2-7-5 4-7s0 1 0 0v-3l-4-10 12-7c-5-3-11-3-17-5l-1-1-5-10 4-1s3-24 6-35h1a3 3 0 002-5h1l2 2-5 5v2l7-7-3-3h1l2 2 5-5 1 1-5 5 6 7v-2l-4-5 4-4 1-1 4 2c-2-1-5-2-6-4-7-4-1-12 6-10l3-19-1-4-11-20 78-1-2 5s4 5 6 11l4 9c-6 2-13-3-15-9l-4 6-30-3 1 3-2 14c-1 10-2 23-9 28l2 2-1-1 1-1 3-4c5 5 14 9 20 8 2-1 3-3 4-1l-1 27c1 17 5 27 9 40-2 0-12 7-12 7 0 1 12 4 17 3l1 1a2 2 0 00-2-4l-1-3 7 3-3 7 1 2 3-10-9-3v-2l3-7-8-5v-2l4-7-7-6 5-7-7-6 1-1 5-6-6-6v-3l7-5-6-8 5-5h1l-4 4 5 7 5-5-3-4h2l2 3-1 3-5 5 5 6v2l-5 5 6 7-5 6 6 5v-1l-5-4 4-4c0-3-1-7 1-9-2-2-1-7 0-9-2-2-1-7 0-7v-7l-9-5c3-6 3-11 4-13l4 11h1c6 1 6 6 1 7 0 0 9 7 14 7v1l-1 6c-1 3 1 8 1 8l-2 1-3 3c1 5 10 24 12 26v-42zm-2 35l2-1v2zm2 3l-1-1 1-1zm-99 24l1 3a3 3 0 001 5l1 4h1c-2-5 1-7-3-12h-1zm85-135h26v10l-20 21h8v36l-6 3-12-6-1-1h1c1-1 2-3 1-5-1-3-3-2-5-2l-3-8-1-2-1-1 1 1c2 4 6 5 9 2 1-3 0-5-2-6h-3l-3-9v-9l2-6c1-1 1 0 2 1 2 4 7 7 11 7l4-3c-2-1-3-4-4-6-1-5-2-9-6-13zm-13 24v1l-1 2c-3-1-6 0-8 2-3 3-3 6-1 11 2 7 2 7 0 9l-3 3h1l2-2c3-2 3-3 2-6l-1-6 1 1 4 2-1-1c-3-2-4-4-1-3h6l-1 6v3c0 5-1 10-4 13-8 11-18 8-29-1 4-11 4-19 5-23l3 1 5 1h1l-4 2c-3 0-2 1 0 1s5-1 7-3c2-1 2-1 1-3l1-1v-2c-3-2-9-2-14 0v-1l9-2 4 1h2l-1-2c-3-2-6-1-11 1-3 1-3 1-2-4l1-3s23 1 27 3zm-3 5l3 1h-2l-6 1v-1l5-1zm-18 1l5 2h-2c-3-1-6-1-9 1h-2c1-2 4-3 8-3zm17 1l4 2-2-1-5 1c-2 0-3 0-2-1l5-1zm4 1l5 11c4-1 6 3 3 5-2 1-4 1-6-2l-2-5v-9zm-24 2h1c1 2 2 2 3 0h1c-1 3-4 3-5 0zm-1 0l1 1h-1l-1-1h1zm8 0l-1 1-1 1v-1l1-1h1zm11 0c1 2 3 2 4 0-1 4-3 3-4 0zm-2 0c1 0 2 1 1 2l-2-1 1-1zm7 1c1 1 0 1-1 1l1-1zm-16 9c-2 0-2 2-2 3l1 3 6-2v-2l-3 1c-3 3-4-2-1-3h-1zM46 174l1 1-1 1v-2zm3 5l-2 3 3-1-2 3h3l-2 2h3l-2 3h3l-2 2h3l-2 3h3l-2 2h3l-1 1 1 1c1-1 7-2 7-4l-5 1c-2-6-8-21-12-25l-1 41-2 1c-2 0-6 3-4 4l7 2v36l6 1-18 19a1371 1371 0 000-65L33 82v-1-5l12 14v37s12 17 15 25c6 12 5 30 9 37v1l1 5-1 3 1 1v5l-2 2 2 3-1 4-1 2 1 1v3c-1 2-2 1-5 0l-10-6c0-2 3-8-1-14l-7-1v-19m0-2h2l-2 2zm97-94h-1l-2 1h-9-1l-1 2h14c1 1 1 1 1-1l-1-2zm-53 5a3 3 0 100 5v-5zm50 0h-6c-2 0-1 1 1 1v2h5v-1c-2-1-1-1 0-1v-1zm-50 1v3a2 2 0 010-3zm-14 0l1 1-2 2v-3h1zm7 2l-6 6 5 6 6-6zm66 3a1 1 0 110 2 1 1 0 010-2zm-66 1a1 1 0 110 3 1 1 0 010-3zm59 2l4 5-5 5v-3a2 2 0 001-5zm-67 0v2l5 5-5 5v1l7-6zm15 0l-7 6 6 7v-2l-4-5 4-4zm89 1l2 1 1 1h1v-1h2c0 2-2 3-5 3l-2 1-1 2v1l1 3v7l-6-2c-2-2-3-9 0-12l3-3 4-1zm-25 1v2a2 2 0 000 4v2l-4-4zm-12 1l1 2-2 1zm-67 1c-2 1-1 6 0 5a3 3 0 000-5zm14 0a3 3 0 100 5c2 0 1-5 0-5zm65 1v3a2 2 0 010-3zm-79 0a2 2 0 110 3v-3zm14 0c2 0 1 3 0 3a2 2 0 010-3zm59 2l-6 5 6 7 5-6zm-66 1l-5 5 5 6 6-6zm-36 3l2 2h-2zm102 0a1 1 0 110 3 1 1 0 010-3zm-66 1a1 1 0 110 3 1 1 0 010-3zm8 2l-7 6 6 6v-1l-4-5 5-5zm-15 0v1l5 5-5 5v2l7-7zm66 1l5 5-5 5v-3a2 2 0 000-4zm13 0v2a2 2 0 000 5v1l-4-4zm-103 1l2 3-1 1a3 3 0 004 3l2 2-7-2zm39 1a3 3 0 100 6c2-1 2-6 0-6zm-15 0a3 3 0 100 6 3 3 0 000-6zm79 1v3a2 2 0 010-3zm-64 0v4a2 2 0 010-4zm-15 0a2 2 0 110 4 2 2 0 010-4zm66 0l1 2-1 1zm-87 1l2 3h-1a2 2 0 01-1-3zm94 1l-5 6 6 5 4-5zm-66 1l-5 6 4 4h-3l-3-3v1l2 2h-2v1l14 2-1-1 1-2v-1l-2 3h-1l4-5-1-1-5 5h-1l5-5zm66 4a1 1 0 110 2 1 1 0 010-2zm-66 0a1 1 0 110 3 1 1 0 010-3zm-33 1v7l7 2 1-8zm-3 0h1v5l-1-2zm14 2l2 3-1 1a3 3 0 003 3l1 2-6-2zm82 0l5 5-4 5-1-3a2 2 0 000-4zm-89 1a1 1 0 110 2 1 1 0 010-2zm102 0a2 2 0 100 5v-5zm0 1v3l-1-2 1-1zm-93 1a72 72 0 012 3 2 2 0 01-2-3zm80 1a2 2 0 010 3zm7 1l-4 6 6 5 4-6zm-99 2l5 2-1 5v-2a3 3 0 00-3-3l-1-2zm8 2l-2 8 7 3 2-9zm92 0a1 1 0 110 3 1 1 0 010-3zm-98 0a2 2 0 011 2l-1-2zm104 1l-4 7 7 5-1-2-5-3 3-5zm-95 2a1 1 0 110 3 1 1 0 010-3zm7 1l1 3-1 2a3 3 0 004 2l1 3-7-3zm89 0l-1 1a2 2 0 001 4c2-1 1-5 0-5zm-14 1l6 4-3 6-1-3a2 2 0 00-1-4l-1-3zm14 0v3l-1-2 1-1zm-87 3l1 3a2 2 0 01-1-3zm74 0a2 2 0 011 3l-1-3zm7 1l-3 8 7 4 3-7zm-93 2l4 2-1 4-1-1a3 3 0 00-2-4zm6 2l-2 7 7 4 3-8zm-5 0a2 2 0 011 2zm94 1l1 1a1 1 0 11-1-1zm6 0l-3 8 7 4v-2l-6-3 3-5zm-92 3a1 1 0 110 3 1 1 0 010-3zm94 1l-2 2 2 2c3 0 1-4 0-4zm-87 0l1 3a3 3 0 002 4v2l-5-3 2-6zm87 1v3a2 2 0 010-3zm-14 0l6 4-3 6-1-3a2 2 0 00-1-4zm-71 2l1 3-2-1 1-2zm72 2a2 2 0 011 2zm-85 0l4 2-2 6v-2a3 3 0 00-1-5zm92 0l-3 7 8 4 2-7zm-91 3a2 2 0 011 2zm6 0l-3 7 6 4 3-7zm87 1a1 1 0 110 3 1 1 0 010-3zm8 3l-1 2c0 2 1 3 2 3h1c1-1 0-5-2-5zm-93 0a1 1 0 110 3 1 1 0 010-3zm95 4h-1l-1-2v-1c2-1 2 3 2 3zm-87 1a74 74 0 001 3 2 2 0 01-1-3zm81 1l-2 8 8 3 1-8zm-94 0l4 3-2 5-1-2a3 3 0 00-1-4zm87 0l1 2v1l-2-3h1zm-87 3a2 2 0 011 2zm7 1l-4 6 5 4 5-6zm90 0a1 1 0 110 3 1 1 0 010-3zm6 2l1 1v2a2 2 0 003 2v1l-4-1zm-95 2a1 1 0 110 3 1 1 0 010-3zm97 0l1 2c-1 0-2-1-1-2zm-90 0l-6 7 7 5v-1l-5-4 4-5zm77 3l7 2-2 7-1-3v-2a2 2 0 00-3-2zm-76 1a3 3 0 000 5v-1l-2-2 2-1v-1zm85 1l-1 8 8 1v-7zm-98 0l3 2-3 4v-1a3 3 0 000-4zm91 1a2 2 0 011 2l-1-2zm-25 1s1 0 0 0l-1 2v1l3-3v1l-3 3v1l4-4h2l-5 5 6 6 5-6-4-4h2l4 3v-1l-2-2h1c-4 0-8-2-11-3h-1v1zm-66 0a2 2 0 010 2zm101 1a1 1 0 110 3 1 1 0 010-3zm-95 0l-5 6 5 5 5-6zm101 2h1v4h-1zm-35 2a1 1 0 110 2 1 1 0 010-2zm-66 0a1 1 0 110 3 1 1 0 010-3zm7 1l-6 7 7 7v-2l-5-5 4-5zm66 1l-6 6 6 6v-1l-5-5 5-4zm-13 0v2l3 4-4 4v2l6-6zm30 1l8 1-1 7-2-2a2 2 0 00-3-3zm-95 1l3 4-3 4v-2a3 3 0 000-4zm13 1a3 3 0 000 5v-1l-1-1 1-2zm51 0v5a2 2 0 000-5zm14 1a2 2 0 000 5v-5zm21 0a2 2 0 011 2l-2-2h1zm-35 0a2 2 0 010 3v-3zm-64 1l1 1-1 2zm78 0v3a2 2 0 010-3zm-7 2l-6 6 6 5 5-5zm-65 0l-5 6 4 6 6-6zm-28 0l4 2c2 3 1 9 0 12-4 3-6 4-10 3 0-2-2-3-2-2l1 2-3-1 1-2h7v-3l1-2-2-2v-6l3-1zm93 4a1 1 0 110 3 1 1 0 010-3zm-65 1a1 1 0 110 3 1 1 0 010-3zm72 1l-6 6 6 7v-2l-5-5 5-5zm-14 0v2l4 4-3 4v2l5-6zm-64 2l3 5-4 4v-2a3 3 0 001-5zm12 1v3a3 3 0 000 5l-1 2-4-6zm95 1v16l12 12v46l-49 1-13-22h-1l4-20c6 2 11-5 8-10 18-7 39-23 39-23zm-29 0a2 2 0 100 4l1-2-1-2zm-14 0v4c2 0 3-1 3-2s-1-2-3-2zm14 0v4l-2-2 2-2zm-14 1l2 1-2 2v-3zm-65 0a2 2 0 010 3zm13 2v3a2 2 0 010-3zm59 0l-6 6 6 6 5-6zm-66 2l-6 4 4 6 1 1 6-5zm-23 0l14 7s-4 2-4 4c0 3 2 5 5 4l2 2 2 6-3-2c-4-1-6 2-5 5s3 3 4 3h1l2 7c1 5 2 11 1 12l-3 5c-3-5-9-10-16-8v1c3 3 3 6 4 9 2 7 6 11 6 11l-2 4H34v-9l20-21-8-1 1-35 6-4zm89 2a1 1 0 110 3 1 1 0 010-3zm-66 2a1 1 0 110 3 1 1 0 010-3zm59 1l1 2 4 4-4 4h-2v1h1l6-5zm0 3v5a2 2 0 000-5zm14 1v3a2 2 0 010-3zm-14 0a2 2 0 010 3v-3zm-47 1h-3l1 1h-1l-1 1h6l2 1-2-2h-1v-1h-1zm7 4h-6l-4 1h-3l-1-1v2c0 1 0 2 1 1h8c2-1 3 0 3 1l1-2 1-2zm-7 7l-2 1c-2 1-1 2 1 2l1-1c2-1 3-1 3 1 1 2-2 2-2 3l3-1c2-3-1-7-4-5zm10 9l-8 4-2 2v2c0 1 3 3 6 3l6-1c1-1 2-1 0-1l-5 1-4-1c-2-1-2-2 0-1h10l2-1v-1-2c0 2-1 2-3 1-3-2-4-2-7-2h1l3-2c2 0 2-1 1-1zm-20 4l2 2h-1c-1-2-2-2-3 0h-1c1-2 2-2 3-2zm2 0l3 1-2 1-1-2zm-5 0l-1 1c0 1 0 0 0 0l1-1zm20 0c1 0 2 1 2 3-1-3-3-2-4 0h-1l3-3zm-3 0v2h-1-1l1-1 1-1zm5 1h2c1 1 2 1 1 2h-1l-1-1-1-1zm-23 2l2 1h6l-3 1c-2 1-5 0-5-1v-1zm8 2l-1 1-3 2c-3 0-5 0-5-2h7l2-1zm20 2l-6 1c-2 1-5 0-7-1l-1 1 2 2c2 1 7 0 11-2l1-1zm-33 14l4-5c22 4 47 1 54 0a3331 3331 0 0012 20H62l2-5c-2-1-4-4-5-7l-5-12c4-2 14 3 15 9z" fill="#131f67"/><path d="M139 284H62l10-20c19 3 37 2 55 0l12 20zM34 268v-10h10zm83-63v-31l14 9v31zm-33-8c0-11-2-21-4-32l14-9 1 35zm-38-29v-40c13 19 21 38 23 63l-10 5-13-28zm132 18c-12-16-19-37-23-62l11-5c3 9 7 18 12 25zm-48-28l-1-33 11-7 5 31zm-24-18l-12-7 1-30 11 9zm75-84c1-3 6-7 9-9v9h-9zm-84-5L85 30l77-1-10 22c-20-4-38-2-55 0z" fill="#d40000"/><path d="M28 13H17v4h4v7a404 404 0 01-2 17c-1 2-5 2-7 0l-1-6H8v2c-1 13 16 11 17 2V27 17h3zm105 228l3-4c2-2 1-5 1-5 2 1 2 5 1 7l-4 2h-1zm4-10l-1-1h-2v-1h2v-45c3 2 9 2 13 3v40l8-5v-35l4-1-6-13c-1 1-14-1-18-3l12-7-3-11-1-3c-3-9-4-21-5-31h1v-7l-1 1v-3l1-1v-1l-1-1v-4h1v-8l-15 10-14-11c5-3 6-10 7-15 2-5 2-9 2-13a134 134 0 012-16c10-1 20 1 30 2l3-6 1 3 5 5 5 2 4-1v-1l-1-2-3-5c-1-5-2-10-6-12l3-5H84l12 21v1h1l-4 22-2-1c-7 0-9 8-4 11l3 2 3 2-4-2v46s-8-3-14-3V88l-7 5v35h-5a468 468 0 007 13c6 0 12 1 17 4l-12 7c5 14 11 35 8 68v-1l1-3 14-10 19 14h-2c-5 0-8 5-9 9l-3 20-2 13-1 2 27-2 4-21 3 1c7-1 6-11 3-11zM105 30l3 14-9 1-8-15zm57 0l-10 20c-20-2-32-3-55 1L85 30h3l9 17 14-2-4-15h4l3 15h21l2-15h4l-2 15 12 2 7-17zm-27 0l-2 13h-17l-3-13zm21 0l-6 15-9-1 3-14zM54 54l2 2-2-1c-4-3-7-3-10-3-9 3-10 13-4 20 6 6 16 2 18-6 0-1 1-2 1 0 0 7-4 13-6 17h16c-4-5-6-9-7-17 0-2 1-2 1-1 1 6 6 11 12 10 13-2 13-20 2-23l-9 3h-1l1-1c6-5 6-13 0-17-5-4-11-3-15 1-6 5-4 12 1 16zm112-10l1 3 3 6v1c-4 2-12-3-14-8l2-2v3l1-3 1 4 1-2 1 5c2-1 1-3 3 2l1-1 3 1-3-2h1l-3-3h2c-2-1-5-2-1-2-2-2-5-3-1-3l-3-2h3l-4-2 2-1h-1v-2c3 2 4 6 5 8zm25-5l-19 21h6v38l7 1c1 1-2 4-4 4l-3-1v42c-4-7-7-12-12-25l3-2c-1-4-3-11 0-17l1 1c-1 4-1 9 1 14v-1l-1-2v-3-6l1-2-13-8c-1 0-1 0 0 0 2-1 3-2 3-4s-2-3-4-3h-2a69 69 0 01-2-6l-2-4-1-1a40 40 0 01-3 13l3 2 6 3-1 1v6l-1 2v4l1 1-1 2v6l1 1-1 1 1 6h-1c2 24 11 47 24 63v39l13 13zm-1 3v3l-11 12h11v2h-17zm0 5v8h-9zM17 50c-6 1-5 8-2 11h-1c-4-3-8-1-8 4 0 7 8 7 10 1 0 0 0-1 0 0 0 3-3 8-3 8h8c-1-1-3-5-3-8 0-2 1 0 1 1 2 6 10 5 10-2 0-4-4-7-8-4-2 1-2 1 0-1 4-4 2-10-4-10zm98 1h1a343 343 0 01-4 31l-2-1c3-9 4-20 5-30zm7 0l-1 14c0 7-2 15-5 23-1 2-3 4-6 5-4 2-8-4-5-8 2-3 6-3 8 0 1 3-3 7-5 5-2 0-1-4 1-4l1 1v1c2-1 0-4-2-3-3 2-3 6 0 6 4 1 7-4 9-13l4-27zm-4 0h2l-1 3-2 19-3 13-1-3 3-16 2-16zm-9 1h2l-4 25v2c-1 1-1 0-2-1 2 1 3-19 4-26zm3-1h2a294 294 0 01-5 30l-1-1 4-29zm-4 1c-1 8-1 18-4 26l-2-1c1 0 2-5 2-11l2-14zm-3 0l-1 11-3 14-1-1 3-24zm-5 1l2-1-3 24-2-1 3-22zm-1 0c-1 8-1 15-3 21l-2-1 2-11 1-6v-3zm82 8v36h-2V61zm5 0a1 1 0 110 3 1 1 0 010-3zm-34 13c1 3 3 4 4 5 2 1 6-2 4-5 0-2-2-2-4-2l-2-3-3-8c0 5-1 10 1 13zm36-10a1 1 0 110 3 1 1 0 010-3zm-4 0a1 1 0 110 3 1 1 0 010-3zm-32 0l3 8 1 2c4-2 6 3 2 4-3 2-7-4-7-11l1-3zm34 4a1 1 0 110 3 1 1 0 010-3zm4 3v3l-8 7v-3zM90 73l2 1c-4 1-5 3-5 7 0 1 0 2-1 1-3-4 1-9 4-9zm3 1h1c1 1 1 1-1 2-3 1-3 3-4 7v1l-1-1c-2-3 2-9 5-9zm3 1l1 1-1 1c-2 1-4 4-4 6s1 4-1 2c-1-1-1-4 1-7l4-3zm94 0v3l-8 8v-4zm-92 2c1 0 2 0 1 1-3 1-4 4-4 7 0 2 0 3-1 1-2-2-1-7 3-9h1zm3 1c1 0 2 0 0 1-2 2-4 5-4 8v1c-3-3 0-10 4-10zm50 0l2 4 2 5h1c4-2 6 3 3 5-3 1-5 0-7-4-2-5-2-8-1-10zm-48 1h2l-1 2-3 2-1 5c0 2 0 2-2 0-1-3 2-9 5-9zm4 2c1 0 2 0 1 1-4 2-6 5-5 8 0 1-1 1-2-1s1-6 4-8h2zm43 3l1 2a31 31 0 001 4l-2-1-1-4 1-1zm36 3a1 1 0 110 3 1 1 0 010-3zM37 89a1 1 0 110 3 1 1 0 010-3zm60 1c2-1 2 0 3 3l3 1c2 0 3 0 4 3 0 2 0 2 3 2s3 1 4 4c0 2 0 2 3 2s3 0 4 3c0 3 0 3 2 3h7c1 0 2 0 2-2 0-4 1-4 5-4 2 1 2 1 2-1 1-2 1-3 1-1 0 5 0 5-3 4s-3 0-3 2l-2 4-3-1h-4c-6 0-6 0-6-3 0-2 0-2-3-2-4 0-4 0-4-4 0-2 0-2-3-2-4 0-4 0-4-3 0-2-1-3-3-2-3 1-4-1-4-3s0-1-2-1v-2h1zm91 0a1 1 0 110 3 1 1 0 010-3zm-4 0a1 1 0 110 3 1 1 0 010-3zM39 93a1 1 0 110 3 1 1 0 010-3zm-4 0a1 1 0 110 3 1 1 0 010-3zm76 1l15 11 15-9-1 3-14 10-18-14zm75 0a1 1 0 110 3 1 1 0 010-3zm-24 2l3 6-3 3 3 4-4 3 4 3-3 5-5 2 5-7-5-2 4-5-3-4 4-3-4-7zm-67-1l27 20 3 2h3l12-8v3l-13 8h-2L95 97zm61 0l1 1 3 5-3 3 3 4-4 5 4 3-5 6v-4l2-2-2-1v-5l2-2-2-2 1-4 1-2-1-2zM37 96a1 1 0 110 3 1 1 0 010-3zm153 5l-8 7v-3l8-7zM41 98v4l-7 7v-4zm149 4v4l-8 7v-4zm-9 1v121l9 9v3l-11-12V103zm-140 0v4l-7 7v-4zm54 0l11 8v29l-11-7zm91 10a1 1 0 110 2 1 1 0 010-2zm-77 1v29l-2-2v-29zm-71 0a1 1 0 110 3 1 1 0 010-3zm150 2a1 1 0 110 3 1 1 0 010-3zm-4 0a1 1 0 110 3 1 1 0 010-3zm-74 0l6 6-6 6v-2l4-4-4-4zm3 1l5 4-1 1zm-73 1a1 1 0 110 3 1 1 0 010-3zm-4 0a1 1 0 110 3 1 1 0 010-3zm104 0c1 12 2 20 5 31l-14 8v-33zm38 27v39c-13-18-20-40-23-60l11-5c3 8 2 8 12 26zm9-25a1 1 0 11-1 3 1 1 0 011-3zm-149 2a1 1 0 110 2 1 1 0 010-2zm81-1l5 4v3l-6-6zm-2 2l6 6-6 7-7-6zm47 0l-6 3c3 21 9 36 17 49v-29l-11-23zm26 1v3l-8 7v-3zm-73 1l-4 4 4 4 4-4zm-76 0v3l-7 8v-4zm85 2v34h-2v-35zm-9 0l2 2-2 2-2-2zm73 1v4l-8 7v-4zm-84 14c8 7 14 17 21 23l12 7 11 2h4l1 2h-2v9l7-1v2c-16 2-32-4-41-12l-12-14c-8-13-23-19-36-19l-1-2h2v-4-4h-7l-1-2c16-1 32 4 42 13zm-65-13v4l-7 7v-3zm83 1v3l-4 3 4 4v3l-7-7zm-49 1h-1v6l1 2 6 1 2-1 1-5c1-2 0-2-3-2l-6-1zm35 0l6 6-6 6v-3l3-4-3-3zm-31 1l1 2h2l-1 1 1 1-1 1v1h-1l-1 1-1-1h-1v-2h-1l1-1v-2l1 1zm-9 2l1 1-1 1-1 1-2-4h2zm17-1l-1 4c-2 4-2 4 0 5l4 1h4l1-4c2-2 2-2-1-3l-5-2-2-1zm3 3h2v1l1 1v1l1 1h-1l-1 2-1-1-2 1v-1l-1-1v-1l-1-2h2zm27 1l6 7-6 6-7-7zm69 1a1 1 0 111 3 1 1 0 01-1-3zm-87 1l-1 1-2 3c-2 2-2 2 0 3l4 3c1 2 1 1 4-1 2-2 3-3 2-4a100 100 0 00-7-5zm18 0l-4 4 4 4 4-3zm-68-1v30c5 8 9 15 11 24l7-3c-3-25-10-39-18-51zm-11 2a1 1 0 110 3 1 1 0 010-3zm79 2l2 1-2 2-2-2zm71 0a1 1 0 110 3 1 1 0 010-3zm-4 0a1 1 0 110 3 1 1 0 010-3zm-84 0l1 1 1-1v2h1v3h-1l-1 1-1-1h-2v-1l-1-1 1-1-1-1h2zm-64 2a1 1 0 110 2 1 1 0 010-2zm4 0a1 1 0 110 2 1 1 0 010-2zm84 3l-4 3 4 4v3l-6-6 6-7zm-34-1l-13 9-1-2 11-8zm96 0a1 1 0 110 3 1 1 0 010-3zm-78 1l-2 2-3 2c-1 1-1 1 1 3l2 2 2 2c0 1 1 1 4-1 3-3 3-2 0-7-2-2-3-4-4-3zm-70 0a1 1 0 110 3 1 1 0 010-3zm76 1l2 2v1zm76 1v4l-7 7v-4zm-81 1l1 1h1v1l1 1-1 1v1h-1l-1 1-1-1h-1v-1l-2-1 1-1v-1h2zm36 0v2l-18 12-1-2zm-48 1l2 1-19 13-1-2zm-55 0v4l-8 7v-4zm75 1l6 6-1 1zm-17 1v36l-2-1v-34zm1 1l1 1-1 2zm89 0v4l-7 6v-3zm-148 2v3l-8 8v-4zm74 0v1l-2 1-4 3 5 6c1 2 1 2 2 1l5-5-5-6-1-1zm-13 1l5 6-1 1-6-6zm-9 0v33l-9 7s-1-20-5-31zm22 2l1 1h1v1l1 1-1 2v1h-1l-1 1-1-2h-2v-1l-1-1 1-1 1-1h1zm8 0v1l-1-1zm-23 2v-2l5 6-5 5v-2l3-4zm47-1l1 3-12 7-2-1zm38 4a1 1 0 110 3 1 1 0 010-3zm-74 5l-4-4v-1zm11-4l-5 5 7 6h1c4-6 5-6 3-7l-5-4h-1zm-16 0l7 7-6 6-7-7zm-69 1a1 1 0 110 3 1 1 0 010-3zm86 1l1 1h1v1l2 1-1 1v2h-1l-1 1-1-1h-2v-2h-1l1-1-1-2 2 1zm64 1a1 1 0 110 3 1 1 0 010-3zm-84 3l4 4 3-3-4-4zm80-3a1 1 0 110 3 1 1 0 010-3zm-148 1a1 1 0 110 3 1 1 0 010-3zm4 0a1 1 0 110 3 1 1 0 010-3zm67 1l2 2-1 1-2-2zm25 1l-4 7 3 1 6 3 1-1 1-3c1-4 2-4 0-4l-4-2-3-1zm54 1a1 1 0 110 3 1 1 0 010-3zm-69 2v28l-2-1v-29zm-10 5l-6 6v-3l3-3-3-4v-3l6 7zm-69-6a1 1 0 110 3 1 1 0 010-3zm95 0l1 1h1l1 1h1v1l1 2h-2v2l-2-1h-1v-1h-2l1-2-1-1h1zm-19 0v3l-3 2 3 3v3l-6-5zm29 2l-1 2-1 3c-1 3-1 3 2 3l7 1a136 136 0 000-8l-7-1zm-25 0l11 7v30l-11-9zm72 0v4l-8 7v-4zm-44 1v2l2-1v2l1 1h-1l-1 2h-1l-1 1-1-1h-2l1-2-1-1 1-1v-1l2 1zm-104 0v4l-8 7v-3zm114 2l2 3-1 2-1-1-1 1v-2l-1-1 1-1v-1zm-48 1l6 7-6 6-7-6zm82 4l-8 7v-3l8-7zm-148-2v3l-8 8v-4zm66 1l-4 4 4 4 4-4zm0 2l2 2-2 2-2-2zm-7 3l6 6-1 1-5-5zm13 0v3l-3 3 3 3v3l-6-6zm72 3a1 1 0 110 3 1 1 0 010-3zm-148 2a1 1 0 110 3 1 1 0 010-3zm30 1l-5 6 4 3-4 4 4 5-4 3 4 6-4-2-3-5 3-3-3-4 3-4-3-2 4-6zm120 0a1 1 0 110 3 1 1 0 010-3zm-90 0l32 25v3l-32-24-13 9v-3zm86 1a1 1 0 110 3 1 1 0 010-3zm-73 3h-1l-3-3h1l3 3zm-71-2l2 2a1 1 0 11-2-2zm-4 0a1 1 0 110 3 1 1 0 010-3zm150 2a1 1 0 110 3 1 1 0 010-3zm-148 2a1 1 0 110 3 1 1 0 010-3zm152 3v3l-7 7v-3zm-96 1h8c3 0 3 0 4 3 0 2 0 2 2 2 4 0 5 1 5 4 0 2 1 2 3 2 3-1 3 0 4 3 0 2 0 2 3 2s4 1 4 3l1 2 1 1h-1c-2 1-3 0-3-2s-1-2-3-2c-4 0-4 0-4-3 0-2-1-3-4-2-2 0-3-1-3-3-1-3-1-3-4-3s-3 0-3-2c0-3-1-3-4-3h-5c-2 0-2-1-3 2 0 3 0 3-5 3l-2 1c0 2 0 3-1 2v-3c1-2 1-2 4-2s2 0 3-2c0-3 0-3 3-3zm-52-1v4l-8 8v-4zm26 4l2 3-1 5-1 1 1 2-1 3-3-6 3-3-3-5 3-4-3-3 4-6c1-1 1 3 1 3l-2 2 2 2v4l-2 2zm2-2v-5l-1-2 1-2v-5c-3-36-21-58-24-63l-1-1v-8-29L32 75v6h1v23l-1 11h1v77l1 17h-1v37h1l-1 8v21l20-21h-7v-7-30l-2-1-5-1 3-3h1V91l-9-10v-3l11 12v121h1v-41c6 9 9 17 12 26h1v-1l-13-27v-39c14 19 20 37 23 62l-7 3v1l-6 3v-1l-3 2c2 4 2 10 0 14h1s3-6 0-13l2-2c3 7 2 15 0 17l4 2 6 3h3v-4l-1-2 1-1 1-6-1-1zm120 2v4l-7 7v-4zm-148 4l-8 8v-3l8-8zm145 5l1 2a1 1 0 11-1-2zm-142 3v36h-2v-37zm-7-1a1 1 0 110 3 1 1 0 010-3zm147 2a1 1 0 110 3 1 1 0 010-3zm4 0a1 1 0 110 3 1 1 0 010-3zm-149 2l2 1a1 1 0 11-2-1zm75 0c8 1 6 9 2 11s-7-2-5-7c2-3 6-1 5 3-1 2-3 1-3-1 1-1 0-1 0 0-2 2 1 4 3 2l1-4c-1-2-3-3-6-1-3 4-4 8-5 14-2 11-2 23-4 26h-2c3-13 3-24 6-34 1-5 5-9 8-9zm-79 0a1 1 0 110 3 1 1 0 010-3zm31 0c-2 0-4 2-4 4 0 3 2 4 4 4 2-1 2-1 3 1l3 9c-1-2-4-4-6-4s-4 2-3 5c1 2 3 2 5 2l4 12 1-14c1-6 1-10 4-14l-6-3-3-1-2-1zm120 1a1 1 0 110 3 1 1 0 010-3zm-116 3l3 8v5l-1-1c-3-8-3-9-5-9h-2c-2-1-3-5 0-6 3 0 4 2 5 3zm0-2c3 2 5 3 5 6l-1 2-2-3-2-5zm50 1h1c2 2 1 8-2 9h-4c3 0 6-4 5-8v-1zm-83 1a1 1 0 110 3 1 1 0 010-3zm86 0l1 1c2 3 0 7-3 9-2 1-3 0-3-1 3-1 5-3 5-7v-2zm-48 1h1v1l-1-1zm50 0h1c1 2 2 6 0 8l-3 2h-2l1-1c2-1 4-4 3-6v-3zm3 1l1 2c2 2 1 7-3 8-2 1-3 0-1-1s4-4 3-7v-2zm3 2l1 1v6l-4 3h-2c-1-1 0-1 1-1 3-2 4-4 4-7v-2zm-90 0v3l-8 8v-4zm69 0l1 3c-2 3-3 7-3 10l-3 22h-2l4-27 3-8zm24 2c3 2 1 8-3 9h-2v-1c3-1 5-3 4-6 0-1 0-3 1-2zm19 0l7 14v5h-1c-3-13-17-14-21-3s7 20 15 13l2-1c1 1 0 1-1 2-10 9-1 20 8 19 11-1 15-13 6-20l-1-1 1 1c9 7 20-1 18-10-3-15-19-11-22-1 0 2-1 2-1 1v-3c1-6 7-16 7-16zm-41 1l1 1c-2 4-2 9-3 14l-2 17h-2l3-21c0-4 1-10 3-11zm2 2l1 1-1 7-3 21h-2a749 749 0 005-29zm-73 0v3l-8 8v-4zm75 1l2 1-2 12-2 15h-2l3-21 1-7zm-44 8v8c-1 0-1-7-4-10-3 2-6-2-4-4 4-4 8 4 8 6zm47-7l2 1-1 4-4 22h-1l2-15 2-12zm3 2l2 1-1 3c-2 7-3 13-3 20l-2 1a277 277 0 014-25zm3 1l2 1-5 22h-1a204 204 0 014-23zm77 0c2 2 2 5 3 8l-1 1v-1c-1-5-8-6-10-1s3 9 7 7c1-1 4-2 1 0l-2 4c0 3 2 6 5 6s6-2 6-5c0-2-1-4-3-5v-1l5 2c7-2 5-10 0-11-2 0-5 1-6 4-1 2-1 1 0 0 0-3 1-6 3-8zm-75 1l2 1-4 21h-2l3-18 1-4zm-90 3a1 1 0 110 3 1 1 0 010-3zm2 4l2 1a1 1 0 11-2-1zm-3 0a1 1 0 110 3 1 1 0 010-3zm1 3a1 1 0 110 3 1 1 0 010-3zm14 5l-18 18v-4l12-11-12-1v-2zm-8 3l-10 9v-9zm10 1v2c3 4 3 8 6 13l4 6-3 5h79l-12-23c-21 4-39 4-56 1l-3 5c-2-6-10-11-15-9zm2 1c5 0 8 2 11 6l2 2-2 3-1-3c-1 4-1-1-2-2-1 4-2-1-2-3-2 3-2-2-3-2 0 2-1 0-3 0 1 1 3 2 1 2 2 2 3 2 1 2 2 1 4 2 1 3 2 1 5 2 2 3 2 1 6 1 1 2 2 1 5 2 1 2l2 1-2 2h-1l-4-8-3-9c-1-1-1-1 1-1zm71 5l11 18h-3l-9-16-13 2 4 14h-4l-4-14H89l-2 14h-4l3-14-13-1-6 15-4 1 10-19c26 4 40 2 54 0zm72 12v19h-3v3h10v-3h-3v-19c0-9 9-8 9-2v3h4v-3c0-6-3-8-8-8-8 0-9 7-9 10zm-75-8l9 14h-14l-4-13zm-49 0l8 1-2 13H69zm33 2l3 12-22 1 2-13h17z"/><g><rect y="590" x="2314.3" height="311.8" width="223.2" rx="10.6" ry="10.6" fill="#fff" stroke="#000" transform="translate(-2314 -589)"/><path d="M63 280c-1 1-4-8-7-14l-2-6c2-2 6-1 9 2 4 2 6 6 6 6zm-29-7v-4l11-11H34l-1-4V77l12 12v123s-6 0-6 3c-1 2 7 2 7 2v38h6l-18 18zm39-22l-4-9c-5 1-7-6-2-7 2 0 5 3 6 6v10zm1-11c-2-3-3-12-6-12-3 1-5-1-4-3 1-6 11-1 13 1l-3 14zm-20-26l1-6-2-9c6-5 15-10 17-7 1 12 0 18-1 27l-2 1-3-1-8-4zm101-91c-1-9-1-23 1-29 1-2 13 6 14 7v2l1 10v3l-16 7zm-6-38l2-8c1 0 2 7 5 9 5 0 5 3 4 5 0 0-1 2-3 2-4-2-10-3-8-8zm-65-6c-1-1 2-8 9-6 3-6 3-20 5-20 2-1 26-8 25-2s-2 35-11 43c-1 1 14 11 14 11l15-10-1 22c0 13 2 22 6 35-1 2 3 10 6 18l11 19c-10-4-20-2-31-6l-1 45s6 3 7 5l1 2c0 4-3 8-8 6l-5 21-25 2 2-12v-8c1-10 4-22 9-23-1 1-12-9-14-10-7 3-15 9-15 9l1-17-1-23c-2-15-9-29-14-40l-5-11c8-1 16 0 30 4l-1-46-7-4c-2-1-1-4-2-4zm67-10v-6l5 10h3c3 3 0 6-3 6-2-1-5-5-5-10zm28 156l-1-122c3-1 6 1 9-3-2-3-6-2-9-3V60l-5-1 8-8 2-2 7-8c1 2 1 4-6 11-6 5-6 5 0 4 6 0 7 0 6 2v179zM162 36l1 1 8 17c-6 2-13-3-15-8s4-13 6-10z" fill="#e2cf00"/><path d="M32 28v257l161 1-1-258zm53 54l1 1-1 1c-19 6-39 22-39 22V89L34 76V30h48l14 24-3 18c-1 0-5 0-8 3-1 2-2 4 0 7zm91 53l1-2h-3l2-2h-3l3-3h-4l3-2h-4l3-3h-5l4-2h-4l2-2h-3l4-3 6 1v19zm2-32c10 0 12-5 1-6l-1-34v-3h-6l18-19 1 196-12-12v-39c-5-4-7-11-9-15l-7-3 1-5v-2l-2 8 7 3 1 2-2 7 8 3 1 1-1 7 2 1v1h-2v8l2 1v2h-2l-2-3 1-8-9-2-1-1 2-9-10-3 4 7-4 1-1 35h-7a2 2 0 00-1 5h-1l-3-3 5-4v-1l-6 5 3 3-2 1-2-2-5 5 1 1c3 7-2 11-7 9l-5 21-25 2v-1l-1 1-27-2v-2c0-3 0-3 2-2 4 0 7-1 9-5l-1-10-1-5 2-3 1-1-3 1c-2 1-2 2 0 7l1 4h-2l-2-2c-3-1-1 0 1 2 2 1 2 2 0 1l-5 1-1-1v-4c1-8 2-16 7-21 8-6 19-2 26 4l1-1c-5-3-12-8-20-7l10-7 14 11 1-1-15-11-15 10 1-13-7 5 5 8-5 6v1c-2 3-3 8-3 13l-1 12-3-8c-1-3-1-3-2-2-7 0-4-12 4-4l1 1-3-9c-1-2-1-2-3-2-2 1-3 0-3-3 0-5 6-3 9-1l-2-3-1-1v-3l5-5-4-6v-2l5-6-5-5v-2l4-6-6-4v-2l3-6-5-4-1-3 2-7-6-3-1-3 2-7-6-3-2-3 1-7-7-2-2-3 1-6h-2v-1h2v-3l-1-5c-2-1-2-2 1-2h1l1 1-1 9 9 2 1 1-1 8 8 3 1 2-2 8 8 4 1 2-4 7 8 4v2l-4 8 9 7-1-2-7-5 4-7s0 1 0 0v-3l-4-10 12-7c-5-3-11-3-17-5l-1-1-5-10 4-1s3-24 6-35h1a3 3 0 002-5h1l2 2-5 5v2l7-7-3-3h1l2 2 5-5 1 1-5 5 6 7v-2l-4-5 4-4 1-1 4 2c-2-1-5-2-6-4-7-4-1-12 6-10l3-19-1-4-11-20 78-1-2 5s4 5 6 11l4 9c-6 2-13-3-15-9l-4 6-30-3 1 3-2 14c-1 10-2 23-9 28l2 2-1-1 1-1 3-4c5 5 14 9 20 8 2-1 3-3 4-1l-1 27c1 17 5 27 9 40-2 0-12 7-12 7 0 1 12 4 17 3l1 1a2 2 0 00-2-4l-1-3 7 3-3 7 1 2 3-10-9-3v-2l3-7-8-5v-2l4-7-7-6 5-7-7-6 1-1 5-6-6-6v-3l7-5-6-8 5-5h1l-4 4 5 7 5-5-3-4h2l2 3-1 3-5 5 5 6v2l-5 5 6 7-5 6 6 5v-1l-5-4 4-4c0-3-1-7 1-9-2-2-1-7 0-9-2-2-1-7 0-7v-7l-9-5c3-6 3-11 4-13l4 11h1c6 1 6 6 1 7 0 0 9 7 14 7v1l-1 6c-1 3 1 8 1 8l-2 1-3 3c1 5 10 24 12 26v-42zm-2 35l2-1v2zm2 3l-1-1 1-1zm-99 24l1 3a3 3 0 001 5l1 4h1c-2-5 1-7-3-12h-1zm85-135h26v10l-20 21h8v36l-6 3-12-6-1-1h1c1-1 2-3 1-5-1-3-3-2-5-2l-3-8-1-2-1-1 1 1c2 4 6 5 9 2 1-3 0-5-2-6h-3l-3-9v-9l2-6c1-1 1 0 2 1 2 4 7 7 11 7l4-3c-2-1-3-4-4-6-1-5-2-9-6-13zm-13 24v1l-1 2c-3-1-6 0-8 2-3 3-3 6-1 11 2 7 2 7 0 9l-3 3h1l2-2c3-2 3-3 2-6l-1-6 1 1 4 2-1-1c-3-2-4-4-1-3h6l-1 6v3c0 5-1 10-4 13-8 11-18 8-29-1 4-11 4-19 5-23l3 1 5 1h1l-4 2c-3 0-2 1 0 1s5-1 7-3c2-1 2-1 1-3l1-1v-2c-3-2-9-2-14 0v-1l9-2 4 1h2l-1-2c-3-2-6-1-11 1-3 1-3 1-2-4l1-3s23 1 27 3zm-3 5l3 1h-2l-6 1v-1l5-1zm-18 1l5 2h-2c-3-1-6-1-9 1h-2c1-2 4-3 8-3zm17 1l4 2-2-1-5 1c-2 0-3 0-2-1l5-1zm4 1l5 11c4-1 6 3 3 5-2 1-4 1-6-2l-2-5v-9zm-24 2h1c1 2 2 2 3 0h1c-1 3-4 3-5 0zm-1 0l1 1h-1l-1-1h1zm8 0l-1 1-1 1v-1l1-1h1zm11 0c1 2 3 2 4 0-1 4-3 3-4 0zm-2 0c1 0 2 1 1 2l-2-1 1-1zm7 1c1 1 0 1-1 1l1-1zm-16 9c-2 0-2 2-2 3l1 3 6-2v-2l-3 1c-3 3-4-2-1-3h-1zM46 174l1 1-1 1v-2zm3 5l-2 3 3-1-2 3h3l-2 2h3l-2 3h3l-2 2h3l-2 3h3l-2 2h3l-1 1 1 1c1-1 7-2 7-4l-5 1c-2-6-8-21-12-25l-1 41v1h-2c-2 0-6 3-4 4l7 2v36l6 1-18 19a1371 1371 0 000-65L33 82v-1-5l12 14v37s12 17 15 25c6 12 5 30 9 37v1l1 5-1 3 1 1v5l-2 2 2 3-1 4-1 2 1 1v3c-1 2-2 1-5 0l-10-6c0-2 3-8-1-14l-7-1v-19m0-2h2l-2 2zm97-94h-1l-2 1h-9-1l-1 2h14c1 1 1 1 1-1l-1-2zm-53 5a3 3 0 100 5v-5zm50 0h-6c-2 0-1 1 1 1v2h5v-1c-2-1-1-1 0-1v-1zm-50 1v3a2 2 0 010-3zm-14 0l1 1-2 2v-3h1zm7 2l-6 6 5 6 6-6zm66 3a1 1 0 110 2 1 1 0 010-2zm-66 1a1 1 0 110 3 1 1 0 010-3zm59 2l4 5-5 5v-3a2 2 0 001-5zm-67 0v2l5 5-5 5v1l7-6zm15 0l-7 6 6 7v-2l-4-5 4-4zm89 1l2 1 1 1h1v-1h2c0 2-2 3-5 3l-2 1-1 2v1l1 3v7l-6-2c-2-2-3-9 0-12l3-3 4-1zm-25 1v2a2 2 0 000 4v2l-4-4zm-12 1l1 2-2 1zm-67 1c-2 1-1 6 0 5a3 3 0 000-5zm14 0a3 3 0 100 5c2 0 1-5 0-5zm65 1v3a2 2 0 010-3zm-79 0a2 2 0 110 3v-3zm14 0c2 0 1 3 0 3a2 2 0 010-3zm59 2l-6 5 6 7 5-6zm-66 1l-5 5 5 6 6-6zm-36 3l2 2h-2zm102 0a1 1 0 110 3 1 1 0 010-3zm-66 1a1 1 0 110 3 1 1 0 010-3zm8 2l-7 6 6 6v-1l-4-5 5-5zm-15 0v1l5 5-5 5v2l7-7zm66 1l5 5-5 5v-3a2 2 0 000-4zm13 0v2a2 2 0 000 5v1l-4-4zm-103 1l2 3-1 1a3 3 0 004 3l2 2-7-2zm39 1a3 3 0 100 6c2-1 2-6 0-6zm-15 0a3 3 0 100 6 3 3 0 000-6zm79 1v3a2 2 0 010-3zm-64 0v4a2 2 0 010-4zm-15 0a2 2 0 110 4 2 2 0 010-4zm66 0l1 2-1 1zm-87 1l2 3h-1a2 2 0 01-1-3zm94 1l-5 6 6 5 4-5zm-66 1l-5 6 4 4h-3l-3-3v1l2 2h-2v1l14 2-1-1 1-2v-1l-2 3h-1l4-5-1-1-5 5h-1l5-5zm66 4a1 1 0 110 2 1 1 0 010-2zm-66 0a1 1 0 110 3 1 1 0 010-3zm-33 1v7l7 2 1-8zm-3 0h1v5l-1-2zm14 2l2 3-1 1a3 3 0 003 3l1 2-6-2zm82 0l5 5-4 5-1-3a2 2 0 000-4zm-89 1a1 1 0 110 2 1 1 0 010-2zm102 0a2 2 0 100 5v-5zm0 1v3l-1-2 1-1zm-93 1a72 72 0 012 3 2 2 0 01-2-3zm80 1a2 2 0 010 3zm7 1l-4 6 6 5 4-6zm-99 2l5 2-1 5v-2a3 3 0 00-3-3l-1-2zm8 2l-2 8 7 3 2-9zm92 0a1 1 0 110 3 1 1 0 010-3zm-98 0a2 2 0 011 2l-1-2zm104 1l-4 7 7 5-1-2-5-3 3-5zm-95 2a1 1 0 110 3 1 1 0 010-3zm7 1l1 3-1 2a3 3 0 004 2l1 3-7-3zm89 0l-1 1a2 2 0 001 4c2-1 1-5 0-5zm-14 1l6 4-3 6-1-3a2 2 0 00-1-4l-1-3zm14 0v3l-1-2 1-1zm-87 3l1 3a2 2 0 01-1-3zm74 0a2 2 0 011 3l-1-3zm7 1l-3 8 7 4 3-7zm-93 2l4 2-1 4-1-1a3 3 0 00-2-4zm6 2l-2 7 7 4 3-8zm-5 0a2 2 0 011 2zm94 1l1 1a1 1 0 11-1-1zm6 0l-3 8 7 4v-2l-6-3 3-5zm-92 3a1 1 0 110 3 1 1 0 010-3zm94 1l-2 2 2 2c3 0 1-4 0-4zm-87 0l1 3a3 3 0 002 4v2l-5-3 2-6zm87 1v3a2 2 0 010-3zm-14 0l6 4-3 6-1-3a2 2 0 00-1-4zm-71 2l1 3-2-1 1-2zm72 2a2 2 0 011 2zm-85 0l4 2-2 6v-2a3 3 0 00-1-5zm92 0l-3 7 8 4 2-7zm-91 3a2 2 0 011 2zm6 0l-3 7 6 4 3-7zm87 1a1 1 0 110 3 1 1 0 010-3zm8 3l-1 2c0 2 1 3 2 3h1c1-1 0-5-2-5zm-93 0a1 1 0 110 3 1 1 0 010-3zm95 4h-1l-1-2v-1c2-1 2 3 2 3zm-87 1a74 74 0 001 3 2 2 0 01-1-3zm81 1l-2 8 8 3 1-8zm-94 0l4 3-2 5-1-2a3 3 0 00-1-4zm87 0l1 2v1l-2-3h1zm-87 3a2 2 0 011 2zm7 1l-4 6 5 4 5-6zm90 0a1 1 0 110 3 1 1 0 010-3zm6 2l1 1v2a2 2 0 003 2v1l-4-1zm-95 2a1 1 0 110 3 1 1 0 010-3zm97 0l1 2c-1 0-2-1-1-2zm-90 0l-6 7 7 5v-1l-5-4 4-5zm77 3l7 2-2 7-1-3v-2a2 2 0 00-3-2zm-76 1a3 3 0 000 5v-1l-2-2 2-1v-1zm85 1l-1 8 8 1v-7zm-98 0l3 2-3 4v-1a3 3 0 000-4zm91 1a2 2 0 011 2l-1-2zm-25 1s1 0 0 0l-1 2v1l3-3v1l-3 3v1l4-4h2l-5 5 6 6 5-6-4-4h2l4 3v-1l-2-2h1c-4 0-8-2-11-3h-1c-1 1-2 0 0 1zm-66 0a2 2 0 010 2zm101 1a1 1 0 110 3 1 1 0 010-3zm-95 0l-5 6 5 5 5-6zm101 2h1v4h-1zm-35 2a1 1 0 110 2 1 1 0 010-2zm-66 0a1 1 0 110 3 1 1 0 010-3zm7 1l-6 7 7 7v-2l-5-5 4-5zm66 1l-6 6 6 6v-1l-5-5 5-4zm-13 0v2l3 4-4 4v2l6-6zm30 1l8 1-1 7-2-2a2 2 0 00-3-3zm-95 1l3 4-3 4v-2a3 3 0 000-4zm13 1a3 3 0 000 5v-1l-1-1 1-2zm51 0v5a2 2 0 000-5zm14 1a2 2 0 000 5v-5zm21 0a2 2 0 011 2l-2-2h1zm-35 0a2 2 0 010 3v-3zm-64 1l1 1-1 2zm78 0v3a2 2 0 010-3zm-7 2l-6 6 6 5 5-5zm-65 0l-5 6 4 6 6-6zm-28 0l4 2c2 3 1 9 0 12-4 3-6 4-10 3 0-2-2-3-2-2l1 2-3-1 1-2h7v-3l1-2-2-2v-6l3-1zm93 4a1 1 0 110 3 1 1 0 010-3zm-65 1a1 1 0 110 3 1 1 0 010-3zm72 1l-6 6 6 7v-2l-5-5 5-5zm-14 0v2l4 4-3 4v2l5-6zm-64 2l3 5-4 4v-2a3 3 0 001-5zm12 1v3a3 3 0 000 5l-1 2-4-6zm95 1v16l12 12v46l-49 1-13-22h-1l4-20c6 2 11-5 8-10 18-7 39-23 39-23zm-29 0a2 2 0 100 4l1-2-1-2zm-14 0v4c2 0 3-1 3-2s-1-2-3-2zm14 0v4l-2-2 2-2zm-14 1l2 1-2 2v-3zm-65 0a2 2 0 010 3zm13 2v3a2 2 0 010-3zm59 0l-6 6 6 6 5-6zm-66 2l-6 4 4 6 1 1 6-5zm-23 0l14 7s-4 2-4 4c0 3 2 5 5 4l2 2 2 6-3-2c-4-1-6 2-5 5s3 3 4 3h1l2 7c1 5 2 11 1 12l-3 5c-3-5-9-10-16-8v1c3 3 3 6 4 9 2 7 6 11 6 11l-2 4H34v-9l20-21-8-1 1-35 6-4zm89 2a1 1 0 110 3 1 1 0 010-3zm-66 2a1 1 0 110 3 1 1 0 010-3zm59 1l1 2 4 4-4 4h-2v1h1l6-5zm0 3v5a2 2 0 000-5zm14 1v3a2 2 0 010-3zm-14 0a2 2 0 010 3v-3zm-47 1h-3l1 1h-1l-1 1h6l2 1-2-2h-1v-1h-1zm7 4h-6l-4 1h-3l-1-1v2c0 1 0 2 1 1h8c2-1 3 0 3 1l1-2 1-2zm-7 7l-2 1c-2 1-1 2 1 2l1-1c2-1 3-1 3 1 1 2-2 2-2 3l3-1c2-3-1-7-4-5zm10 9l-8 4-2 2v2c0 1 3 3 6 3l6-1c1-1 2-1 0-1l-5 1-4-1c-2-1-2-2 0-1h10l2-1v-1-2c0 2-1 2-3 1-3-2-4-2-7-2h1l3-2c2 0 2-1 1-1zm-20 4l2 2h-1c-1-2-2-2-3 0h-1c1-2 2-2 3-2zm2 0l3 1-2 1-1-2zm-5 0l-1 1c0 1 0 0 0 0l1-1zm20 0c1 0 2 1 2 3-1-3-3-2-4 0h-1l3-3zm-3 0v2h-1-1l1-1 1-1zm5 1h2c1 1 2 1 1 2h-1l-1-1-1-1zm-23 2l2 1h6l-3 1c-2 1-5 0-5-1v-1zm8 2l-1 1-3 2c-3 0-5 0-5-2h7l2-1zm20 2l-6 1c-2 1-5 0-7-1l-1 1 2 2c2 1 7 0 11-2l1-1zm-33 14l4-5c22 4 47 1 54 0a3331 3331 0 0012 20H62l2-5c-2-1-4-4-5-7l-5-12c4-2 14 3 15 9z" fill="#131f67"/><path d="M139 284H62l10-20c19 3 37 2 55 0l12 20zM34 268v-10h10zm83-63v-31l14 9v31zm-33-8c0-11-2-21-4-32l14-9 1 35zm-38-29v-40c13 19 21 38 23 63l-10 5-13-28zm132 18c-12-16-19-37-23-62l11-5c3 9 7 18 12 25zm-48-28l-1-33 11-7 5 31zm-24-18l-12-7 1-30 11 9zm75-84c1-3 6-7 9-9v9h-9zm-84-5L85 30l77-1-10 22c-20-4-38-2-55 0z" fill="#d40000"/><path d="M28 13H17v4h4v7a404 404 0 01-2 17c-1 2-5 2-7 0l-1-6H8v2c-1 13 16 11 17 2V27 17h3zm105 228l3-4c2-2 1-5 1-5 2 1 2 5 1 7l-4 2h-1zm4-10l-1-1h-2v-1h2v-45c3 2 9 2 13 3v40l8-5v-35l4-1-6-13c-1 1-14-1-18-3l12-7-3-11-1-3c-3-9-4-21-5-31h1v-7l-1 1v-3l1-1v-1l-1-1v-4h1v-8l-15 10-14-11c5-3 6-10 7-15 2-5 2-9 2-13a134 134 0 012-16c10-1 20 1 30 2l3-6 1 3 5 5 5 2 4-1v-1l-1-2-3-5c-1-5-2-10-6-12l3-5H84l12 21v1h1l-4 22-2-1c-7 0-9 8-4 11l3 2 3 2-4-2v46s-8-3-14-3V88l-7 5v35h-5a468 468 0 007 13c6 0 12 1 17 4l-12 7c5 14 11 35 8 68v-1l1-3 14-10 19 14h-2c-5 0-8 5-9 9l-3 20-2 13-1 2 27-2 4-21 3 1c7-1 6-11 3-11zM105 30l3 14-9 1-8-15zm57 0l-10 20c-20-2-32-3-55 1L85 30h3l9 17 14-2-4-15h4l3 15h21l2-15h4l-2 15 12 2 7-17zm-27 0l-2 13h-17l-3-13zm21 0l-6 15-9-1 3-14zM54 54l2 2-2-1c-4-3-7-3-10-3-9 3-10 13-4 20 6 6 16 2 18-6 0-1 1-2 1 0 0 7-4 13-6 17h16c-4-5-6-9-7-17 0-2 1-2 1-1 1 6 6 11 12 10 13-2 13-20 2-23l-9 3h-1l1-1c6-5 6-13 0-17-5-4-11-3-15 1-6 5-4 12 1 16zm112-10l1 3 3 6v1c-4 2-12-3-14-8l2-2v3l1-3 1 4 1-2 1 5c2-1 1-3 3 2l1-1 3 1-3-2h1l-3-3h2c-2-1-5-2-1-2-2-2-5-3-1-3l-3-2h3l-4-2 2-1h-1v-2c3 2 4 6 5 8zm25-5l-19 21h6v38l7 1c1 1-2 4-4 4l-3-1v42c-4-7-7-12-12-25l3-2c-1-4-3-11 0-17l1 1c-1 4-1 9 1 14v-1l-1-2v-3-6l1-2-13-8c-1 0-1 0 0 0 2-1 3-2 3-4s-2-3-4-3h-2a69 69 0 01-2-6l-2-4-1-1a40 40 0 01-3 13l3 2 6 3-1 1v6l-1 2v4l1 1-1 2v6l1 1-1 1 1 6h-1c2 24 11 47 24 63v39l13 13zm-1 3v3l-11 12h11v2h-17zm0 5v8h-9zM17 50c-6 1-5 8-2 11h-1c-4-3-8-1-8 4 0 7 8 7 10 1 0 0 0-1 0 0 0 3-3 8-3 8h8c-1-1-3-5-3-8 0-2 1 0 1 1 2 6 10 5 10-2 0-4-4-7-8-4-2 1-2 1 0-1 4-4 2-10-4-10zm98 1h1a343 343 0 01-4 31l-2-1c3-9 4-20 5-30zm7 0l-1 14c0 7-2 15-5 23-1 2-3 4-6 5-4 2-8-4-5-8 2-3 6-3 8 0 1 3-3 7-5 5-2 0-1-4 1-4l1 1v1c2-1 0-4-2-3-3 2-3 6 0 6 4 1 7-4 9-13l4-27zm-4 0h2l-1 3-2 19-3 13-1-3 3-16 2-16zm-9 1h2l-4 25v2c-1 1-1 0-2-1 2 1 3-19 4-26zm3-1h2a294 294 0 01-5 30l-1-1 4-29zm-4 1c-1 8-1 18-4 26l-2-1c1 0 2-5 2-11l2-14zm-3 0l-1 11-3 14-1-1 3-24zm-5 1l2-1-3 24-2-1 3-22zm-1 0c-1 8-1 15-3 21l-2-1 2-11 1-6v-3zm82 8v36h-2V61zm5 0a1 1 0 110 3 1 1 0 010-3zm-34 13c1 3 3 4 4 5 2 1 6-2 4-5 0-2-2-2-4-2l-2-3-3-8c0 5-1 10 1 13zm36-10a1 1 0 110 3 1 1 0 010-3zm-4 0a1 1 0 110 3 1 1 0 010-3zm-32 0l3 8 1 2c4-2 6 3 2 4-3 2-7-4-7-11l1-3zm34 4a1 1 0 110 3 1 1 0 010-3zm4 3v3l-8 7v-3zM90 73l2 1c-4 1-5 3-5 7 0 1 0 2-1 1-3-4 1-9 4-9zm3 1h1c1 1 1 1-1 2-3 1-3 3-4 7v1l-1-1c-2-3 2-9 5-9zm3 1l1 1-1 1c-2 1-4 4-4 6s1 4-1 2c-1-1-1-4 1-7l4-3zm94 0v3l-8 8v-4zm-92 2c1 0 2 0 1 1-3 1-4 4-4 7 0 2 0 3-1 1-2-2-1-7 3-9h1zm3 1c1 0 2 0 0 1-2 2-4 5-4 8v1c-3-3 0-10 4-10zm50 0l2 4 2 5h1c4-2 6 3 3 5-3 1-5 0-7-4-2-5-2-8-1-10zm-48 1h2l-1 2-3 2-1 5c0 2 0 2-2 0-1-3 2-9 5-9zm4 2c1 0 2 0 1 1-4 2-6 5-5 8 0 1-1 1-2-1s1-6 4-8h2zm43 3l1 2a31 31 0 001 4l-2-1-1-4 1-1zm36 3a1 1 0 110 3 1 1 0 010-3zM37 89a1 1 0 110 3 1 1 0 010-3zm60 1c2-1 2 0 3 3l3 1c2 0 3 0 4 3 0 2 0 2 3 2s3 1 4 4c0 2 0 2 3 2s3 0 4 3c0 3 0 3 2 3h7c1 0 2 0 2-2 0-4 1-4 5-4 2 1 2 1 2-1 1-2 1-3 1-1 0 5 0 5-3 4s-3 0-3 2l-2 4-3-1h-4c-6 0-6 0-6-3 0-2 0-2-3-2-4 0-4 0-4-4 0-2 0-2-3-2-4 0-4 0-4-3 0-2-1-3-3-2-3 1-4-1-4-3s0-1-2-1v-2h1zm91 0a1 1 0 110 3 1 1 0 010-3zm-4 0a1 1 0 110 3 1 1 0 010-3zM39 93a1 1 0 110 3 1 1 0 010-3zm-4 0a1 1 0 110 3 1 1 0 010-3zm76 1l15 11 15-9-1 3-14 10-18-14zm75 0a1 1 0 110 3 1 1 0 010-3zm-24 2l3 6-3 3 3 4-4 3 4 3-3 5-5 2 5-7-5-2 4-5-3-4 4-3-4-7zm-67-1l27 20 3 2h3l12-8v3l-13 8h-2L95 97zm61 0l1 1 3 5-3 3 3 4-4 5 4 3-5 6v-4l2-2-2-1v-5l2-2-2-2 1-4 1-2-1-2zM37 96a1 1 0 110 3 1 1 0 010-3zm153 5l-8 7v-3l8-7zM41 98v4l-7 7v-4zm149 4v4l-8 7v-4zm-9 1v121l9 9v3l-11-12V103zm-140 0v4l-7 7v-4zm54 0l11 8v29l-11-7zm91 10a1 1 0 110 2 1 1 0 010-2zm-77 1v29l-2-2v-29zm-71 0a1 1 0 110 3 1 1 0 010-3zm150 2a1 1 0 110 3 1 1 0 010-3zm-4 0a1 1 0 110 3 1 1 0 010-3zm-74 0l6 6-6 6v-2l4-4-4-4zm3 1l5 4-1 1zm-73 1a1 1 0 110 3 1 1 0 010-3zm-4 0a1 1 0 110 3 1 1 0 010-3zm104 0c1 12 2 20 5 31l-14 8v-33zm38 27v39c-13-18-20-40-23-60l11-5c3 8 2 8 12 26zm9-25a1 1 0 11-1 3 1 1 0 011-3zm-149 2a1 1 0 110 2 1 1 0 010-2zm81-1l5 4v3l-6-6zm-2 2l6 6-6 7-7-6zm47 0l-6 3c3 21 9 36 17 49v-29l-11-23zm26 1v3l-8 7v-3zm-73 1l-4 4 4 4 4-4zm-76 0v3l-7 8v-4zm85 2v34h-2v-35zm-9 0l2 2-2 2-2-2zm73 1v4l-8 7v-4zm-84 14c8 7 14 17 21 23l12 7 11 2h4l1 2h-2v9l7-1v2c-16 2-32-4-41-12l-12-14c-8-13-23-19-36-19l-1-2h2v-4-4h-7l-1-2c16-1 32 4 42 13zm-65-13v4l-7 7v-3zm83 1v3l-4 3 4 4v3l-7-7zm-49 1h-1v6l1 2 6 1 2-1 1-5c1-2 0-2-3-2l-6-1zm35 0l6 6-6 6v-3l3-4-3-3zm-31 1l1 2h2l-1 1 1 1-1 1v1h-1l-1 1-1-1h-1v-2h-1l1-1v-2l1 1zm-9 2l1 1-1 1-1 1-2-4h2zm17-1l-1 4c-2 4-2 4 0 5l4 1h4l1-4c2-2 2-2-1-3l-5-2-2-1zm3 3h2v1l1 1v1l1 1h-1l-1 2-1-1-2 1v-1l-1-1v-1l-1-2h2zm27 1l6 7-6 6-7-7zm69 1a1 1 0 111 3 1 1 0 01-1-3zm-87 1l-1 1-2 3c-2 2-2 2 0 3l4 3c1 2 1 1 4-1 2-2 3-3 2-4a100 100 0 00-7-5zm18 0l-4 4 4 4 4-3zm-68-1v30c5 8 9 15 11 24l7-3c-3-25-10-39-18-51zm-11 2a1 1 0 110 3 1 1 0 010-3zm79 2l2 1-2 2-2-2zm71 0a1 1 0 110 3 1 1 0 010-3zm-4 0a1 1 0 110 3 1 1 0 010-3zm-84 0l1 1 1-1v2h1v3h-1l-1 1-1-1h-2v-1l-1-1 1-1-1-1h2zm-64 2a1 1 0 110 2 1 1 0 010-2zm4 0a1 1 0 110 2 1 1 0 010-2zm84 3l-4 3 4 4v3l-6-6 6-7zm-34-1l-13 9-1-2 11-8zm96 0a1 1 0 110 3 1 1 0 010-3zm-78 1l-2 2-3 2c-1 1-1 1 1 3l2 2 2 2c0 1 1 1 4-1 3-3 3-2 0-7-2-2-3-4-4-3zm-70 0a1 1 0 110 3 1 1 0 010-3zm76 1l2 2v1zm76 1v4l-7 7v-4zm-81 1l1 1h1v1l1 1-1 1v1h-1l-1 1-1-1h-1v-1l-2-1 1-1v-1h2zm36 0v2l-18 12-1-2zm-48 1l2 1-19 13-1-2zm-55 0v4l-8 7v-4zm75 1l6 6-1 1zm-17 1v36l-2-1v-34zm1 1l1 1-1 2zm89 0v4l-7 6v-3zm-148 2v3l-8 8v-4zm74 0v1l-2 1-4 3 5 6c1 2 1 2 2 1l5-5-5-6-1-1zm-13 1l5 6-1 1-6-6zm-9 0v33l-9 7s-1-20-5-31zm22 2l1 1h1v1l1 1-1 2v1h-1l-1 1-1-2h-2v-1l-1-1 1-1 1-1h1zm8 0v1l-1-1zm-23 2v-2l5 6-5 5v-2l3-4zm47-1l1 3-12 7-2-1zm38 4a1 1 0 110 3 1 1 0 010-3zm-74 5l-4-4v-1zm11-4l-5 5 7 6h1c4-6 5-6 3-7l-5-4h-1zm-16 0l7 7-6 6-7-7zm-69 1a1 1 0 110 3 1 1 0 010-3zm86 1l1 1h1v1l2 1-1 1v2h-1l-1 1-1-1h-2v-2h-1l1-1-1-2 2 1zm64 1a1 1 0 110 3 1 1 0 010-3zm-84 3l4 4 3-3-4-4zm80-3a1 1 0 110 3 1 1 0 010-3zm-148 1a1 1 0 110 3 1 1 0 010-3zm4 0a1 1 0 110 3 1 1 0 010-3zm67 1l2 2-1 1-2-2zm25 1l-4 7 3 1 6 3 1-1 1-3c1-4 2-4 0-4l-4-2-3-1zm54 1a1 1 0 110 3 1 1 0 010-3zm-69 2v28l-2-1v-29zm-10 5l-6 6v-3l3-3-3-4v-3l6 7zm-69-6a1 1 0 110 3 1 1 0 010-3zm95 0l1 1h1l1 1h1v1l1 2h-2v2l-2-1h-1v-1h-2l1-2-1-1h1zm-19 0v3l-3 2 3 3v3l-6-5zm29 2l-1 2-1 3c-1 3-1 3 2 3l7 1a136 136 0 000-8l-7-1zm-25 0l11 7v30l-11-9zm72 0v4l-8 7v-4zm-44 1v2l2-1v2l1 1h-1l-1 2h-1l-1 1-1-1h-2l1-2-1-1 1-1v-1l2 1zm-104 0v4l-8 7v-3zm114 2l2 3-1 2-1-1-1 1v-2l-1-1 1-1v-1zm-48 1l6 7-6 6-7-6zm82 4l-8 7v-3l8-7zm-148-2v3l-8 8v-4zm66 1l-4 4 4 4 4-4zm0 2l2 2-2 2-2-2zm-7 3l6 6-1 1-5-5zm13 0v3l-3 3 3 3v3l-6-6zm72 3a1 1 0 110 3 1 1 0 010-3zm-148 2a1 1 0 110 3 1 1 0 010-3zm30 1l-5 6 4 3-4 4 4 5-4 3 4 6-4-2-3-5 3-3-3-4 3-4-3-2 4-6zm120 0a1 1 0 110 3 1 1 0 010-3zm-90 0l32 25v3l-32-24-13 9v-3zm86 1a1 1 0 110 3 1 1 0 010-3zm-73 3h-1l-3-3h1l3 3zm-71-2l2 2a1 1 0 11-2-2zm-4 0a1 1 0 110 3 1 1 0 010-3zm150 2a1 1 0 110 3 1 1 0 010-3zm-148 2a1 1 0 110 3 1 1 0 010-3zm152 3v3l-7 7v-3zm-96 1h8c3 0 3 0 4 3 0 2 0 2 2 2 4 0 5 1 5 4 0 2 1 2 3 2 3-1 3 0 4 3 0 2 0 2 3 2s4 1 4 3l1 2 1 1h-1c-2 1-3 0-3-2s-1-2-3-2c-4 0-4 0-4-3 0-2-1-3-4-2-2 0-3-1-3-3-1-3-1-3-4-3s-3 0-3-2c0-3-1-3-4-3h-5c-2 0-2-1-3 2 0 3 0 3-5 3l-2 1c0 2 0 3-1 2v-3c1-2 1-2 4-2s2 0 3-2c0-3 0-3 3-3zm-52-1v4l-8 8v-4zm26 4l2 3-1 5-1 1 1 2-1 3-3-6 3-3-3-5 3-4-3-3 4-6c1-1 1 3 1 3l-2 2 2 2v4l-2 2zm2-2v-5l-1-2 1-2v-5c-3-36-21-58-24-63l-1-1v-8-29L32 75v6h1v23l-1 11h1v77l1 17h-1v37h1l-1 8v21l20-21h-7v-7-30l-2-1-5-1 3-3h1V91l-9-10v-3l11 12v121h1v-41c6 9 9 17 12 26h1v-1l-13-27v-39c14 19 20 37 23 62l-7 3v1l-6 3v-1l-3 2c2 4 2 10 0 14h1s3-6 0-13l2-2c3 7 2 15 0 17l4 2 6 3h3v-4l-1-2 1-1 1-6-1-1zm120 2v4l-7 7v-4zm-148 4l-8 8v-3l8-8zm145 5l1 2a1 1 0 11-1-2zm-142 3v36h-2v-37zm-7-1a1 1 0 110 3 1 1 0 010-3zm147 2a1 1 0 110 3 1 1 0 010-3zm4 0a1 1 0 110 3 1 1 0 010-3zm-149 2l2 1a1 1 0 11-2-1zm75 0c8 1 6 9 2 11s-7-2-5-7c2-3 6-1 5 3-1 2-3 1-3-1 1-1 0-1 0 0-2 2 1 4 3 2l1-4c-1-2-3-3-6-1-3 4-4 8-5 14-2 11-2 23-4 26h-2c3-13 3-24 6-34 1-5 5-9 8-9zm-79 0a1 1 0 110 3 1 1 0 010-3zm31 0c-2 0-4 2-4 4 0 3 2 4 4 4 2-1 2-1 3 1l3 9c-1-2-4-4-6-4s-4 2-3 5c1 2 3 2 5 2l4 12 1-14c1-6 1-10 4-14l-6-3-3-1-2-1zm120 1a1 1 0 110 3 1 1 0 010-3zm-116 3l3 8v5l-1-1c-3-8-3-9-5-9h-2c-2-1-3-5 0-6 3 0 4 2 5 3zm0-2c3 2 5 3 5 6l-1 2-2-3-2-5zm50 1h1c2 2 1 8-2 9h-4c3 0 6-4 5-8v-1zm-83 1a1 1 0 110 3 1 1 0 010-3zm86 0l1 1c2 3 0 7-3 9-2 1-3 0-3-1 3-1 5-3 5-7v-2zm-48 1h1v1l-1-1zm50 0h1c1 2 2 6 0 8l-3 2h-2l1-1c2-1 4-4 3-6v-3zm3 1l1 2c2 2 1 7-3 8-2 1-3 0-1-1s4-4 3-7v-2zm3 2l1 1v6l-4 3h-2c-1-1 0-1 1-1 3-2 4-4 4-7v-2zm-90 0v3l-8 8v-4zm69 0l1 3c-2 3-3 7-3 10l-3 22h-2l4-27 3-8zm24 2c3 2 1 8-3 9h-2v-1c3-1 5-3 4-6 0-1 0-3 1-2zm19 0l7 14v5h-1c-3-13-17-14-21-3s7 20 15 13l2-1c1 1 0 1-1 2-10 9-1 20 8 19 11-1 15-13 6-20l-1-1 1 1c9 7 20-1 18-10-3-15-19-11-22-1 0 2-1 2-1 1v-3c1-6 7-16 7-16zm-41 1l1 1c-2 4-2 9-3 14l-2 17h-2l3-21c0-4 1-10 3-11zm2 2l1 1-1 7-3 21h-2a749 749 0 005-29zm-73 0v3l-8 8v-4zm75 1l2 1-2 12-2 15h-2l3-21 1-7zm-44 8v8c-1 0-1-7-4-10-3 2-6-2-4-4 4-4 8 4 8 6zm47-7l2 1-1 4-4 22h-1l2-15 2-12zm3 2l2 1-1 3c-2 7-3 13-3 20l-2 1a277 277 0 014-25zm3 1l2 1-5 22h-1a204 204 0 014-23zm77 0c2 2 2 5 3 8l-1 1v-1c-1-5-8-6-10-1s3 9 7 7c1-1 4-2 1 0l-2 4c0 3 2 6 5 6s6-2 6-5c0-2-1-4-3-5v-1l5 2c7-2 5-10 0-11-2 0-5 1-6 4-1 2-1 1 0 0 0-3 1-6 3-8zm-75 1l2 1-4 21h-2l3-18 1-4zm-90 3a1 1 0 110 3 1 1 0 010-3zm2 4l2 1a1 1 0 11-2-1zm-3 0a1 1 0 110 3 1 1 0 010-3zm1 3a1 1 0 110 3 1 1 0 010-3zm14 5l-18 18v-4l12-11-12-1v-2zm-8 3l-10 9v-9zm10 1v2c3 4 3 8 6 13l4 6-3 5h79l-12-23c-21 4-39 4-56 1l-3 5c-2-6-10-11-15-9zm2 1c5 0 8 2 11 6l2 2-2 3-1-3c-1 4-1-1-2-2-1 4-2-1-2-3-2 3-2-2-3-2 0 2-1 0-3 0 1 1 3 2 1 2 2 2 3 2 1 2 2 1 4 2 1 3 2 1 5 2 2 3 2 1 6 1 1 2 2 1 5 2 1 2l2 1-2 2h-1l-4-8-3-9c-1-1-1-1 1-1zm71 5l11 18h-3l-9-16-13 2 4 14h-4l-4-14H89l-2 14h-4l3-14-13-1-6 15-4 1 10-19c26 4 40 2 54 0zm72 12v19h-3v3h10v-3h-3v-19c0-9 9-8 9-2v3h4v-3c0-6-3-8-8-8-8 0-9 7-9 10zm-75-8l9 14h-14l-4-13zm-49 0l8 1-2 13H69zm33 2l3 12-22 1 2-13h17z"/></g></svg>