<svg xmlns="http://www.w3.org/2000/svg" width="224.2" height="312.8"><rect y="590" x="2090.7" height="311.8" width="223.2" rx="10.6" ry="10.6" fill="#fff" stroke="#000" transform="translate(-2090 -589)"/><path d="M120 283v-23l1-2v-5c5-20 14-35 24-50 8 24-17 41-22 61-2 8-1 13-2 19zm-41 0l-30-45 7-3 30 48zm38-84c0 2 1 2 2 2h1c-2 2 1 5 3 3v-3c-1 0-1-1 0 0 3 1 4-3 2-4h-3c0 1 0 1 0 0v-1l1-1h-3v1l1 1h-4v2zm3-37h6l6 17c-5 9-6 18 0 27h-18c4-14 5-29 6-44zm6 23l1-3v-1c2 1 3-1 2-3h-3v-1-1h-2v2c-2-1-4 0-4 2 0 1 2 2 3 1v1 3h3zm-37 5l-1 1c-1 1 0 3 2 3s3-3 2-3l-1-1h1c1 1 2 0 2-1 1-1 0-2-1-3l-2 1v-1-2l-3 1 1 1v1c-3-2-4 0-4 1 0 2 2 3 4 2zm12-28h4c-3 18-10 34-22 44H61l-11-7 4-6c29 3 41-11 47-31zm-21 42c2 0 2-2 1-3h1c1 1 3-1 2-3 0-1-2-2-3-1s-1 1-1-1l1-1h-3l1 1v2l-1-1h-2c-2 2-1 4 1 4h1c-2 2 0 4 2 3zm-17 0l1-3v-1c1 1 3 0 3-2 0-1-2-2-4-1v-1l1-1h-3v2c-2-2-4 0-4 3h3v1c-1 2 1 4 3 3zm127-46v3l-36 30-1-2zm-134 6c5-3 11-10 17-13 4 9-6 19-17 13zm95-2c-5-18 20-17 17-13zM34 150l36-29 2 3-38 31zm98-29l1 2c0-1-2-2-3-1l-1 2c1 2 3 3 4 2l1-1-1 1v1h2v-1-1c2 2 4 1 4-2 0-1-2-2-3-1v-1c1-1 0-3-2-3l-2 1v2zm31-15c3 4 7 6 10 8l-3 6c-23-3-39 6-46 31l-4 1c1-16 6-31 22-46zm-22 4l1 2-1-1c-3 0-4 4-1 4h2l1-1-1 2v1h2v-1-2 1c1 1 3 1 4-1 0-2-2-4-3-3 0 1 0 0 0 0v-2c-1-2-4-1-4 1zm21 5h1c1 1 3 1 3-1 1-1-1-3-2-2v-1c1-1 0-3-2-3s-3 2-2 3h-1c-1 0-3 2-2 4h4v1l-1 1 3 1-1-3zm-63 36l-6-18c3-8 7-15 0-26h18c-6 12-6 45-7 45zm1-14l-1-2h1c1 2 3 0 3-2 1-1-1-2-2-2-1 1-1 1 0 0 1-2-1-3-2-3-3 0-3 2-2 3h-1c-1 0-3 1-2 3s2 2 3 1h1l-1 2zm3-20l-1-2h1c2 2 4-1 2-3h-2v-1-2c-2-2-5 1-3 2l-1 1c-2-1-3 1-2 3h4l-1 2zm-24-7c-1 0-2-11-1-14 3-14 12-24 18-33 9-12 8-34 8-33h1v26c-4 19-14 37-23 51zm91-32l-30-47 7-1 29 45z" fill="#d40000"/><path d="M47 284c3-12-6-41-12-45l15-1s29 45 28 46H47zm116-71c-7-1-4-6 1-7-1 0 0-3 4-4l2-5c-2 0-5 2-15 1 1-5 11-6 14-5l4 4c7-1 14 4 12 10l-3-2c-7-3-7-6-9-8l-3 6v4c2 0 9 4 0 7-2 8-7 2-7-1zm17-37l1-4 2-1v6c0 1-2 1-3-1zM41 142c-2 0 0-5 1-7l2 1-3 6zm-1-35l8 4c2 1 1 5 3 5l3-6s1-3-1-4c-4-2-4-4-3-4 1-3 3-2 4-3 0-1 0-5 4-4 3 0 3 4 2 4 0 0 5-1 5 3 0 2-3 5-4 4 0 0 0 4-5 5l-2 6c3-3 8-4 15-3-4 9-17 5-18 3-6-2-12-4-11-10zm55-21h19l2 1c3 2 6 1 11-1h22l14 20-17 1h-5c-18 14-22 45-22 45s6-2 8 0c7-22 21-31 40-29 9 0 20 9 20 9l-19 16c-15-8-21 15-17 15l39-32v3c-2 3-49 41-49 41l-2-2-2 1 2 4c-9 7-10 21-3 28h-3c-4 1-8-18 0-27-4-7-7-17-7-18l-6 1c-1 15-2 30-6 44l28 1-12 21-19-1c-6-3-9-1-15 0H76c-4-8-8-13-14-20-1-2 24-1 24-1s12-18 14-24l6-19c0 1-2-4-8-3-5 31-41 41-63 21l-1-4 49-39 2 2-29 24c9 5 19 1 17-14l19-16c1-1 7 14 7 17 4-1 6 2 6 1-1-9 6-41 6-45l-18-1c7 14 4 23-5 32l-3-3c1 0 15-11 4-29h-6l12-20zm52-56h31c-1 16 2 31 12 45h-14z" fill="#e2cf00"/><path d="M192 29L32 28l1 257h159zm-15 1s-2 27 12 45c-9-2-14 0-19 3l1 1c7-4 13-3 19-3v35c0 2-7 1-12-2a21 21 0 01-7-7l-7-14-8-16a742 742 0 01-21-40v-1h1v-1zM35 177v-3l46-39 1 2zm45-68l-1 1c-1-6-1-13 1-18 2-8 6-13 10-19 10-14 14-24 14-43h1v9 18c-3 11-14 39-25 52zm5 25l-2-3s-2-1 0-3c5-5 5-11 0-17l1-4h4c6 7 8 19-3 27zm4-28h-6a199 199 0 0023-49c1 12 3 30 14 31l8-2h21c5 9 9 15 15 21l14 5 8 1h4c-5 3-10 2-15 1l-1-1-4 7c-9-3-38-1-46 31 0 0 1 0 0 0 7-28 32-33 45-30l-1 1c-21-2-37 10-41 29 8-27 40-38 60-19l4-2v3l-50 42-2-2-2 2 2 2c-8 7-11 20-3 29h1c-7-8-7-21 2-28l2 3c-4 8-6 21 4 22 4 10 0 22-5 29-5 9-11 16-15 26-1 4-4 16-4 25h-1v-11-13l1-1-1-2 1-1c-2-8-3-21-10-28-3-3-8-3-14 0H76c-4-8-10-16-15-22-3-3-7-4-10-6l4-6 2-2c35 4 43-31 41-30v1c-10 35-44 34-62 18 0 0-2 2-2 0l1-3 48-39 2 2 3-2-2-3c13-14 7-20 3-29zm18-76l1 1-2 3v-2l1-2zm72 0h11v44c-9-12-13-26-11-44zm-69 1h1l-4 6-2 2 1-3 3-4 1-1zm12 0h1c1 4 5 7 9 9v2c-4-1-9-7-11-11h1zm6 0l3 3v1c-1 1-4-4-4-4h1zm-16 0h1c1 2-3 9-6 11-2 1-2 1-1-1l1-1 4-6 1-3zm3 0h1v1c-1 4-5 10-9 13h-2l1-2c4-2 7-6 8-10l1-2zm22 7v1l-2-2-3-4c0-1 0-3 1-2 2 1 3 4 4 7zm-13-7h1l7 6v2c-1 0-7-5-8-8zm-4 0c1 3 5 9 12 12l1 2c-4-1-12-5-15-14h2zm-3 0s4 12 15 15l2 2h-1c-3-2-8-3-11-1l-1 2h2c4-2 10-1 12 2v3l-2-1c-3-3-7-4-10-1h-2l1 2v1l-1 2c1 1 1 3 4 5 2 1 4 2 1 0-4-4-5-5-2-4s7 0 10-2h2l7 18c-4 4-16 13-24 13-7 0-10-12-12-19l-1-9h5l3-1-3 2-2 2 3-2h1v3c-1 3-1 3 1 5l2 1v0l-2-3v-4c3-9 2-13-1-15-1-1-6 0-7 1v-1c8-5 9-11 11-16zm16 5l7 7 2 4h-1l-8-9v-2zm1 5l9 10 2 3-11-11v-2c0-1 0 0 0 0zm13 16l2 4c0 1 0 1 0 0-5-3-8-7-12-11l-2-2v-3l1 2 11 10zm-37-9l4 2c1 1 2 2 1 3l-1-1c-4-2-6-1-8 0v-2l4-2zm26 2c4 5 9 10 14 13l1 2 2 4-16-16-1-3zm-9 1l3 1c2 1 3 1 1 1h-8l4-2zm-18 0l3 1 1 1-5 1h-2v-1l3-2zm20 4c0 4-4 3-5 0 2 3 4 1 5 0zm2 0c2 0 2 1 0 2-2 0-2 0-1-1l1-1zm-19 0c0 4-5 4-5 1l1-1c1 4 3 2 4 0zm2 1c1 0 1 1-1 1v-1h1zm9 0v0zm15 0l16 15 2 4-1-1c-6-4-12-10-17-16v-2zm-32 0l1 2-1-1v-1zm33 5s16 16 18 16l3 5-20-17-1-4zm-18 3c3 1 1 4-1 2-3-1-4-2-4 0l1 1h3c2 1 3 0 3-1 1-1-1-3-2-3v1zm21 4s8 8 19 15l1 4c-5-3-13-10-19-17l-1-2zm-18 3l-1 1h-5-6v4l1-1h2l5-1 4 1c1 0 2 0 1-1v-2l-1-1zm21 3c3 3 8 9 18 15l2 3s0 1 0 0c-7-4-10-6-19-15l-2-3h1zm-2 1l4 8h-13l9-8zm-22 0l-5 1v1l5-1v-1zm-2 3l-5 1v1c2-1 6-2 9-1 0 1 0 0 0 0l-4-1zm29 3c4 4 9 8 18 13l2 3c-9-4-19-12-19-12l-1-4c0-1 0 0 0 0zm3 6s8 7 17 12l2 2h-1l-15-9c-1-2-3-3-3-5zm-96 29l2-5 4-2h3v-4c2-1 3-3 0-6v-3h-3c-2-3-6-2-7 0h-3v3s-4 3 0 7v3h3l-3 7-1-2c0-2-2-4-3-4l-5-3-3-2v5c1 3 5 5 9 7h-1c-2 0-3 1-3 2l-1 2-1 1-1 2-1 2 1 7 2 2 1 2c-1 4-3 6-3 5l-1-2v2h1l3-4 1-1 2 2-13 10V30l69 1c0 9-1 17-4 25-4 9-10 16-15 24-6 10-8 21-6 31-6 8-11 11-15 15l-6-6h2c4 0 9-1 11-6h-9c-4 0-6 2-6 2zm0 3l-6-3c-2 0-8-3-9-5l-1-5h1l4 2c3 2 5 3 6 6v2h1l3-6v-1-3c-2 0-4-2-4-4 0-3 2-2 4-3 0-7 7-5 7 0 7 0 4 7-1 6 2 4-3 6-4 5l-3 7c6-4 15-2 16-3-3 7-13 5-14 5zm100-25l16 9 2 2 1 2c-6-3-11-5-16-9l-1-1-2-3zm4 6l15 8h2l2 2 2 1c-1 1-5-1-8-2l-10-5-3-4zM50 117l2 1 4 3 6 6-14 11-2-1 1-1v-2-1l1-2 1-1 1-2v-1l1-2v-1c0-1 1-1 2 1v3l1 2c0-2 0-6-2-7l-3-4 2 1h1c2 1 1 0 0 0l-2-2v-1zm-3 1l1 2 2 2v2l-1-1-1 1c-1 0-2 0-3-2s-1-4 2-4zm25 2l15 18-2 1-14-18zm-2 1l1 3-5 5-32 25v-3zm-27 0l1 1 3 3c1 2 2 2 0 2l-1 1c-1 1-4-4-4-6l1-1zm5 3h1l1 2h-2v-2zm24 0l2 3-40 31v-3l38-31zm-31 1l1 1 3 3v1h-1-1l-2-2v-3zm7 2l1 2-2 1v-2l1-1zm-7 3l1 1 2 1 1 1h-1c-1 2-3 0-3-2v-1zm5 0l1 2c-1 1-2 0-2-1l1-1zm29 1a1 1 0 110 3 1 1 0 010-3zm-4 1a1 1 0 110 2 1 1 0 010-2zm-26 1l1 2h-2c-1-1 0-2 1-2zm29 2a1 1 0 110 3 1 1 0 010-3zm116 0v4l-47 38-1-2zm-118 1l-4 7-1-2h-2v-2l-1-2zm73 32l6-5c-3-13 8-19 18-15l6-5c-12-10-39-3-30 25zm-83-26a1 1 0 110 2 1 1 0 010-2zm-4 0l1 1-1 2a1 1 0 010-3zm21 3l-6 5c2 12-4 19-18 14l-6 6c17 12 40-4 30-25zm-18 1a1 1 0 110 3 1 1 0 010-3zm127 0l1 2a1 1 0 01-2 0l1-2zm-130 1l-4 7-1-2h-3l1-3-1-1zm125 0l1 2h3l-1 2 2 2-9 2zm-134 6l1 1a1 1 0 01-3 0l2-1zm-4 0l1 1a1 1 0 01-2 0l1-1zm131 1a1 1 0 110 3 1 1 0 010-3zm14 0v3l-38 31-1-2 39-32zm-142 3a1 1 0 110 3 1 1 0 010-3zm131 0a1 1 0 110 3 1 1 0 010-3zm-4 0a1 1 0 110 3 1 1 0 010-3zm15 1v4l-36 30-1-3 37-31zm-145-1l-3 9-2-3h-2v-2l-2-1zm126 4l2-1v3l1 1-8 2 4-7zm12 39c2 3 2 6 1 6l-2-1c-4-2-7-3-8-6-2-6 8-1 9 1zm-20-15l13-11 2 2v1l-1 1v2l-1 1-1 1-1 3v1l-2 2-1-2v-3-2l-1 1v5l2 2 2 2 1 4-2 1-5-4c-3-2-4-4-5-7zm5 8l5 3-4 7 1 4c5 0 7 7 0 6 1 5-6 8-6 0-8 1-5-8 0-6-1-4 2-4 4-5l2-5-1-1c-1 2-7 3-14 2 2-5 8-5 13-5zm-14 5l1 1h4l9-1 1-1-2 5-3 2h-3v3c-2 1-4 4 0 7v3h3c2 2 4 2 6 0h4v-3c1-2 2-4 0-7v-3h-3l-1-1 3-5 1 2 5 5 5 2h1c1-2 1-4-1-6-2-4-6-4-7-5l2-1 4-5 1-2v-3-3l-1-3 1-4v-5 4l-2 3h-1l-1-2v-2l-1 2-1-1h-1l13-11v120h-68c-1-7 1-17 5-27 2-6 6-11 9-16 7-11 13-21 11-35l-1-3 7-9 9-7 5 6-1 1c-5 0-10 1-12 5zM36 164a1 1 0 110 3 1 1 0 010-3zm127 0a1 1 0 110 3 1 1 0 010-3zm3 4a1 1 0 110 3 1 1 0 010-3zm-4 0a1 1 0 110 3 1 1 0 010-3zm-5 3h3l-1 3 2 1-8 2 3-8zm-5 22l-14-18 1-1 14 18zm-2-18a1 1 0 110 3 1 1 0 010-3zm30 2c1 1 0 3-1 2l-1-2h2zm1 1c1 0 3 3 2 4h-2c-2-2-2-2-1-3l1-1zm-28 1a1 1 0 110 2 1 1 0 010-2zm-4 0a1 1 0 110 3 1 1 0 010-3zm29 1c1 0 2 1 1 2s-3 0-2-1l1-1zm2 2c1 0 2 0 2 2l1 2h-1l-2-2v-1-1zm-3 1c1 1 2 1 1 2l-3-1c0-1 1-2 2-1zm2 2l2 2c2 2 2 3 1 4h-2l-3-4-1-1h1l2-1zm-4 2l2 1-1 1-2-1 1-1zm3 2l1 2c1 2 1 3-1 4h-2v-1l-1-3v-1l2-1h1zm-6 3v1h1l1 1-2-2zM58 206c-3-2-10-5-14-5l-10-2c13-3 22 3 25 6 1 1 0 1-1 1zm8 29l26 48H47c2-23-10-45-11-44 10 0 18-2 20-5l-2-1c-5 5-14 5-19 4v-37c6 0 12 2 15 7 6 8 11 19 16 28zm-20-33c2 0 12 4 16 7l3 3-5-2a95 95 0 00-10-5l-1-1-3-2zm5 4s9 4 17 10l2 3-17-10-2-3zm3 5l17 10 3 5-2-1c-6-6-16-11-16-11zm3 5c6 2 15 9 19 13l2 3-1 1c-5-6-17-13-18-14l-2-3zm22 19l1 3c0 1 0 0 0 0l-18-14-3-4 20 15zm-16-9c7 4 17 13 19 16l1 2-3-2-15-12-2-2v-2zm43 0c4 0 6 4 9 11 3 6 4 12 4 17h-6c-1 0-2 0-1-1l2-2c2 0 1 0 0 0l-3 1 1-1c1-3 1-5-1-6l-1-1-1-2v2l1 2c2 1 2 1 1 4l-1 5-1 2v5c1 3 5 5 10 3-4 4-8 7-11 16-4-7-9-13-17-15v-2c3 2 8 4 12 2 2-2 1-3-1-2H91c0-1-2-4-1-5-1 0 0 0 0 0 1 1 5 3 8 3 2 0 4 0 5-2h1v-1-1l-1-1h1v-2l-6-5 1 1 4 4h-3c-2-1-5-1-7 1l-4 1-7-18c2-3 10-9 17-12l7-1zm-28 4h13l-10 8-3-8zm-12 2a76 76 0 0116 13l3 6-1-1c-5-6-9-10-16-14l-2-4zm36 1v1h7-5l-2-1zm5 3c-2 0-4 0-3 1h6l-1-1h-2zm-38 1c6 4 13 11 17 16l1 3-4-4-10-9-3-3-1-3zm36 2l-4-1c-2 0-1 0-1 2l1 1h7l3-1h2c0 1 0 1 0 0v-1-1h-3c-1 0-3-1-5 1zm-70 1c14 18 11 43 11 43H35zm37 3c6 4 12 11 16 16l1 2-3-2-8-8-4-4-2-4zm32 2c-2 0-3 2-1 4l1 1v-1c-2-1-2-3 0-3l2 1h3l-1-1h-2l-1-1h-1zm-28 5l13 14 1 2h-1l-12-12-1-4zm42 7h-1c-1-2-3-2-4 0-1 0 1-6 5 0zm0-2h1v1l-1-1c-1 0 0 0 0 0zm-16 2h-1c-2-2-4 0-5 1h-1c0-3 5-4 7-1zm10-2h1l-1 2h-1c-1-1 0-2 1-2zm-16 0v1l-1 1h-2c-1 0 1-2 3-2zm6 1c0 1 0 1 0 0h-1 1zm17 2c1 0 1 2-1 2h-6l-1-1c4 1 5 1 8-1zm-40-1l11 12 1 2-2-1-8-9-2-4zm13 2h9c1-1 2 0 1 1s-5 2-8 1l-2-2c-1 0-1 0 0 0zm18 1h1c4 2 6 2 8 1h1l-1 2-1 1c-3 1-7 0-8-2v-2zm-26 5l1 2c5 5 7 7 7 9h-1l-5-7-2-4zm35 4c-3 2-8 9-8 13l-1 1h-1c0-2 1-6 4-10l6-6v2zm-27-2h1l7 4c4 3 8 11 7 12l-1-1-1-2c-3-5-7-8-11-11l-3-1 1-1zm27 3l1 2-2 2c-2 1-4 5-5 8v1h-1v-1a25 25 0 017-12zm-27 0c2 0 8 5 11 9l2 4h-2l-1-2c-2-4-5-7-9-9h-1v-2zm1 3l4 3c2 1 5 6 5 7h-2c-2-4-5-6-7-8v-2zm-5 1l2 1 3 7-3-5-2-3zm31 0v3l-1 1-2 4-1 1-1-1 5-8zm-25 3c0-1 6 5 5 6h-2c0-2-3-4-3-4zm25 2v4h-2v-1l2-3zm-23 4h-2v-2c1-1 2 2 2 2z" fill="#131f67"/><path d="M18 14c-5 0-7 4-7 8v10H8v4h3v2c0 5 1 8 5 8 3 1 4 0 7-1l2 1h3v-3h-1c-2 0-3-1-3-2l1-3V21c0-5-4-7-7-7zm0 3c2 0 4 3 4 6v13l-1 2c0-1-5-5-7-5v-6c0-3-1-7 2-9l2-1zm121 12l1 1h-5l38 72c4 6 11 9 18 9l-20-33c2-1 6-4 9-3l1-1h1v1h4v-1l4 1c-9-11-14-29-12-46l-31 1v-1zm-4 1zm-34 22c-4 11-12 20-17 29-6 10-7 19-5 29h1c11-16 20-35 25-53v-2-1-3-16-5h-1c0 7-1 16-3 22zm47-21h3c1 9 9 11 11 11-3 6 1 14 9 15-2 6 2 14 9 14v3l-3 1-29-44zm29 0c-1 11 1 26 6 35v1l-1-1c-1-2-3-2-4-1-2 3 0 4 2 5-7 0-9-8-8-12l1 3c2 3 5 0 4-2l-2-3h3l1-2-1-2-2-1-3 2c0-2-1-4-3-3-1 0-2 2-1 3l1 3c-10-2-9-13-8-13h1c-1 3 3 5 4 3s-1-5-1-5h2c3-2 0-6-2-5l-2 1-2-1c-3-2-4 2-3 3l2 2c-9-2-9-10-9-10zm-73 0h1l-1 17 1 6v3l-4 12c-6 15-15 32-22 40-2-12 2-22 4-26 4-8 11-15 15-24 4-7 6-16 6-28zm43 0l28 44-5 2-29-46zm-86 4c-10 0-15 13-7 19l2 2h-2c-6-7-16-3-17 6-2 15 17 19 21 4 2-4 2 1 1 5a42 42 0 01-6 13h16l-1-2c-3-4-5-9-5-14v-3l1 2c1 3 3 6 6 7 5 3 10 2 14-3 8-11-6-24-15-15h-2l2-2c8-6 4-18-6-19h-2zm-41 7l-1 1c-3 1-5-1-5-4v-2c1-1 5 4 6 5zm144-3a1 1 0 110 3 1 1 0 010-3zM17 51c-4 0-7 6-2 10l1 1h-1c-5-3-10-1-9 4 0 6 7 7 10 1v-1l1 1-4 8h8l-3-8 1-1v2c2 4 9 4 10-1s-4-9-8-6l-1 1 1-1c4-5 1-10-4-10zm156 3a1 1 0 110 3 1 1 0 010-3zm-68 3c1 2-9 31-22 49h5l1 1c8 12 3 23-4 28l2 3-2 2-2-3-50 41v5l3-2c17 16 52 15 62-19h2c-5 25-28 35-46 31l-4 5 1 1v-1l4-4c26 3 41-12 46-31h4c-3 16-11 31-22 43l-23-1c6 5 16 21 16 22a423 423 0 0033-1c4 2 8 10 10 23l1 6v3l1 1h-1v24h1c0-15 5-29 12-39 4-6 9-13 11-19 3-8 3-15 2-22h-1c-7-4-9-13-1-19l-3-4c-8 6-9 17-2 26h-3c-7-10-6-21 3-29l-2-2 2-2 2 2 50-42v-4l-4 3c-22-21-55-6-60 19h-3c6-27 30-35 47-31l4-6-9-6-3-2c-8-9-13-21-14-21h-21c-4 2-9 4-12 1-7-5-9-15-10-22v-7h-1zm77 11a1 1 0 110 3 1 1 0 010-3zm3 2l3 4h-2l-1-4zm-4 2l1 2h-1v-2zM95 86h20c3 3 7 3 12 0h22l2 3H94l1-3zm-2 4h58l2 2H91zm6 3h6l-2 4h-7zm14 0h6l-2 4h-7zm20 0l-2 4h-7l3-4zm8 0h6l-2 4h-6zm-84 1c-4 0-3 5-3 5-2 0-4 1-5 3 0 2 2 4 5 4v3l-1 4c-2 3-2 4-3 1s-3-4-6-6l-3-2c-2-1-2-1-2 2s1 4 5 6l5 3c1-1 2 0 4 1l4 2 9-2 3-4h-5c-4-1-5 0-8 1h-1l1-3 1-2c2 0 4-1 4-3v-1c1 0 4-1 4-4s-2-3-4-4c0-1-1-4-4-4zm0 1c4 0 4 3 2 5l-2-2-1 2c-2-1-2-5 1-5zm97 0l2 2h-4zm-66 4h7l-3 3h-6l2-3zm21 0l-2 3h-6l2-3zm8 0h6l-2 4h-6zm14 0h6l-2 4h-6zm14 0h6l-2 4h-6zm-88 0l3 3-3 3-3-3zm8 3c-1 4-4 4-5 2l1-2-1-1c1-3 5-1 5 1zm-10-1l-2 1 2 2c-1 2-6 2-5-2 1-3 3-3 5-1zm103-1l2 3h-4zm-73 3l75 1 2 2H84zm-26 2c3 2 1 6-2 5s-3-4-1-5l2 1zm26 1h-2l-2 3c7 8 7 14 0 20l3 4c7-7 9-18 1-27zm7 1c5 6 8 19-4 30l-2-2c11-10 8-19 4-28zm1 0h17c-3 14-6 22-6 44h-5c1-1-3-14-6-18 7-13 3-20 0-26zm-53 0l2 1 3 2c3 1 4 2 4 4 1 2 1 2-1 0l-5-4-1 1 4 2 3 3h-1l-3-1c-3-2-5-4-5-7v-1zm78 0v1l-2 2-1 1 1 3-3 3 1 3-1 1c-2 1-2 2-1 3 1 2 1 2-1 3v4l-1 2v3l-1 2v5l-1 1v5l1 1h-2l-1-1v-3-2l1-2v-5-2l1-2v-3c-1-1-1-1 1-3v-3c-1-1-1-1 1-3 2-1 2-1 1-3s-1-2 1-3c3-1 1-1 0-4-1-1 0-1 2-2l1-1v-1zm3 0h8c-9 12-14 27-15 44h-3c-1-13 3-29 10-44zm42 0l10 7-3 5c-19-3-41 8-47 31h-2a70 70 0 0123-43zm-33 0h4l1 1c2 2 2 2-1 4l-4 3 1 2-4 3v2c1 1 1 1-1 3-2 1-2 1-1 2 1 2 0 3-3 4v5l-2 2v3 2l-1 2v4l-1 1-1 1v-3-3-2c-1-2-1-2 1-3v-2c-1-2-1-2 1-3l1-2c-1-2 0-2 1-3l1-2c-1-2-1-2 1-4 2-1 2-1 1-3s-1-1 2-3c2-1 2-1 1-3s-1-1 3-4c2-1 3 0 2-2l-2-2zm-75 3l1 1-1 3-3 3 1-3 1-3 1-1zm14 5c0 4-13 6-14 4 3-2 9-1 11-3h-6l-5 1c0-1 3-3 6-3l8 1zm1 6l-37 30v5l39-33zm0 1l1 2-37 30v-3zm117 10l-2 2c-36-27-69 14-51 43l-1 1a36 36 0 0154-46zm-20-6l7 4c2 2 1 3-1 1s-5-2-1 0l1 1-3-1c-2 0-4-2-5-3l2-2zm-8 0l2 1 4 2c1 0 0 0 0 0l-4-1 1 1c2 0 3 1 1 1h-5l-4-2 5-2zm-7 3c3 0 4 1 1 1-6 1-7 2 0 1v1l-3 1h-6c-2-1 4-4 8-4zm24 0c2 0 5 3 7 5 1 1 0 2-1 1l-3-2 2 2v2c-2 0-6-5-6-7l1-1zm-19 2l-1 1h2a10 10 0 013-1l-1 1-7 4c-3 1-3 1-2-1s3-4 5-4h1zm8 0h4v1c-4 0-2 1 1 1l-4 1h-6c-1-1 0-1 2-3h3zm25 0v3l-49 41-1-2zm-17 2c2 0 5 2 5 3l-2-1h-3l2 1 4 2h-3l-7-3 4-2zm-22 1l-1 2-5 5c-1 1-1 1-1-1s1-5 4-6v1c-2 2-1 2 1 0l2-1zm-7 0c1 0 2 0 0 1l-4 2 3-1c2-1 2-1 1 1l-6 4c-3 1-3 0-1-2 1-3 3-4 5-5h2zm-52 0c11 20 5 39-8 49a37 37 0 01-47-3l2-1a34 34 0 0051-43zm-50 0l-2 6v2h1l3-3v-3l-1-1-1-1zm0 1l2 1-1 3-2-1 1-3zm121 1c5 0 10 1 13 5l-2 1c-8-6-18-4-24 0s-11 13-6 26l-2 1c-5-10-2-23 8-30a25 25 0 0113-3zm-73 1v1l-1 2c-1 1-1-1-1-1l2-2zm88 1h1v1h-1l-1-1h1zm-95 0l2 2-6 5h-1l-43 36v-3zm91 5l-6 5c-12-6-21 5-18 15l-5 4c-9-25 18-34 29-24zm-31-4a13 13 0 010 5l-2 4-1 2c-1 3-2-2-2-5 0-2 3-5 3-5v2c-2 3-2 5 0 2l2-5zm-101 0l1 1-2 2-1-1 1-1 1-1zm45 0c1 0 2 2 1 3l-1-1v-2zm-1 1l1 3h-1l-1-1v-1zm5 0l1 2v9h-1v-2-2c0-1 0-1 0 0l-1 1-1-1 2-7zm-6 1l2 3h-1l-3-1v-1l2-1zm52 0v2l-1 2 2-2-2 5-3 2c-2 1-2 1-1-1 1-4 3-8 5-8zm-55 3c12 28-20 41-34 28l1-2c20 14 40-8 31-25l2-1zm3 0c2 0 5 4 5 6h-1v4l-3-4-2-5 1-1zm-6 1c9 17-10 37-29 24l5-4c10 5 22-1 18-15zm88 3l-16 14c-3-11 9-18 16-14zm-29 0l1 8c0 5 0 5-2 4l-1-2-1-7c1-2 2-2 1 1l1 3v-6l1-1zm-44 2v8l-3 4v-1l1-4c0-2-1-1-1 0 0 3-1 4-1 0l1-5 3-2zm40 1v2l-1 3 1-3h1v4c-1 3-3 6-4 5-2-1-1-8 1-10l2-1zm-61 0c2 12-8 17-16 13l16-13zm40 0l1 3h3l-1 2 1 3h-3l-2 3-2-3h-3l2-3-1-2h3zm-26 1l2 4v6l-1-4v6h-1c-2-2-1-10 0-12zm103 5l-38 32 2 3 36-30zm-55 1l1 1a20 20 0 014 8v1l-4-4c-2-2-2-5 0-2l1 1-1-3-1-2zm55 1v2l-36 30-1-2 37-30zm-56 1v7l1-3 1 6-1 1v2c-1 1-4-5-3-8l2-5zm-41 2v1c0 3-2 7-4 8-3 1-3 0-2-1l2-3-1 1c-1 2-2 1-1-1l4-4 2-1zm22 1c-1 14-4 29-11 43h-7c8-12 13-26 15-43zm2 0l2 1v2c-1 1-2 1 0 3 1 1 0 1-1 2v4 3c1 1 1 1-1 2v5l-2 2c2 4 1 4-1 5-1 1 0 1 1 3 1 1 0 2-2 3-2 2-2 2-1 3 1 2 1 2-1 3l-1 2h-4l2-2c3-2 3-2 1-3v-3l3-2v-5c2-1 2-1 1-3s-1-2 1-3l1-3v-3-2l1-2v-5l1-1-1-2 1-1v-2l-1-1zm-10 0h2v2 1l-1 2v4c-1 1-2 1-1 3 1 1 1 1-1 2l-1 2v4c-2 1-2 1-2 3 1 2 1 1-1 3-1 1-2 1-1 2 1 2 1 2-2 3-2 2-3 2-1 4 1 2 1 2-1 3l-4 2 2 3h-4l-2-2c-1-2-1-1 4-4 3-1 3-1 2-2-1-3-1-3 2-4 2-1 2-2 1-3-1-2 0-2 1-3 3-2 3-2 2-3v-2c1-2 3-2 2-4l1-2 1-3v-2l1-2v-2-2l1-2v-1zm14 0h5c2 9 4 13 6 16-6 10-5 19-1 27h-16c4-15 6-29 6-43zm-35 0v1c1 1 1 4-1 6-1 2-1 1-1-2l-1 3-1 2-1-2 3-7 2-1zm52 5h1l1 1c2 1 2 1 1 2s-1 0-3-1v-2zm-1 2l2 1c1 1 0 2-1 1l-1-2zm46 0l-3 2v4l1 1 1 1 2-6v-2h-1zm-46 0l1 3c-1 1-1 0-1-2v-1zm46 1v1l-2 1 2-2zm-103 0l1 1v2l-5 5 3-5-3 4-1 1h-2l5-7 2-1zm9 0c2 0-3 6-6 7h-4 1l4-3-3 1c0 1-1 1 0 0 2-3 4-4 8-5zm47 0v3c0 1-1 1-1-1l1-2zm-90 2l1 1h-2zm137 0v1l-1 3-1-1h-1l1-2 1-1h1zm-137 2h2l7 3c1 1-2 1-4 1l-4-1-1-1c1-1 2 0 3 1h1l-4-2-1-1h1zm-2 1l1 1 2 2 2 4c0 1-4-1-7-4l-1-2 1-1a126 126 0 002 1l-1-1h1zm93 0l1 1c-7 8-10 18-3 29h-3c-7-13-4-23 5-30zm-63 0l-1 2-4 4h-2l1-1c2-2 0-1-2 0h-2l1-1 7-3 2-1zm-13 3h3c1 0 2 0 1 1l-6 2s-4 0-3-1h1c2-1 2-1-1-1-4 0-4 0-1-1a23 23 0 016 0zm18 0l3 1c0 1-3 3-5 3h-6c-2 0-1-1 3-1l2-1h-3l1-1 5-1zm-28 1l1 1c2 0 5 1 6 3l2 2-7-1-3-2c-2-3-1-3 1-2l3 3c1-1 0-1-1-2l-2-2zm15 3l4 1c3 1 2 1-2 2h-6c-4-3-4-3 0-2h3l-3-1h4zm102 9h-1l-2 1-6 1c-3 1-4 4-4 4 1 0 12 2 14-2l-2 6c-3 0-4 4-4 4-2 1-5 2-4 5 0 1 2 3 5 2-1 6 6 7 6 1l2-1c3 0 4-5 0-6l-2-1v-3l3-7zm0 1c1 1-2 3-6 3h-2l9-1v1c-2 3-8 2-13 2l1-2 6-2 5-1zm4 4l-2 5h-2l3-6 1 1zm2 0c0 5 4 6 8 8l2 1c2-2 0-7-3-8l-6-2-1 1zm2 0l3 1c3 0 5 3 6 6l-1 2-2-1-6-3-2-3 1-1 6 4h1c-1-1-3-3-5-3l-1-2zm-142 5l21 33c-5 3-8 4-17 3h-3c6 10 14 23 12 46h27l11-1 1 1h5l-37-70c-5-9-10-13-20-12zm133 1c1 0 3 1 3 3l-1 2-2-2-2 2-1-3 3-2zm-22 0c2 7 4 17-12 39-9 13-12 26-12 41h-1v-23l1-1v-6c3-16 24-50 24-50zm-83 4h79l-1 2H64zm105 0l3 3-3 3-3-3zm-2 1l-2 2 1 2c-1 3-5 0-5-2 0-3 4-4 6-2zm5 4l1-2-1-1c2-3 4-1 4 1 1 2-3 5-4 2zm-93-2h6l-2 4h-7zm14 0h6l-3 4h-6zm14 0h6l-2 4h-7zm14 0h6l-2 4h-7zm14 0h6l-2 4h-6zm-68 0h4l-2 3zm104 3c2 2 0 5-2 5s-4-3-2-5l2 1zm-88 2h6l-2 4h-6zm14 0h6l-2 4h-6zm14 0h6l-2 4h-6zm14 0h6l-2 4h-6zm-54 0h4l-2 4zm3 5l61 1-1 2H74zm2 4h58l-2 3h-20c-3-3-8-2-13 0H76zm81 7c3 4 5 9 6 14s0 7-1 3c-2-10-14-12-19-4-8 11 5 24 15 15h1l-1 2c-7 6-5 16 4 18 13 3 20-12 9-19l-1-2 2 1c9 8 22-3 16-14-4-9-17-7-20 2l-1 3v-6c1-5 3-9 6-13zm-100 4l30 48h-6l-29-45zm149 3s3 8 2 9l-1-1c-1-6-10-5-9 2 0 4 4 6 8 3h1l-1 2c-3 3-2 8 2 9 5 1 8-5 4-10l-1-1h1c4 3 8 1 8-4s-7-7-9-2l-1 2c-1-1 3-9 3-9zm-155 0l29 45h-4c0-8-6-12-10-12 2-10-5-14-10-15 2-13-8-14-9-14v-3l4-1zm-5 1v2-2zm-6 0l3 3h-2l-2-3zm5 3a1 1 0 110 3 1 1 0 010-3zm2 1c4 0 10 4 8 11l-1-2c-2-4-6 1-3 3l1 2c-2-1-4 1-3 3 1 3 4 2 5 0l1 3c2 1 3 0 4-2s-1-2-2-3c5 0 10 6 8 12 0-2-1-5-4-4-1 1-2 3-1 5h1l-2 1c-3 2 1 8 4 4l1-1 1 2c3 2 4-1 3-3l-1-2c-1-1 9 2 8 11H48c2-14-4-30-7-35l2-2 1 2c3 1 4-1 4-3l-3-2zm7 13a1 1 0 110 3 1 1 0 010-3zm150 12c-2-2-4-2-5-1v3s4 0 3 2v20c1 8 11 10 13 2l1-4v-9h3l-1-4h-2c0-5-1-9-4-10-4-1-6 0-8 1zm9 8c-2 0-4-3-6-5 1-2 3-1 4 0 2 1 2 4 2 5zm-149-5a1 1 0 110 3 1 1 0 010-3zm141 3c2 4 8 6 8 6v10c0 3-1 5-4 5-4 1-4-5-4-8v-9-4z"/></svg>