<svg xmlns="http://www.w3.org/2000/svg" width="224.2" height="312.8"><rect y="590" x="2314.3" height="311.8" width="223.2" rx="10.6" ry="10.6" fill="#fff" stroke="#000" transform="translate(-2314 -589)"/><path d="M161 31H81l10 19c21-2 39 0 58 1zm-55 68l-3 1c9 19 13 33 16 52l5-1c-2-7 7-8 7-1l5 2c1-20 8-41 18-56-11 4-27 15-27 15s-13-6-21-12zm66 2c-14 13-20 51-19 52-19-1-24 20-8 31l-3 6 5 1 4 4 4-4 5-2-3-6c14-9 12-23-1-30 4-22 10-37 16-47zm-99 17l-4 5-6 1 4 6c-13 9-13 22 0 30 2 19-14 48-14 47v6c10-12 17-34 18-52 22-1 23-23 7-31-1-1 4-6 4-6l-5-1-4-5zm94 15c3 7 15-1 17 2 1 2 5 3 5-1-1-3-3-4-13-3h-4c-3-3-5 1-5 2zm11 10c-3 0-3 10-3 14-8 11 15 10 5-3 1-2-1-4-1-6l-1-5zm-132 6c-4 1-8 4-2 10v3c2 4 1 9 3 9 1-2 3-6 2-12v-1c4-6 1-9-3-9zm42 12c-1 19-6 39-17 56l27-15 21 13 3-2c-10-14-13-34-17-52l-4 1c-1 7-7 9-9 1zm-50 15c-3 0-4 6 2 7 4 0 10-2 13-1 3 5 6-2 2-4-5-1-14 2-16 0l-1-2zm37 86l-12 22 79-1-10-21s-35 4-57 0z" fill="#e2cf00"/><path d="M92 52l2 3c17-2 35-4 53 1l1-3c-17-5-54-4-56-1zm18 44l16 10 11-8-2-3c-7 16-19 3-23-4l-2 5zm44 5l2 1c1 2 1 1 0 0 0-3 3-5 5-3 2 1 2 4 0 5-2 0-2 1 0 1s3 3 1 5-5 0-5-2c0-1 0-1 0 0l-1 3-4-2 3-2s1 0 0 0h-1c-2 0-4-1-3-4 0-1 1-2 3-2zm-17 59c4-4 9-8 16-7 1-20 8-37 19-53l-12-8-5 3c-12 17-19 38-18 65zm-91-46l-12 9 1 55h1v-1l1-1 1-2c-1 0-2-1-1-2l-1-2v-2-2-2-2c0-2 2-3 5-4l1-1c-4-6 4-9 5-8zm104 3a6 6 0 110 11 6 6 0 010-11zm0 1a4 4 0 100 9 4 4 0 000-9zm0 1a3 3 0 110 6 3 3 0 010-6zm-110 3c2 0 2 1 2 3-1 1-1 1 0 0l2 1c2 2-1 5-3 3v2h-2v-2c1-1 1-1 0 0-3 2-5-1-3-3h2v-1c-1-1 0-3 2-3zm57 5c-2 7-1 17-1 23 3 0 3 2 4 5 1-1 4 1 5 1 0-7-4-29-8-29zm49 7c4 0 3 4 2 5 0 1 0 1 0 0 2-1 3 0 4 2 1 3-3 6-5 3h-1l1 3h-4l2-3h-1c-3 2-6-1-5-4 1-2 3-2 4-1h1c-2-2-1-5 2-5zm-106 3h1l1 3c-1 0 0 0 0 0l2 1c2 2-1 4-3 3v-1 3h-2v-3l-1 1h-2c-2-1 0-5 2-4 1 1 1 0 0 0-1-2 0-3 2-3zm149-2c-5 5-3 2-1 6v10c0 4-4 4-7 5 1 0 5 8-3 9v35l13-10v-55zM87 154c-4 2-9 8-16 7-1 22-8 39-18 53 3 2 7 5 11 6l7-4c13-19 17-40 16-62zm32 4c1 11 2 21 8 30l1-24c-2 0-4-2-5-5zm-42 6h4l-2 3c0 1 0 2 1 1h4c3 2 0 6-3 4-1 0-2 0-1 1 2 2 0 5-2 5s-3-2-3-3l1-3c1 0 1 0 0 0-3 2-5-2-3-5h5l-1-3zm105 4h3l-1 2c2-2 4 0 4 2 0 1-1 2-3 1v4c-2 1-5-1-4-3v-1c-1 1-2 0-2-1-1-2 2-4 3-2l1-1-1-1zm0 15h3l-1 1c0 1 0 2 1 1 0-1 2-1 3 1 1 1-1 3-2 3h-1v3c-2 1-5-1-3-3 0-1 0-1 0 0-3 1-4-2-2-4h3v-1l-1-1zm-108 2a6 6 0 110 11 6 6 0 010-11zm0 1a5 5 0 100 9 5 5 0 000-9zm0 2a3 3 0 110 5 3 3 0 010-5zm-8 14l4 1-3 2c0 1 0 2 1 1 2-1 4 1 4 3 0 3-3 4-5 2h-1c1 1 0 3-1 3l-3 1c-2-2-2-5 0-6v-1c-2 1-4-2-2-4s5-2 5 2l1-1v-3zm32 5l-12 7 3 4c6-14 21-3 23 5h1l1-5zm-20 51l-2 3c18 4 37 4 56 2l-2-5c-19 5-52 0-52 0z" fill="#d40000"/><path d="M32 29l1 257 160-1-1-257zm49 2l80-1c-4 10-15 25-14 25-17-2-34-4-53 0zm-47 0h45l14 27 1 3-2 4c0-1-4-1-4 2 1 3 4 4 6 2v1l-2 7c-6-5-8 3-4 5 2 1 5 0 7-3 1-2 1-1 1 1v2c1 2 0 2-2 3l-6 1c-3 1-5 4-5 7v1c-15 6-32 14-49 28zm102 63l-3-8-3-30h1l2 10 1 14c0 5 3 13 4 15 2 4 7 1 6-3-1-2-4-1-4 1l1-1c1 0 3 1 2 3s-4 1-5-2 3-6 6-4c3 3 3 8 0 10-4 2-7-2-8-5zm10 4l1-1c0-3 0-5-2-8l-1-1c1-1 4 1 5 3 0 2 1 4-1 6l-2 1zm4-2v-2l-3-6v-1c4 0 6 5 4 8l-1 1zm3-2c1-5-4-8-4-8h3c2 2 3 6 2 8l-1 1h-1l1-1zm-42-16h1c3 1 6-1 5-3l-2-2v1c2 1 2 2 0 3-1 1-4-2-6-1v2h2zm-4 0l-1-2 2-7c1-6 0-9-4-11-3 0-6 0-9 2v-2c12-3 33-3 33-2l1 5-6-3c-3-1-8 0-9 2-1 1 0 2 2 0 3-1 11 0 13 2l1 1h-1c-6-3-12-2-13 2l-2-1 1 3 1 2 4 3-1-2c-2-1-1-1 0-1 2 1 5 1 8-1l3 1a119 119 0 001 13c1 4 1 4-1 2l-2-2c0 2 3 4 3 4l2 4-5-4-2-2 3 4 1 2c-1 1-2 0-5-2l-1-1 3 3v2l-4-3-2-1 4 4 2 2c-1 1-5-1-7-4h-1l6 5h1v2c-2 0-6-3-8-6v1c2 3 6 6 9 5l2 1-2 1c-4 0-9-3-13-8v-1c0 2 2 4 4 6 4 4 9 6 12 3 2-1 4-5 1-6-2 0-2 2-1 1 2 0 2 1 2 2l-3 1c-2-1-2-5 1-6 2 0 4 2 4 4 1 2-3 6-5 7-9 2-17-11-17-11h-1l-4 6 2-7c-1 2-2 6-5 8 0 1-2 2-1 0 2-2 4-5 3-8l-1 3-5 7c-2 0-1 0 0-2l4-7c0-1-3 7-8 9h-2c2-1 7-6 7-12l-1 2c-2 6-5 9-8 9-3 1-4 0-4-1 3 0 6-1 8-4s3-7 1-12l-1-13h9l-1 3 2-1 1-1-1 4c-1 4-1 5 3 6l1 1 1 1v-1l-1-2-3-1zm73 52v-4l4 3v1zm-7 1V54l5-3v67l1 12-6 1zm6-80l5 3v3l-5-3zm-46 5h2l1 13c0 7 1 15 3 20l-2 1c-2-5-2-14-3-20l-1-14zm47-1l4 3v4l-4-3zm-45 1l2 1 2 13 2 17-1 1c-1 0-2-6-3-19l-2-13zm3 1h2c1 12 2 23 4 30h-2l-4-30zm3 0h2c2 28 3 27 4 28l-2 1-4-29zm8 27l-2 1-1-9-2-18h2s1 22 3 26zm-47-24c3 0 5 1 5 3 0 1 0 0 0 0-3-2-6-2-9-1h-2v-1l6-1zm-7 4c0 3-1 4-2 5-2 1-5-1-3-3 0-1 2-1 2 1l3-6v3zm89-1v3l-5-3 1-3zm-80 0l3 2-2-1c-2-1-5-1-8 1v-1c2-2 5-2 7-1zm17-1l6 2 2 1 1 1-2-1c-5-3-8-2-11 0l-1-1 5-2zm58 2l5 4v3l-5-4zm-81 2h1c1 3 3 1 4 0h1c-1 5-7 2-6 0zm-1 0l1 2h-2l1-2zm22 0c2 3 3 1 4 0h1c0 2-4 4-5 0zm6 0l1 1v1h-2l1-2zm-7 1l1 1-2-1h1zm-13 0v1h-1l1-1zm74 1l5 4v3l-5-3v-4zm-84 5v2c0 2-2 5-4 6s-4-1-4-3c1-2 3-2 4 0v1l3-4 1-2zm84 0l5 3v3l-5-3v-3zm-59 5v1c2-3 5 0 4 2h-10v1l6 2c5 1 7-5 3-7-1-1-3 0-3 1zm-20 0c-2 2-1 6 2 7l2-1 4-2c1-3-4 0-4 0h-4c-1-2 1-5 3-2v-1l-3-1zm79-1l5 4v3l-5-3zm1 5l4 3v3l-5-3 1-3zm-25 2c4 0 6 5 4 8h-1v-1c0-2 0-4-2-6l-1-1zm-47 1h-2l-1 1c-1 2 0 2 1 1h11l2 1-1-3h-10zm46 0c3 2 3 4 3 6l-1 3h-1c1-3 0-6-4-9h3zm-58 0l1 2-1-1v-1zm-2 1l1 1v2l-1-2v-1zm-3 1h1l2 4c-1 1-1 0-2-1l-1-2v-1zm88-1l5 3v4l-5-3v-4zm-91 1c2 0 4 3 3 5 0 3-5 2-4 0l2-1v-1l-3 1c-1 4 4 6 7 2l3-4h1c0 4-3 9-8 8-5 0-7-5-3-9a3 3 0 012-1zm26 1h-5l-1 1h6v-1zm70 6v3l-5-3v-3zm-5 1l5 3v3l-5-3zm0 4l5 3v4l-4-3zm-110 4l-3 8h2l1 3 1-3h2zm111 1l4 3v3l-5-3zm-1 4l5 3v3l-5-3zm-100 2l-3 9 2-1 1 3 2-2h1zm-21 0l-2 9h1l2 3 1-3h2zm121 2l5 4v3l-5-3zm5 8v3l-4-3-1-3zm-94 1l-3 9h2l1 2 1-2h2zm90 1l4 3v3l-4-3zm-78 37l-2-3h3c1 1 2 3 0 5h-3zm-2-4c0-4-2-5-3-5l-1-23v-2-1 26c-3 0-4 2-4 5-2-1-4 1-4 1l-1-4c-2 7 2 11 5 11 1 6 8 7 8-1 9 0 6-8 0-7zm-41-28l-4 9h3l1 1c3-3 5 2 3-2zm120 16l1 1h-2l1-1zm2 10c1-1 2-1 2 1h-2v-1zm0 2c5 1 8-2 7-5v-3-4c0-3-1-3-2-5l1-1-2-1-1-1c-9 1-17 1-16 13-2 5 0 10 7 9v-9c1-3 3-7 3-1l1-1c2-1 2 1 2 1l-1 1-1-1v2l1 1c2-2 3 1 0 1 2 1-1 3 1 4zm-3-18l2 1c0 2 0 2 3 2 2 0 2 0 0 1h-3l-1 1h-2l-1 1-2 5c-2 1-3 1-1 1l1 3v2c1 1 1 2-1 2-4 0-5-4-5-6v-3-1c0-4 1-5 5-8l5-1zm4 0c2 0 4 1 3 2h-4c-1-1 0-2 1-2zm-92 4l-1 1-1 7v1l2 3 1-3h2zm96-1l1 2c-1 2-6 3-6 3v-2l4-2 1-1zm1 4l1 1v1c-2 2-5 2-7 2l1-2 5-2zm-51 8c-1-2-5-2-5-1 0-3 0-5-3-6-4 0-5 4-4 6-2-1-5 1-5 1s-3 6 4 7c1 3 2 4 4 5v23l1 1v-24c4 0 4-4 4-5l4-1v4l1-2c-1-23 7-48 18-64l1-1 4-3 12 7v33l15-1-2-2V53l-7-4-6 5v45l-11-7v-2c0-6-3-8-9-7l-2 1c-2-7-3-26-3-26l16-27h27l1 104 1 55-14 10-1-35-2-1 2 1v35l-8 5-11 6-3 1-12 5c-3 2-3 0-3 0-6-6-13-6-19-4l-3 1v1l-2 1-2 2-1 5 1-4 3-3v1l-2 4v2l2-4 2-4h1l-2 8c0 1 0 1 0 0 1-4 2-8 5-9h1c-3 4-3 8-3 9s0 1 0 0c1-4 3-7 5-9l2-1c2 0 2 1 0 2s-4 6-5 9h1c1-7 7-12 12-9 2 0 2 2 0 1-3-1-8 2-9 5-2 4-2 5-1 10 1 4 3 9 2 13l-4-1-4 1h-1c-1-1 0-2 1-2h-1l-1 1-1-2c2-6 2-6-1-7s-2-2-3-3c-1 1 1 4 3 5 2 0 2 1 1 3-1 4-2 8-1 11 1 7 8 6 12 4l1 1c-4 2-26 4-33 3l-1-5 7 2c3 1 7 1 8-2l-1-1c-2 1-5 2-7 1l-7-1v-2h1c4 2 6 3 8 2l4-3-4 2c-3 1-6 0-9-2v-1c5 2 7 4 11 0h2c3 2 3 1 1-1l-1-2v-1l-3-2c-2 0-2 0-1 1l1 1c-3-1-6 0-9 1-1 1-2 2-2 0l-1-16-1-2 3 2 1 2c0-2-2-4-4-5-1-1-2-4 0-3l6 6v-1l-2-3-2-2 5 3 1 1-4-4v-1l6 3-1-2-3-2v-2c2 0 5 3 6 5h1l-7-6c-2 0-2-1 0-1l7 4 2 1-2-2c-2-2-4-4-7-4h-4l1-2c4-1 11 3 14 8l1 1c-2-5-7-9-11-10l-7 2c-1 3-1 5 1 5s2-1 1-1l-1 1c-1-1-1-4 1-3 3 0 3 4 0 5-2 1-3 0-4-2s0-5 2-7c5-3 12 0 16 3l4 7v-1c-5-13-21-14-23-4l-2-2c-2-3-6-4-11-2l-9 5s-3 2-4 1l-10-6-1-6v-26h-6c-11 3-10-3-11-3l-1-20a10146 10146 0 001-37l10-7 1-1 1 35v-35c-1 0 23-14 35-18h1c8 9 27 6 29-5 3 7 17 20 23 4 0 0 3 5 5 5 4 0 5 0 15-5-12 17-18 35-19 57zm-6-4v3l-3-2-2 2v-3c1-2 4-2 5 0zm57 0c1 0 1 1-1 2l-3 1v-2l4-1zm-91 3c2 0 3 1 3 3v2l-3-2-2 2-1-3c1-2 2-2 3-2zm38 1c2 1 2 4 0 5h-3l2-3-2-2h3zm53-1c0 1 0 3-2 3l-1-1v-1l3-1zm-63 1l-2 3 2 2s-2 2-4 0c-1-1 0-4 1-5h3zm3 0a3 3 0 111 5 3 3 0 01-1-5zm-34 4l-2 3 2 2-2 1c-3-1-3-5-1-6h3zm-44 1l1 7-2 5-2 1v-5l-1-2-1-2c0-4-1-3-2-3l-4 1c-3 2-1 3-2 5v3c-1 4 1 3 1 4v3c2 0 1 1 2 2l3 1c5 1 13 0 14-6 1-8 3-15-7-14zm47-1a2 2 0 111 5 2 2 0 01-1-5zm-45 2l3 1c2 2 2 3 1 10l-2 4c-1 2-4 3-6 3h-3c0-2-2-2-3-2v-1h4l4-2-1-2 3-4c2-2 1-1 0-1h-1v-5l1-1zm-8 1v2l-2-1 2-1zm85 4c-2 0-4-2-3-4v-1l3 2 2-2c2 2 0 5-2 5zm-87-3v1l-3 1c-1 1-1 0-1-1l3-2 1 1zm0 2v2l-1 1-3 1-1-1c1-2 4-2 5-3zm3 2l-1 1v-2c1-1 2 1 1 1zm90-3l-1 2h-2l3 10 1-4 1-5zm-40 1l3 2 2-2c1 3 0 5-2 5s-5-2-3-5zm-52 4v2l-3 1c-2 1-3 0-2-1l5-2zm2 0c1 0 2 1 1 2l-2-1 1-1zm-1 5l-1 1h-2l-2 1h-1c0-2 1-3 3-4h2l1 2zm1-2c2 0 2 2 1 2-2 0-2-2-1-2zm-1 6v1l-4-1h4zm122 1l-3 3 3 7 3-9-2 1zm-126 7v76l7 4 7-4v-44l10 6v2c-1 6 5 10 8 7h2l2 10 2 16-16 27H35V180c1 2 2 3 4 3zm95-2l-1 2h-2l3 10 3-10h-2zm-82 77l-4 3h-1v-4-5-6-10-11-19-4l-1-8v-9-2h5zm-12-74l5-1-1 4-4-3zm0 1l4 3 1 4-5-3zm0 5l5 3v4l-5-4zm151 1v92h-46l-15-28 1-4 1-2c1 1 3 0 4-2 1-1-1-3-3-4l-3 1h-1l2-6c1-1 1-2 2-1 1 2 3 1 4 0s1-4-1-5c-5-2-8 4-8 3l-1-6 12-3 2-7s17-6 25-11c13-7 25-17 25-17zm-26 1l-1 2h-2l4 9 3-9h-2zm-125 3l6 3v4l-6-4zm105-2l-2 2h-1l3 9 2-9h-1zm-105 6l6 4-1 3-5-3zm115 1l-1 2h-2l3 9 4-9h-3zm-115 4l5 3v3l-5-3zm0 4l5 3v3l-5-3zm0 4l5 4 1 3-6-3zm43 2c5 1 9 11 9 23 0 9 3 21 3 21l-2-1-3-18-1-10c0-3-1-8-4-10-2-3-4-3-5-1s1 6 3 4c0 0 1 0 0 0-2 0-3-2-2-4 2-2 6 3 4 6l-4 1c-3-2-4-6-3-9 1-2 3-3 5-2zm-6 1v2c-1 3 0 7 3 8v1c-2 0-4-2-5-5-1-2 0-4 1-5l1-1zm-37 1l6 4v4l-6-4zm34 0v2c-1 3 0 5 2 7l1 1-3-1c-2-2-3-6-1-8l1-1zm61 1c2 0 4 1 5 4 0 4-4 6-7 4-2-3 0-7 3-5 2 1 0 3-1 2l-1 1c1 1 4 0 3-2 0-3-3-3-5-1l-4 5c-1 2-2 2-1 0 0-5 4-8 8-8zm-64 1v2c0 3 2 6 4 7l-2 1c-3-1-5-7-3-10h1zm-3 1v2c0 3 1 5 4 7v1c-1 1-3-1-4-3-2-2-2-5-1-6l1-1zm-3 2l1 1c0 4 0 5 3 7l1 1c-1 1-3 0-4-1-2-2-3-7-1-8zm-25 0l6 4-1 3-5-4zm93 6c-2-1-3-2-3-4h1l2 3v1zm-46-4c2 6 2 13 2 19l3 15h-3s-2-11-1-17l-2-14c-1-2-1 0 1-3zm-47 3l5 3v3l-5-3zm69-1h6l-3-1-3 1zm21 0l1 1v1c-1 1-2 0-2-1s0-2 1-1zm-46 0c2 4 3 12 3 17l2 15h-2l-2-9v-11l-3-11 2-1zm-3 1c2 5 3 10 3 16l2 15-2-1-1-1-1-14-2-12v-2l1-1zm25 1c0 3 0 2 1 1l2 1h9l1-2-1-1-3 1h-5l-3-1h-1v1zm22-1l1 1v1l-2-1 1-1zm-49 1c2 2 2 12 2 15 1 11 2 13 1 14h-1c-2-5-1-9-2-14l-1-12v-2l1-1zm-3 2l2 13 2 14-2-1c-2-8-1-17-4-26h2zm-36 1l6 4v3l-6-4zm79-1l-3 3h5c2-1 3-1 3 1s-2 2-3 2-1 0 0 0c2 2 5-1 4-4-1-2-3-3-6-2zm-19 1c-2 2-1 6 1 6h1c-2-1-3-2-2-4 1-1 3-1 6 1 3 1 4 1 4-1l-1-1c-4 0-6-2-9-1zm33 6l-3 2c-1 1-1 2-1 0 0-3 3-5 4-5l4 2c0 3-3 3-4 1zm-93-2l6 4v3l-6-3zm68 1c-3 2-1 5 0 5 2 1 2 0 0-1v-2h3l4 1c1-1 0-4-2-3h-5zm-68 4l6 3v4l-6-4zm0 4l6 4v3l-6-4zm92 1c4 0 3 5 0 4-1-1-1-1-2 1-1 3-1 3-1 0s1-5 3-5zm-33 1h1l-2 2-1-1 2-1zm6 2h-1c-1-2-3-2-4 1h-1c1-3 5-5 6-1zm21 1h-1c-1-3-3-3-4-1h-1c1-3 4-4 6 1zm-6-3v1h-2l2-1zm6 0c1 0 2 1 1 2h-1v-2zm-20 1h-1v-1l1 1zm-66 1l6 4v4l-6-4zm78 2c3 2 7 2 9 0h1c0 1-4 3-7 2-2 0-3-1-4-3l1 1zm-1 1c4 4 8 2 11 0v1c0 1 0 2-2 2-4 1-9 0-9-2v-1zm-77 2l6 4v3l-6-4zm0 4l6 4-1 2-4-3zm38 1c21 5 37 3 52 0l13 27H62l16-27z" fill="#131f67"/><path d="M8 14v3h3v25H8v3h8v-3h-2v-7l4-5 5 12h-4v3h10v-3h-3l-6-15 6-10h3v-3H19v3h3l-8 12V17h2v-3zm72 16l4 7v1l2 4 1 1v1l1 1v1l5 10c5-2 40-5 54 0l2-3 3-6v-1l1-1 1-1 3-6 5-8zm81 1l-4 6c-1 0-4 0-4 3-5-2-6 4-2 5-2 2-4 0-5-1-2 0-5 1-6-2l1 1c4 1 4-4 1-5h-1c1-4-5-6-5-1h-2c-3 1-2 6 1 6h1s-4 2-7-1c-1 1-4 3-7 0 2 0 4-1 4-3l-3-3c0-1-1-3-3-3s-3 2-3 3c-1 1-3 2-2 4 0 2 2 2 4 2-3 3-7 1-8 0-1 2-4 3-7 1 2 0 4-1 3-4l-3-2c0-1 0-3-3-3-2 1-2 3-2 3-2 0-3 3-2 4 0 2 2 2 4 2-3 2-5 1-6 1-2 1-4 2-5 0 4 1 3-7-2-4 0-2-1-3-4-3l-3-6zM61 36c-9 0-12 6-11 11 0 4 2 6 5 8l1 2h-1c-10-10-23 1-17 13 4 9 18 7 20-3l1-1v2c0 6-6 16-6 16h16c-4-5-6-10-6-17-1-2 0-2 1 1 3 11 18 11 21 0s-8-19-16-12h-2l2-2c2-2 3-4 3-7 1-6-4-11-11-11zm-8 48zm67-46h1v3c5 9 15 5 16 1v-1-1c1-1 3 0 2 1v1c3 6 8 7 13 4-2 4-11 6-14-3-5 8-14 8-18-1-3 9-14 9-18 2-3 8-11 6-14 1 8 6 13 0 14-2l-1-1v-2c2-1 3 0 2 1v1c2 6 14 7 16-1v-1l1-2zm-33 3v2zm67 1l-1 2c-1-1 0-2 1-2zm-6 10l-2 3c-21-5-51 0-52 0l-1-2c19-4 37-3 55-1zM17 52h-2c-3 2-4 6 0 9l1 2-2-1c-5-3-10 1-8 6s9 4 10-1c0 0 0-1 0 0v4l-2 3v1h6v-1l-2-7c1-1 1 0 1 1 2 6 10 4 10-2 0-5-4-6-8-4h-1c5-3 2-10-3-10zm95 39c-3 8-8 9-14 9-7 2-12-1-14-5l-15 6c8 4 19 12 25 22 2 3 2 2 2 8v19c3 0 4 3 3 5 3-1 6 1 6 3 0 5-5 4-6 3 2 4 0 6-2 6s-5-1-4-5c-2 1-5-1-6-4v-5c6-11-1-20-9-23 0 0 2-4 5-6 0 0-2-2-5-2l-2-1c-3-4-4-4-6 0l-3 1-4 2 1 2c1 1 3 3 2 4-5 3-15 13-5 26l-7 1-1-48-5 3 1 37h-2v-36l-14 10 1 56h1c1 7 16 2 17 3v32l12 7 11-6 2-1c4-2 7-1 10 2l2 3c1-7 6-9 12-7 3 1 9 5 11 10v0c-6-13-21-15-24-5l-2-3 12-7 16 11-1 5v-1l2-5 1-1 3-2-2-1-1-6 5 6c2 0 7-2 11 0 0 0 5-1 8 6l15-6 1-1c-15-5-30-25-28-25v-7-16c-5-2-4-6-4-6h-4l-1-6 5-1v-4c1-1 3-2 5-1s2 5 1 5c3-1 6 0 6 3 1-7 1-15 3-21 2-11 6-23 12-32l3-4 1-2-2 1-4 1-4 2c-5 2-8-1-10-5-1 5-6 10-13 7-4-2-6-3-9-9l-1-1zm0 1c2 5 6 9 10 10 7 3 12-2 13-6l2 2-11 8-16-10 2-4zm48 0l-5 3-4 7a108 108 0 00-14 58l-1 2-1 7a17 17 0 0010 15l-3 4-1 2 5 1 2 2c3 3 4 3 6-1l2-1 5-2c-2-1-4-5-4-6 11-5 13-17 5-26h8v48l5-3v-38l2 1 1 35 1-1 13-9v-55h-1v55l-13 9v-34h1c4 0 6-5 3-8-1-1 0-1 2-2 3 0 5-3 4-4l1-2v-2-1-3l-1-2-1-2c-1-1-1-1 1-2s2-5-1-6h-10l-4 1-1-33zm0 1l12 7c-4 5-19 27-19 52-11-1-15 8-16 8-1-32 12-55 18-65zm-7 4v1l-3 3v-3zm-4 1v6l-5 3v-6zm-44 1l2 2v6l-3-7zm67 2v4c-9 13-14 29-16 48h-2c0-19 7-37 18-52zm-64 1l6 3v7l-5-4-1-1zm35 0v6l-4 3v-6zm-54 1l2 2c0 4 3 3 4 4h-3c-3 0-6-3-4-5l1-1zm26 3l5 3v7l-5-3zm23 0v6l-5 3-1-5zm10 0l-3 7-18 13-15-10-3-7 17 12zm-49 3c5 0 9 5 10 9l1 9 1 6h1c0-2 2-1 2 1s-2 3-4 1c-1-1-1-1-1 1 0 1-2 9 2 10v-1c-1-1 1-2 3-2 2 1 2 4-1 6-2 1-5-1-6-4v-10a30 30 0 001-6h-1c-3 1-5 0-6-2-1-3 2-5 4-4v2c-2 1-1 2 0 2 5-1 1-15-5-16-3-1-6 4-4 6 1 1 2 0 2-1 0-2 2-2 3 0 1 3-2 5-5 4-6-4-2-11 3-11zm22 1l5 3v6l-5-3zm11 0v6l-5 3v-6zm12 4l-2 7-15 10-13-8-2-6 15 10zm-98 1v33c-5 0-8 5-4 10h-1c-4 1-6 2-5 4l-1 2 1 2v2 4l1 2v2l-2 1v-54zm27 4l3 3 2 1 4 1-2 1-2 4h-1l1-3c2-2 2-2-1-2l-2-1c-2-3-3-3-5 0l-2 1c-2 0-2 1-1 1l2 4-1 1-1-2-2-3c-1-1-1-2 2-2l3-1 3-3zm68 3l-1 6-13 9-11-7-1-5 12 7zm-44 5l5 12 2 16-4-1c0-1-1-4-3-4zm42 2l-1 6-11 8-9-6-1-6 10 7zm-64 1h2v10l11 2v2l-12-2-1-12zm-5 0v12l-13 2 1-2 10-1v-11zm102 2h5c8-2 10-1 11 2s-3 4-4 1c0-2-2-1-8 0-5 1-8 0-8-2 0-3 3-4 4-1zm-68-2a2 2 0 110 4 2 2 0 010-4zm-27 0l2 1v8l9 1v2l-10-2-1-10zm-9 1v9l-10 2v-1l9-2v-8zm5 1l1 1a1 1 0 11-1-1zm111 4l3 1-1 1v2c3 0 1 3 2 3v4c1 2-1 2-1 3v3l-6 2v-3-1l-2-1v-4l-1-2h-2l-1 5v4c1 3 0 4-4 3-3 0-4-4-3-8v-1c0-3 0-6 2-7 3-3 5-4 11-3h3v-1zm-46 1l-1 5-6 4c-3-2-5-1-7 1l-5-3-1-6 9 6zm-65 1a1 1 0 010 3 1 1 0 110-3zm64 5l-1 6-2 1h-2l-1-3zm-64 1l1 1a1 1 0 11-1-1zm6 0l1 1a1 1 0 11-1-1zm-12 0a1 1 0 110 3 1 1 0 010-3zm110 0l1 2v2l1 1c0 3 2 2 1 4v2h-4l-1-4 1 1c0 1 0 1 0 0l1-8zm-92 0a1 1 0 110 3 1 1 0 010-3zm-24 1a1 1 0 110 3 1 1 0 010-3zm58 0l4 3 1 3c-3-1-5 1-5 1zm-46 3c5 0 10 0 14 2v1c-9-2-19-2-28 0l-1-1a49 49 0 0115-2zm-27 2l3 1c2 2 1 6-1 7-4 2-8-2-6-6l4-2zm90 0v2l-1-1zm-23 0a3 3 0 110 6 3 3 0 010-6zm-67 0l-1 1 1 1 2 3c0 2 0 2 1 1 1-2 0-5-3-6zm84 1zm-57 1c2 0 2 4 0 8 0 1-1 1-1-1-2-5-1-7 1-7zm5 0l1 1c1 1 0 3-3 6l-1 2v-3l1-4 2-2zm-8 3a33 33 0 001 5l-2-2-3-5h3l1 2zm14-2c2 1-1 4-5 6-2 1-2 1-1-1l2-3c1-1 2-3 4-2zm-21 0l2 3 2 2 1 1c0 2-6-2-7-4l2-2zm94 4v4c-1 1-3 0-3-2l-1-4v-2l4 4zm-8-2l-1 4v1c-2 3-4 1-3-2l4-5v2zm2-1l1 2v5c-2 2-4 0-3-4l2-3zm-64 0c2 35-16 62-17 63l-6 3-11-6c11-15 18-32 18-53 10 1 16-7 16-7zm59 0l-1 2-3 4c-1 1-4 0-2-2l6-4zm10 0l2 1c4 2 6 4 4 5-1 1-2 1-3-2l-2-2-1-2zm22 2a4 4 0 110 8 4 4 0 010-8zm-1 1c-3 1-2 6 0 6h2c-3-1-3-4-2-6zm-121 6c0 3 1 6-1 8-1 5-7 7-11 6h-2-1-1l-1-2-1-1-1-3v-1l-1-3v-2-1l1-2c-1-1 0-2 1-3l5-1 1 1v3l1 1v2l1 3v3h2s0-4 2-7l-1-7c4-1 7 2 7 6zm64-5l3 1c0 2 1 4 4 5v22c-4-7-7-16-7-28zm-71 1v1c0 2 0 3-1 1v7c-1 2-1 3-2 1v-1-3l-1-1-1-2 1-3h4zm63 0a3 3 0 110 6 3 3 0 010-6zm-44 2h2s0 30-17 52v-5c8-12 14-27 15-47zm37 0v7l-4-3v-2l4-2zm-17 0l1 2h-1zm49 1c10 3 19 2 28 0l1 2c-10 3-20 3-30 0zm-45 1l1 3-6 4 1-5 2-2zm47 3a2 2 0 110 3 2 2 0 010-3zm24 0a2 2 0 110 3 2 2 0 010-3zm-45 5v11l-1 5c0 1 5-4 7 2 1 2-2 4-3 4v-2c1-2-2-3-3-1-4 3 0 13 5 14 4 1 8-4 5-6-1-1-3 0-2 2 1 1-1 2-3 0s1-6 4-5c6 1 5 11-1 11-5 0-8-2-10-5-2-4-2-7-1-13l-1-7-1 1c0 2-1 2-1 1-2 0-2-2 0-4 1-1 4 1 4 2v-2c1-6-1-11-3-10v1c2 0 0 2-1 2-3 0-4-4-1-5 3-2 6 1 7 4zm-18-5l5 4 1 4-8-5-12 7 1-5 6-4s5 3 7-1zm57 1a2 2 0 110 3 2 2 0 010-3zm-12 0a2 2 0 110 3 2 2 0 010-3zm6 0l1 1a2 2 0 11-1-1zm-15 2l12 2v12h-1v-10l-11-2zm30 1v1l-11 2v10h-1v-12l12-1zm-68 0l8 6 1 6-10-7-12 8 1-5zm38 1l10 2v10l-1-1v-8l-8-1zm30 1l-1 1-8 1v9h-1v-10zm-15 1a2 2 0 110 3 2 2 0 010-3zm-53 3l9 7 2 5-12-7-14 9 2-6zm-60 0l1 2 4 1c4 0 8-2 12 0 2 0 3 3 1 4s-3 0-3-1h-5l-5 1c-4 0-7-1-7-4l2-3zm113 3a2 2 0 110 3 2 2 0 010-3zm-31 2a2 2 0 111 4 2 2 0 01-1-4zm-22 1l11 8 2 6-13-9-17 11 2-6zm58 2l4 5-4 1-2 1-2 3c-1 1-3 0-5-3l-2-1c-3 0-4 0-2-1l3-5h1l-2 4c-1 1 0 1 2 1l2 2c1 3 2 2 4-1l3-1c2 0 2 0 1-1l-2-4zm-58 4l14 9 3 7-17-11-21 13 3-6zm0 6l5 4v6l-5-4zm-1 0v6l-5 3v-6zm-6 4v6l-5 4v-7zm14 0l4 3 1 7-6-4zm5 4l5 3v7l-4-3zm-25 0v6l-5 3v-6zm51 8c-1 1-2 1-2-1-1-2-3-2-4-2-3 0-1-2 1-2 5 0 7 3 5 5zm-57-4v6l-5 3v-3l3-4zm-6 8v1l-1 1zm82 15zm0 0c1 1 6 8 6 17 1 2 0 3-1 1-1-4-3-7-6-9-14-5-20 13-11 21 4 2 10 2 12-2h2l-1 1c-4 4-6 8-5 12 2 4 6 7 11 8s10-3 12-8c1-4 0-8-4-11l-2-3 2 1c3 3 8 4 12 3 5-3 8-12 4-17-2-5-9-7-14-4-3 1-5 4-6 8h-1c0-5 1-9 6-18zm48 9l3 7v2l-1-1c-1-6-9-5-10 0s4 9 8 5c2-1 2 0 0 1-3 4-2 8 2 10 6 1 9-6 5-10l-2-1h1c3 3 8 2 9-2 2-7-7-10-9-4l-1 2v-2l3-7zm-73 19c-20 4-39 3-53 0l-6 11h-1l-1 3-8 13h83l-4-7-3-7-1-2-1-2-3-5zm-52 1c0 1 25 5 52 1l1 2c-23 5-56 0-55 0zm0 5c2 0 5 1 6 3l2 3 2-3 7-2c3 0 6 2 9 6 0-3 10-11 18 0 0-3 5-9 11-5l1 2c-4-3-10-1-12 3v2c2 3-3 3-1 0v-1c-2-2-5-5-8-5s-7 3-8 4v4c-2 1-3 0-2-1l-1-3c-1-2-5-4-7-4-5 0-9 3-8 6l-2 1v-2-1c-4-6-11-4-12-3 1-3 3-4 5-4zm-4 4c2 0 4 2 4 3 1-1 4-3 6 0-5 0-5 5-1 5-2 5 5 5 5 1 5 0 5-6 0-6 2-2 4-1 7 1 1-1 5-2 7 0-5 0-5 5-1 5-1 4 6 6 5 0 5 0 4-6 0-5 0-2 5-2 7 0 1-2 3-3 7 0-5-1-5 5 0 5-1 4 6 4 5-1 5-1 2-6-2-5 2-2 5-1 6 0 3-4 6-1 6-1-6-1-5 8 1 5 0 1 1 3 3 3l3 6H63l5-7s3 0 3-3c5 2 6-4 2-5l1-1zm122 1v3h2l7 15-6 10h-3v3h9v-3h-3l9-12v12h-3v3h9v-3h-3v-25h3v-3h-9v3h3v7l-4 5-5-12h3v-3zm-125 2l-1 1 1-1zm65 1v0z"/></svg>