<svg xmlns="http://www.w3.org/2000/svg" width="224.2" height="312.8"><rect y="-2435" x="6927.6" height="311.8" width="223.2" rx="10.6" ry="10.6" fill="#fff" stroke="#000" transform="translate(-6927 2435)"/><path d="M31 289V26h163v262zM90 69c-6-1-6 5-1 5 4 0 6-8 4-11l-3 6zm-38 33l-7 3v5l7-8zm48 157l-3-2h2c5 3 9 2 16 0l1 1c-3 5-12 3-16 1zm-3-6c-1-2 0-1 1 0 4 4 10 5 14 1l-2 1c-4 1-8 0-12-3l-2-2h3l2-1 7-1 2 1-3-3-1-1v-1l7 6v1l1 2 1 2h-1l-2 1c-5 3-11 1-15-3zm12 0v-3c-2-1-3-2-4 0l-2 2 2 1v-3h2l1 3h1zm-6-3l-2 1 1 1 1-1 1-1h-1zm8 2v-2h-1c-1-1-1-1 0 0v2h1zm-76-49l5-2v-1-2l-5 2v3zm0 4h2l3-1c2-1 2 0 1-2v-1-1c-1 0-5 1-6 3v2zm99 37l-1 2v6l1 2v-1l1-1 2-6h2l1-1c2-2 1-4-1-4s-5 3-5 3zm8-1c0 2-2 4-4 3l-2 1-2 9v8l19 22h39v-46l-11-11v-17l-37 17c3 9-6 10-8 5-2 1-3 10-3 10h1l2-3c3-1 6 0 6 2zm-32-1c-1-1 0-3 1-4h7v3l-4-1c-3-2-4 0-2 2 1 2-1 1-2 0zm-65-28c1-1 1-3-1-3s-2 2-1 3h-1l-1-2-5 1c-2 2 0 4 1 4 2-1 6-1 8-3zm-10-3l1 1 4-1c2-1 2-1 1-2v-1l-1-1-3 1-2 1v2zm13 14l1-3h-2v2l-1 1h2zm5-10c20-22 32-51 10-91-2-1-3 3-3 3l-3 2c15 25 12 54-5 75v1c0 3 0 3 2 1v1l-2 1c0 2 2 5 1 7zm-1-7l-1-3v-2l-1-4-3-2-1 1v8s-1 0 0 0l1-1v2 6l-1 3v7c0 1 0 0 0 0l2-2h2l2-5v-8zm9 15l1-2-4-4c-1-1-1 0-2 1l-1 2 4 3h2zm6-6l-5-5-2 2a32 32 0 005 5l2-2zm4-4l-1-2-5-4-1 3 5 5 2-2zm5-4l-1-1a520 520 0 01-7-5c-1 1-1 1 2 4l4 4 2-2zm-32-3l-2 1c-2 1 1 4 3 2l-1-3zm36-1l-3-4-5-4-1 2 4 5 3 2 2-1zm-36 0l1-3c-2-1-3 0-3 1 0 2 1 2 2 2zm40-5l-9-9-1 2v1a251 251 0 009 8l1-2zm-41-1v-1l-2 1c0 2 2 2 2 0zm7-65l2-6h5l1-5 6-1v-6h5v-6l5-2-1-5 5-1v-6l-2-2-1 1v5l-5 1 1 6-5 1v6h-5v5l-5 1-1 5-5 1-2 4h-3v3zm59 96h1l3 1h2l5-1 2 1 2-2c1-1 1 2 1 2 0 1 0 3-1 2h-7l-3 1h-3l-1-1-1-3zm4-1l1-1h7v1h-8zm2-4l-3-1h9l-1 1h-5zm35-4h2l-1-6 5-1-1-5 5-2v-5l5-1v-5l5-1 1-5h5l1-5h4v-2h-6l-1 5h-5l-1 5h-5l-1 6-4 1v6l-5 1v5l-4 2v5zm32-120l-1 2c1 2 3 2 3 0l-1-1 1-1 1 2v1l4-1c2-1 3-2 2-3 0-1-1-2-3-1l-6 2zM95 226c7-5 11-7 20-8-4-1-4-3-5-4-11 1-17 4-22 7l7 5zm38-6c-3-3-7-4-11-5l-3 3c-1 0 9 0 14 2zm32-32c-21-33-7-62 8-81l1-1v-6a72 72 0 00-12 92c2-1 4-2 3-4zm4-2c-4-6-23-38 6-74v-3l-1-1c-12 18-30 41-8 80zm-17-61l1-2-3-4-6-5-2 2 4 4 6 5zm4-8l-1-2-7-5-1 1v1l7 7c1 1 2-1 2-2zm2-3l1-2-3-4c-3-3-3-3-4-2l-1 1 6 6 1 1zm26 0c1-2 0-3-2-3v2l2 1zm3-1l4-2v-2h-2l-5 2 1 1c0 2 0 2 2 1zm-3-4v-3c-2 0-4 2-2 3h2zm4-1c2 0 3-1 3-2l1-2h-3l-5 2c2 1 2 1 2 3l2-1zm-25-1l-6-6-2 2 6 6 2-2zm3-4l1-1v-1l-3-3-2-2-2 2 5 5h1zm7-7l-2-2c-5-2-5-2-6-1l-1 1 2 2 4 3 3-3zm6-2l1-4h-1l-1 4h1zm-48 96l2-1 6-5-1-1-3 2-5 4 1 1zm-1 16l9-6v-2l-2 1-7 5-1 1 1 1zm3 1l6-4v-2h-1l-6 5h-1l2 1zm2 1l4-2v-2l-5 4h1zm4 1v-1h-1l-2 1h3zm0 1c-1 0 0 1 0 0zm-13-5l3-4c4-4 3-8 0-12l10-15v-8h1v45l4 3h-1c1 0-10-7-17-9zm4-2l9-6v-1h-1l-4 2-4 3-2 3 2-1zm3-5l6-4v-2l-6 4-1 2h1zm1-4c5-4 5-3 5-5l-2 1-3 2-2 2v1l2-1zm0-3l5-4v-1l-7 5h-1l1 1 2-1zm-2-5l5-4 2-2-3 1-3 2-1 3c0 1 0 0 0 0zm6-7l1-2c0-1-1-1-2 1l-1 2 2-1zm-5-10h-1l-1 2h1l1-2zm-7 10l-1-2h-2l1 2 1 1 1-1zm-26 24l-1-1-1 1 1 1c1 0 2 0 1-1zm4-1l-3-2-1 1 2 3c1-1 3 0 2-2zm3 1l-4-5-1 1 3 3 1 1h1zm7-1c0-1 0-2-2-3a160 160 0 01-5-5l-1 1 6 7 2 1v-1zm-5-10l-1 1 6 7 1-1c0-2 0-3-2-4-1-1-3-4-4-3zm10-4l-3-3-1 1v1l1 1 2 1 1-1zm-1-5l-1 1 2 3h2v-1l-3-3zm4 1l-2-3-1 1 1 2 2 1v-1zm2-2l-1-2h-2l2 3 1-1zm-3 5l-1 1c-5 4-5 10-6 15-8 0-21 3-21 3l44-43c-4 3-4 8-6 10l-10 14zm-23 17h-1v1l1-1zm13-1l-2-4-4-3-1 1 1 1 2 3 2 2h2zm4-9l1-1-4-3c-1-1-2 0-1 1l2 3 2 1v-1zm1-3l1-1-1-1c-2-2-2-2-3-1l1 2 2 1zm12-14v-1l-1-1h-1l-1 1 1 1h2zm1-2v-2h-1v2h1zm2-2v-1l-1-1v2h1zm-33 93c9 1 18 1 35-1v-6c-5 4-12 1-13-3l2-13 1-4-5-2v-1l3 1c3 0 3 1 3 2l-1 4-1 4h1l2-1c2-2 3-2 1 0l-2 2h7c1 1 1 1 1-2l-2-14c-3-7-7-13-15-13-8 1-14 4-20 8 4 8-1 14-3 15l3 13 3 11zm37-194l-6-23c-13-1-23-2-35 1v5h1c5-3 11-1 11 6v7c-1 3-2 6-1 7l2 2c2 0 2 1 3 2l-1 1-3-2-3-2v-2l1-6h-1l-4 3 2-2 2-3-1 1-5-1h-2c-1 7 0 14 3 20 3 5 8 12 17 10 8-1 17-8 17-8-4-7 0-13 3-16zM67 266c-4-4-14-8-20-10l-1 1v13l-12 11v5h25l17-24 1-1c-3-13-8-23-11-28 0 0-4 3-8-1-2-2-1-6 1-8l-7-4-2 2-1 4-2 1-1-1v16c9 3 18 11 21 24zm38-165l3-3-14-3c3 3 7 4 11 6zm-15-8c5 1 11 5 18 4-7-3-12-10-14-23 0 3-1 8-3 9-2-9-11-4-8 3-9 6-20 10-30 15 0 0-1 4-8 11-2-8 0-19-1-26L32 75v6l2 1-1 122v77l12-11v-15l21 9c1 0-4-15-21-22v-16-11l-10 3s-3-18 0-21h8c2 2 1 0 3 0 1-1 4 1 4 1 16-19 15-49 3-66l-9 7v-10c15-10 32-38 31-38l6 7-15 22 9 19 2 2-1 2c3 12 4 25 1 36-1 3 1 5 2 7l-1-1c-1-1-2 0-2 2l1 2 8 7c2 2 2 2 3 1l1-1 1-1 27-26-27 27-18 18-4 5h0c-3 0-5 4-7 5-6 4-2 11 4 9l1-1c4 7 9 19 12 30h-1l-16 24h90c-7-6-12-14-18-20-9 3-36 2-36 1l-6-25c7-6 7-16-4-21 8-6 16-8 23-8 3 6 9 6 11 1 0 0 11 3 14 6l-16-2c5 2 10 7 11 13l3 9s1-8 3-7c4 7 10 2 7-5l29-13 9-11s12-66 12-88l-1-81v-7h-24l-17 25-1 1c3 10 6 19 11 28 6-5 12 4 7 8v2l8 4 2-6 2-1c1 0 1 1 1-8v-8c-9-4-20-13-20-24 5 4 16 9 19 9 1 1 1-1 1-2v3c-4-1-7-1-19-8 2 10 12 18 19 22v10l1 17 5-2c2-1 5 0 5 1v18l-7 1-2-1c-2-3-2-1-2 2l-4-1c-18 20-17 44-5 65l9-5v8c-13 10-30 37-29 37l-6-7 5-7v-2l9-12-10-19v-4c-6-26 0-38 0-39l-1-1 1-1v-2l-8-9c-2-2-2-2-3-1l-2 1-40 40-1-1 63-62h-3v-1l6-1c2-2 7-5 7-8 0-6-5-7-8-4-5-8-9-19-11-28l-1-2 17-25H76l17 20s25-3 36 0l7 24c-6 6-8 16 3 21l-1 2 1-1-7-5c-7 5-13 8-19 9l4 4h-1l-3-4c-3-1-4 0-6 1l-2 2c-6-1-12-4-15-8zm-1 59l3-2c0-2 0-5 2-7l7-8c3-3 4-6 3-7 4-1 7-4 7-9l1-7s24-1 41-17l1 1c-7 6-13 11-21 14l-43 43zm5-5v-1l-1 1h1zm2-2v-1h-2c0 1 1 2 2 1zm2-2l1-1-2-1-1 1 1 1h1zm2-4h-2l1 2h1v-2zm2 0v-2h-2v1l1 1h1zm2-2v-2h-2v2h2zm3-3l-3-2v1l1 2h1l1-1zm1-1c1-1 1-1-1-4h-2l1 3 2 1zm3-3l-2-3h-2v1l3 3 1-1zm2-2v-1l-2-2h-1v2l2 2 1-1zm2-2v-1l-3-4-1 2v1l1 1c3 2 2 2 3 1zm2-2l1-1-6-6v2l4 5h1zm2-2l1-1-1-1-2-2-5-5v2l6 7h1zm2-2l1-1-1-2-3-2-2-2c-2-1-2 0 0 2a108 108 0 015 5zm2-2c1-1 1-1-2-4l-2-1h-1l4 5h1zm2-2l1-1-2-2-1-1-1 1 2 2 1 1zm2-2v-2h-1v1l1 1zm2-2v-1h-1l1 1zm-34 6l-8 5v2l8-5v-2zm4-6h-1l-9 7-2 1 1 2 8-6 3-4zm-1 14l-11 15v-9l-1-29-2-2-1-1s12 9 18 10c-4 6-8 9-3 16zm-10 12c1-1 0 0 0 0zm2-3l3-3-5 3c0 2-1 2 1 1l1-1zm1-4l6-4-1-1-8 6v1l3-2zm-2-1a514 514 0 006-6l-7 5v1h1zm0-3l6-4v-2l-8 5v1h2zm0-10l7-5 2-2-1-1-10 8v1l2-1zm-1-2l3-3 5-3h-2l-7 5v1h1zm2-4l3-3-1-1-1 1-4 3v1l3-1zm0-3l1-1-1-1-2 1-1 1v2l3-2zm-2-2l1-1h-2v1h1zm18-15l3-1h4c1 1 2 2 0 1h-7zm-1-5h9l-4 2c-3 0-6-1-5-2zm-14-4c1-1 3-9 2-11-1 3-3 4-5 3-4 0-4-5-1-5h3l2-6 1-7v-6L74 28H33v47l12 11v18l38-18c-2-2-2-6 1-8 4-2 7 1 7 4zm10 4l1-3 1-1h7l3-1 3 1 1-1v4l-5-1-3 1h-6l-2 1zm12-9l-3-1c-2 0-3-1-2-2s3 0 4 1l2 1c3 0 2-3 1-3l-1-2 2 1c1 1 2 4 0 5h-3zm6-8c-2 0-4-2-4-3-1-1-2-2-1-3l-1-1-1-2h2c5-3 9-3 13 0l3 2-2-1c-4-2-9-3-12-1l-1 1 6-1 7 2c3 1 3 2 2 3h-3c-2 2-5 2-7 2h-3l2 1 1 2-1-1zm-1-4l-1-2-1 1-1 1h3zm4 0l1-2-1 1-1 1c-1 0-2 0-2-2h-1l1 3 3-1zm3 0l1-1-1-1h-1l-1 2h2zm4-8c-6-2-10-2-15 0h-2c-1-1 1-2 2-3h11l5 4-1-1zm61 59l1-2-1-1-4 2v1l1 1 3-1zm-5 1v-2l-2 1c-1 1 2 2 2 1zm-4 1v-8l-2 1 1-3v-3-3-3-2l1-3c0-2 0-2-1-1-1 2-1 2-3 1l-3 9 1 6 1 3v3c1 1 2 4 5 3zm-48 138v-3s-5 2-7 1l-3-1 4 2h5s1 0 0 0c-3 3-7 1-9 0-1-2-2-2-2 0 4 7 12 3 12 1zm-3-4h1l-1-3c-1-1-3-1-4 1l-1 2h1c0-1 2-5 4 0zm-5-3l-3 1v1l2 1 1-3zm8 2l-2-2s-1 0 0 0v2l1 1 1-1zm48-41v-5l-7 9zM100 66l2-3-1 1-2 1-1-1-1-1v1c0 2 1 3 3 2zm3-1l2-1-2-1c0 1-2 2-1 3l1-1zm-7 0v-1h-2l2 1zm7-4h2c-2-1-8-3-11 0v1c3-2 6-2 9-1zm-6-5l-3 2c0 2 0 2 2 1 3-1 5 0 7 1h2c-1-4-6-4-8-4z" fill="#131f67"/><path d="M192 35l-11 11v13c2 2-16-6-19-8 0 8 12 18 19 22l1 27 4-2 5-1c2-18 3-42 1-62zm-61 14l-1 1 6 22c-4 4-8 11-2 17l5 4c1 1-11 9-23 9-3-8-8-3-11-1l-15-7v-2c1 2 17 6 17 4 0 0-7-4-9-9l-4-12c-1 3-1 6-3 8-1-9-13-4-7 4l-9 4c6 9 16 15 26 19-2 3-9 9-3 16l-9 13c-3 4-2 7-2 7l14-18c0 1 10 0 10-9l1-7c16 1 29-5 41-17l3 1h2l3-1 4-3 4-4-1-5c-3-4-6 0-8 0-5-8-10-29-11-30-3 0-13-4-18-4zM93 63l-3 7c-6-3-6 4-1 4 4-1 6-7 4-11zM33 76l2 122c4-1 6-2 10 0l-1-69c14-11 24-22 31-38l-21 10-9 11-1-26zm47 25l-5 6 1 31c0 2 2 3 0 5 1 0 5 27 1 37l1 4 8 8h7l18-19-28-26c-2-6-3-46-3-46zm101 86c-20 15-29 36-29 36l1 1 19-9 9-12v25l12 11s2-119-3-122c-4 1-7 3-8-2-2 24 0 48-1 72zm-44-67l-21 21c4 7 22 22 30 30l1 43 4-5-1-32v-5c-3-12-4-26 0-39l-13-13zm2 49l-13 18s-8 0-10 5l-2 11c-16 0-27 5-40 16l-8 1-4 3c-4 2-4 4-4 7 0 4 8 4 8 1l8 19 4 13c3 0 18 5 19 3 1-1-6-24-6-24 12-10-1-21-4-21 7-5 15-8 23-8 2 5 8 7 11 1l14 6-16-2c11 6 11 14 13 22l4-8c3 9 10 3 7-4l9-4c1 0-13-16-26-18l2-4c3-3 6-7 1-13l10-15v-5zM34 219v56l-1 5 12-11v-14c3 0 22 9 21 9 1-1-9-20-21-22l-1-26c-4 0-10 3-10 3zm103 23c-3 1-5 7-4 11h1c1-2 1-6 3-8 6 2 5-6 0-3z" fill="#e2cf00"/><path d="M198 302v-3h4v-19-5c2-8 16-8 16 0v5h-3v-2c0-8-9-6-10-1v22h4v3zM62 286l15-23c18 6 37 6 56 3l17 20h-7l-11-15-11 2 5 13h-6l-4-13-22-1-2 14h-5l3-15-12-2-11 17zm17-14l7 2-3 12H71zm17 14l2-10 15 1 3 9zm30-10l5-1 8 11h-10zm40 8c-5-10-13-20-21-29 8-8 15-17 21-28 6 11 13 21 21 29-9 8-15 18-21 28zm43-19l-10-13c4-3 7-8 10-12l9 13-9 12zM53 209c24-28 21-58 7-83l3-3c16 26 19 63-10 91v-5zm98-32l9 18-9 12zM45 196v-57l8-6c10 12 15 43-2 65l-6-2zm117-4c-22-38-11-66 11-91l1 6a67 67 0 00-8 82zm-41-5l11-14 3-8 2-1 2 2-1 4-12 18-5-1zm55-69l5 2v58l-8 5c-3 1-21-37 3-65zm-86 25l11-15 3 1c1 0 0 4-3 6-3 3-9 11-9 14 0 2-3 3-3 3l-2-2 3-7zm-24-23l9-10v28zM38 57c8-8 15-18 22-28 5 10 12 20 20 29L59 86c-6-10-12-20-21-29zM7 60l9-12c3 4 6 9 10 12L16 73c-3-5-5-9-9-13zm86-12L77 28h8l10 14 11-1-4-13h5l3 13 21 1 4-14h5l-5 15 13 3 12-18h6l-17 24c-21-7-39-6-56-4zM6 38v-5h4v2c0 7 8 6 9 2l1-4V14h-4v-4h11v4h-4v24c-4 8-16 6-17 0zm134 2l4-12h11l-8 13zm-27-3l-2-9h20l-3 10-15-1zm-23-9h8l3 9-5 1z" fill="#d40000"/><path d="M74 27l19 22c4-1 24-3 36-1l7 24-2 1c-7 9-2 18 5 20-1 3-14 9-23 9 0 0-2-6-7-4-2 0-3 2-4 3-5-1-11-5-15-8 7 3 13 5 19 4l-2-1-2-2c-3-2-5-4-7-8l-4-12c-1 2-1 7-3 8l-1-1c-1-4-6-4-7-1v6l-3 2-2 1-25 12s-4 7-8 10l-1-25-12-11v6l1 1v158h-1v4h1v37l12-12 1-13c10 2 20 9 20 9-2-12-14-21-21-23v-27l-8 2-2-1v-3-1-3-2l-1-2 1-2v-3c2-3 6-3 8-2 1 1 2 2 2 0 1-3 4 0 5 1 13-17 19-40 3-68l-8 7v-9c11-7 24-24 30-37l6 6-1 2h-1c-3 7-13 20-13 20 3 7 7 13 9 20h1l1 2h-2c5 14 5 27 2 39v3a355 355 0 0013 12l4-4 36-36 2 2-61 61h-3l-3 1-3 2-1 1c-8 5-1 14 5 9 5 9 9 20 11 30h-1l-17 25h7l1-1h-5l15-22c20 5 38 6 56 3l16 19h-6l1 1h8l-19-22c-6 2-24 3-35 2l-7-25c11-8 3-19-4-21 0 0 14-9 23-8 3 7 9 6 11 1 4 1 10 3 14 6l-17-2c10 4 12 12 14 20l1 3c0-3 1-6 3-8 1 2 3 5 6 3 2-1 2-3 2-6v-1l2-2v1l4-2 22-11 9-11v24l2 2a567 567 0 0011 10V75h-1v-3h1v-8l-1-1v-2h1V38h-1v-5l-12 13v13c-6-1-13-5-17-7l-3-1c1 7 12 19 20 22v28l3-2v1l3-1v-1h3c2 1 3 2 2 4v5 2c1 2 0 2-1 3l1 3-1 2h-1-3c-1 1-3 2-4 0v-3h-2v5l-5-2a56 56 0 00-4 67l9-6v8c-11 9-22 21-29 37l-5-6 1-3 3-5v-1l9-13a75 75 0 01-10-63h-1l-12-12-3 2-1 1-18 17v1l-18 18-2-2 61-60 1-1h3l2-1 1-1 4-4 2-4c0-2-1-5-4-5l-3 1h-2c-4-8-8-19-10-29l1-1 1-2 13-19 2-3 1-1h-7l-1 1h6l-17 23c-30-9-55-3-55-3L77 28h8l-1-1zm15 0l1 1h8l-1-1zm13 1h5v-1h-5zm9-1v1h20v-1zm24 1h5v-1h-5zm10-1l-1 1h11l1-1zm47 9v3l-8 9v12l-2-1V47zm-2 7v11l2 6h-3l-1-3-1-11zm-58 6l1 3a137 137 0 0015 42l-3-1-1-2a87 87 0 01-8-19l-2-8-4-13v-2h2zm1 1h2v2a161 161 0 0013 37l3 5 1 1h-2l-2-3-1-1-9-19-5-22zm5 1l1 2 5 18 3 9c1 4 3 8 6 11l4 4 1 1h-1l-5-2c-4-5-7-13-10-19-4-11-7-25-6-25l2 1zm2 0l1 1a207 207 0 0011 34 18 18 0 009 8v1h-1l-3-1c-4-3-7-8-8-11a124 124 0 01-9-32zm52 10v3c-9 0-18-3-25-7 6 7 11 14 25 15v3c-18-1-30-19-30-23 8 4 21 10 30 9zm-49-9h1c1 6 2 12 5 18 3 8 4 14 10 20 2 2 5 2 5 2l-1 1h-3c-3-1-6-5-7-7l-6-16a86 86 0 01-4-18zm3 1l1 1v2a102 102 0 0013 32c2 2 5 2 6 0v-4l-3 1h1c2 0 3 3 0 4-3 0-5-4-2-6 4-3 8 1 7 5-1 2-3 3-5 3-3 0-4 0-7-5-4-5-5-10-7-16-3-6-4-12-5-17h1zm2 1h2c4 15 7 23 10 29v2l-1-1a156 156 0 01-11-29v-1zm27 8a1 1 0 110 2l-1-1 1-1zm-82 0l-3 7c-2 0-3-1-4 1-2 1-1 3 1 4h3c4-2 5-8 3-12zm86 1a1 1 0 110 3 1 1 0 010-3zm-86 1c1 3 0 7-2 8-1 2-3 2-5 1-1-1 0-4 2-4l2 2 3-7zm91 1a2 2 0 110 3 2 2 0 010-3zm6 1a2 2 0 110 3 2 2 0 010-3zm-55 8h1v2c-5 7-1 14 7 15l1 2h-4c-3-1-6-3-7-5-2-3-2-5-1-9l2-5h1zm49 0v25l-2 1V74zm5 1c4 8 4 16 1 22l-3 1c4-10 2-16 0-23zM33 77l11 10v111l-1-1-1-109-9-8zm103 0l1 1v2c-1 3 0 7 4 8l1 1v1h-2c-5-2-7-8-4-12v-1zm-42 0l1 4c0 2-3 5-5 6s-5 0-6-1c-5-5 4-11 6-5 1 3-4 4-4 1l1-1v-1c-2 1-2 3-1 4 1 2 4 1 5-1l3-6zm44 4l3 5h-2l-2-3 1-2zm-42 2v2c0 2-4 4-7 5h-1l-2-1v-1h2c3 0 5-2 7-5h1zm-60 1l3 3-2 14c0 4 3 7 3 11 0 2 0 5-2 7l-1 7c0 6 4 12 3 17l-3 11c1 5 4 9 3 14l-2 11 2 12v6h-3c1-6-1-11-2-17-1-4 1-8 2-12l-1-8c-3-6-2-10 0-15 2-6-1-10-2-16 0-4 0-7 2-11 1-4 2-7 0-10s-2-4-2-7l2-17zm61 2l1 1c0 1-2 3-5 4l-3 1v-1l6-4 1-1zm-14 1c8 9 16 13 22 15l-1 2c-8-3-16-7-22-16zm15 2l1 1v1l-2 2h-4l1-1a21 21 0 004-3zm-20 1c6 9 14 14 24 18l-1 2c-9-3-18-9-26-19zm22 1l1 1v1l-3 2h-2l1-2 2-1 1-1zm-26 0c0 1-9 22-29 37v-4c11-8 19-20 25-30zm28 2l1 1-1 1-2 1v-2l2-1zm38 1h4c1 1-16 12-28 11v-2c11 0 24-8 24-9zm-35 1l2 1h-4v-1h2zm-37-1c-6 12-14 22-23 29v-6c9-6 15-18 15-18zm82 1l2 1a50 50 0 01-39 15l1-2c21 2 35-14 36-14zm3 1l-13 10-48 49-2-3 2-2c0-5 5-10 9-14 1-2 4-6 3-7v-1c6-1 7-5 7-9l1-7c24 2 40-16 41-16zm-42 2c3 0 5 2 5 5l-3 6-2 8-2-2-3 3v-4l3-3 4-7c0-2-2-4-4-2-2 1-2 3-3 9l-1 3-2 3-1-5-3 1c3-3 5-7 6-11 2-2 3-4 6-4zm-53 1s-5 10-13 17v-4c5-4 9-11 9-11zm116 0c-17 18-39 50-12 94l4-4c-22-40-6-61 8-82zm-90 2c5 3 10 7 16 9 0 1-9 9-3 16l-1 2-9 12v9l-3-2zm89 1v5c-24 30-22 57-8 82l-2 3c-23-40-9-70 10-90zm-61 3l-6 8 1-7 2-3c2-2 4 0 3 2zm-33-3l1 40-4-3v-31zm-4 8v27l-8-17 8-10zm27 9l1-2c2-2 2-2 2 1v2l4-3 1 3c0 3-1 6-4 7-8 3-14-6-8-12l3-2 1 6zm80-3l2 3v108l8 8v3l-10-10V116zm8 1v12l2 8-2 7-1 5 2 9c1 4 1 8-1 13l-1 5 3 11-2 10-1 6 1 4 2 9-1 6c-2 3-1 6 0 10l-3-3v-8l1-6-2-7v-10l2-6-2-10v-6l1-8c1-4 1-7-1-11l-1-9 2-4v-10c-2-6-2-10-1-16zm-9 3v57l-8 6a55 55 0 014-65l4 2zm-121 6c14 27 16 54-8 83v7c5-4 43-41 11-94zm74-2h7v6l-2 3v-3l-1-2v6h-1c-1 2-1 1-1 0v-3l-1 3v3l-2 1v-2-2l-1 3v3l-2 1v-3-1l-1 3v3l-1 1c-1 1-1 1-1-2l-1-2v6l-1 1-1 1v-7h-8l3-2h2l3-1h-4l1-1v-1h5c2 0 1-1-1-1h-3l3-2h3c2 0 3 0 2-1h-2c-3 0-3 0-1-2l1-1 2 1 3-1h-4l2-2h2l3-1h-4l1-2h1zm-71 0c20 32 13 68-9 90l-1-5c21-25 25-52 8-83zm37 4c-3 6-9 11-11 15l-1 2-1-2 1-2c3-6 6-9 10-14zm1 1h3c0 2-1 4-3 5l-5 7c-3 3-5 7-4 8l-3 3-2-2c2-8 9-14 14-21zm40 3h8v2l-1 3v3l-1-2v-2l-1 2v4c-2 2-2 1-2-1v-2c-1-1-1 1-1 3v3l-2 1v-2-2 3l-1 2-1 2-1-3v-1l-1 3v3h-2v-3 3l-1 2v1l-1 1-1-2v-2c0-2 0-2-3-2-5 0-5 0-3-1 1-2 1-2 4-1l2-1h1-2c-3 0-3 0-2-2h7l-3-1h-2l1-1v-1h3l3-1h-4l1-2h3l3-1h-4l1-2h6c1-1 0-1-2-1s-3 0-1-1zm-88 1c13 24 11 46-2 64l-6-1v-57zm94 9v3h-2l1-2 1-1zm-70 1h2l1 7 5 1-2 2h-4l-2-10zm67 3l3 1v3a122 122 0 00-1 8v-2l-1-2v5l-1 1-1-1v-2 5l-1 1h-1l-1-6h-7l1-2h6l-2-1h-2l1-2h1a231 231 0 013 0c-3-1-3-1-2-2l1-1h4l-3-1 3-2zm-58 5v4l1 3h3c3 1 4 1 2 2h-6l2 1 2 1v1h-7l3 1h2l-2 2h-3c-2 0-3 0-2 1h1l2 1-2 2h-2l-1-1a7479 7479 0 003-14h1v3a207 207 0 010-5l2-1 1-1zm-7 2h3l-2 3-1-3zm68 6v3h-4zm-53 0l1 4v3h1l4 1c2 0 2 0 0 1v1h-6 1l2 1c2 0 2 0 1 1l-1 1h-6 2l2 1v1l-1 1h-6 2c3 0 3 1 2 2l-3 1h-4 1l4 1-2 2h-6 2l3 1-1 1-1 1-7-1v-4l1-3v1l1 2v-2-4l2-1v3c0 1 0 2 1 1v-5l1-1 1-1v3l1 2v-5-2l2-1v2l1 2v-6l1-1h1v2l1 2v-2-2-2l2-2zm41 2l1 2-1 2c-2 1-2 2-2 3l-1 3-1 3-10 12v1l-1 1-1 1c-2 1-3 3-3 5l-1 5-1 4c-9 0-18 1-26 6zm12 2l2 9h-2v-7h-7l3-3zm-10 1l2 2c-2 6-7 13-13 21h-4l8-12a21 21 0 004-8l3-3zm2 2l4 3v45c-5-4-10-7-16-9l1-2 1-2c4-4 3-9 0-12l10-15v-4-4zm-37 2l1 3v3l3 1h3l-1 1v1h-6 2l2 1-1 1-1 1h-5l1 1h3v1l-1 1h-4c-3 0-3 0 0 0a59 59 0 012 1l-2 2h-1-4l1 1h3l-1 2h-6l2 1h2l-1 2h-7l-1-7 1-1c1-1 2-1 2 2l1 2-1-3v-3l2-2 1 3v-4l1-1c1-1 1-1 1 2l1 2v-6l1-1 1-1 1 3v-4l1-1 1-1v2l1 3v-3l1-5h1zm37 1v4l-10 16-2-2 12-18zm-59 1v2l-1 1v-1l1-2zm67 4l3 3 1 32-3 5zm4 4l8 17-8 11zm-28 10c4 0 8 3 8 6 1 3-1 7-4 8h-1l-1-6-3 3s-1 1 0 0v-4l-5 5v-2a8 8 0 016-10zm58-1v4c-7 6-17 17-25 31l-3 2c5-14 17-27 28-37zm0 6v5c-6 6-11 12-16 20l-7 3c-1 0 13-21 23-28zm-60 5v1l-1 3c-2 3-6 6-6 9-1 2 1 4 2 4 4-1 5-8 5-12v-2l3-3 1 6 2-1c-6 9-4 9-8 13-3 3-9 0-8-6 2-3 4-7 4-10l1-2 1 3 4-3zm60 2v4l-9 10-5 3c3-6 9-12 14-17zm-61 3v5c-1 2-2 7-5 6-2-2 1-6 2-7l3-4zm-6 1l-2 2c-12 1-24 5-34 14l-3-1c11-11 25-16 39-15zm12 2c14 4 20 11 26 18l-2 1c-6-7-13-13-25-17zm-15 4l-1 3c-8 0-16 3-24 8h-3c8-7 18-10 28-11zm35 17l-3 1c-7-9-13-12-21-14l1-3c10 3 17 8 23 16zM44 216v25h-1l-1-25zm-4 1c-3 13-1 16 1 23h-3c-3-8-3-14-1-22zm84 2v1h-1l-2-1h3zm3 0l2 1-2 1-3 1 1-2 2-1zm-55 1l3 2 3 5 5 11c4 9 6 18 8 26l-1 1h-1l-1-7-5-16-6-13-5-8-1-1h1zm58 0c1 0 3 0 2 1l-5 4-1-2 4-3zm-54 0l3 2 9 21 6 22-1 1-1-1a179 179 0 00-14-41l-3-4h1zm-9 0l7 4a126 126 0 0114 39v2l-2-2-1-5c-3-10-6-20-11-29-6-9-7-7-8-8l1-1zm15 2c5 9 7 15 8 20 3 8 6 14 7 24h-2l-1-2-5-21c-2-7-5-14-9-20l-1-2 3 1zm52-1h1l1 1-2 1-4 2-1 2-1-2c1-1 4-4 6-4zm-69 1c4 0 7 5 9 8l2 4c4 8 7 18 8 24 1 3 2 5 1 6h-1l-1-2-7-23-6-12c-1-2-4-3-6-4l-1-1h2zm26 20v-2-1c6-6 1-14-6-15h-1l-2-2c10-2 19 11 9 20zm46-19l2 2h-3l-6 4h-1v-1c2-3 6-5 8-5zm-75 1c3 0 6 1 7 3 6 8 12 27 14 36h-2v-1a189 189 0 00-13-33c-2-3-5-4-6-3-2 1-3 4-1 5 1 1 3 0 4-1v-1h-1c0 2-2 2-3 1s0-4 4-3c1 1 2 2 1 4l-4 2c-2 0-4-1-4-4 0-2 1-4 3-5h1zm23 1c7 0 10 8 6 13 0 1-1 1-1-1v-1c3-3 0-9-5-9l-1-2h1zm55 1l2 1h-2c-3 0-5 1-8 5-1 2-1 2-2 0l1-3c3-3 6-4 9-3zm3 3c2 2 1 7-2 7-3 1-6-2-4-4 1-2 3-2 4-1l-1 3h1v-3l-3-1c-2 1-4 3-5 6v2h-1v-2l1-4c2-3 6-6 10-3zm-57-1c3 0 5 4 4 7h-1l-1-2-2-3v-2zm-18 2a111 111 0 0112 31v1h-2c-3-9-5-18-11-29v-1-2h1zm-34 11c14 1 25 7 31 23-2-1-13-10-31-11v-2c13 0 26 7 26 7-5-11-18-15-26-15zm100 3l-1 2v8h1l1-1 2-7h2c2 0 3-3 2-5-3-1-6 1-7 3zm3 1l-3 6c0 2 0 3-1 0 0-3 0-5 2-7l3-3c3 0 3 2 3 4h-4zm-99 1a2 2 0 110 4 2 2 0 010-4zm6 1a2 2 0 110 3 2 2 0 010-3zm5 2l1 1a1 1 0 11-2 0l1-1zm4 2a1 1 0 110 3 1 1 0 010-3zm-14 4l1 5v9l-3 3v-8l-1-5 1-5zm5 1v13l-10 10v-2l9-9v-13zm27 30l-1 1h12l1-1zm16 0l-1 1h6v-1h-5zm9 0v1h20v-1zm24 0v1h6v-1zm9 0l1 1h9v-1z"/></svg>