<svg xmlns="http://www.w3.org/2000/svg" width="224.2" height="312.8"><rect ry="10.6" rx="10.6" width="223.2" height="311.8" x="7150.8" y="-2435" fill="#fff" stroke="#000" transform="translate(-7150 2435)"/><path d="M141 27s25 36 34 43l11-2c-6-13-9-26-6-41zm14 58c-18 5-35 9-54 1l-21 20c0 1 27 12 28 11l-7 21 15 4 7-23s21-2 31-5c8-3 15-5 22-10-14-9-21-19-21-19zM50 91c-7-4-12 4-7 8-1 3-1 6 2 8h6v4l-4-2c-5-2-12-3-12-2 0 0-1 1 4 5 2 1 9-1 14 1 3 1 6 3 8 2l5-6c0-3-13 3-12 3v-5c5 0 10-4 5-10 4-4-2-13-9-6zm22 23l-40 38 1 18 26 23c2-24 16-48 29-59 1-4-13-19-16-20zm93 4c-2 16-4 36-30 59 5 8 10 16 18 19 1 2 24-24 38-35v-17zm-116 4l-2 4 3-2 1-3c0-4-1-1-2 1zm-10 10c-1 3-2 7-1 9 4 3 5-7 4-8l-3-1zm142 44l1 3c1 1 2 0 3-3l1-6c-3-2-4 5-5 6zm-69-4h-3c-8 2-7 15-8 20-24 4-31 5-37 8-10 4-13 7-16 9 2 0 20 17 21 19-1-3 35-11 55-3 2 1 20-18 19-20 3-4-22-9-26-11-2-14 18-22 4-21l-9-1zm63 16l-1 1-2 2 1 1 3-2zm-18 17c3-1 12-5 13-4l-1 4c-1 0-10 1-5 11-3 7 4 11 9 6 11 4 10-7 8-9 1-3-1-9-2-9 0 0 10 3 9 1l-3-4-11-1-9-3c-5 1-9 5-8 8zM51 241l-13 3s4 10 5 19c2 11 1 22 1 22l38 1z" fill="#e2cf00"/><path d="M206 302c-5-2-5-5-5-9l1-18-1-3h-3v-4l4 1 2 1c2-2 7-2 9 0s2 3 3 7v3h2v3h-2a129 129 0 00-1 13c-1 5-5 7-9 6zm6-7v-12l-8-6 1 17c0 5 5 6 7 1zm0-17c1-1 0-5-1-5-3-2-5 0-5 0l5 5h1zm-127 7c-17-23-32-46-53-71v-20l64 91zm59-31c8-9 14-18 20-28 6 11 14 20 22 28-8 8-15 17-21 29-5-9-11-18-21-29zm55-3l9-12 10 13-10 12-9-13zm-80-4l-3-15 12-11c-1 10-3 18-9 26zm55-34c3 3-1 5-3 3-3-3 1-6 3-3zM60 191c-2 1 3-30 18-46 9 25-7 40-18 46zm72 0l-9-3 4-14s10 3 9 5l-4 12zm-45-5l7-15 14-1-9 15zm59-20c-8-15 1-39 18-45-1 15-5 31-18 45zm-51-4l-1-16 35 5 1 14zm25-23l5-12c2 0 12-2 11 0-3 4-4 10-6 13-2 0-10 2-10-1zm-22-3c-4-1-9-1-11-4l4-11 11 3zm30-109h8l56 72v19l-64-91zM50 99c-2-2 2-5 3-2 1 2-2 3-3 2zm46-8c0-12 8-27 8-26 0 0 1 11 3 15L96 91zm-37-4c-6-13-14-23-21-29 9-8 15-18 22-28 5 10 12 20 20 29-8 7-15 19-21 28zM6 61l10-13c3 5 5 9 9 13l-9 13c-3-5-6-10-10-13zm0-28v-3h3v-5l1-11c4-5 11-4 13 2l1 4a344 344 0 01-1 19l4 1v4h-4l-2-1s-3 2-5 1c-8 0-7-10-7-11zm6 1v3c1 3 3 4 5 4l1-1-6-6zm8-15c-1-5-6-6-7-2l-1 7v6c4 1 6 3 8 6V19z" fill="#d40000"/><path d="M31 25l-1 262h163V25zm149 2c-2 14-2 26 6 41l-15 3 1 1 16-3c-5-9-10-28-6-42h9v70l1 21-16-22-17-25-7-9-9-13-12-16-3-6zm-63 0c6 11 18 14 20 15l2 2c-13-2-20-10-23-16l-1-1zm-6 0c-1 4-4 6-6 9v-3l4-6zm3 0v1c-1 5-9 13-9 11v-2l8-10zm-6 0l-3 4v-4zm19 0l3 4v1l-2-1-4-4zm-8 0h2c4 7 11 11 14 11l1 3c-6-2-14-8-17-14zm4 0l8 7 2 3c-4-2-9-6-11-10zm-8 2l1 2c-3 5-6 9-11 12v-2c5-4 8-8 10-12zm2 3c3 4 11 12 23 14l2 2 1 4c0 6 2 12 3 17l-2 4c-9 12-27 23-36 8-3-5-3-14-3-20l2-1h5c2-1 2 0 0 2l-1 1 2-1c1-1 1-1 1 1-3 5-3 5 0 7l2 1c2 2 1 1 1 0-1-2 0-3 1-2 2 1 3 2 4 1 1 0 2-2 1-4 0-1-2-3-2-1 2 0 3 2 2 3s-3 1-5-1c-1-1-3 0-3 1h-2l1-4c5-10 1-19-7-16h-2v-3c5-4 10-9 12-13zm5 17c-1 1-1 3 2 1l5-1 10 3 2 1c-2-4-14-10-19-4zm-12 0l4 3c-2-1-5-2-9 0v-1c0-1 1-2 3-2h2zm14 3c-1 1-2 2-3 1v2l1 2v1a20 20 0 007 6l-1-1c-2-2-4-4-2-3 3 1 6-1 9-1l2-1c2 0 3-1 1-2-4-6-8-7-14-4zm11 1l2 2-2-1c-3-1-6-2-10 0-2 0-2-1 2-2 2-1 6-1 8 1zm-26-1c2 0 4 0 6 2h-10v-1l4-1zm36 0v4c0 2 0 2-1-1l1-3zm2 3l1 2-1 3-1 2v1-5l1-3zm-20 0l1 1c0 4 3 3 4 0 1 1 0 3-1 3h-4v-3-1zm-2 1h1l1 3-3-2 1-1zm-13 0c0 2-1 3-3 4-2 0-3-2-3-3h1c1 2 3 2 4 1l1-2zm22 0v1c2 0 2 0 1 1-2 1-2 1-2-1l1-1zm-20 1v1h-1l1-1zm-9 0h1l1 2h-2v-2zm44 1l1 2c-2 2-2 7-2 8l-2-3 3-7zm2 3l1 2-1 1-1 8v2l-2-4c1-2 1-9 3-9zm2 3l1 1-1 3v12l-1-1-1-4 1-10c0-1 0-2 1-1zm2 3l1 1v7c-1 1 0 10 1 10l-3-3V70l1-3zm2 3l1 1 1 2-1 1 2 14c0 2-1 1-1 0l-2-2a237 237 0 010-16zm-5 10l-3 1-3-9 1-2 5 10zm-33-6l-3-1-1 1h-2l-1 1v2l-1 1h2c1-2 2-1 3-1h8c2 1 2 1 2-1l-1-3-1 1h-5zm27 0l3 7h-2l-3-6s1-2 2-1zm13 0h1l1 3 2 14 1 2-3-3-2-9v-7zm-15 2l2 6-1 1-1-3-1-3 1-1zm18 2h1l1 2v2l3 12v2c0 1-2-1-2-3l-2-8-1-7zm-20 2l1 3c-1 1-1 0-2-2v-2c1-2 1 0 1 1zm-20-1h-6c-2 0-1 1 1 1h5v-1zm18 2l1 3h-2l-1-3h2zm-33 0l2 3-2-1h-1l1-2zm31 3l-1 1-1-2 1-1 1 2zm27-2l2 1 1 5 3 11h-1l-2-4-3-11v-2zm-30 2v1h-2l2-1zm34 3l2 3 1 3 3 9-2-1-2-6-1-5-1-3zM59 97c4 6 3 9-5 10v5l12-4c-1 3-3 8-9 7-6-5-13-2-18-4-3-1-4-4-4-5l10 1c-3-2-2-6-2-8-4-5-1-11 5-9h2c6-5 12 0 9 7zm115-3l2 2 5 9-4-2-3-9zM49 112l2 1-5 1 1-2h2zm110 1a45 45 0 00-20 60l-2 1c-11-22-2-47 16-59l3-2-10 3-4 2-5 8h-12v1l11-1c-11 20-8 38-1 51l4-3a240 240 0 017-7c-8-16 0-38 19-47l-1-2-1-1c-20 9-28 32-20 52l-1 2c-11-21 0-48 20-55l-1-1a42 42 0 00-20 56l-1 1c-12-23 0-49 20-58l-1-1zm-114 0v2c1 1 0 1 0 0-2 0-1 1 1 2v2l-1 1h1l2-1 1 1c-1 2-2 2-3 1-2 0-5-4-5-5 0-2 2-3 4-3zm8 1a65 65 0 017 2c2 2 2 6 2 6l-14 14-2-1c-2-1-3-2-1-3l1-1v-2l1-2 1-2v-2l1-2 1-1 1-1v3l1-1v2l1 3c1 3 1 3 0 0v-3l1-2-1-2h-2l-1-2c-2 0-4-2-3-2h1l3-1 1-1 1 1zm97 2a48 48 0 00-13 59l-2 1c-12-22-4-46 11-60zm-110 2l2 1 2 3v1c-1 1 0 2-1 1-3-1-5-5-3-6zm-1 4l1 1 3 3v2l-6-3 2-3zm8 0l1 2-1 1c-2 1-3 0-2-2l2-1zm-1 4v2h-2l2-2zm-8 1l4 2v3c-1 0-4-1-5-3l1-2zm5 3h2l-1 2-1-1v-1zm45 5c4 3 16 36-10 60l-6 2c26-20 22-49 15-61h-1v1c7 12 10 46-20 62v1l13-4c13-12 24-39 10-62l-1 1zm-4 3v1c11 22 0 49-21 59h2c23-12 30-39 20-60zm-2 2v1c9 18 2 44-20 54 0 2 0 1 1 1 25-13 28-39 20-56zm-2 2l-2 3c7 19-2 38-18 46 0 1-1 3 1 3 20-9 28-33 19-52zm101 38h2c2 1 4 2 3 3h-3l-1-2c0-1 0-1 0 0l-2 1c-2-1-1-2 1-2zm-27 16c-6-3-13-9-17-16l-5 11-9-3v1l9 2-1 3-2 4 15 7-3 4-1 1 20-19 4 5v1c-5 1-9 4-7 9h1c3-3 11-5 11-5v3c-8 0-7 6-7 10l-2 2 2 1c0 4 3 10 10 7l2 2 1-3c4 2 10-2 7-9l2-2-2-1c0-2 0-4-2-6l6 1c1 0 3 0 2-1v-1c-1-3-4-4-8-4h-1l1-1 4-3 1-1 1-3v-2l1-4v-2c0-2-1-4-3-5v1l-3-1c-1 0 1-10 5-9v0l-1-1-3 2-2 5c0 2 0 1-2 0l-1-1 1-1 13-12v123h-72v-16c2-11-1-35-3-37l6-5-1-1-2 2-6-1c-2-2-4-4-7-4-4-1-12 2-12 2-13 1-23 6-23 6l-1-2c-7-9-13-14-22-20l11-7-27-27v-23l39-37s12 9 16 16l4-10 10 3 1-1-10-3 2-6v-2c-5-1-9-4-13-6l2-2v-2l-20 19c0-3-1-4-3-6l3-1c3-2 4-6 4-8l-8 3-4 2-1-3s5 0 7-3v-6l1-1 1-1-2-2c0-6-4-8-8-7l-2-1-1-1-1 1c-1 2-1 1-3 2-4 0-6 3-5 7l-1 3-1 1 2 1 1 1 1 5-9-2c1 5 4 7 8 7l-1 1-1 2-1 2-1 3-1 2-1 2 1 3c-1 2 0 3 1 4v2l-1 3v5l3 1c3-1 3-5 3-7v-1l4 2-14 14V27h71v33l1 10c0 3 0 6 2 9l-2 3-2 3 1-1c1-1 2 0 5 1l3 1c5 5 12 3 17 1l4-1c9-1 19-5 19-5l1 2h1c5 10 22 21 22 21l-11 6c8 10 26 27 26 27v24l-14 13-1 2 3 2-1 1v2l-1 2-1 1v2l-1 2v2c-1 2-3 3-2 1l1-2-1 1c-1 1-1 0-1-2l-1-3v1l-1 4v3l3 1 1 1 3 1c2 3 1 4-3 3l2-1v-1l-4 1c-5 0-9-4-10-6l-1-2c1 0 0 0 0 0l-1 1-6 5zm25-13v2h-2l2-2zm3 1l3 1c1 1 2 4 0 4l-1-1-3-2c-2 0-2-1-1-1l1-1h1zm-2 3l1 1c3 1 4 4 3 5 0 1-1 1-2-1l-3-2c-2-1-2-1 0-1l1-1v-1zm1 6c2 2 2 4 1 4l-3 1v-2l-1-1c-2-1-4-2-1-2l2-1c1-1 2 1 2 1zm-149 1l64 91H44v-6a77 77 0 00-7-34l2-1 11-3h4l-2-2-17 4c7 12 9 27 7 42h-9l-1-71zm11 14l4 2 1 3 1 4-6-9zm7 4l2 3 3 9h-1l-2-3-1-1-3-9c0-2 2 0 2 1zm1 0l3 2c1 4 5 14 4 16l-2-3c0-5-2-9-3-12l-2-3zm5 4l2 2 1 2c1 5 3 9 2 13l-2-2-2-13-1-2zm4 4l1 1c2 1 2 1 2 3l1 8v6l-2-4-1-11-1-3zm118-16c5 3 3 9 2 9 6 8-3 12-6 9-5 5-13 1-10-6 0 0-6-11 6-11v-4c-5-1-10 3-12 4l-1 1 1-5 8-4c4 2 9 4 13 3l6 2 3 3c-3 1-10-1-10-1zm-2-16l2-2v2h-1l-1 1v-1zm-1 3h3l-2 1h-1v-1zM37 141l2-9 4 1-1 6c-1 2-3 4-5 2zm27 82l2 3v4l1 11h-1l-1-4a83 83 0 00-1-14zm42 1c4 1 8 4 10 9s2 12 3 19c0 2-1 1-3 0h-5c-1 1-1-1 2-3l1-1-1 1c-3 2-4 2-3 0l1-3c1-2 0-3-3-5h-1c1 1-1 2-2 1-2-1-4 0-5 1s0 3 1 4c2 1 2 0 1-1-2-1-2-3 0-3l4 2c1 1 2 0 2-1h2v3l-1 4v11c3 4 7 4 10 1l-1 4c-3 3-6 4-11 13-2-2-10-12-23-14l-3-4-4-20 3-4c6-7 16-15 26-14zm-17 4l-1-1h2l-1 1zm-22-1l2 3v3a1362 1362 0 00-1 10v-6l-1-10zm19 0h1v2h-2l1-2zm-2 1l1 3v1l-2-1-1-2 2-1zm30 0l4 1-2 2-2-3zm-33 1l2 4-1 1-1-2-1-3h1zm-3 1l3 5v1c-1 1-1 1-3-3l-1-3h1zm-2 1l1 2 2 5h-1l-3-5v-2h1zm28 1s-3 1-1 1h1l5-1h-5zm-30 0v1c3 5 4 6 3 7l-1 1-3-5-1-4h2zm-3 2l1 7-1 6-1-1v-1-12l1 1zm27 1l1 2c0 1 0 2 1 1h10c1 1 2 0 1-1l1-2c0-2-1-2-2-1l-2 1h-5l-4-1-1-1v2zm-25 3l2 2-2 10h-1v-2l1-7v-3zm3 6v6l-1 3-1-1v-2a120 120 0 002-6zm18 3l2 3c1 0 3 3 1 2-3-1-7 0-10 2h-1c-2 0-3 0-2 1l1 1v1c4 5 11 6 15 2h2v-2l-1-1v-2l-1-2-6-5zm-17 3v6l-1-2 1-4zm17 3l2 1 1 2h-1c-1-3-3-3-4-1h-1c1-2 1-2 3-2zm20 0l2 1 1 1-1 1c-1-4-3-2-3 0h-1v-2l2-1zm-17 0l2 1v1h-2v-2zm-6 0v2c-1 1-3 0-2-1l2-1zm21 0l-1 2h-2l1-1 2-1zm6 1l1 1h-1l-1-1h1zm-40 2l1 3-1-2v-1zm9 1l2 1 9 1 2-1-3 2c-2 1-5 1-9-2l-1-1zm31 1c1 1-1 1-1 2l-6-1h-1c-1-1 0-2 1-1h7zm-35 1l1 1c4 5 13 7 18 3 2-2 2-3-1-1H91l-6-2-2-1zm27 0l2 1h5c2-1 2 0 0 1-2 2-5 1-7 0v-2zm-26 8c8 1 19 8 24 18h-3c-4-8-11-13-19-16l-2-2zm34 2v2c-1 1-6 5-10 11l-1-1c3-6 7-9 11-12zm-31 2c2 0 14 6 17 14h-2c-4-6-9-10-13-11l-2-3zm31 2v3c-3 3-5 5-6 9h-3v-2l9-10zm-17 12h-2l-7-7-2-3s9 6 11 10zm17-7v2l-4 5h-2c2-4 6-8 6-7zm-24 3l3 4h-1l-1-3-1-1zm24 1v3h-2l2-3z" fill="#131f67"/><path d="M154 26l-27 1 65 92V99l-21-27c5-2 11-3 16-3-6-13-9-26-7-42l-26-1zm25 1v20c-3-1-4 1-5 1 0-1-3-4-5-1-2 2-1 4 2 6-3 0-5-3-6-6-2-2-4-3-4-8l1 1c-1 3 3 4 4 3 2-1 2-3 1-5 1 0 4-1 3-4-1-4-5-4-7-1-2-2-4-2-6 1 0 2 1 4 3 4-4 1-6-5-6-8l-2-3h27zm-51 0h8l55 72v18zm19 0h1c1 6 5 11 11 13 1 5 3 12 12 15 0 6 4 11 8 14h-2c-5-4-7-10-7-13l-1-1c-5-1-9-5-10-10l-1-4-2-1c-3-1-7-5-8-10l-1-3zm-5 0h5v1a18 18 0 0010 13c1 8 5 12 12 15v1c1 4 3 9 7 12l-1 1zm21 8a2 2 0 110 3 2 2 0 010-3zm-58 9c0 1-24 21-22 59l-1 1h1l-3 2 14 7-2 4 10 3-1 4-10-4c-2 3-2 7-3 10h-1c-6-9-17-16-16-15l-39 37v23l27 27-12 7 9 6c6 4 10 11 14 15 18-9 36-9 52-3l-6 5c5 12 3 36 3 37 9-10 23-31 22-60l4-4s-10-6-15-7l2-3-10-4 1-2 10 2 3-11c4 6 9 12 18 17l38-37v-24l-26-26 11-6-4-2v-1h-1l-10-8v-1l-5-5-2-2v-1l-1-2c-6 3-29 11-51 3l4-5-2-8V44zm69 6a2 2 0 110 4 2 2 0 010-4zm6 2l5 16h-2c-2-1-4-3-5-6-5 0-7-8-5-7 0 3 2 4 4 4 2-1 3-3 1-6l2-1zm-76 14c0 6 1 10 3 14L96 90c1-9 3-17 8-24zm51 19l1 2c-15 9-41 9-57 2l2-2c14 6 37 7 54-2zM55 88l-5 2c-7-3-12 4-7 9-1 4-1 4 1 8l-9-1c0 5 8 7 11 6s7 1 7 1l5 2c3 1 8-3 9-7v-1l-7 2c-2 1-4 1-5 3l-1-5c11 1 7-10 6-10 2-4 0-9-5-9zm100 0l3 6-7 2-1-5zM55 88c4 0 7 4 3 9 7 6-2 13-6 8-6 5-12 0-8-6-6-5 1-13 6-8 1-2 3-3 5-3zm43 3a2 2 0 110 3 2 2 0 010-3zm-41 0l-2 2-2 2h-4s-2 0-3-2h-2l2 2 2 1 1 4-2 3-1 1c0 1 1 1 2-2l2-2h4l1 1 3 2-1-1-3-2v-5l1-1 2-3zm45 0l6 2-2 6-6-2zm41 1l2 6-6 2-1-6zm5 1a2 2 0 110 3 2 2 0 010-3zm13 0l5 4-5 3-3-6zm-47 1l6 1v6l-7-1zm-20 0l6 3-2 7-7-3zm16 1c3 0 2 3 0 3a2 2 0 110-3zm21 0l1 6h-6v-6zm5 0a2 2 0 110 4 2 2 0 010-4zm-85 1a2 2 0 110 3 2 2 0 010-3zm72 0a2 2 0 110 3 2 2 0 010-3zm28 0l3 7-7 2-2-7zm5 0a2 2 0 110 4 2 2 0 010-4zm12 2l4 3-2 1-2-4zm-62 1l7 1-1 7-7-2zm-18 0l3 2-2 5-6-3zm15 1a2 2 0 110 3 2 2 0 010-3zm36 0l1 7-7 1v-7zm27 0a2 2 0 110 3 2 2 0 010-3zm-5 0l2 6-7 3-2-6zm-18 1a2 2 0 110 3 2 2 0 010-3zm-24 0h7v7h-7zm54 1l2 1a93 93 0 01-94 3l2-2c26 16 65 14 90-2zm-57 0a2 2 0 110 4 2 2 0 010-4zm14 1a2 2 0 110 3 2 2 0 010-3zm-32 1l7 2-1 5-8-2zm-5 0a2 2 0 110 3 2 2 0 010-3zm54 1l2 6-8 2-1-6zm5 1a2 2 0 110 3 2 2 0 010-3zm-101 1v4l-4-3 4-1zm-16 0h3c3 0 9 1 10 3l2 1h-1l-7-2h-1l2 1 4 1-1 1c-6 0-10-2-11-5zm77 0l7 1-1 6-7-1zm-59 0v5h-2v-5h2zm80 1v6h-7v-6zm-25 0a2 2 0 110 3 2 2 0 010-3zm-42 0c0 5-7 8-9 6-1 0-1-1 1-1l5-2h-2l-5 2h-2c-1-1 2-3 5-3l7-2zm71 1a2 2 0 110 3 2 2 0 010-3zm-15 1a2 2 0 110 3 2 2 0 010-3zm36 3l33 32v15l-38 36c-6-4-12-10-17-19l1-1-2 1c-7-11-10-33 2-51l-12 1 2-4 13-1 5-6h3a94 94 0 0010-3zm-87 3s11 6 17 18a82 82 0 00-29 58l-27-26 1-15zm42 1l-8 21-3-1 3-2-2-2 3-1-1-3 3-1-2-2 3-2-2-2 3-2-1-1zm1 0l1 1-1 1 2 1v-2h2l-8 20h-1v-2h-1l-1 2h-1l8-21zm5 1l3 2-3 1 1 3-3 1 2 2-4 1 2 3-3 1 2 3-3 1 2 2-2 1h-2l8-21zm-69 1l-1 2-1 1v3l1-3 1-2v1c0 2 0 3 1 1v-3h-1zm20 1l-35 32v13l12 12 9 9c3-19 10-37 28-53-3-4-7-10-14-13zm95 0c-21 10-26 29-19 47 10-12 17-24 19-47zm-74 1l10 3-4 12-8-3-1-2zm73 0c-1 16-7 32-18 44-5-13-2-34 18-44zm-51 0v2h1l1-1zm-1 4l-1 1 2 1v-2zm55 0c-3 22-15 43-27 53 4 7 8 11 13 14l36-34v-11zm-94 6l-1 1 2-1c7-3 4 2 1 4l-1 1h1c4 1 4 4-1 3h-1v2c2 4-1 4-3 2l-1-2v2c-2 6-6 5-4-1v-1l-2 1c-5 2-5 0-1-4l2-1-2-1c-4 0-5-3 1-3l2 1-1-3c-1-4 2-5 4-1l1 1v-3c3-5 4 0 4 3zm63-4c-3 4-5 8-6 13h-9c0-4 2-8 4-13h11zm-25 2l-1 1 1 1 1-2zm-72 3l-2 8 1 2c1 0 3 0 4-2l1-5v-2l-4-1zm70 0v1l1 1 1-2zm62 0l4 2 3 2a4 4 0 002 7l3-1 4 5c-2 1-5-2-6-3 0 3-2 9-4 8-3 0 0-9 0-9-2 2-9 4-9 2 1-4 7-5 8-6-3-1-7-6-5-7zm-132 1h3v1l-1 4-3 1v-1l1-5zm30 0a4 4 0 100 7 4 4 0 000-7zm0 1a3 3 0 110 5 3 3 0 010-5zm20 0c9 16 8 37-3 52h12l-2 2-12 2-5 5v1l-13 3-6-6v-2c29-14 20-44 18-46l11-11zm80 3a2 2 0 110 4 2 2 0 010-4zm9 0l4 4a3 3 0 11-4-4zm-121 1a2 2 0 110 4 2 2 0 010-4zm-16 1c1 0 1 1-1 2h-2c-1-1 1-3 3-2zm16 5l-13 12 1-6c4 1 6-1 5-5l7-1zm21 1c6 17 0 35-18 45 1-16 7-31 18-45zm16 2c11 3 22 4 34 4l1 14c-10-3-21-4-34-4 1-5 0-10-1-14zm76 2l-11 13v-7c4 1 5-1 5-5l6-1zm-105 1l-1 5c-2 0-4 1-4 6h-7zm119 1a2 2 0 110 4 2 2 0 010-4zm-129 1a2 2 0 110 4 2 2 0 010-4zm124 2l-1 7c-3 0-6 1-5 6h-8zm-11 1a2 2 0 110 4 2 2 0 010-4zm-129 2a2 2 0 110 4 2 2 0 010-4zm7 2c3 1 2 7 1 9 0 0 8-4 8-2 0 3-6 6-6 6s4 4 4 6-1 1-4-1l-2-2a4 4 0 10-6-6l-2-2-2-2c2-2 5 2 6 2-1-1 1-7 3-8zm-3 8zm115-3l1 5-1 2 2-1c3-2 5 0 3 2l-3 2 4 1 1 2-4 1h-2l1 2-1 4c-2 0-3-2-4-4l-2 5c-1 1-2 0-2-2l1-3c-8 2-8-1-2-4-3-2-6-4 1-4 0 0-2-4 0-5l3 2 2-3 2-2zm-7 8zm34-2l-3 2-1 7 3 1 1-1 2-8c0-1-1-2-2-1zm-141-1a3 3 0 012 5l-4-4 2-1zm142 2l-2 1h-1c0-1 2-3 3-1zm-19-1a2 2 0 110 4 2 2 0 010-4zm-112 0a2 2 0 110 4 2 2 0 010-4zm100 1a4 4 0 100 8 4 4 0 000-8zm-52 1l-5 13H87c5-7 5-9 7-13zm6 0l3 1-7 20h-2l-1-1 3-2-3-2 4-1-2-3 4-1-2-3 3-1-2-3 4-1zm46 0a3 3 0 110 5 3 3 0 010-5zm-42 1h1v1l2 1v-2h1c-1 7-7 21-7 21l-1-1v-1h-1l-1 1h-1l7-20zm72 0v3l-1 3-3-1 1-4 3-1zm-66 0l3 1-3 2 2 2-4 2 3 2-4 1 2 3-3 1 2 3-4 1 1 2-1 1h-2l8-21zm8 2l7 2 1 3-3 10-9-2zm-14 1v2h1l1-1zm-1 4l-1 2h2l1-1zm-1 4l-1 2h2v-2zm65 3l-1 1v1l-1 2c-1 1-2 1-1-1l1-1-1 2-1 1 2 2v-2l2-2h1l-1-3zm-67 1v2h1l1-2zm-78 5v20l21 27-3 1h-1l-11 3c5 12 9 27 6 42h53zm112 12l-1 2a92 92 0 00-91 3l-3-1c30-19 66-19 95-4zM32 195l63 90h-8l-55-72zm134 2l-3 1c-4 1-6 4-6 7h2c4-3 4-3 10-4h1l-1 4c-8 0-8 7-5 10-1 2-3 7 3 10l6-2c6 2 13-2 8-10 2-3 0-6-2-8h3l6 1c0-4-3-5-9-6-5 1-13-3-13-3zm-69 0h1v7h-7l-1-6 7-1zm9 0l7 1-1 6-7-1zm60 0v1l-5 3h1l3-1 3-1h1l-3 2-4 2-3 1h-2c0-3 4-6 9-7zm-65 1a2 2 0 110 4 2 2 0 010-4zm-18 1l1 5-7 2-2-6 8-1zm88 0c2 0 2 5 1 5-2 1-2-1-2-4l1-1zm-84 0a2 2 0 110 4 2 2 0 010-4zm33 1l8 2-2 6-7-2zm-4 0a2 2 0 110 3 2 2 0 010-3zm63 0c4 0 8 2 8 5l-10-2-3-2h1l6 2h3l-3-1-3-1h-1l2-1zm-5 2l1 1-2 1 1-2zm-102 0a2 2 0 110 4 2 2 0 010-4zm-4 1l1 6-6 2-2-5c2-2 4-2 7-3zm30 1h7l-1 6h-6zm-7 0v7h-6l-1-6zm39 0a2 2 0 110 3 2 2 0 010-3zm46 0c4 0 7 5 3 9 7 5 0 13-6 8-7 8-12-2-8-5-5-8 1-13 7-10l4-2zm-64 0l7 2-2 6-6-1zm23 1l6 3-5 4-3-1zm-41 0a2 2 0 110 4 2 2 0 010-4zm14 1a2 2 0 010 3c-2 0-2-3 0-3zm-31 0l1 7-6 2-2-6zm4 1a2 2 0 110 3 2 2 0 010-3zm94 3l-1 1-4 1-2-2-2-1 1 1 2 2 1 4-1 1-2 4 3-2 1-2h4l2 1 2 1-1-2-3-1v-4l2-2 1-2c-1-1-3 2-3 2zm-49-2l6 3-2 6-6-2zm-68 1a2 2 0 110 3 2 2 0 010-3zm63 0a2 2 0 110 3 2 2 0 010-3zm-67 0l2 5-5-3zm51 1l6 1-1 6h-6zm-7 0v7h-6l-1-6zm-30 2a2 2 0 110 3 2 2 0 010-3zm-5 0l2 6-3 2-5-5zm22 0l1 6-6 1-2-6zm87 0a2 2 0 110 5 2 2 0 010-5zm-71 0a2 2 0 110 3 2 2 0 010-3zm17 1l6 2-2 5-6-2zm-29 0a2 2 0 110 3 2 2 0 010-3zm24 0a2 2 0 110 4 2 2 0 010-4zm-41 2l2 6-6 2-3-5zm4 1a2 2 0 110 3 2 2 0 010-3zm23 1c10 0 19 2 26 5l-2 2c-23-8-39-4-55 3l-1-2c11-5 22-8 32-8zm27 0a2 2 0 110 4 2 2 0 010-4zm-62 4l1 2-2-2h1zm63 1c0 2-1 15-8 24l-2-14 10-10zm-78 20l32 43h-4c0-3-1-7-3-9s-3-4-6-5c-2-1-2 0-2-2-1-7-7-12-12-14 0-4-2-9-7-13zm-3 1c3 2 6 3 8 11l1 2c5 2 10 8 10 13 0 2 1 2 2 3l7 5 3 8h-2c-1-8-6-11-12-13 1-11-8-14-11-15 0-8-5-11-8-14h2zm-5 1c2 1 4 4 4 6 3 0 7 4 6 7h-1c1-7-9-3-5 1l-2 2c-1-7-3-11-5-16h3zm8 14a2 2 0 110 3 2 2 0 010-3zm8 7c4 1 6 5 5 7-2-7-9-3-6 2-4 1-3 5-2 6 1 2 5 2 6-1 4 5 9-1 5-5 3 1 4 6 3 8 2 0 4 3 4 3H44s2-11 0-19c2 0 3 0 5-2 4 3 6 1 6-2l-2-3c2-1 5 4 4 6zm4 8a2 2 0 110 3 2 2 0 010-3z"/></svg>