<svg xmlns="http://www.w3.org/2000/svg" width="224.2" height="312.8"><rect y="-2435" x="7374.1" height="311.8" width="223.2" rx="10.6" ry="10.6" fill="#fff" stroke="#000" transform="translate(-7374 2435)"/><path d="M30 25l1 263h163l-1-262zm48 2h85l-13 24-1 2v5c1 2-1 3-2 3l-5 1c-9 0-28-8-35-9-5-2-12-1-18-1l-1-2c-1-8-7-15-10-23zm87 1h26v4l-11 12-2 2v10c-7-4-9-9-10-14-13 9-14 30 0 40 0-4 4-13 10-14v36l-7-8-17 1c3-5 3-8 1-13-3-6-8-22-7-22 2-1 2-2 2-4v-1c2-2 0-5 0-5zm-89 0l10 18v1l1 2v2l2 2v1l1 6c1 3 1 3-1 8l-2 3c-2 5-2 7 2 9l1 3v3l1 1v2c0 2-3 5-5 7l-1-1c-2-4-9-3-9 3v2h-1l-15 9-1 1h-1c-2-4-1-9 0-11l-2-1-4 3v2l-2-2-3-6c-1-1-3-2-4 0l-1-1c-2-1-3 0-4 1l-1 2-1 4v2l-1 4 7 13-10 5V28zm116 5v85l-13-13V82 68 56c0-11-1-10 1-12zm-25 10l1 2c-6 3-12 21 0 33l-1 3c-12-12-10-28 0-38zm1 3c2 4 4 7 7 9-2 4-3 8 0 13l-7 9c-10-9-7-23 0-31zm-71 7l16 2c3 16 9 27 9 33h-2c-2-2-5-1-7 1v6l-6 6 1-3c2-2 3-5 2-5l-1 2c-3 5-6 9-7 8l2-3c3-4 3-6 3-7l-2 3-4 7-2 1-3 1 1-1 7-10v-1c-3 4-6 10-10 12l-3 1c-1 0-1-1 1-2 3-2 8-8 9-11-3 4-7 9-11 11-3 1-6 2-7 1s-1-1 1-1c5 0 10-5 13-9 1-3 0-2-2 0-3 4-9 8-12 8-4 0-6-3-6-6 0-1 1-3 4-3 3-1 6 5 2 6h-1c3-1 1-4-1-5-1 0-2 1-2 3 0 1 1 3 3 3 3 0 8-2 10-6 2-3 1-2-1 0-1 2-5 4-6 4l1-2s6-4 6-7c-1-2 0-3 2-3l5 1c1 1 1 2 1 0l-1-2-3-1-4-1-1-1v-2l-3-3c-2-1-2-1 2-10 2-4 2-5 1-8-2-4-2-6 1-7h5zm17 2l2 1 7 24 2 9c0 4-3 8-6 8-2 0-4-1-5-3s0-5 2-6c5-2 8 4 4 6-3 1-5-1-4-3h3c1 2 1 1 1 0-1-3-5-2-5 1s4 4 6 2 2-4 2-7l-6-19-3-13zm61 1l3 1v9l-2 1c-4-5-1-11-1-11zm-58 0l2 1 8 29c1 6 1 8-3 11h-2l1-1c5-4 2-12 0-19l-6-21zm-20 1h-1l-4 1c0 1 1 2 4 2 2-1 6 0 9 1l4 2c3 1 3 0 0-2-5-3-8-4-12-4zm23 0l2 1 1 3c2 8 7 18 7 28 1 3 0 6-2 8h-2c2-2 3-3 2-9 0-9-6-20-8-31zm3 2h2c2 12 13 29 6 38h-1c1-3 2-5 1-8 0-10-6-20-8-30zm4 1h1c3 12 13 31 6 37h-1c5-11-3-21-6-37zm3 1l2 1 8 26c0 4-1 7-4 9 2-4 2-9 1-14-2-7-6-15-7-22zm-31 0l-3 1v1l1-1 9 3 2 1h1l-2-2c-3-2-5-3-8-3zm34 1h2c4 17 12 28 5 34h-2c2-2 3-5 3-8l-5-15-3-11zm3 0l2 1 7 23c1 4 1 9-2 10h-1c2-3 2-6 1-10l-7-24zm11 0c1 8 5 19 7 23 2 3 1 9-2 11h-1c2-1 2-4 2-6-1-8-6-19-8-27zm-8 1h2l7 22 1 6c0 3-2 6-3 6h-1c2-3 2-7 1-12-2-7-6-15-7-22zm-45 0v1l1 1c0 2 0 3 1 2v-1l1 1-1 1-1 1v1h1l1 1 4 2c2 1 2 0 0-1l-2-2 2-1 3-1h2c3 0 3 0 1-1-3-3-8-5-10-3l-1-1h-2zm50 0c2 9 7 18 8 26 0 3 0 5-2 7h-2l2-6-1-5-7-22zm-44 3l1 1-1 1h-1l1-2zm2 0c1 1 2 1 1 2h-2v-1l1-1zm-7 8l1 2c2 2-1 3-3 2-2-2-5-2-4 0l1 1h2c3 2 7-1 5-4l-2-1zm8 4c-1 0-2 1-1 2 5 0 2 6-2 3-3-3-7-3-7-1l1 1a27 27 0 017 2c2 1 4 0 5-2 0-2 0-5-3-5zM41 95l1 1 4 8v1l1 1 1-2-1-2v-1c-2 0-4-4-3-5 1-2 3 0 6 6 2 3 2 6 0 5v1l-2 2-3 3 1-1c2-1 2-1 2 1v2l1-3 3-4v-1c0-2 1-6 2-5v1l1 1 1 3 1 2v2l-12 7-1 1-2-1-6-11c-1-3 0-4 2-2v2l1 2 1 1h1l1 1-1-2-4-8v-2c1-1 2-1 3 1v1l1 3 2 3c0 1 0 2 1 1v-2l-1-3s0-1 0 0l-2-3v-1h-1l-1-2c0-2 1-2 2-2zm72 0c2 1 4 3 7 3-6 10-14 15-21 17l1 3v-3c10-2 18-12 20-17h43c-32 30-33 73-7 109l-3 1a91 91 0 01-14-77c5-14 12-25 18-30h-35l-5 7s6-6 5-7h33a79 79 0 00-20 45l-1 2-2 3-1-4h-4c-5 20 0 44 6 59l-4 1h-4l-3 1-1 1c-5 2-10 8-10 8l-6-2c5-10 11-13 21-17l-1-5c-11 4-17 9-23 18H70c10-12 19-30 20-45l1-2 2-2 1 2s1 2 2 0c2-19 0-42-10-58l5 1c4 8 6 19 7 27v30h1c2-12 1-25-1-37l-5-19-1-2c12-1 17-5 21-11zm-32 1a2 2 0 110 3 2 2 0 010-3zm87 1l-9 10 26 34 3-2-2 1-26-33 2-2 8-7 22 21v39c0 1-14 7-24 29l-15 7 2 2c-1-1-1-2 1-2l36-15v3l-1 5-32 18-2 1c-35-51-13-90 7-109zm-112 3v3l-1-1-1-1 2-1zm21 1l1 2c-1 0-4-1-2-2zm-5 3c25 38 23 78-4 108h35c4-9 12-14 21-17l1 2c-11 4-16 10-21 18H62c16-18 24-32 25-52 1-19-4-36-19-57zm7 0l5 3v6l-7-3zm-11 2c31 48 18 81-7 109h-5l-11-10 1 61-12 12c-1 1-2-1-2-1V176l7-4 25 33-1 2c-1 0 0 0 0 0l2-2-26-34-7 4v-20c0-2 1-1 2-2a53 53 0 0019-21l3-6 1-2 15-6-7-11zm-19 1l-2 1-4 4h1l5-5zm15 2l7 9-39 16v-3l2-5zm20 4l4 3-1 5-5-2zm4 9l4 3-2 5-4-3zm-33 4l-1 4c-5 8-10 16-20 23l-1-3v-2c5-4 9-7 16-20l2-1 2 1 1-2zm21 0c-5 10-9 20-16 27l20 28c6-20 4-38-4-55zm-25 2l-1 2 2 1 1-2zm-3 0c-3 8-9 14-16 19v-12zm1 3l-1 1 2 1 1-1zm41 0l4 3-2 4-4-3zm55 2c-6 19-4 38 4 54 5-10 8-17 16-29-5-6-19-26-20-25zm-97 0l-1 2 2 1 1-2zm28 2c5 14 5 26 2 37l-14-18 12-19zm-29 0l-2 2 2 1 1-2zm-2 3l-1 1 1 1 1-1zm47 1l3 3-2 4-3-3zm-49 1l-1 1 1 2 2-2zm104 0l14 19c-5 6-9 12-12 19-4-12-6-24-2-38zm-106 2l-1 2 1 1 1-1zm34 2l-7 10 8 9c0-5 1-11-1-19zm-36 0l-1 2 1 1 1-1zm-2 2l-2 1 2 2 1-1zm56 1l3 3-3 4-3-3zm34 1h2c-3 29 3 44 8 57v1c-1 0-3 1-4-1-7-18-9-40-6-57zm-93 0l-1 1 1 2 2-1zm115 1s-1 12 1 18l7-9zm-17 2l2 3-2 3-2-3zm-99 1v1c1 0 1 0 0 0 0 1 0 1 0 0v-1zm60 2l2 4-2 3-3-3zm39 5l2 3-2 3-3-3zm59 0l1 4-1-1-2 1 1 1 2-1v2c-9 6-13 14-17 19l-2 1-1-1-1 2h-2a75 75 0 0122-27zm1 6v13l-16 6c4-7 9-14 16-19zm-4-2l-1 2 1 1 2-1zm-2 2l-1 2 1 1 1-1zm-54 1l3 3-2 4-3-3zm52 1l-2 2 2 1 1-1zm-2 3l-2 1 2 1 1-1zm-2 2l-2 1 2 2 1-2zm-47 2l4 3-2 4-4-3zm45 0l-1 2 1 1 1-2zm-2 3l-1 1 2 1 1-1zm-2 2v2l1 1 1-2zm-1 3l-1 1 2 1 1-1zm-38 1l4 2-2 5-4-3zm57 4v98h-43l-6-11c-2-4-4-5-4-8 0-2 0-3-2-4l-1-1v-4l-1-4v-6l4-10c1-3 1-3-2-5-3-1-3-1-3-3v-3-2c-1-2 1-5 3-7l3 1c3 4 9 2 9-4 0-1-1-1 1-2l16-10 1 5v4l1 3c3 0 4-1 4-3h1l4 6c1 2 3 3 5 2l1-1c2 1 3 0 3-2l1-1c2-1 1-3 1-5l1-2c0-6-6-16-6-16zm-54 4l4 2-1 6-5-2zm44 2c3 3 4 8 5 12l1 3c-1 1-1 0-1-1v-1l-1-2-1-1-1-1h-1v2c1 0 2 1 4 6 1 2 1 4-1 4l-3-4 1-2-1-1h-1v-2h-1v5c1 0 3 2 2 3v1c2-1 3 2 2 3-2 1-2 0-5-5l-2-3v-1l-1-1v1l1 2v2h1l2 4-1 2-2-2-5-7 1-3 1-2 5-4h-4c0-2-1-1-1 0l-1 3c-2 1-1 1-1 3 0 3-1 6-2 4l-2-1-1-2-1-5zm-41 7l6 2-1 6-5-2zm41 0l-1 1-4 3-1 1h1l5-4v-1zm-49 7c2 0 1 1-2 2-3 2-7 8-7 10h1c3-6 9-12 15-12 2 0 4 1 1 2-6 0-10 4-14 11 4-5 8-11 16-10 5 0 6 6 2 8s-7-2-4-5h1c-3 2 0 6 3 5 1-1 2-3 0-5-3-4-9-1-14 5v2l1-1 5-5c2-1 2-1 1 1l-1 1c-3 2-4 5-4 6v3c-2 1-7 0-8-1v1l1 2 3 1 3 1h1v1c0 2 2 3 4 4 1 1 1 2-1 6l-2 5v7c1 4 1 6-1 7-4 0-15 0-21-2-2-11-10-28-9-33 2 3 11 3 8-6l2-3c4-3 5-4 3-1l-3 7h1l1-2c2-5 5-9 8-10 1-1 1 0 0 0l-7 12h1l7-11 4-3v2l-3 3-5 8 2-2c2-3 4-7 8-10l3-1zm-87 1l8 8h16c-2 4-1 11 0 14l7 20-2 2-1 4v4l-14 25-27 1v-6l13-13v-10c8 2 10 9 11 15 13-12 13-30 0-42-2 12-11 15-11 15zm101 2h2l-1 1-1-1zm22 0l1 2-2 1 1-3zm-26 3a2 2 0 110 4 2 2 0 010-4zm-71 3h2c-3 3-3 5-2 9l8 24v1h-2v-1l-6-18c-2-5-4-12 0-15zm9 0h1l-1 6c-1 2 0 5 1 8 2 5 5 12 6 19v1h-1v-1l-7-20c-1-2-2-6-1-9l2-4zm14 0l-2 6 2 10 6 22-2-1v-1l-6-20-2-10 3-6zm2 0h2l-1 1c-3 4-2 8-1 13l7 24v1l-2-1c-1-9-5-19-7-27-2-5-1-8 1-11h1zm-19 0h2l-2 5c-1 3 0 7 2 11l6 17v1h-2v-2l-8-21v-8l2-3zm-3 0h1v1c-2 4-1 8 0 12l7 19v2h-2v-2c-1-6-7-16-8-24-1-4 0-6 2-8zm17 0l-2 5c-1 4 1 7 2 11 2 8 6 16 6 20v1l-2-1v-1l-7-22-1-7 2-6zm9 0h2l-2 1c-7 6 4 23 6 38v1l-1-1-1-2-7-23c-1-5-2-10 1-13l2-1zm-17 0h2l-2 6 1 8 6 19v1l1 1-2-1v-1l-1-1-6-19c-2-3-2-10 1-13zm22 0c2 0 4 2 5 4 0 1-1 4-3 5-3 1-7-3-4-6 2-2 5 0 4 2 0 2-2 2-3 0 0 0 0-1 0 0-2 2 3 4 4 1 1-2-1-5-4-4-3 0-4 5-2 11 2 9 7 22 7 28l-1-1c-1-8-7-21-9-31-1-5 1-8 5-9h1zm-17 0l-2 6 1 8 7 20v1h-2v-1l-7-20-1-8 2-6zm33 11c-5 0-4 6-2 7l2-1h-1c-2-1-2-3 0-4l4 1c3 2 7 3 6 0l-2-1-4-1-3-1zm-64 5c11 11 9 29 0 38l-1-3c7-7 11-20 0-33l1-2zm72 0c-3 1-4 4-2 5h1c-2-1-1-3 1-3l2 1c2 1 3 2 3 0 1-1 0-1-1-1h-1l-3-2zm-74 2c11 13 8 25 0 33-1-6-6-10-6-10 2-4 3-8-1-13 3-3 6-6 7-10zm68 5l1 1c3 2 3 2 0 2l-2 1-5 1-2-1v2l2 1c4 2 4 3 9 3l1-1 2 1v-1-2c0-1 0-2-1 0-1 1-1 1-2-1-1-1 0-2 1-1s1 0 2-1l-1-1-1-1-4-2zm1 5v2h-2l2-2zm-2 0l-1 2-1-1 2-1zm-74 1c3 3 2 9 0 11v1l-3-1v-10l3-1zm66 1c4 3 9 6 13 5l1-1-1-1-4 1-9-4zm-1 2v1c0 1 5 5 10 6 3 1 8 0 8-2l-3-1c-5 1-10-1-14-3l-1-1zm-33 2l7 1 14 4a69 69 0 0031 4c2 0 3 0 3 3l1 1 1 2c-1 2 0 2 3 8l7 13-86-1c2-6 10-17 14-26v-4c-1-2-1-4 1-4l4-1z" fill="#131f67"/><path d="M62 286l13-25c6-7 32 3 45 6h17l10 18zm-20-22v-60l3 2 1 60-13 12v-3zm8-7c3-6 0-13 0-13l7-9c7 9 9 23-1 31-2-5-6-9-6-9zm6-42l15-17-24-32c3-4 9-7 13-13l20 27c2-9 4-16 3-25-1-22-10-35-10-35-4 20-35 51-41 49v-14s20-13 25-30c0-2 15-7 15-7l-7-11 3-1c8 11 15 25 17 38 3 15 5 42-24 71zm86-37c-4-14-4-29-2-39 3-18 15-31 24-41h4l-7 6-7 11 24 32 14-3v14c-11 9-18 17-24 29l-14 6c-6-1 15-34 11-35l-20-26c-8 26 0 53 15 72l-3 2c-7-9-12-19-15-28zm-44-13c1 1 5-32-6-58l11-3 2 8-6 3 1 3c5-2 15-5 22-16l33-1c0 1-7 7-14 21-3 7-5 15-6 24 0 2-7-8-7-8 2-10 7-19 11-28h-12c-8 9-13 13-25 17 4 14 31 21 25 20a127 127 0 005 59h-4l-6 2-3-7 7-3-1-5s-15 5-23 18H69c13-14 18-27 21-45l8-1zm81-119l13-13v5l-10 10v60l-3-3zm-4 22l-7 9c-11-9-6-27 0-31 1 4 6 9 6 9-1 4-2 8 1 13zM78 27l84 1-14 26c-3 3-60-10-60-9z" fill="#e2cf00"/><path d="M197 302v-3h3l6-10-7-16h-2v-3h10v3h-4l5 13 4-5v-8h-3v-3h9v3h-3v26h3v3h-9v-3h3v-12l-8 12h2v3zm-32-18c-5-11-12-20-20-29 8-9 14-18 20-28 6 10 13 20 22 29-9 9-16 18-22 28zM33 274l-1-80 10 9v61zm165-22l10-13 9 13-9 12c-3-4-5-8-10-12zm-121 6c-2 1-1-1-1-3l-1-2c0-2 2-3 7-3 14 1 21 6 29 8s15 2 24 2l2 6c-19 4-43-10-60-8zm34-41l-6-2c3-6 7-11 14-14l3 7c-4 2-8 5-11 9zm-40-20l-6 7-25-33-8 4v-5c20-10 34-30 41-49 0 0 3 3 2 5-5 15-14 29-28 40zm25-21h26l1 9c-10 3-18 10-26 18l-12-1c4-8 10-17 11-26zm95-38l1 5c-31 15-40 49-40 49l-3-5c16-36 27-37 29-41l-24-31 5-8 26 34 6-3zm-15 46c5-9 11-15 16-19v13zM32 147v-12l16-7c-4 10-10 15-16 19zm71-11l-1-8c10-4 18-10 25-18h12s-7 11-11 27zm80-89l9-9v80l-9-9zm-77 65l-3-8c4-2 8-5 11-9l5 3c2 0-9 13-13 14zM38 58c9-10 15-19 21-29 5 11 13 20 21 29L59 86c-6-10-12-20-21-28zM16 73L7 61l9-12c3 4 6 9 10 12L16 73zm73-21l-1-1c1-1-1-4-1-4 19-6 46 10 62 7v3c0 3 1 3-2 4-11 3-23-3-34-7-9-3-16-2-24-2zM6 42v-3h3V14H6v-3h9v3h-3l1 12 8-12h-4v-3h10v3h-2l-7 10 7 15h2v3H17v-3h4l-5-12-4 5v7h3v3z" fill="#d40000"/><path d="M77 26l4 7h-1l3 5 3 5 1 3v3l1 1 2 3c8-1 16 0 25 2l16 6 8 1c7 1 12-1 10-4v-1-1c2-1 1-2 0-3l15-27zm85 2l-7 12c-4 0-5 3-5 3-5-1-4 5-1 6 0 1-5 2-7 0 4 0 5-4 1-5 5-5-5-11-5-2-5-1-5 5-1 6-2 2-7 2-9-2 4 2 6-3 2-5 5-5-5-9-5-1-4-3-7 3-1 4-1 1-7 1-9-2 5 2 5-4 1-5 4-5-7-8-5-1-4-1-6 4-2 6 0 1-7 1-9-2 5-1 3-6 0-5v-1c2-5-7-6-6 0l1 1c-3 0-4 1-4 3 1 3 2 3 4 2 1 1-5 4-8 1 4-1 2-6-2-5 0-2-2-4-4-3l-2-5zm7 69h-5c-3 3-30 28-25 64 2 16 6 30 18 46l3-2 33-19v-5l-38 15-2-2 15-7 1-1c5-12 15-22 24-29v-38l-23-22-8 8 26 34-2 2-26-34 9-10zm24 22l-1-87-13 14v59zm-2-82l-9 10v61l-2-3V46l11-12zm-92-1l-1 2c-2 2 4 6 9 5 3 0 6-2 5-4-1-1-1-2 1-2 1 0 2 1 1 2-3 3 1 7 7 7 4 0 5-1 5-4l1-2c1 0 2 2 1 3-3 3 0 7 5 7l4-1c2-1 2-2 2-3-1-2 0-3 2-3v3c-2 2-1 3 2 4h5l2-1-2 3c-5 2-9-2-9-2-5 3-10 2-13-3-2 1-9 2-14-4-5 3-10 2-15-1-3 3-6 3-10 2l-1-2s1 2 7 1c2-1 5-4 3-5v-3l3 1zm-14 3v1l-1-2 1 1zm106 0v78l-8-8V48zm-94 4l3 1h-5zm15 1l2 2-5-1zm40 1l-1 2c-1 0-1-2 1-2zm16 33c2-4 4-9 8-10-3-5-3-10-1-13l-7-10c-8 7-10 23 0 33zm0-32l1 2c-8 9-6 21 0 27l-1 2c-7-7-10-22 0-31zm-45 6c9 2 16 6 26 3v1c-7 5-19 0-28-3-14-5-25-5-32-4-1 0-2-2 0-2 14 0 12-2 34 5zm2-4l3 3-6-2zm44 1v1h-1zm-49 5c10 4 21 8 29 5l-1 2-3 1c-13 1-20-4-30-7-4-2-10-3-16-3h-9l-1-1c10-2 20-1 31 3zm50-3l1 1-1 2-2-2 2-1zm-31 0l3 3-8-1zm28 1l1 1-1 2-1-1 1-2zm5 1l2 2c-1 3-2 7 1 13l-3 2c-1-1-4-12 0-17zm-3 2v4s-3-2-2-3l2-1zm-4 2l2 1-1 2c-1 2-2 1-1-1v-2zm3 3h1v3l-3-1 2-2zm-3 3h1v2c-1 2-1 1-1-1v-1zm4 1l1 4-3-1 2-3zm-3 4l1 1 2 1-1 2-2-2v-2zm5 2v2c-2 2-3 1-2-1l2-1zm-65 32l-2 1-2 1h-4l-2 1h-2l-2 1v2a111 111 0 016 56h-8c-3 19-9 34-21 47h34c3-10 21-18 22-17l1 4s-13 1-22 18c1-1 4-1 7 2 4-6 11-9 11-9v-1h2l2-1h2l5-1c-7-20-9-38-6-58h8l4-17c2-8 5-14 9-20l7-10h-33c-4 7-13 13-19 16h-3c-1-2-1-2 1-3l5-2c7-4 11-10 14-14 1-1 0-1-2-1l-4-2-1-1c-1 3-5 7-7 8zm8-7c1 2 3 3 5 3-3 6-8 11-13 13l-3-7c7-3 8-6 11-9zm54 3c-35 32-33 73-9 106l-2 2c-23-31-28-77 8-108zm-22 4h8l-6 7h-7zm-2 0l-4 7-13 1c-8 9-16 14-25 17l-2-8s14-3 23-17zm-13 0l-3 4 3 3 3-3zm7 0l-3 4 2 3 3-3zm-15 1v5l3 1 1-4zm24 0l-3 5h4l3-5zm-45 1l3 8-2 1-3-8zm-3 2l3 7-3 1-2-8zm3 31c1 11 1 17-1 27h-2l1-18c0-13-2-26-8-39l4-1c3 10 6 21 6 31zm-34-31c11 15 19 36 18 56-1 23-10 37-26 53h-4c19-18 27-33 27-53 1-23-6-38-18-54zm-36 21v5l38-16-5-8zm90-18h-4v4h4zm38-1l25 33-7 5-23-31zm-20 2l7 1-2 4h-8zm-1 1c-4 6-9 13-11 25h-25l-1-8c11-4 19-10 25-17zm4 0l-3 2 2 2 3-1zm-29 2l-1 4 4 2v-5zm23 3h7l-3 6h-7zm17 0l24 30-3 2-23-30zm-14 1l-4 3 3 2 3-2-2-3zm-32 0l-1 4 4 1 1-4zm-6 3v4l3 1 1-4zm-32-1l-2 6h-1l-2-3 1-1c2 3 2 1 2-1zm-6 3l2 2c1 2 1 2-1 3-3 1-5 1-4-1l3-4zm9 0l2 4c-9 22-23 38-42 48l-1-4c24-13 33-28 41-48zm60 1l7 1-1 5h-8zm-72 0c-5 14-13 25-29 35v-3c18-11 25-30 25-30zm89 0c4 0 8 5 8 8-1 3 0 5 1 4 1-2 6-1 6 2 0 1-1 2-2 0s-3-2-4 0c0 2 2 4 6 5 6 2 9 6 7 9l-1 1-1-2c0-2-2-4-3-3v2c0 1 0 2-1 1-2-1-3-3-1-4s1-1-1-2c-6-2-8-5-9-12 0-3 0-4-2-5-1 0-2 2-1 3v1c-1 1-3-1-3-2l2-3-1-1c-2 1-2-2 0-2zm-13 1l-4 2 2 2 4-1zm-68 2a1 1 0 110 1 1 1 0 010-1zm7 0c7 16 9 35 4 53l-20-26c8-8 13-18 16-27zm-27 1l-18 8v13c10-7 14-14 18-21zm17 0c2 0 1 5-1 7l-2-1-2-3c-1-2-1-2 1-2l4-1zm-2 2v2l1-1-1-1zm-32 18v-12l16-6c-3 6-9 13-16 18zm135 9l-2 2-19-26 1-3zM60 130l2 4c1 1 0 1-2 2l-3-1 3-5zm71 0h7l-2 6h-7zm3 0l-3 3 2 2 4-2zm11 3l20 26c-6 7-12 16-16 27-7-16-9-32-4-53zm-80 2a1 1 0 110 2 1 1 0 010-2zm-3 1c2 0 0 4-1 6-2 1-2 0-3-2l-1-3c-1-1-1-1 1-1h4zm67 1h7l-1 9zm-73 0l2 6-6-1 1-1 1-2 2-2zm4 1l-1 1h2l-1-1zm131 0l1 5c-29 14-40 48-40 48l-2-4c13-33 31-42 41-49zm-135 6h2c0 2-2 4-4 5-1 1-1 1-1-1l-1-4v-1l4 1zm3-1a1 1 0 110 2 1 1 0 010-2zm-9 1l1 2 1 3h-6l4-5zm4 1v1l1 1 1-2h-2zm137 4l1 2-4-2v-1l3-3v2c-2 1-1 2 0 2zm-83-1h8v5h6v6h-6v5h-8v-5h-5v-6h5zm18 0c-4 20 0 41 6 58h-3c-5-13-9-33-5-58h2zm59 0a1 1 0 110 1 1 1 0 010-1zm-140 2h2l3 1c2 0 2 0 1 1 0 2-2 3-3 4l-1-1-1-4-1-1zm9 0a1 1 0 110 2 1 1 0 010-2zm134 0l2 1c2 1 2 1-1 4-2 1-3 2-3-1 0-2 0-4 2-4zm-144 1l1 5c-1 1-5 0-5-2l4-3zm141 0v4c1 2 1 2-1 1l-3-1-1-1c1-2 3-3 5-3zm-137 0l-1 2h2c1-1 1-1-1-1v-1zm136 2h-1v1h1v-1zm-75 0v5h6v-5zm69 1a1 1 0 110 1 1 1 0 010-1zm-119 0l20 26-1 3-20-27zm133 0v4c-3 1-17 12-24 29l-4 2c5-15 17-28 28-35zm-152 2l3 1 2 1-4 4-2-1 1-3v-2zm-2 0v6c-1 1-2 0-4-1s-2-1-1-2l5-3zm143 0h1c3 1 3 2 1 3l-1 2c-2 1-2 0-3-2 0-2 0-3 2-3zm-3 0v1l1 4c1 2 0 2-1 1h-4l-1-2 5-4zm-137 1v3l1-1v-1l-1-1zm6 1a1 1 0 110 1 1 1 0 010-1zm128 2h2v-1c-1-1-2 1-2 1zm-120 3c1 2 4 2 3 0l1-1c3 0 2 5-1 4v1l3 1c4 0 9 5 9 11l2 6c1 0 3-1 2-2h2c1 1 0 4-3 3-1 1 1 1 2 2 2 0 1 1 0 1 0 1-2 1-4-1l-4-8c0-3 0-4-1-3-1 3-5 2-5-1-1-2 1-3 1-1 1 2 4 2 4-1-1-2-3-3-6-4-5-1-6-3-7-6l1-4h1v3zm116-2a1 1 0 110 1 1 1 0 010-1zm-139 0l4 2v2l-4 3v-2c2-1 3-2 0-3zm142 2h2c2 0 3 0 1 2l-1 2c-1 1-2 1-3-1 0-3-1-4 1-3zm-135 0a1 1 0 110 2 1 1 0 010-2zm133 2l1 2c1 3 0 2-2 2l-4-1 1-2 2-2c2-1 2 0 2 1zm-122-1l23 30-2 3-24-31zm143 0c-12 9-17 19-17 21l17-7zm-23 1l-1 2h2l-1-2zM70 198l-5 6-25-33 6-4zm122-32v11l-15 6c5-8 10-13 15-17zm-102 1l6 8h-7zm75 1a1 1 0 110 1 1 1 0 010-1zm5 1c2 0 3 1 2 2l-2 4-3-3 1-2 2-1zm-4 3l2 2v2h-6c-1-1 0-3 2-4l2-2v2zm-127-1l26 34-2 2-26-34-5 3v17h-1v87l15-14v-59c3 3 5 6 9 8h6c15-16 24-29 26-53 1-17-4-37-19-57l-3 2 7 11-15 6c-6 12-13 24-25 30l-1 16v5zm126 1c-1 1-2 2-1 3l2-1-1-2zm-77 4h8l-2 6h-8zm72 0a1 1 0 110 1 1 1 0 010-1zm-38 0l1 9c-9 3-18 8-25 17H86s10-18 11-26zm-30 1l-4 2 3 3 3-2zm72 0h2c2 0 2 0 1 1l-2 5c-1 0-4-5-3-6h2zm-3 2v1l3 3-1 1-4 1c-1 0-2 0-1-1 0-3 2-5 3-5zm-2 5l3-1-2-2-1 3zm-73-1h7l-2 6h-7zm3 1l-3 2 3 3 3-2zm73 1h2l-2 5-2 1-2-4 1-1 3-1zm-7 0a1 1 0 110 2 1 1 0 010-2zm-32 1l1 7c-11 5-18 11-22 18H80l5-8h13c7-8 14-14 25-17zm-3 2l-1 3 3 2 1-4zm37 0l1 1 1 2h-1c-1-2-2-1-2 1l-1 1 1-4 1-1zm-73 2h7l-3 6h-7zm30 1l-1 4 4 1 1-4zm-27 0l-4 2 2 3 4-2zm22 3l-1 5h3l1-4zm-77 1l9 8 1 61-9 9zm48 2h7l-3 5h-2l3-2-2-3-3 2 2 3h-5zm45 1l3 8-3 1-2-8 2-1zm-22 1v5h4v-4zm19 1l2 7-2 1-2-7 2-1zm-3 1l2 8-11 8-4-2c3-7 8-11 13-14zm-43 2h8l-5 8h-9zm22 0v5l4 2v-4zm-5 1l-2 3 3 3 2-3zm-6 0l-3 3 3 4 3-4zm-42 3v59l-12 12v-3l10-10-1-60zm32-2l-3 5h4l3-5zm-20 29c-2 5-8 10-8 10 3 4 3 10 0 13l6 6 1 3v1c12-12 7-26 1-33zm0 1c11 14 4 27 0 31l-1-1c8-10 5-22 0-28zm-2 3l1 1h-1zm0 1l1 1-2 3v-3l1-1zm2 1l2 3h-3l1-3zm-4 2c3 7 3 12 0 17l-3-2c2-4 3-8 0-13zm2 2h2c2 1 2 2 0 3-1 1-2 0-2-2v-1zm4 2l1 3h-1c-1-1-2-1-1-2l1-1zm-3 2l2 1c1 2 1 2-1 3l-1-2v-2zm21 2c-2 1-2 3-2 4v5l-14 27h87l-10-20s1-3-1-3l-1-1-1-3c-8 1-16 0-22-1l-18-6c-6-2-13-2-18-2zm5 1c7 0 14 2 20 4l17 5h16c1 1 0 2-2 2h-13c-7-1-14-3-20-6-8-3-15-4-21-3h-3c0-2 1-2 6-2zm-22 4c-1 1-3-1-3-2l3-2v4zm-4-1c1 0 3 2 2 3h-3l1-3zm57 9l20 1 4 1-4 1h-10l-18-4-17-5c-6-1-11 0-12 1v-1-1c16-4 25 4 37 7zm-54-6l-1 3h-1v-2l2-1zm-4 1l1 4-2-1c-1-1 0-3 1-3zm27 1l8 1-4 1-4-2zm4 3c8-4 12 2 13 3 8-1 9-1 13 4 8-4 12-1 15 1 4-3 8-3 11-1l1 2-1-1c-5-3-12 1-10 5l-1 2c-1 1-2-1-1-2 1-2 0-4-3-5-5-3-12 0-10 3 0 1 0 2-2 2-1 0-2-1-1-2v-4c-4-6-12-4-11 2l-3 1 1-3 1-2c0-2-3-3-5-4l-4-1c-3 1-4 2-4 5 1 1 0 3-2 2l1-3c3-3-4-7-8-4h-1c2-6 11 0 11 0zm11-1l5 2-3 1zm-14 3c-4-1-5 4-2 5-4 6 7 8 5 1 6 1 5-6 1-6 1-2 9 0 8 2-5 0-3 5-1 5-5 5 6 10 6 2 4 1 5-5 0-5 2-2 8-1 9 2-4 0-4 4-1 5-4 5 7 7 6 1 4 1 6-4 1-5 5-4 10 1 10 1-6 0-5 6-1 5-2 6 8 7 6 0 4 1 4-5-1-5 3-3 7-3 9-1-5 1-3 7 2 5 0 4 3 3 4 3l3 6H62l8-13c4 0 4-4 4-4 2 2 5-3 1-4 4-4 9-1 8 0zm-27-1h-1 1zm17 2v2-1-1zm37 1l5 1-2 1-3-2zm14 2h5l-2 1-3-1zm16 4l1 3c-2 0-2-2-1-3z" fill="#100f08"/></svg>