<svg xmlns="http://www.w3.org/2000/svg" width="224.2" height="312.8"><rect ry="10.6" rx="10.6" width="223.2" height="311.8" x="2243.7" y="483.9" fill="#fff" stroke="#000" transform="translate(-2243 -483)"/><path d="M193 37l-12 7v9c-7-3-10-9-11-15-2 2-2 15-2 15l-3 3 4 5v13c2-5 4-10 12-15l-1 40-14-10c6-8 0-17-9-11-5-3-6-17-8-24l-1-6s-18-5-26-5c6 17 5 38-24 42-14 6-30 14-46 27-3 20-13 29-20 35v24s7-5 8-4c5 36 26 43 24 44l-7 7-25-17v75l13-8v-9s11 7 11 17c1 0 3-14 1-15l5-5-5-5s1-8-2-12c-1 10-10 14-10 14v-39l15 10c-1 0-4 6-1 10 2 3 9 3 9 0 10 9 6 19 10 32l27 5c-11-21 1-44 23-43l8-4-6-8-47-1 22-41-15-1s12-24 9-26v-9l13 1c0-6-6-28-16-42h53l-30 42h16l-10 20 2 15h-14c2 21 18 43 23 50 9-2 26-15 37-23 1-14 6-26 19-35v-23l-7 4c0-5-3-15-8-25s-13-19-15-19l6-8 24 16zM69 86l-9 2c-7 0-13 1-16 7-1 2 1 3 2 3 5-7 20 2 23-12zm-33 32c0 1 1 3 2 1v-4c-2-1-2 2-2 3zm80 34h-7v8l7 1zm72 42c0 1-1 5 1 4s0-9-1-4zm-7 22c-1-2-4 1-6 2-10 0-17-1-18 9 6-4 14-2 19-3 3-1 7-5 5-8z" fill="#e2cf00"/><path d="M31 288V24l164 1v263zm7-171c0-2-1-4-2-2 0 1-1 5 1 5l1-3zm-3 3l1-6c-2-1-3-3-2-5v-1l1-3 1-2c-1-1 0-3 1-4l2-1c0-2 1-3 2-2l2-1c1-2 3-5 7-6l9-1c3-1 7-1 9-3l1-1v4c-2 6-6 8-14 8-3-1-7 0-8 1l-1 2c4 0 7 2 10 9 6-5 16-12 29-18-1-9 6-10 10-8v-1l-1-3-1-2-1-2v-2-3l-5-3c-1-1-1-2 1-6l3-6 1-5-1-4-14-19H33v102l8-8-3-2-1 3-2-1zm27 135c0-4-2-10-5-15v11zm70 11h-5c-6-1-10-4-13-8h1c4 4 8 5 11 5 5-1 8 1 7 3h-1zm-16-9c-1-1-1-1 0 0 4 2 8 5 13 3h-2c-3 0-6-1-10-4-2-1-1-2 1-1h2l7-1-4-2-1-1 4 1 4 2c1 0 2 0 0 1l-1 1 1 3c1 1 2 3 0 2h-1c-5 2-9-1-13-4zm10 0l1-1h-1l-1 1h1zm-2 0l1-2-4 1 3 1zm4-7c-1-1-2-3-1-5 2-1 3-1 6 1h2l1 1c0 2-3 2-4 0-2-2-5 0-4 1l2 2h-2zm-8-11c3-1 8 3 10 2v2c-1 1-3 0-7-2-3-2-6 1-4 3l2 1c1 0 2 0 0 1l-3-1c-1-2-1-5 2-6zm-63-9c0-4 2-6 2-6l-14-9v37c7-5 9-10 10-17 13 15 9 33 0 43 0-6-2-13-9-17v7l-13 9v8h30l14-20c-2-10-2-18-4-22-1-4-4-8-5-8-6 5-11 0-11-5zm11 4c5 3 6 9 7 14l2 17v2l-13 19h83l-12-18-1-5-1-3 4-8c2-5 2-5-1-6-3-2-4-3-3-5l-1-2h-5l-2-2c-1-2-1-2 1-1 2 2 7 1 5-1l-1-3-1-3h-9c-8 2-14 9-16 14-1 1 1 1 1 1 3-1 4 3 3 5h-1c1-2 0-5-2-4-3 1-3 4-3 6a40 40 0 003 18h-1l-3-10c-1-11 2-20 11-26 8-6 12-5 16-5l6-2 21-12c6-4 11-9 17-12h1l19-18 1-1-1-38v-1c0-1-1-1-4 1l-3 2c-2-17-11-34-23-44l1-1 6 4v-2l-5-3v-1h1l4 2v-2l-3-2 1-1 1 1c-1-2 0-1 1 0l2 2 2 2v-1c1-1 4 3 4 3l2 2a181 181 0 0012 8l1-3 1-1V36l-12 8v9c-6-2-10-10-11-15-1 0-2 10-1 14l-4 4 4 5v13l1-1c1-4 5-11 11-14v40l-15-10 2-4c2-8-7-12-11-6l-3-5c-3-5-3-12-4-17l-2-8 1-3 10-15 2-4-82-1 13 18h1c-2 1-1 3 0 5s1 3-2 8c-4 8-4 8 0 10 2 2 3 2 2 4 0 2 0 2 2 2h2l2 1c1-1 1 0 1 1l1 1h-1c-2-1-7-1-5 1l1 5c0 2 2 3 5 2 6 0 19-7 22-15-7 2-5-6-3-6l-1 2c0 3 3 3 4 1l2-9-4-14c10 23 1 33-12 40l-9 2-6 2a189 189 0 00-62 43v41l8-4c2 15 10 32 23 43h-1l-5-3v2l4 3-1 1-3-2v2l3 1-1 2-2-2v1c0 2-3-1-3-3l-3-1c1 1 0 1-1 1l-2-4-3-2c0 3-3-1-3-2l-4-3h-2l-1-2-2-1v2l24 17v1l-26-17 1 76 13-9v-9c6 4 8 7 11 15 2-4 2-9 1-13l4-5-5-5c0-2 2-9 0-11 0 0-4 10-11 13v-38l11 7 3 2-1 2v5l1 4c3 2 7 1 9-1zm15-19l29-41c4 15 10 29 17 41zm14-43l3-7h-3l2-2h5l-3 6h3l3-6h8l-3 6h2l3-6h8l-3 6h2l2-3v6h-8l3-7h-2l-4 7h-7l3-7h-2l-4 7zm24-22l3-7h-2l-4 7h-7l3-7h-2l-4 6h-8l3-6h-2l-1 3-1-5h8l-3 6h3l3-6h8l-3 6h2l3-6h8l-3 6h3l-1 3zm-7-12l-2 1c-2-17-11-35-15-42l46 1zm55-98s-5 6-5 15l4-3 1-12zm-5 16c0 7 2 12 4 16l1-11zM48 193l-15-10v2l18 13zm-3-5l-12-9v3l13 9h1l-2-3zm-4-9l-8-6v2l9 6zm-8-8l8 6-1-3-5-4zm147-73V60c-8 4-10 16-10 16-8-8-11-27 1-40 0 4 1 10 9 15v-8l12-7v-9h-28l-13 17-2 5c3 10 2 23 8 29 8-8 16 4 9 11zM57 261c2 3 1 10 1 10 1 0 5-10 4-14m41-184l-6-2c-2 1-2 0-1-1h5c7 4 8-2 4-2v-1c5 0 4 7-2 6zm-9-6l-3-1c-1 1-1 0-1-1 1-2 2-1 5 0 3 2 4-1 1-2v-1c2 0 3 2 3 4-1 3-4 2-5 1zm10-5l-7-4h-2c-1-1 1-1 2-1v-2l-2-4 1 1c4-2 6-1 10 0l5 4-3-2c-3-2-6-3-10-2h2l6 2 1 2c3 1 4 2 2 2l-2-1-2 1h-2c-1 0-3 0-2 1l4 3h-1zm0-5l-1-2-2 2h3zm-4 0l2-2-2 1v1zm-4-8c-2 0-3-2-1-2h3c5 0 9 2 12 5 2 2 2 3 0 2-5-5-9-4-14-5zm44 175l-2 1 1 1h-2l-1 1 1 1h-3v1l-3-1h-1c3 5 12 2 10-4zm46-8c2-1 1-3-1-4l-3 1c-1 1-2 1 0 2 1 2 3 2 4 1zm-5-3v-2l1-3h-2l-1 1-2-2v-1c2-1 2-3 1-5s-1-2-3 0l-4 3 1 3c2 5 5 7 9 6zm7 0c3-1 2-4-2-6-2-2-3-2-1 0l1 2-1 2 3 2zm-134-5l-3-1v2l3 2zm130 3l1-2h-3c-1 1 1 2 2 2zm6-4c1-1 0-3-2-4h-1l-1 1c-1 1-1 1 2 3h2zm-136-2l-3-2v2l3 2zm-6 2v-2l-3-3v3zm133-1h0zm0-2l1-1 1-2 1-2c0-1 0-2 2-2l1-1-3-3-5 5h-1l1 2v6h1l1-2zm6-8c0 2 1 3 2 2v-5c-1-2-2 3-2 3zm-30 31c7-4 16-1 21-4 3-3 5-4 4-6l-2-2s-4 3-9 3c-9-1-13 2-14 9zm12-10c5 0 8 0 10-2 1 0 1-1-1-1-3 0-7-4-8-8v-2c-9 8-29 19-29 19 1 6-3 10-9 8-2 0-1 1-1 2l1 2 1 2v1l1 2c-1 2-1 3 1 4 1 1 5 2 5 4l-5 11v4l1 4 13 19h44l-1-101-7 7 2 2v-2h3v5 2l1 4v5l-1 2c1 1 1 3-1 4l-1 1c-1 3-3 3-5 2-2 7-9 8-14 8s-10 0-13 4c1-8 5-12 13-12zm16-13v-2c-1-1-2 0-2 1l2 1zm-137-3l-3-3v3l3 2zm7 2l-3-3-19-14v3l1 1 1-1a192 192 0 013 4l2 1v-1l4 3 1 1 2 2c1-2 3 0 3 1l2 2zm-13-1v-2l-4-2v2zm148 0l-1-2-1 1 2 1zm-3-2c1-1 0-2-1-2-2 1-1 2 0 2h1zm-146-2v-2l-3-2v2zm-6 0v-2l-2-2v3zm0-6l-2-2v3l2 1zm9-6l-1-3-10-7v2l11 8zm-5-17v-1h-1zm-2 0l-1 1 4 3v-2zm149-23l1-1-2-2v2zm2-2l1-1-4-3v2zm3-2v-1l-8-5 1 2 5 4h2zm0-2v-3l-9-6 1 3zm0-4v-2l-11-7 2 3zm0-6l-14-9 2 3 12 9zm0-3l-17-12 2 3 15 11zm0-4c0 1-2 0-3-2v-1l-4-2v1l-2-1-1-2-4-3v1l-2-1v-2l-4-2h-1v-1l-3-2a153 153 0 006 7l18 12zm0-4l-1-1v2l1 1zm-143-5l-1-1-1-5c1-1 0-2-1-1l-1 2h-1c1 1 0 3-1 3v1c0 2-1 3-2 3-2 0-1 1 0 2l2 1 6-5zm139 5v-3l-4-2 1 3zm4-1v-2l-1-2v3zm-152-4h1v-1l-1 1zm-1-1l1-1-1-1-1-1c-2-1-3 1-2 2s2 2 3 1zm149 2v-3l-4-2v3zm-133-6v-1l-2-5-2-2c-3-2-7-1-6 1l-1 3v1l2-2c1-1 2-2 2 0-1 1 0 1 1 1 2 0 2 0 0 1-1 1-2 4-1 5l2 2 5-4zm127 3l-4-3v3l4 2zm-139-3c-1-1-3 1-2 2 1 0 3 0 2-2zm-3 1l1-2c1-1-3-4-5-2l2 4h2zm141-2l-3-2v2l3 2zm-6 2v-2l-3-3v3zm-130-3h-2 2zm-3-1l-1-1v-2c2-1 0-3-2-2-2 0-2 2-1 3l4 2zm133-2l-3-2v2l3 2zm-132 0v-2l-2 2h2zm1-4c2-1 1-2 0-3-3-1-4 1-2 3h2zm2-2c3-3 5-3 10-3 10 0 13-5 13-8-5 2-10 1-15 2-8 1-9 5-10 8zm43-11c2 0 2 0 1-2 3 0 4 1 3-1l4 1c-5-6-11-1-10 4l2-1z" fill="#131f67"/><path d="M198 303v-4h3v-11l1-13c2-7 15-7 16 1v5h-3v-1c0-5-2-6-5-7-3 0-4 1-5 3v23h3v4zm-97-17l2-6h11l2 6zm-27 0l7-10 8 2-2 8zm17 0l3-11-15-3-9 14h-6l14-19c19 7 39 8 58 4 0 0 8 10 10 15h-5l-6-11-14 2 4 9h-6l-2-9-17-1-3 10zm37 0l-2-7h7l4 7zm19-20c0-5 1-8 5-15l16-23 15 22c4 6 6 13 6 17 0 7-4 12-11 13-4 0-9-4-9-8 0-2-1-3-2-1 0 6-5 9-10 9-8-1-11-9-10-14zm55-1c-2 0-3-3-3-5-1-3 0-6 4-12l5-8 6 8c5 9 6 13 3 16-2 2-6 2-7 0l-1-2h-1c0 3-3 4-6 3zM72 224l35-50h4l-36 52zm-40-19l10 7v54l-10 7zm40-88l6 12c-25 23-20 51-7 70 0 0-1 5-5 9-18-12-24-42-23-43 19-17 22-23 29-48zm101 84c1-17 10-28 19-35l1 17-20 18zm-26-17c22-20 22-49 7-70l6-9c9 10 18 20 22 44a82 82 0 00-29 46zm-30-24v-8h8v8zm-17 0v-8h8v8zm14-22l37-51 3 2-36 49zm-63-26c0 15-9 27-19 34v-17zm6-27S38 59 36 48c-1-7 3-14 10-15 5-1 10 3 11 9v1l1-3c1-5 5-8 10-7 9 1 12 12 10 18-5 12-22 34-21 34zM6 55c-1-3 0-7 3-8s6 1 6 4c1 1 1 1 1-1 1-2 4-4 7-2 3 1 4 6 1 11l-8 14c-1 0-9-12-10-18zm186-14v65l-9-5 1-55zm-43 3c-20-5-39-6-59-2L79 26h5l7 11 14-1-4-10h6l2 9 17 1 3-10h6l-3 11 15 3 9-14h6l-13 18zM6 32h4c0 2 0 6 2 7 5 1 8-1 8-5V13h-4v-3h11v3h-3v21c-1 7-6 9-10 9-9-1-8-7-8-11zm139 5l-9-3 3-7h12zm-52-3l-4-8h8l3 7zm19-2l-1-6h14l-1 7z" fill="#d40000"/><path d="M78 26l13 19a105 105 0 0130-2l3 10v13c-1 5-2 7-6 10l-9 7-9 2-4 1h-1c-17 7-30 16-40 23v1l-3 1c-12 9-18 17-21 19v42l8-5c2 17 10 32 23 43l-5 8-26-18v78l14-10v-8c4 3 8 4 11 16 2-4 2-11 1-15l4-5-5-4s2-11-1-14c-2 5-3 11-10 14v-37l10 7h1l3 2-1 1c-4 7 3 15 9 10 3-2 7 6 8 14l2 15v3l-14 19h7v-1h-5l13-17c16 6 42 7 58 4l10 14h-5l1 1h6l-13-19c-9 2-31 1-31 1v-2c-4-12-4-23 5-32 5-4 11-7 17-7h4l2-1 6-3 1-1 2-1 3-2 4-2h1l1-1 22-15h1l20-19v-38h-1v-2l-7 4c-2-17-10-33-22-44l5-7 25 16v-5l1-67v-4l-13 8v8c-6-2-10-8-11-15-2 1-2 8-2 16l-4 3 5 5v13h1c2-9 10-14 10-14v39l-14-10c3-3 4-9 0-12s-8 0-9 2c-4-3-6-15-6-19l-2-8-1-4 1-2 14-20h-7 5l-12 18c-19-6-38-7-59-3L80 26h4zm11 0h0zm12 0h6zm28 0h6zm-18 0h14zm28 0v1h12v-1zm53 11v3l-8 5-1 55-2-1V44l11-7zm-22 2v1zm0 2l1 1h-2l1-1zm22 0v2l-8 5v-2zm-23 2h2v1h-2zm-47 0h1c3 7 4 13 5 20 1 8 3 16 5 19h-2l-5-18v-4c-1-6-1-10-4-17zm3 1h1l4 14c1 8 1 16 5 24h-1c-3-5-4-11-5-17l-1-9-3-12zm2 0h2l3 15 5 23h-1c-4-8-4-16-5-24l-4-14zm3 0h1l3 16c1 9 3 15 6 22h-1c-4-7-5-15-6-24l-3-14zm62 0v2l-8 5v-2zm-60 1h2l3 14c0 8 2 16 5 23h-1c-4-7-5-14-6-22l-3-15zm40 0v1h-3v-1zm-37 0h1l4 22c2 9 3 14 5 15h-2c-3-7-5-15-6-23l-2-14zm2 1h2l3 17c1 11 5 19 5 19h-1c-3-4-5-12-6-23l-3-13zm2 0h2l2 13c1 6 2 18 8 25 4 3 9 6 13 3 2-2 3-4 2-6-2-5-7-4-6 0 1 2-1 2-2 1v-4c2-2 6-2 8 0 4 3 2 9-3 11-5 3-12-2-15-7-4-7-5-15-6-23l-3-13zm3 1h1l3 12c0 6 1 12 3 17l6 8c2 1 4 2 6 1 3 0 3-5 1-5s-1-1 0-1c4 0 5 6 1 8-5 1-10-2-13-6-5-8-5-15-6-22l-2-12zm31 0l1 1h-5v-1zm-29 0l2 1 2 13c1 6 1 12 5 17 1 2 4 5 6 5l2-1c1-1 2-1 2 1l-2 2c-5 1-10-6-11-9l-4-17-2-12zm48 0v3l-8 4v-2zm-46 1h2l2 12a38 38 0 007 19v1c-6-3-8-15-8-20l-3-12zm24 1h5l1 1h-7l1-1zm22 2v1l-8 5v-2zm-22 0h8l2 2h-11zm22 2v3l-8 4v-2zm-25 1h13v1h-14zm-2 2h15v2h-13zm27 1v2l-8 4v-2zm-24 2h12l-2 1h-8zm24 1v2l-8 4v-2zm-15 1l-2 2h-6l1-2zm15 2v2l-8 4v-1zm-23 1h5l-1 1h-4zm-44 1l5 17h-1l-4-14v-3zm44 1h4l-1 1h-3zm23 0v2l-8 4v-1zm-23 2h2v1h-2zm23 1v2l-8 5v-2zm-68 1l4 12h-2l-3-10 1-2zm45 0h1v1h-1zm0 2h1v1h-1zm23 0v2l-8 5v-2zm-70 0l3 10h-1l-3-7 1-3zm-2 3l3 7h-1l-2-5v-2zm72 0v2l-8 5v-2zm-73 3l2 4h-2l-1-4v-1c1-1 1 0 1 1zm-2 2l1 2h-2v-3c1-1 1-1 1 1zm75-2v2l-8 5v-2zm-77 2v2h-1v-2zm-2 1v1h-3l3-1zm79 1v1l-8 5v-2zm-87 2l44 1 1 2h-18l-36-1 3-1 6-1zm87 1v1l-8 5v-2zM68 86c-3 2-7 2-9 2-6 0-14 2-15 7v3l1 1 3-3 5-1 9-1c3 0 6-3 6-7v-1zm0 1c-1 7-8 8-12 8-7-1-9 1-10 3l-1-1c1-3 7-4 11-4 7 1 9-3 9-3l-2 1v-1s-1 2-2 1h-2-5-2l-3 1c-2 0-4 2-4 4h-1c0-2 3-5 6-6s5-2 11-2c3 1 7-1 7-1zm83 0l2 2-36 49h-3zm-57 0h4v7h-4l-1-2a2 2 0 003-2 2 2 0 10-4 1l-1-2 2-1 1-1zm12 0h7v7h-7zm15 0h8v7h-8zm16 0h7v7h-7zm55 1v2l-8 4v-2zm-52 0a2 2 0 100 5 2 2 0 000-5zm-30 0a2 2 0 100 5 2 2 0 000-5zm15 0a2 2 0 100 5 2 2 0 000-5zm8 1a2 2 0 110 4 2 2 0 010-4zm-31 0a2 2 0 110 4 2 2 0 010-4zm46 0h1l-2 3a2 2 0 011-3zm-30 0a2 2 0 110 4 2 2 0 010-4zm-24 0a1 1 0 110 3 1 1 0 010-3zm-4 0c12 16 19 32 21 49h-2c-3-19-11-35-21-48zm50 0a2 2 0 110 3 2 2 0 010-3zm-30 0a2 2 0 110 3 2 2 0 010-3zm15 0a2 2 0 110 3 2 2 0 010-3zm38 1c1 7-1 11-5 11-6 1-7 1-7 7 0 7-1 9-6 9-5 1-7 2-6 8 0 5-2 7-6 8-3 1-6 2-7 5h-3c1-5 6-7 9-7 4-1 4-2 4-9-1-4 1-6 7-7 4-1 5-2 5-6 0-8 0-9 4-10 3 0 6 0 8-2l1-6zm29 1v2l-8 4v-2zM84 92c-1 7 4 8 7 9 4 1 5 3 5 10-1 5 0 6 3 8 5 3 7 6 4 12v7h-2s-2-4 0-8 2-7-3-9c-4-2-5-3-5-6v-6c1-4-1-5-6-7-3-1-5-3-5-7v-2zm86 0l22 15v3l-23-15zm-14 1a2 2 0 110 4 2 2 0 010-4zm-69 1l2 1a2 2 0 11-2-1zm105 0v2l-8 4v-2zM78 95c6 9 13 18 18 34l-2 1c-4-13-11-24-18-34zm17 0h50l-1 2-48-1zm97 2v2l-6 3-1-1zM75 97l1 1-2 2c-4 2-4 3-4 4-1 4 3 5 7 3l4-2 1 1-7 4c-5 2-9-5-5-9l3-2 2-2zm22 1h46l-29 40h-2c-2-15-8-28-15-40zm-20 1l3 4-5 3c-2 2-5-1-3-3l5-4zm115 1v2l-3 2-2-1zm-115 1l-4 3v1h2c3-1 4-2 3-3l-1-1zm0 1v1l-1 1-1 1h-1-1l1-1 1-1 1-1h1zm115 1v3l-3-2zm-127 0c8 10 14 20 18 35l-2 1c-2-10-6-21-18-35zm97 0c4 3 20 18 22 44l-2 1c-1-14-7-29-21-43zm-7 1a2 2 0 110 4 2 2 0 010-4zm-93 1l2 2-5 3-3 1v-2l6-2-1-1zm28 0a2 2 0 110 4 2 2 0 010-4zm70 1c13 12 20 27 22 43a79 79 0 00-29 46l-6-11c20-17 24-48 7-70zm-77 2l1 1-3 2c-4 3-4 4-3 7s3 3 7 1l3-2 1 2-6 2c-4 2-7 0-7-4-1-3 0-5 5-8l2-1zm60 1a2 2 0 110 4 2 2 0 010-4zm-78 0l2 1-4 2c-2 2-3 2-1 3l5 7-3 3-5 2c-2 0-2 1-1 2 2 2 4 7 3 9 0 2-1 2-9 2l-1 1 2 5-1 5h-8c-3 0-3 0-2 1l-1 10-5-1-3-1v-2l7 2c1-2-1-10-2-12-1-1 0-2 3-1 1 1 11 5 10 2 0-4-2-8-4-10s-1-3 2-2c3 2 11 1 11 0-1-3-3-7-7-10v-2c4 0 13-1 12-3l-4-5-5-3v-1l9-4zm-10 1c-2 16-8 30-22 39l-1-2c13-9 19-22 20-35zm30 1l2 5c-1 1-5 3-6 2-2 0-3-3-1-4l5-3zm-18 0l1 1-2 2v1l2 3v3l-5-6c-1-1-1-1 1-2l3-2zm31 2a2 2 0 110 3 2 2 0 010-3zm-14 0l-4 2v2h3l1-1 2-1-2-2zm1 0v1l-1 1-1 1h-1c-1 0-2 0-1-1h1l1-1h1v-1h1zm-34 0c1 2-1 5-1 7-4 5-9 7-14 9h-3l18-16zm-13 2l-2-1v6h2v-5zm32 0l1 1c-2 25-20 46-38 54v-2c21-11 34-29 37-53zm84 0l2 3h-3zm-116 0l-1 4h-1l1-4h1zm17 1l7 5c-1 2-6 2-8 2v-2h3c3 0 3-1 0-3l-2-1zm17 2l5 11a52 52 0 00-6 70l-7 8a71 71 0 01-21-42c18-13 27-32 29-47zm85 1l1 2h-3zm-14 1a2 2 0 110 4 2 2 0 010-4zm-54 1l1 1-6 4v5c1 1 2 2 4 1l5-2-4 3-3 1c-4-1-7-6-3-10l4-2 2-1zm60 1c15 21 5 45-5 53v-3c16-18 11-40 4-49zm10 1l1 2h-4zm-60 0a2 2 0 110 4 2 2 0 010-4zm48 1c13 19 6 49-19 58v-2c26-11 28-39 18-55zm-56 0l1 4-5 3c-2 0-3-3-2-4l6-3zm-42 0l-1 3c-2 4-2 4-7 5h-5c-3 0-4-1-2-1 5-1 10-4 13-6l2-1zm82 0a2 2 0 110 5 2 2 0 010-5zm-64 1l-1 2-3 2c-1 0-2 0-1 1l2 4-2 2-2-6c-1-2-2-2 0-3l7-2zm23 1l-4 2v1c2 1 5 0 5-1v-2h-1zm0 0v2h-2l-1 1 1-1v-1h1l1-1zm70 1l1 2h-3zm-14 3h-3c1 1 2 3 1 4-2 1-4-1-4-1l5-6 1 3zm-94-2s5 5 5 7l-1 1c-2 1-8-1-8-1l1-2c1 1 5 2 6 1l-4-4zm26 2v2h-2zm84 0v3h-3zm-66 0l1 2a38 38 0 00-18 55l-1 2c-16-26 0-52 18-59zm-20 2v3h-3zm-32 0l1 1-3 4c-2 0-8-2-9-4h2c3 1 7-1 9-1zm61 0a2 2 0 110 4 2 2 0 010-4zm-72 2l7 4-1 1c-1 2-1 2-2 1-2-1-5-3-4-4v-2zm130 1v3l-3-2zm-91 1l1 2h-3zm74 2v1c1-1 4 0 4 2-1 2-2 2-4 2 1 2 0 3-2 3-2-1-1-3-1-4-4 1-5 7 0 9-1-2-1-4 1-4s3 1 2 3c2-1 4 1 3 2-1 3-3 2-4 1 1 2-1 4-2 3-3-1-2-4 0-4-6-1-7 7-3 9-1-1-1-4 1-4 3 1 2 3 1 4 2 0 3 1 2 3s-3 1-4-1c0 2-1 3-2 3-3-2-1-5 1-4-4-3-10 2-7 7 0-2 1-4 3-4l2 3-3 2c3 0 4 2 2 3-2 2-3 0-4-1 0 3-4 2-4 0 0-3 3-3 3-3l-4-2v-2c9-6 13-17 10-27 2 1 3 3 6 2h-1c-1-2 0-4 2-4l2 2zm-66 0l1 2a41 41 0 00-4 50l-1 1c-8-9-14-33 4-53zm12 3l1-1c1-2 4-1 3 2l-2 1 3 2 2 1v1c-9 5-14 15-11 28l-1 1c-2-4-3-4-6-4l1 1c1 1 0 3-1 3-3 0-3-2-2-3h-1c-1 1-3 0-3-1 0-2 1-2 2-3l1 1v-1c-1-2 1-3 2-3 2 1 2 3 1 4 3 1 5-2 5-4-1-2-2-4-5-4l1 1c1 1 0 2-2 2-1 0-2-1-1-2v-1h-1c-2 0-3-1-2-3h4l-1-1 2-2c2 0 3 2 2 3l-1 1c0 1 3 1 4-1 2-1 2-5 1-6l-1-1c1 2-1 4-2 3-3 0-3-3-1-3l-2-2v-3l4 1c0-1 1-2 3-1 1 0 1 2-1 3l-1 1h3c3 0 5-3 4-6l-1-1v1c-1 2-2 2-3 1v-3l1-1-2-1 1-2c2-1 3 0 3 2zm-59-3l3 3v2c-1 1-2-1-3-2v-3zm131 1v3l-4-1zm-94 0l1 3h-3zm66 0c3 11-1 19-9 25l-1-1c6-5 11-12 9-23zm-36 0l34 1-1 1-2 1-6 9h-25zm-51 8c-2 2-9-2-9-2l1-1 6 2-3-6 1-1s5 6 4 8zm11-7l-1 2-5 1 1 4-1 2-1-7c-1-1-1-1 3-1l4-1zm8 3l1 2h-3zm-35 0l1 1-1 1a8 8 0 010-2zm131 0v3l-3-2zm27 1v2c-12 6-31 22-36 51l-1-1c5-28 23-44 37-52zm-125 2l1 3h-3zm98 1v3l-4-2zm-65 1v2c-8 5-10 12-9 22l-1 2c-3-9 0-20 10-26zm89 0l3 2v2l-5-2zm-150 8c-2 1-4 0-5-1v-1h1c2 1 2 0 1-3v-2l1-1s3 7 2 8zm26-6l2 3h-3zm122 1l5 1v2l-5-1c-2-1-2 0-2 2l2 8c2 3 1 3-1 2-3-2-10-4-11-2-1 1 1 7 3 11 1 1 2 1 1 2h-2c-4-1-9-2-10-1-2 1 2 8 5 10 2 1 2 2-1 2-6 0-10 2-10 3 0 3 4 6 8 8 3 1 2 2 0 2l-8 4-1-2 5-3v-1c-3-3-6-6-6-8s0-3 3-4l4-1a517 517 0 010-5c-3-6-2-8 6-8h2l-1-8c0-4 3-5 10-3l1-1c-1-5 0-10 3-9zm-22 0l-1 3-3-2zm-121 1h8l-1 2h-5l-1 5-1 1zm57 0h8v8h-8zm9 0h7v8h-7zm8 0h8v8h-8zm65 1v7h-2l-5-1 1-1h4v-4zm-119 1l2 2-3 1zm100 1l-1 3-3-2zm28 2v2l-3-2 2 6h-1c-2-2-2-3-2-6v-2l4 2zm-129 1l2 2-3 1zm100 1l-1 4-3-3zm-129 1l6 3-1 1-5-2zm92 1l1 12H91l1-2h2l6-10zm-64 1l3 2-3 1zm130 1v2c-8 6-17 17-19 36l-2 2c1-18 9-31 21-40zm-30 0l-1 3-3-2zm23 5c-1 1-4-1-6-2l3 6-1 1c-1 0-5-7-4-8 2-2 7 1 8 3zm-13-4l1 7-7 1 1-2h2l2-2-1-2 2-2zm-129 2c3 18 10 31 22 42l-1 1a70 70 0 01-23-42zm19 1l2 1-2 1zm130 0v2l-1-1 1-1zm-32 0l-2 3-2-3zm32 7l-5-3 3-2c2 0 3 4 2 5zm-130-3l3 1-3 2zm92 0h4l-2 3zm33 1l2 1 4 4h-1l-6-2-1-1 2-2zm-43 1c4 15 11 26 19 36l-1 1c-7-7-14-16-20-35zm8 1l4 1-2 2zm-50 0s-1 7-7 7c-4 1-4 1-4 7 0 7-1 9-8 10-4 0-4 1-4 7 1 5-1 8-6 8s-7 3-7 7v2h-2v-4c1-5 3-8 8-8 4 0 4-1 4-6l1-8 4-1c7-1 7-1 7-7s1-9 4-9c7-1 7-4 7-5h3zm14 0c4 22 16 42 23 49l-1 1c-10-13-19-27-24-50zm-8 0h4l-37 51-1-1zm5 0c3 13 6 25 17 41H83zm12 0c1 0 2 7 0 10-1 4-1 6 2 7 6 3 7 5 6 11 0 5 1 7 5 8 5 2 7 4 7 9v1l-3 1v-1c1-4 0-6-5-8-6-2-7-4-6-10l-1-6c-1-2-4-2-6-4s-2-5-1-10v-6-2zm-63 1l4 1-3 2zm122 1l5 1c4 2 5 3 1 3h-7c-3 1-3 1-2-1l3-3zm-6 2l-1 1-6-1 4 5-1 1s-4-3-5-6l2-1 7 1zm-58-1a2 2 0 110 4 2 2 0 010-4zm30 0l3 1-2 3zm-66 0l2 2-4 6c-2-1-2-4 0-4h0c-1-2 0-3 2-4zm79 0l3 7-6 2v-2l4-1-2-4zm-23 2c5 0 5 6 4 8l-5 4-3 1-1-2 4-1c3-2 4-3 4-5-1-4-4-4-9-2l-2 1v-1l7-3h1zm-76 1h2l-2 2zm124 0l4 2h-2l-12 6c-2 2-1 2-1-1l3-5 8-2zm-40 1h2l-2 2zm-8 1l1 1c1 2 0 3-2 4l-4 2-2-5 2-1 5-1zm-8 0c5 16 12 26 19 35l-2 1c-7-9-14-20-19-35zm7 1l-3 1c-2 1-2 2-1 3l3-1 2-1c1-1 0-2-1-2zm54 0l-16 15-3 2 2-8c4-4 10-8 15-9h2zm-54 1h1l-1 1h-1v1h-1c-1 1-2 0-2-1h2l1-1h1zm-74 0h3l-2 3zm30 0a2 2 0 110 4 2 2 0 010-4zm33 1a2 2 0 110 4 2 2 0 010-4zm-62 3h4l-2 3zm18 0a2 2 0 110 4 2 2 0 010-4zm85 1l3 1v1l-6 1 5 3v1c0 1-7-2-7-5l5-2zm-24 2c4 0 6 6 5 8l-4 4-3 1-1-1 2-1c2-1 6-4 4-7-1-2-3-3-7-1l-3 2-1-2 8-3zm-77 1h3l-1 3zm90-1c2 4 5 7 6 7l-5 4-1-2 3-2-3-4zm31 1l-1 6 2 1 1-6-2-1zm1 2v3h-1v-3l1-1v1zm-45 0c2 1 3 2 2 4l-6 4-2-5 6-3zm0 1l-3 2c-2 0-2 2-1 2 1 2 5-1 5-2v-1l-1-1zm-74 1h3l-2 2zm74 0v1l-1 1h-1l-1 1h-1l1-1 1-1 2-1zm-17 0a2 2 0 110 4 2 2 0 010-4zm-45 4a2 2 0 110 4 2 2 0 010-4zm-49 2l23 16-1 2-22-15zm119 0c2 0 3 1 4 3 2 4 1 6-4 9l-2 2-1-2 2-1c4-3 5-5 4-7-2-3-4-2-9 1l-2 1-1-2 4-2 5-2zm18 0v1l-5 3-1 1-1 1-1-2c-1-1 5-4 8-4zm-35 1a2 2 0 110 5 2 2 0 010-5zm-64 1a2 2 0 110 4 2 2 0 010-4zm81 2l2 1c0 2-1 3-5 6h-1l-3-4 2-1c2-2 4-2 5-2zm0 1h-1l-4 2 1 2c1 1 5-2 5-3l-1-1zm-119 0v1zm119 1v1h-1l-1 1h-1-1v-1h1l1-1 1-1 1 1zm-118 0l1 1-2 1v-1zm2 1l2 1-5 3v-1zm3 2l1 1-7 4v-1zm2 1v2l-8 5v-1zm1 1l2 1 1 54-12 7v-2l10-7zm138 2l-9 3c-8 0-13 0-14 10 3-3 6-3 10-3l10-1c3-2 5-5 5-7l-2-2zm-139 0v2l-8 6v-2zm97 0a2 2 0 110 4 2 2 0 010-4zm-55 0l46 1 2 2H81zm97 2c-2 2-4 3-10 3-6-1-8 0-10 3v1c1-1 2-2 3-1 1-1 1-2 2-1h9c1 0 2-2 3-1l4-3v1c-2 4-5 5-14 5l-8 2c-2 1-1-3 1-5s4-3 11-3l7-1 2-2v2zm-110-1a2 2 0 010 4 2 2 0 110-4zm-29 2v2l-8 6v-2zm41 1h7v7h-7zm15 0h7v7h-7zm16 0h6v7h-6zm14 0h5l4 5-4 2h-5zm-42 1a2 2 0 100 4 2 2 0 000-4zm15 0a2 2 0 100 4 2 2 0 000-4zm16 0a2 2 0 100 4 2 2 0 000-4zm-37 0l1 2a2 2 0 01-3 1zm6 0a2 2 0 110 3 2 2 0 010-3zm46 0a2 2 0 100 5 2 2 0 000-5zm-38 1a2 2 0 110 3 2 2 0 010-3zm30-1a2 2 0 110 4 2 2 0 010-4zm-82 1v1l-8 6v-1zm59 0a2 2 0 110 3 2 2 0 010-3zm16 0a2 2 0 110 3 2 2 0 010-3zm-8 0a2 2 0 110 4 2 2 0 010-4zm23 0a2 2 0 110 3 2 2 0 010-3zm-66 2c4 0 9 2 11 5 4 5 6 11 7 19l4 19h-2l-3-18-3-13c-3-5-7-10-13-11-3 0-6 2-7 5 0 2 1 4 3 5s4 0 4-2v-1l2 1s0 3-3 4-7-2-7-6c0-2 2-6 4-7h3zm-24 1v2l-8 6v-2zm25 1c4 0 9 5 11 9 2 3 4 9 4 15l3 17-1-1-3-17-5-14c-2-4-5-7-8-7s-5 0-5 2 0 3 2 3h1l-2 2c-3-1-4-5-2-7l5-2zm10 1l53 1-3 1-7 1H77zm-35 1v2l-8 6v-2zm25 1l3 1c6 3 9 13 10 19l3 17h-2l-2-17c-1-7-4-13-8-16-3-2-4-3-5-1-2 1-3-1-2-2l3-1zm-25 2v2l-8 6v-2zm39 0s5 8 6 20l3 17h-1l-4-18c-1-6-1-12-5-19h1zm1 0h1c3 5 5 12 6 19l4 18h-2c-2-5-2-11-3-18s-3-13-6-19zm9 0c2 7 4 10 5 17 0 6 2 14 4 22h-1c-2-6-4-13-4-20-1-10-6-19-6-19zm-3 0s5 9 6 19c0 7 2 13 4 19h-1c-2-2-3-11-5-19-1-9-3-14-5-19h1zm-3 0h1l6 19 3 19h-1l-4-19-5-19zm7 0h1c3 6 5 12 6 19l4 20h-2l-4-20-5-19zm9 0l3 11-1 2-4-13zm-7 0h2a86 86 0 015 21c0 7 1 11 4 18h-1c-3-8-4-14-4-19-1-7-3-14-6-20zm4 1l5 13-1 3-5-16zm4 0h1l3 8-1 1-3-9zm8 0l1 2-1 1-1-3zm2 0l1 1-1 1-1-2zm-8 0h1l3 6-1 1-3-7zm2 0h2l1 4-1 1zm7 0h2-1zm-43 2c6 2 7 11 8 16l2 15h-1l-2-8a220 220 0 01-1-10l-2-6-3-5-1-1v-1zm-28 0v2l-8 6v-2zm0 3v2l-8 5v-1zm0 3v2l-8 6v-2zm14 2h1v1h-1zm-14 1v2l-8 6v-2zm14 1h1v1h-2zm-1 2h2v1h-3zm-13 0v2l-8 6v-2zm11 2h4v2l-5-1zm-11 2v1l-8 6v-2zm9 0l6 1v1h-7zm-9 3v1l-8 6v-2zm7 0h8l1 1H45zm-2 2h13l1 1H46zm-5 1v2l-8 5v-2zm5 1l14 1-1 1H46zm-5 2v2l-8 5v-2zm4 1h13l-1 1h-9zm-4 2v2l-8 6v-2zm8 0h8v1h-7zm2 2h6v2h-5zm-10 1v2l-8 6v-2zm16 2v1h-3l-1-1zm0 2v1h-2l-1-1zm-2 2h2v1h-2zm1 3h1-1zm18 13h13zm17 0v1h6v-1zm10 0v1h15v-1zm18 0l1 1h5v-1zm18 0h-9v1h10z"/></svg>