<svg xmlns="http://www.w3.org/2000/svg" width="224.2" height="312.8"><rect ry="10.6" rx="10.6" width="223.2" height="311.8" x="2467" y="483.9" fill="#fff" stroke="#000" transform="translate(-2466 -483)"/><path d="M193 25H30l1 262h164l-2-262zm-19 2h17v101l-1-1v-3l-1-1-2-2-1-1v-1-3c3-5 5-10 4-14v-4c-4 3-6 7-8 10V98l3-4s2 2 3 1l-1-2c5-2 6-8 0-9v-3l-2 1-1-1c-2-4-6-3-8 1l-2-1v3c-5 2-3 8 0 9v2l3-1 2 4v13c-3-3-6-5-10-6v3l-4-4 1 3v2c-5 5-14 23-12 25-4 0-18 7-20 21l-1 2-4-1 8-35 6-2v-1l-5 2v-2l5-1v-1l-5 1 1-3-16 1-1 38-5-3-1-35-16-2v3c-13-5-26-10-36-20 6-5 16-9 16-9v-1c-25 13-35 22-47 33V27h68l-1 17c-1 5 2 12 1 15v3c-4 6-6 11-8 18l-2 1 6-2c20 10 35 8 50 0-2 9 3 20 12 23h4c1 0-2-8-4-8-4-2-6-6-5-11l-1-2c-1 6 2 13 7 14l1 3c-8-3-12-11-9-19 0-5-4-7-5-10-8-3-9-10-8-16 4 2-2-5-2-5-3 6-4 13 2 21-4 5-9 9-15 13-8 4-14 1-18-9-3-5-3-11-3-17 0-4 0-4 1-3h6c2-2 2-1 0 2l-2 1 3-1 1-1v1a62 62 0 00-2 6c0 2 0 3 2 4l3 2v-2h6c1-1 1-4-1-5-1 0-2 0 0 1 2 2 0 4-2 3l-4-1h-2v-5c3-9 2-12-1-15-2-2-6-3-10-1v-3c6-2 10-6 14-12 3 7 9 12 19 16 4 4-5-11-2-5-6-2-10-6-13-11h1c2 2 5 6 11 9h1l-6-9h46c-1 11-3 23 5 45-4-2-19 3-16 3 1-1 11-3 18-2-1 0-11-24-5-46zm5 46zm-36 44v1h1l-1-1zm-41-90h2l-3 2zm3 0h2c-2 3-3 5-6 6l1-2 3-4zm4 0h2c-3 4-6 7-10 9v-2c3-1 6-4 8-7zm3 0h1c-2 6-6 9-12 11v-1c6-3 9-6 11-10zm4 0h2c3 6 8 11 14 13l1 2c-8-3-13-7-17-15zm6 0h1c2 2 3 4 6 5l1 3c-3-2-6-4-8-8zm2 0h2l2 4-4-4zm-1 14l-6 2c-1 1 0 2 2 1 3-1 8-1 12 2 4 2 3 0-1-3l-7-2zm-18 3c3 0 7 1 7 3-2-2-6-3-10-1v-1l3-1zm19 1c-2 0-4 0-5 2h-1l1 2-1 2 2 2 5 4v-1l-2-2-2-2 2 1h4l4-2h1c2 0 2 0-2-2-3-2-6-3-9-2l-1 1 1-1c4-2 7-1 10 1l2 1-4-3-5-1zm-12 3c1 0 0 0 0 0-4-1-4-2-9-1-1 1-1 0 0 0 4-2 6-1 9 1zm-2 1c-1 5-6 4-6 0h1c0 3 3 3 4 0zm27 0l1 3c-2 7 1 16 10 18l1 3c-16-4-15-18-12-24zm-15 1h1c1 3 3 1 4 0h1c-1 3-6 4-6 0zm-11 0v1h-1l1-1zm-8 0l1 1h-2l1-1zm25 0c1 0 2 0 1 1l-1 1v-2zm-6 0v2l-1-1 1-1zm18 6c0 4 1 8 6 10l-1-1c-2-1-4-4-4-7zm-38 7v3l-6 12-2 1 8-16zm1 4v3l-3 7-2 1c1-4 2-7 5-11zm7 1v4h2l2-1 4 1h4v-1c0-2 0-3-1-2h-9l-2-1zm30 1c3 3 6 4 9 5l-2 5c-16 8-34 8-50 0l9-3c4 8 10 10 17 7s12-8 17-14zm-36 2v2l-1 3-2 1 3-6zm15 2l-3 1h-2l2 1 4-1-1-1zm-14 1v1h-1zm45 1l1 3c-2 4-4 17 11 21l1 2c-10 0-20-12-13-26zm-34 1l-4 1h2l5 1c1 0 2 0 1-1l-4-1zm64 3c4 0 5 5 4 6h2c2 0 4 1 4 3 0 3-2 4-4 4h-2c1 2 0 4-2 5l-1 1 1 12 5-8c2-3 3-3 3 2-1 6-2 7-5 13-2 2-6 1-5 2l1 2h2c1 0 2 0 1 1l-4 2-1 2v2l-1 4v2l2-3c0-2 1-2 1-1l1 3 1 1c-1 1 0 1 1 2l1 3s2 0 3-2l-1-1v-1l3-2 2-1v60c-8 7-16 15-26 22-7-5-13-10-21-14l-2-1 1-2-5-5 5-4 1 1-2 3 4 3 7-7-5-5 3-5 2 1-2 3 4 2 5-9-6-3 2-7 1 1v4l5 1 2-11-7-1v-6h2v3l5 1 1-10-7-1 1-7h1v4l5 1 2-10-7-2 3-7 1 1-1 3 5 2 4-8-6-4 5-6 1 1-1 2-1 2 4 2 2-1 1-1 1 1-2-2c-3-2-7-6-8-10 0-2 5 0 9 4l2 2V98l-1-1-2-3c0-1 1-2-1-2-4 0-6-3-3-6l4-2c-1-3 1-5 3-5zm-1 40c0 1 0 1 0 0zm5-34zM63 96c10 9 17 14 37 21l1 3c-12-3-25-8-40-22zm-3 2c6 6 13 11 20 15l2 1-1 1 4 6-5 4-2-1 3-3-4-4-7 8 5 5-3 4h-1l1-3-4-3-6 10 7 3-2 6h-1v-5h-5l-2 11 7 1v6h-2v-3l-5-1v10l6 1-1 7h-1v-5l-5-1-2 11 7 2-2 6h-2l1-4-4-2-5 8 6 4-4 6-1-1 2-3-4-3-3 4-4-4h-4l4-3 1-1 1-1 1-1v-7l1-1-3 5v-1l-1-2-1-1-1-2-1-1-1-2-3 1 1 2c1 1-1 1-2 2l-1 1c-1-1-1 2-2 2v-61c7-8 28-23 28-23zm107 11l1 1-8 12-5 15-1 11-1 13c-2 11-5 17-12 24l-13 8-2-1c20-9 24-16 26-40 1-30 14-41 15-43zm2 2l1 1-5 8 5 4-2 5-2-1 1-3-4-2-4 10 7 2-1 7h-2v-5l-5-1-1 12 7 1v6l-2-1v-3h-5l-2 10 8 1-2 7h-1v-5l-5-1-2 10 6 3-3 6-2-1 2-3-5-3-4 8 5 5-5 5-1-1 2-3-4-4-7 7 4 5h-1l-4-1-2-3-2 1h-2c11-6 19-13 22-24 2-6 2-12 3-19a167 167 0 014-25l10-15zm-62 4l8 4v3l-7-4zm3 0l5 1v2zm-26 0l3 1 3 4 2-2 3 1c-8 4-14 8-19 16s-6 19-7 30c-1 15-3 25-13 37l-2-1 6-8-6-4 2-5h2l-1 3 5 3 3-11-6-2 1-6h1v4l5 1 1-11-6-1v-6h1v4h6v-10l-6-1v-7h2v5h5l2-9-6-3 3-6h2l-2 4 5 2 5-7-6-5 5-5 2 1-3 3 4 4 7-7-4-5zm47 0v3l-8 4v-2zm43 0l2 2-2 1-1-1zm-46 1l-5 3v-3zm56 2l1 1v1h-3c-1-1 1-2 2-2zm-76 1l7 4v3l-6-4zm23 1l-1 3-7 4v-3zm-34 0h2c-10 5-20 12-24 23l-3 13-1 14c0 9-3 21-13 34l-1-1c6-7 9-14 11-22 3-11 2-24 5-36a40 40 0 0124-25zm4 1l6 23c-7-3-18-2-18-2l-7-9c5-7 18-12 19-12zm86 1c1 0 1 2-1 4h-2l-1-1 3-3h1zm-78 2l6 3v2l-5-3zm21 0l-1 3-6 3v-2zm59 1c1 1 0 4-2 5h-2l-1-1v-1l3-2 2-1zm-7 1c2 0 2 1 1 2l-2-1 1-1zm-72 2l5 2v3l-5-2zm19 0v3l-6 3v-2zm61 1v1c0 2 0 3-2 3h-2c-2 0-2-1 0-2l3-1 1-1zm-7 1l1 1h-2l1-1zm-72 2l4 2v3l-4-2zm17 0v3l-5 2v-2zm57 1v2l-1-1c-1-1 0-1 1-1zm2 3v1h-2v-1h2zm-75 0l3 2v3l-3-2zm16 0v3l-5 2v-2zm-48 2c1 0 2 0 1 2l-2 2h-1l-1 1c-1 1-1-1 1-4l2-1zm47 2v3l-4 2v-3zm-15 0l3 2v3l-2-2zm40 0v3l-1-2 1-1zm-70 1c2 0 3 1 2 2l-5 3v-1h-1c-1-1 0-1 3-3l1-1zm67 1l1 1c1 1 2 3 1 4v1l-3-3c-1-2 0-3 1-3zm-56 0c4 0 12 1 23 8l4 2c4 2 7 4 13 5l-1 3c0 1 2 5 1 8l1 1 1 3-9-1c-5-1-13-5-18-8-4-3-10-6-16-7v-2l-1-9-1-3h3zm34 2v3l-4 1v-2zm18 0l4 4 1 1h-1l-1 1c-1 0-5-4-4-5l1-1zm-32 0l3 2v2l-3-1zm-28 1l1 1c1 1 0 2-3 3h-3c1-1 0-1-1-1l3-2 3-1zm-9 1c4 5 3 12-2 16l-1-1v-2s6-3 2-12v-1h1zm66 1c2 0 6 4 4 5v1l-1-1-4-2c-1-1-1-3 1-3zm-16 1v2l-3 2v-2zm-40 2c2-1 3 2 1 3h-5c-2 0-1-1-1-1v-2h5zm65 0v3c-1 0-6 6-2 13v1h-1c-3-2-4-12 3-16v-1zm-11 1l2 1 3 2-1 1v1l-4-1c-3-2-2-4 0-4zm-14 0v3l-3-1zm-45 3h4c3 0 4 2 1 3h-3l-2-1-1-1 1-1zm70 0l-1 11c-1 0-4-8 1-11zm-12 2l4 1v2s1 0 0 0h-4c-2 0-3-2-1-3h1zm-59 1h2c4 1 5 3 3 4h-3l-3-2 1-1v-1zm11 0l4 1-8 34-6 2 5-1v2l-5 1v1l5-1v3l16-2v-29-7l5 3 1 34 17 2v-3c12 4 25 9 36 21l-15 8-1 1c13-6 32-19 47-32v89h-68v-15c0-5 1-11-1-15v-4c4-5 6-11 8-17l3-1 1-1-7 2-15-5c-10-2-24 0-35 5h-1c3-9-2-18-12-21l-3-1v1c15 2 19 18 13 26-2 2-2 3 1 3 13 0 18 14 12 22v1c4-5 5-14-1-21 4-5 14-14 22-13 3 0 6 4 8 6 4 6 5 15 5 20v2l-1 2h-6c-2 1-2 0 1-3l1-2-2 2c-2 3-2 2 0-3 1-4 1-4-2-6l-2-2c-1-1-1 0-1 1 1 1 0 2-2 1-4-3-7 2-3 4l1-1c-3-2-1-3 2-2 2 2 2 1 3 0l3 2-1 3-1 6v7c2 4 6 5 9 4l2-1v3c-7 3-12 11-12 11h-3c-3-6-9-11-16-14 0 0-1-2-1 1l3 3c3 2 8 5 11 10h-2l-8-7c-1 0 0 6 3 8l-46 1c3-13 3-27-4-45 6 1 12-1 17-3l-1-1c-6 3-12 3-18 3 5 8 9 27 5 45H34l-1-97 1 1 1 2 2 1 1 1v4c-3 4-5 11-4 18 4-2 8-9 8-9l1 9c-1 0-3 1-3 3h-3v2c-4 2-4 8 1 9l-1 3h3c2 5 8 3 8 0l3 1-1-4c8-3 2-8 1-8v-3h-3l-2-3-1-13 8 6c3 1 3 1 3-2l-1-2c2 1 4 4 4 6 1 1 2-2-1-5 7-7 12-19 13-27l9-4v-1c7-4 10-10 11-16zm8 2l2 1-2 1zm-20 1l2 1 3 3-1 1c-1 1-2 0-4-2l-2-2s0-1 0 0c2 0 1-2 2-1zm63 0h1v3h-1c-3 1-5 1-5-1-1-1 0-2 4-2h1zm-41 1v2l-3 2 1-3zm-25 1l2 1c2 3 3 4 2 5s-3 0-4-3l-1-1v-1l1-1zm68 1v3l-4 2c-2 0-3-1-2-3l6-2zm-69 2c2 3 2 5 1 5-1 1-3 0-3-2v-4c1-1 2 1 2 1zm26-1v2l-3 2v-2zm7 0l4 3v1l-4-1zm38 3v2l-3 3c-3 1-4-2-1-4l3-1h1zm-38 1l4 2v2l-3-2zm-7 0v2l-4 2 1-2zm16 2c1 0 14 4 19 3l7 7c-5 7-20 13-20 13zm31 0c0 2-2 7-4 4-1-1 0-2 1-3l3-1zm-75 0l-1 2v-2h1zm28 1v3l-4 2v-3zm7 0l5 3v3l-4-3zm-7 4v2l-5 3v-3zm8 0l5 3v3l-5-3zm-71 0l1 2h-2l1-2zm2 3l1 1h-2l1-1zm61 1v2l-6 3 1-3zm8 0l5 3 1 3-6-4zm-72 0h1v2l-2 2c-2 1-2 0-2-1l3-3zm4 2h1v1c-1 1-3 0-2-1h1zm60 1v3l-6 3v-3zm-63 1h2c2 1 1 1 0 1l-4 3-1 1c-2-2 1-5 3-5zm71 0l6 3 1 3-7-4zm-67 2h1v1h-2l1-1zm-3 1l1 1h1c2 0 2 1 1 1l-3 2c-2 2-3 2-3 0l3-4zm70 0l7 4 1 3-8-4zm-8 0v3l-7 4 1-3zm8 4l8 5v3l-8-5zm-8 1v3l-7 3v-2zm-60 2h1l-1 1h-2l2-1zm83 0c14 3 27 10 40 22l-3 2s-11-13-36-21zm-15 1l4 3h-4zm-65 0l2 1c5 4 8 7 9 11 1 2 1 2-2 1l-8-6v15c4 1 3 6 3 6 8-3 6 9 0 6 1 9-9 8-7 1-8 0-7-9 0-8-1-3 0-4 2-5v-12l-8 9v-9c1-4 6-9 8-10h1zm6 0l1 1-1 2-1-1zm51 1v2h-4zm-39 19l2 1c8 2 13 12 9 19l1 2c4-6 1-20-11-22h-1zm3 4c-1 2-1 2 1 2 3 1 6 6 5 11l1 1c1-4 0-11-7-14zm39 9c8 0 17 2 24 6-3 2-10 3-10 3-4-4-6-9-14-7-7 2-14 9-18 14-4-3-7-3-10-3v-1l2-5c7-4 17-6 26-7zm27 6c-2 6-4 11-8 16l-1-2c4-6 6-11 6-13zm-4 2s-3 9-5 10l-1-2 4-7zm-22 0l2 2 5-1h-1l-5-1h-1zm18 1l-2 5-1-1 2-4zm-2 1l-1 2-1-2zm-13 2l-3 1h7l-1-1h-3zm-6 1l1 1v3h11l1-2c0-2 0-2-1-1h-10l-2-1zm-24 3v1c6 2 11 7 8 16l1 1c3-9-1-16-9-18zm2 4v1c5 2 5 9 4 8l1 2c1-4-1-10-5-11zm19 9h-1l3 2 3 2h-2c-2-1-5 0-7 1h-2-1l3 3c4 2 6 2 9 1 1-1 2 0 0 1-3 1-6 1-11-2-2-2-3-2-1 0 3 2 10 5 14 2v-2-3-1h-1l-6-4zm1 4l3 3h-1c-1-3-4-2-4 0h-1l3-3zm21 3h-1c-1-1-3-3-3 0h-1c0-4 4-3 5 0zm-6-2v2l-1-1v-1h1zm-11 0l-1 1v-1h1zm17 0l1 1v1l-1-2zm-24 0v1h-1v-1h1zm16 3h1c2 1 5 2 8 1h1l-2 1c-2 1-6 0-8-2zm-22 1v1c0 1 7 5 10 5h5c4-2 3-5-1-3-2 1-8 1-11-1l-3-2zm30 2l2-1c1 1-1 2-3 3-2 0-4 0-6-2-2-1-1-2 0-1 3 2 5 2 7 1zm-29 4c6 2 12 7 15 13h-1c-2-3-6-8-13-11l-1-2zm31 3v2c-4 2-7 4-9 8h-2c2-4 6-8 11-10zm0 3v2l-6 5h-2c2-3 5-6 8-7zm-27 2l6 5-1 1-4-4-1-2zm27 1v2l-3 2h-2l5-4zm0 3v1h-1l1-1zm-24 1v1z" fill="#131f67"/><path d="M48 242l13-2s27 45 25 45H52c-1 0 7-16-4-43zm12-32c13-11 27-11 42-13v-37l6 4v34c19 1 36 8 51 21 0 0-21 11-31 14-7-5-26-8-38-4l-12 4c3-18-11-21-16-21l-2-2zm-17 6v-12c0-1-8 12-8 9-1-8 2-17 8-19 1 0 13 7 12 13 0 2-10-7-10-6v15c3 1 3 4 3 5 8-1 7 8 0 8 0 10-9 5-7 0-10-1-5-10 0-8-1-2 0-4 2-5zm11-44l-20-2 1-49c10-23 49-12 43-7-19 12-22 34-24 58zm38-21l-1-5c-2-3 41 16 42 17l1 6c0 2-27-11-42-18zm78-9c-1 22-5 37-17 55l-5 2c2 3 13 8 18 10l25-15-1-53zm9-24c-3-1-11-9-10-11 0-2 10 5 11 7l-1-17s-2-1-2-5c-7 2-7-8 0-8-1-8 10-5 7 1 9-2 7 8 0 7 1 4-1 5-3 6l1 12 7-9c2 3-1 19-10 17zm-32-39c-3 11 6 23 14 23l3 1c-12 11-41 13-41 12l-1 38-5-3-1-35c-19-2-36-8-49-21 9-7 19-11 30-15 12 7 30 11 50 0zm-9-50l2-2h33c-4 16-1 31 4 45-2-1-11 0-13 1l-26-44z" fill="#e2cf00"/><path d="M202 297l-1-10 1-12c1-2-2-2-4-3v-3c2-1 5 0 5 1l5-2c5 0 8 3 7 9l1 3h2v3h-3v13c-2 7-11 8-13 1zm10-1v-13c-4-1-7-6-7-6v8c0 11 0 11 2 13 2 1 4 0 5-2zm-6-23l5 5 1 1v-2c0-4-2-6-6-4zM87 285l-26-45 4-2 27 47zm69-6c-10-2-13-14-5-26l17-26 16 25c6 9 9 24-5 26-5 1-10-2-10-8l-1-1-1 1c0 6-5 9-11 9zm46-15c-4-2-5-7-1-13l6-11c1-2 1-2 2 0l5 9c5 6 6 11 3 14-3 2-8 1-8-2v-1h-1c0 3-3 5-6 4zM40 225l4-4 4 4-4 4zm85-25l-1-3c15 4 28 12 37 20l-2 2c0-1-22-17-34-19zm-44-3l5-1-1 3-4 1zm89-2l-3-2 2-2 2 2zm-90-22c7-3 12-15 11-16l4 1-8 34-6 1-1-20zm43 20l-6-24c0 1 14 5 19 3l7 8c-5 5-12 9-20 13zm59-26l-3-3 3-2 2 2zm-32-2c-2-3-2-7 1-12zm-77-7l1-9c1-1 2 2 2 3 0 3-2 8-3 6zm56-2l8-35 7-2-1 21c-5 4-10 16-10 16zm-87-5l-2-2 2-2 2 2zm47-9l-7-9c5-6 12-10 20-12l5 23c-6-2-12-4-18-2zm-36-21l1-3 3 2-2 3zm86-8h5l-1 3-5 1zM64 96l3-2c10 9 21 15 33 19v3c-13-4-26-10-36-20zm117-4l-4-4 3-3 4 3-3 4zM56 85L42 65c-7-11-8-18-6-24 3-10 18-10 20 1 0 2 1 2 1-1 2-11 19-10 20 3 2 10-6 19-10 24L56 85zM12 69C9 64 1 52 9 49c3-2 6 1 6 3h1c1-5 7-5 9 0s-1 10-6 17l-3 6zm148 5l-28-47h4l28 46zM9 33H6v-4h3v-5c0-8 0-9 3-11 4-4 12-1 11 5v21l4 1v4c-3 0-4 0-6-2-1 2-5 3-8 1-3-1-5-3-4-10zm9 7c-1-2-3-5-6-6l1 5c2 2 4 2 5 1zm2-22c-1-3-4-4-6-2-1 1-2 2-2 9v5c4 1 8 6 8 6V24v-6z" fill="#d40000"/><path d="M132 26h-7l38 76h-3c-9-3-15-12-13-22l1-1c-24 10-38 7-51 0l-6 2c0-3 5-16 11-22V49l-1-6c-9 9-20 23-22 43L63 96c1 0 12 13 38 21l-1-4 15 2 1 35 7 3v-38l15-1v3l5-1v3l-6 1-8 36 5 1c1-7 5-13 10-16v-2l10-4c2-12 8-20 14-27l-3-4 10-4-14-25c5-4 17-2 17-2-5-13-9-27-5-46h-41zm14 1c-1 3-5 3-5 0zm26 0c-3 15-2 30 4 44h-1v-1h-2v1h-5c1-1 3-3 2-5l-1 1c-1 2-1 2-3 2s-4-2-3-4c0-2 3-3 2-1 0 2 2 2 2 0l1-1c3-2 1-5-2-5h-2l-2 1 1 1 1 1-3 1c-3-2-2-6 2-6h1l-2-2c-1 0-2 0-1-1v-2c-1-2-1-1-1 0-1 2-3 3-5 1v-4c1-1 2 0 2 1v1l1-2 1-1c3-2 1-6-2-5l-1 1c-2-1-4 0-2 1h1v2c-2 1-5 0-5-2-1-2 1-5 3-4h1l-2-2c-2 0-2 1-1-1v-3h-1c0 2-2 3-4 3-2-1-2-3-2-5 1-2 3-2 3 0l1 1 1-1v-2l1-3h22zm-24 0l1 1a2 2 0 11-3 0l2-1zm-15 0h3l27 45-3 2zm5 2l6 2c-1 1-2 2-2 5zm6 9h6c-2 2-3 3-3 5zm14 5a1 1 0 110 3 1 1 0 010-3zm-9 4l4 1-1 4zm4 7l5 1-1 5zm14 5a1 1 0 110 3 1 1 0 010-3zm-9 4h4l-1 4zm5 7l4 1-3 1zm17 9c-3 0-4 3-4 5-2 0-5 3-4 6 0 3 3 3 5 2 0 1-1 4 2 6l1 15-2-2c-4-4-9-6-9-4v1c1 4 5 8 8 9l2 2c-6 6-9 13-10 19l-1 18c-3 29-15 36-16 37v4h-3l-4 3c13 7 20 15 20 15l28-22v-64l-1 1-1 1-1 2c-1 1 0 0 0 0 2 1 0 4-3 5l-3 1c-3 3-7 3-9 2l-4-3c-1-3 2-7 3-10 2-5 7-8 7-8l-1-1h1l4-2 3-5 2-8-1-4-7 10-1-12c1-1 4-1 4-6 2 1 6-1 5-4 0-4-3-4-6-3 1-3-1-6-4-6zm0 0c4 0 5 4 2 7l-2-2-2 2-1-4c0-2 2-3 3-3zm-83 0c14 9 33 9 50 1v1l-2 1 1 2h1v1c-14 8-38 9-56-3l1-1h1l3 2 1-2-2-1 2-1zm1 3l-1 2 2 1 1-2zm-8 0c23 14 44 10 57 4v2c-17 7-38 9-59-5zm54 1l-2 1v2l2-1zm-57 0c19 12 39 15 60 6l1 2c-21 8-43 8-63-7zm14 0v2l2 1 1-2zm39 1l-2 1 1 2 2-1zm-35 1l-1 2h3v-2zm85 3c0 3-5 5-7 2l2-2-2-1c2-4 7-2 7 1zM84 85l6 4-4 6-6-4zm96 0l4 3-4 4-3-3zm-2 1l-2 2 2 3c-2 2-6 1-6-3 0-2 4-5 6-2zm-41-1l-2 1v2l3-1zm-28 1l-1 2h3v-2zm25 0l-3 1 1 2 2-1zm46 1l-1 1 1 2 2-2zm-68 0v2h3v-2zm18 0h-3l1 2h2zm-14 0v2h2v-2zm10 0h-2v2h2v-2zm-41 0a2 2 0 100 5 2 2 0 000-5zm37 0h-2v2h2v-2zm58 0l1 1-1 1-1-1zm-95 1a2 2 0 110 3 2 2 0 010-3zm-8 0l3 3-4 6-6-5 3-2v2a2 2 0 102-3zm-2 2a2 2 0 110 3 2 2 0 010-3zm107 1h2c1 3-1 6-3 6-4 0-5-4-2-6l2 2zm-86 1l7 2-3 7-7-3zm-27 0c27 25 65 26 92 10h2l1 1a82 82 0 01-97-9zm74 2l2 7-7 2-2-7zm-77 0c9 8 20 15 33 19l1 3c-15-5-25-10-36-20zm32 0a2 2 0 100 5 2 2 0 000-5zm-12 1l7 3-3 7-8-4zm12 0a2 2 0 110 3 2 2 0 010-3zm11 1l6 1v7l-7-1 1-7zm31 0a2 2 0 100 5 2 2 0 000-5zm0 1a2 2 0 110 3 2 2 0 010-3zm-53 0a2 2 0 100 5 2 2 0 000-5zm42 0l1 7-7 1-1-8zm51 1h1l1 18v2c-1 1-1-1-2-4v-4-12zM60 98c-11 6-28 22-28 23v61h1l1-2c-1-1-1-4 2-5l3-1c3-2 7-3 10-2 4 1 5 4 3 9s-5 10-8 12h-1l1 1c9-5 13-22 13-33s2-22 6-30c8-13 17-18 17-18s-13-8-20-15zm27 0a2 2 0 110 3 2 2 0 010-3zm65 0l3 7-7 3-3-7zm-40 0a2 2 0 100 5 2 2 0 000-5zm14 1a2 2 0 100 4 2 2 0 000-4zm-14 0a2 2 0 110 3 2 2 0 010-3zm14 0a2 2 0 110 4 2 2 0 010-4zm24 1a2 2 0 100 5 2 2 0 000-5zm0 1a2 2 0 110 3 2 2 0 010-3zm-50 0l7 2-1 7-8-2zm89 0c1 4-1 8-1 8l-3 7h-1l3-8 1-4-1 2-3 8c-1 3-1 2-1 0-1-4 0-6 4-11l2-2zm-51 2l2 7-9 1-1-7zm-35 1a2 2 0 100 4 2 2 0 000-4zm12 0h8v8h-8zm-12 0a2 2 0 110 3 2 2 0 010-3zm31 1a2 2 0 100 5 2 2 0 000-5zm-15 1a2 2 0 100 4 2 2 0 000-4zm15 0a2 2 0 110 3 2 2 0 010-3zm-15 0a2 2 0 110 4 2 2 0 010-4zm51 1c2 0 8 4 9 6 1 3 1 3-1 1l-6-5 3 3 4 6-1-1a23 23 0 01-4-3c-3-2-5-6-4-7zm-105 0c2 0 3 1 3 3l2 1 4 1v3h-4l-3 1-1 1c-2 2-5-1-3-4v-2c-1-2 0-3 2-4zm1 2l-1 1v3 3l1-1 1-1h5v-1h-4l-1-1v-1l-1-2zm-12 2l3 4h3v3l4 2-4 2v3h-3l-3 4-2-4h-3v-2l-3-3 4-2v-3h2l2-4zm89 2v3h-4v-2zm-26 3h5v36h-2v-2l-1 1-2-2zm-63 1l-3 4 4 3 3-4zm64 0v2h3v-2zm-64 2l3 1-2 2-2-1zm89 0v20c-8 6-10 17-10 17l-3-1 8-34zm-41 1c-7 3-14 6-21 13 3 3 6 5 8 9 6-1 12 0 19 3zm16 0v2h3v-2zm-77 3l1 1c5-1 3 5 0 5l1 2c2 1 3 0 5-2l1-1 3 2-1 1c-1 3 1 6 2 3l4-1v9h-1l-4-2c-4 0-4-2-6-5-4 2-10-1-9-7l-1-5c-1-1 1-2 3-3l2 3zm60-2l6 23c-6-2-12-4-18-3l-7-8c6-6 12-10 19-12zm-62 1l-1 1v3c-1 6 3 9 8 8 2-1 2-1 2 1 1 3 3 4 6 5h1c2 1 1 0 1-1l-1-1h1v-4l-2 1c0 2-2 2-3 1-3-2-1-6-1-6h-1s-2 4-6 2c-2-1-4-3-3-4h3c1-1 0-3-2-3h-1v-2l-1-1zm79 2v1h3v-1zm0 3v1h3v-1zm0 3v1h3v-1zm0 3v1h3v-1zm0 3v1h3v-1zm0 3v1h3v-1zm-75 1l2 4h2v2l4 3-3 2-1 3h-2l-2 4-3-4h-2l-1-3-3-2 3-3v-3l3 1zm128 2h1l3 1 5 1h1c4-3 7 0 8 4v2l1 2c-1 1-3 1-5-1h-1l-2-1-1 3h-3v-3c0-2-1-3-2-2-1 3-4 2-5-1v-1c-2-2-1-4 0-4zm-53 0v1h3v-1zm53 1l1 2 1 2c0 1 1 2 2 1v-1h4v4h1v-1l3-4v1c-1 2 0 2 2 2l1 1 1 1v-3c0-4-3-5-6-3h-2l-5-1a14 14 0 01-3-1zm-79 2h-2l1 9c3 0 7 0 12 3l10 6a36 36 0 0022 6l-2-9c-7-1-13-4-18-7-7-5-15-9-23-8zm26 0v1h3v-1zm-76 0l-3 4 3 4 4-4zm0 2l2 2-2 2-2-2zm52 0l2 1c2 1 3 2 2 0l4 2 2 1c1-1 1 0 3 1l2 2c1-1 1-1 3 1l2 1 4 3h2l2 1 3 2c0-2 1-1 4 1l2 1c0-1-1-2 2-1v4h-1-1-2c-3-2-3-3-4-2h-2l-3-2-2-1c-2-1-2-2-3-1h-1l-3-3h-2l-1-1-4-3c0 1 0 2-2 0s-3-2-3-1l-3-1c-2-1-2-2-3-1h-1v-4l1 1 1-1zm-20 0l-1 13s3-3 3-6l-2-7zm44 1v1h2v-1zm-44 1c3 5 0 9-1 9l1-9zm78 4c-5 3-4 11-2 13l2-13zm-1 1l-1 10c-2-1-2-7 1-10zm31 2l2 3h2l1 2 3 3-3 2v3h-3l-2 4-3-4h-2v-3l-4-2 4-2v-3h3zm-91 1c-2 7-5 13-11 16v1l-9 4c-2 9-6 18-13 27l2 4-11 4 15 25c1 0-7 4-17 3 6 15 8 31 4 45h49l-37-73-1-1c0-1 20 3 15 22h1c4-3 30-13 50-1l7-2c-3 10-7 17-12 23l1 15c10-8 20-23 22-43l12-7h1l3-1c-9-10-27-19-38-21l1 3-16-3-1-34-6-3v37l-16 2v-3l-5 1v-3l6-2 8-34zm1 0l2 1-8 34-5 1v-19c8-7 9-12 11-17zm-55 3l2 2h1l2 2c0 3 1 1 2-2v-2h2v3c0 1 1 3 2 2 1-3 5-2 5 1v2l1 2-2 1-3-1-4-1h-7l-2-4-1-3v-2h2zm144 0l-3 5 4 3 4-4zm-79 1l5 3 1 33h-6v-36zm-65 0v4c-1 3 4 5 7 3h1l5 1h2v-1l-1-1c1-3-1-3-3-1-1 1-2 0-3-2 0-2 0-2 0 0-1 2-3 4-4 3v-1c0-2 0-2-2-3l-2-2zm145 1l2 2-2 2-2-2zm-78 1v2h2v-2zm0 4v1h2v-1zm12 1l7 26c2-1 14-7 20-14l-7-8c-6 1-12 0-20-4zm-12 1v2h2v-2zm13 1c6 1 12 4 19 3l6 7c-4 5-11 9-18 12zm51 0l1 1 3 1c3 1 5 2 6 5h1c6-1 10 3 8 9l1 3v3c-2 1-4 1-5-1l-1-2c-4 0-4-5 0-6 0 0 0 1 0 0l-2-2-4 4-3-2 1-5h-2c0 2-3 3-5 1l-1-4 1-1c-1-2 0-4 1-4zm-64 2v2h2v-2h-2zm64 1v2 3c1 2 3 1 3-1-1-1 0-2 2-1 2 0 3 3 2 5v2l1-1c3-3 8-2 8 2l-2 1-1 1 2 2 1 1 1 2c2 1 2 0 1-1v-3l-1-6c-1-2-4-3-7-2h-1c-1-3-3-5-6-6h-3zm-64 2v2h2v-2zm0 3v2h2v-2zm0 4v1h2v-1zm66 2l2 4h3v2l4 3-4 2v2l-3 1-3 3-2-3h-2l-1-3-4-2 4-2v-3h3l3-4zm-66 1v1h2v-1zm0 3v1h2v-1zm65 1l-4 4 5 4 3-4zm-65 2v2h2v-2zm65 0l2 2-1 2-3-2zm-65 3v2h2v-2zm-60 0c-4 0-8 7-9 10v11l8-10v10s-2 1-2 3l-1 3c-2-1-5 0-5 4 0 5 5 4 5 4s-1 5 4 6c2 0 5-1 4-6 3 0 6-1 6-4 0-2-2-4-4-4h-2s1-3-3-5v-15l2 2 6 5c3 1 3 1 2-2-1-4-4-7-9-11l-2-1zm0 1l1 20h-1l-1-20zm115 0c3 1 3 3 2 5v1c1 1 0 3-1 3-3 1-4 0-4-3h-5v-3h6c-1-1 0-3 2-3zm-117 0l-2 4-3 5-1 6 1-4 5-7v1c0 3-1 7-5 11l-2 2v-3c0-6 2-12 6-14l1-1zm3 1c2 0 5 3 6 4l4 7h-2c-5-3-9-7-8-8l3 1 3 3c2 2 2 2 1 0l-6-6-1-1zm114 1l-1 2h-6v1h6v3c2 1 3-1 1-2 0-1-1-1 1-1v-3h-1zm-74 0v2l-3 1-1-3zm40 1c13 3 27 11 36 19l-2 1c-10-8-22-15-33-18zm-21 0c20 0 39 8 54 21l-2 1a80 80 0 00-94-8l-1-3c15-8 29-11 43-11zm-2 3h8v8l-8-1zm-9 0l1 8-7 1-2-7zm26 1l8 3-3 7-7-2zm-13 1a2 2 0 100 4 2 2 0 000-4zm0 0l2 2-2 1-2-1 2-2zm-16 0a2 2 0 100 5 2 2 0 000-5zm0 1l2 2-2 1-1-1 1-2zm32 1a2 2 0 100 5 2 2 0 000-5zm-45 0l2 7-6 3-3-7zm45 1l1 1-1 2-2-2 2-1zm13 2l8 3-4 7-7-3zm-60 0a2 2 0 100 5 2 2 0 000-5zm27 0v8h-6l-1-7zm8 1l7 1-2 7-6-1 1-7zm-35 0l1 2-1 1-2-1 2-2zm24 1a2 2 0 100 5 2 2 0 000-5zm-12 0l2 7-7 2-2-7zm26 0a2 2 0 100 5 2 2 0 000-5zm-14 1l1 1-1 2-2-2 2-1zm14 0l1 2-1 1-2-1 2-2zm24 0a2 2 0 100 5 2 2 0 000-5zm-12 1l7 2-3 7-7-3zm12 0l2 1-2 2-1-2 1-1zm-53 0a2 2 0 100 5 2 2 0 000-5zm0 1l2 1-2 2-1-2 1-1zm43 1a2 2 0 100 5 2 2 0 000-5zm0 1l1 2-1 1-2-1 2-2zm-83 1c2 0 3 2 4 3 0 2-2 3-2 3l-2-1-2 1s-2-2-1-3c0-2 2-3 3-3zm105 0l6 5-3 1a2 2 0 00-2-3 2 2 0 00-1 5l-1 1-3-3zm-9 12l-2 1a62 62 0 00-60-5l-1-2c18-8 40-10 63 6zm-1-10l6 4-4 6-6-4zm-2 11l-2 1a59 59 0 00-56-4l-1-1c21-9 42-7 59 4zm13-9l1 2-1 1-2-1 2-2zm-109 3l-2 2 2 2-1 1c-2 1-5-1-5-3 0-4 4-5 6-2zm99-2a2 2 0 100 5 2 2 0 000-5zm-90 0c2 0 3 2 3 3 0 2 0 3-2 4s-4-1-4-1l2-2-2-2s1-2 3-2zm-6 1l4 3-4 4-3-4zm90 9l-2 1-3-2v2h1l-1 1c-18-10-37-7-50 0v-1l1-1v-2h-1v-2c18-8 39-6 55 4zm6-9l1 2-1 1-2-1 2-2zm-96 1l-2 2 2 2 2-2zm57 1h-3l1 2h2zm1 0l1 2h2v-2h-3zm4 0v2h2l1-2zm-9 0h-2v2h2zm13 0v2h2l1-2zm-66 0l1 1-1 1-1-1zm49 1h-2v2h2zm21 0v1l2 1v-2zm-25 0l-2 1 1 2 2-1zm29 0v2l2 1v-2zm-32 1l-2 1v2l2-1zm36 1l-1 1 2 1 1-1zm-40 1l-2 1 1 1 2-1zm-40 0l2 2 2-2c2 1 2 6-1 6-3 1-6-4-3-6zm83 0v2l2 1 1-2zm-60 11l26 46h-4l-26-45zm-5 2l2 2c-3-2-8 0-7 2 0 2 1 3 1 1l3-2c2 0 4 3 2 5-1 1-2 1-2-1v-1l-2 2v1c-3 2-1 6 2 4h2c1 0 2-1 1-2v-1c1-1 4 1 4 3l-4 2v1c2 2 5 1 6-2v-1l3 4h-2c-2-1-5 0-5 3h1c1-2 2-2 4-1 2 0 3 2 2 4-1 1-3 2-3 0l-1-1v1l-1 2c-3 1-1 5 2 4h1l2-1v-1c-2 0-1-1 0-1 3-2 6 2 4 5l-4 1s-1 0 0 0c0 1 3 2 4 1l3-4 3 5c-3-2-7-1-7 2 0 1 0 2 1 1 1-3 6-2 5 1v1c-1 2-3 2-3 1v-1l-1 1v1c-1 0-2 1-2 3H53c2-15 2-28-3-41l-1-2h3c1 1 5 0 6-1zm4 5l2 4-3-1 1-3zm-6 4a1 1 0 110 3 1 1 0 010-3zm15 12l2 4-3-1 1-3zm-6 4a1 1 0 110 3 1 1 0 010-3zm15 12l3 5-4-1 1-4zm-4 7h-3c0-3 3-2 3 0zm3-2l3 2h-4l1-2z"/></svg>