<svg xmlns="http://www.w3.org/2000/svg" width="224.2" height="312.8"><rect y="484.9" x="2690.5" height="311.8" width="223.2" rx="10.6" ry="10.6" fill="#fff" stroke="#000" transform="translate(-2690 -484)"/><path d="M82 262l53 1 14 19-86 2zm-23 4c3-5 3-9 3-15-1-5 2-9 6-8 2 1 1 6-2 5l-1 2v17c-1 5-8 3-6-1zm-21-7c-3-4 2-8 5-6 1 1 1 2-1 1s-5 3-3 5c1 0 2 0 1-1-2-2 3-3 3-2l-1 4c-1 1-3 0-4-1zm7-17c-3-4 1-7 1-7l-6-15h30l-8 14c-1 2 1 4 1 6-3 2-1 6-3 6-5-1-9-2-14-1l-1-3zm43-101c5 25-2 52-19 70l-7-10c-6-2-11 1-16 3-4-2-9-4-13-4v-4c4 0 9 1 13 3l7-2-20-21v-4l24 25h3c-6-18 0-47 28-56zm34 31l4 17s-19 20-30 29h-9s12-21 10-20zm70 23c-8 9-18 15-29 22l-13-15c10-5 19-9 28-18l-12 4c0 2 0 3-2 3-2-3-4-5-8-6l-3-1v-12l3-1c4 0 7-5 10-7h25l1 31zm-56-26c0-1-2-18 0-29 0-2 4-3 5-5v-14l5-10 9-12c1-1 4 2 7 8 7 4 17-2 17-2s4 3 12 5v3c0 1-10-1-12-3l-7 3c0 2 19 19 19 19v4l-24-22c4 28-7 45-31 55zm-31-6v-16h15l1 17zm-72-17l-1-31c10-10 20-16 30-22l12 14-14 8c0 2-1 3 8 11 0-1 3-2 3 0-1 5 1 9 1 12-1 2-4 0-4 0-1-2-8 7-10 8H33zm95-54h8l-8 20c-5 7-10 11-15 16-4 4-7 10-10 8l-4-15c0-3 5-6 29-29zm37-29c3 2 12 1 13 0 2 2 1 3 1 4 2 2 3 3 0 7l7 15-10-5-5 6-6-7-11 7s10-11 8-18l2-4 1-5zm-6-1c1 0-2-14 1-20 1-2 4-2 5 0s-1 5-2 7c-2 4 1 10 0 14-4 9-10-1-4-1zm24-6c-2 0-1-6 0-7 0 0 3-1 4 1 2 3 0 7-4 6zm-22-28l-18 21c-18-2-36-3-54 0L75 28z" fill="#e2cf00"/><path d="M192 26L30 27l2 258 162-1zm-37 2h5l-19 24h-1l5 12c3 6 10 16 6 25l-2 1v-1c1-2 2-7 1-9l-2-7c-8-14-10-21-10-21l-1-1 10 23c3 6 3 9 2 13l-3 3v-1c3-5 2-10-1-16-5-9-8-15-9-22h-1c1 6 5 14 8 22 3 5 4 10 3 13 0 2-1 4-3 4v-1c2-4 3-7-1-15l-9-23h-1c2 8 6 17 10 25 2 5 3 9 1 12l-2 2-1-1c3-5 2-9-1-15-3-9-7-16-8-23l-1-1c1 8 4 14 7 21l4 10c1 4-2 10-5 10v-1c3-3 3-6 2-10l-3-10c-3-6-6-14-7-20h-1l5 14c2 5 5 11 6 17 0 5-3 10-7 11-4 0-5-5-4-7 2-3 7-1 5 2 0 2-3 1-3-1h-1c0 2 2 4 4 3 7-4 2-15 0-21l-6-18h-1l2 8 5 13c2 5 3 8 3 13l-1 1-1-1v-5l-3-6c-1-1-2-4-2-2l3 6 1 5h-1v-1l-4-8 3 7v2h-1l-1-1-2-5v1l2 5c-1 1-1 1-3-1l-2-2 2 3v3l-3-3-1-1 2 4 2 2 1 2-1 1-1-2-3-3-1-1c0-2-1-2-1 0l2 2c1 1 0 2-1 2l-2-3-1-1 1 3v2l-2-2-1-2c-1 1 1 3 2 4 1 2 0 2-1 1l-2-3c-1-2-2-1-1 0l2 4 2 1c2 1 2 2 2 3-4 0-7-4-8-7-1-2-1-2-1 1 2 5 8 9 13 6 2-2 0-6-2-5v1c1-1 3 2 1 3s-4-1-3-4c2-3 7-1 6 3 0 2-3 4-6 4-4 1-8-3-9-6l-1-3-1-1c1 5 5 10 8 11 6 1 8-2 12-6h9c-22 39-20 86-2 121 2 2 2 2 0 1h-6c-4 0-4 2-7 3-3 2-3 4-3 6l-1 1 1-2 2-3h1l-1 1c0 1 1 7 1 3 0-3 2-6 4-8 2-1 3 0 1 1-2 2-3 4-3 7v1c0-5 6-11 12-8v1c-6-1-10 2-10 9l1-3c1-4 6-6 10-5l1 1c-5-1-9 3-10 7 0 2 0 3 1 1 3-10 11-6 10-5-6-1-9 4-9 9l1 1 1 7v7c-2-1-4-2-8 0l-1-1 2-3c3-2 1-2-1 0l1-4-2-3h-2l2 2v3l-2 10c0 7 8 7 12 5v5l16 22-85 1c1-4 19-22 20-25l-3-9c-5-13-12-18-8-27l2-2v2c-4 7 5 20 8 28l3 9h1l-3-10-8-16c-1-3-2-7 0-11l2-2h1l-1 2c-4 6 3 16 6 23 2 5 4 10 4 14h1c-1-8-5-16-8-23-3-6-5-11-1-16h2l-1 2c-4 8 2 14 4 21 3 6 5 11 6 17h1c-2-9-6-17-9-25-2-3-2-5-2-7l2-8h1v2c-2 3-2 7 0 11l6 15 3 12h1c0-5-2-11-4-15l-6-13c-2-5 0-11 4-13h3c-1 0-5 1-5 8-1 6 2 10 4 15l6 18 1 1c0-5-2-9-4-14l-5-14c-2-4-2-10 1-12 4-4 10-1 9 3s-6 3-6 0c0-2 3-3 3-1l1 2v-2c0-1-2-3-4-2s-4 4-4 8c1 3 1 6 5 12 3 7 4 14 5 20h1c0-7-3-15-6-21-3-7-4-11-3-14l1-1v3l4 12c1 1 1 1 1-1l-4-11h2l1 6c2 4 3 4 1 0 0-1-2-5-1-6h1l3 6v-1c-1-1-3-5-2-6l1 1 3 4v-2c-2-2-3-4-2-5l2 2 1 3h1c0-3-2-6-3-6v-2c3 1 3 3 5 6h1l-3-4v-2l4 3 1 1-2-3c-1-2-1-3 1-1 1 0 2 1 2 3h1c0-1-1-4-3-4l-1-2c1-1 4 2 5 5l2 1-2-4c-1-2-3-4-5-4l-1-1c4-1 8 4 9 6 1 3 2 3 0 0-2-6-9-9-13-7-2 2-1 6 2 5v-1c-2 0-2-2-1-3 3-1 4 4 2 5-3 1-5 0-5-3 0-5 7-7 13-3l4 8 1 1c1-1-1-5-2-6-3-6-12-6-12-6l-7 6h-9c22-35 24-86 1-123 1 0 5 2 6 0h2c2 1 3 0 4-1l2-1c2 0 3-1 4-4v-2 2l-2 2h-1v-5 1c-1 5-3 7-5 8l-1-1c4-4 4-8 3-8-1 3-2 7-4 8-3 1-6 2-7 0h2c4 0 8-5 7-10l-1 2c-1 4-3 7-9 6h-1c-1-1 0-1 1-1 4 1 8-3 8-7 0-2-1-2-1-1 0 2-2 9-8 7l-2-2c4 1 7 0 9-4l-1-6v-3l-1-10h7c3-1 3-1 0 3l-1 1 1-1 2-2-1 6 1 3h2c2 1 2 1 0 0l-2-4 2-8c1-7-4-10-11-8l-1-5-1-1-15-21h80zm-17 24h0zm24-23h28l1 61h-3l-6-12-1-3v-2-5l-1-2v-4l2-3c0-2 0-3 1-2 3 1 6-2 6-5s-3-5-6-4l-2-1h-1l-1-1c0-1-1-2-3-2h-8l-1-1c-2-5-6-4-8-1l-1 6-12-1zm-89 0l13 17c5 6 5 7 4 14-1 4-1 5-3 4-1 0-3 1-3 3s2 4 5 3c2-1 2-1 1 1 0 4-2 7-3 7-2-5-8-2-6 4l1 2-3 2c-16 4-36 16-46 28l-1-85zm90 11l2 1c1 1 1 3-1 6-2 5-1 8-1 13l-2 6c-3 2-6 0-4-3 0-1 2 0 2-2v-2l-1-10 2-6c0-2 2-3 3-3zm4 8l-2-1 1-2c2-1 1 2 1 3zm3-3c1 0 2 4 1 6h-2v-2-2c-1-2-1-2 1-2zm3 0c2 0 3 3 2 6v1l-3 1v-2-5l1-1zm4 1c2 0 2 5 1 6l-1 1c-2 0-1 0-1-2v-4-1h1zm-9 2v4l-1 1v1l2 2 2 4h1v-4h2c1-1 2 0 1 1h-2v1l4-1c4-1 4-1 4 1-1 2-2 4-5 5h-9l-3-4v-9l1-1 2-1h1zm14 1l-1 3h-2l1-4 2 1zm-37-1h4v1h-4zm13 1v1h-6v7h6v1h-8v-9h8zm27-1c5 1 3 8 1 8-3 0-5 0-4-2v-5l3-1zm-41 2h5v2h-6zm11 1a2 2 0 110 4 2 2 0 010-4zm15 1l1 2h-2l1-2zm-28 1h7v1h-7v-1zm38 0c1 0 2 1 1 2s-3-1-1-2zm-72 2c-1 1 0 3 2 1 4-2 11 0 15 2v-1c-4-3-12-5-17-2zm66-2v2h-1c-1 0-1-2 1-2zm3 0c1 0 1 3-1 2l1-2zm-34 2h6v1h-6zm-43 2c2 2 2 2-1 1h-5c-2 1-2 0-2-1h8zm9 3l-2-1c-1 1-1 1 1 2l1 2 1 2h2l3 4c3 1 2-1 0-2l-2-2 8-1 2-1 2-1-4-2c-4-2-7-2-10 0-1 0-2 0 0-1 5-3 10 0 14 2h1l-3-2c-5-3-10-4-14 1zm34-3h6v1h-5zm-46 1c2 0 5 2 5 3l-2-1h-8l5-2zm62 1v2c-4 0-4 4-2 6 1 1 4 1 5-2h1v1l-1 2v6c1 0-3 11-9 16-1 1-2 0-1-1 5-10-4-20-8-30h15zm-42 2h1c0 5-5 4-5 0 1 4 4 2 4 0zm-26 0v4c0 5-6 6-6 2 1-2 3-2 3-1 1 2 1 0 1-1l2-4zm28 0l1 1v1c-1 1-2 1-1-1v-1zm45 1l-1 1 1-1zm-52 1h-1v-1c1-1 1 1 1 1zm-18-1c1 3 3 3 4 0h1c0 4-5 4-5 0zm-2 0l1 1-1-1zm8 1v1c-1 1-1 0-1-1h1zm65 0l2 1h11c1-1 2 1 1 3l1 1v8l1 2 5 10c1 3-3 0-3 0l3 3 5 1-1 9h-32l4 6c6 2 12 2 17-2l12 5v4l-12-3-7 2 20 20v4l-17-17v44h17v31c-8 8-19 17-30 22l-12-15v-1l-7-12c2 0 9-1 10-5v-2-8c-1-4 3-3 3-3v-14c-5 4-11 9-19 11-5-25 3-55 25-76h-2a86 86 0 00-24 77l-1 2-1 1-2 1h-1c-1 0-1-2-2 0h-2v1l2 4c-1 1-1 2 1 2 0 0-1 4 2 4h2v1h-2v1h-2l5 7 1-5 6 1c1 2 7 17 20 28l-9 4-1-5-1 2h-2v1l-2 1 3 2-8 2c-21-34-31-82-4-132h7l-2 2h2l1 1h1l2 1 1-4h6s10-8 9-9l-10 7h-1l4-6c3-3 4-7 4-10v-1c-1-2 0-3 1-5l1-2v-2l1-1zm-56 8c4 1 1 5-3 2-1-2-2-2-3 0v1h2c5 5 9-2 5-4-1 0-2 0-1 1zm-18-1l1 1v2c-1 4-4 12-9 8-2-1 0-6 2-4 2 1 1 4-1 2v1c1 1 4 0 5-3l2-5v-2zm1 7c0 3-2 7-5 8-2 0-5-1-4-2h2c3 1 4-1 6-4l1-2zm7 1v2 1h12c2 1 1 0 1-2s-1-2-1-1H99zm-6 2v2c-1 4-4 7-8 5-2-1-2-2 0-1 3 1 6-1 7-4l1-2zm10 3h4-4c-2-1-2 0 0 0zm-22 3l6 8a120 120 0 01-1 124h-6l2-2h-3v-1h-2l-1-2-2 5H63c26-24 31-54 26-78l2-2 1-1 2-1c1 1 1 2 2 0l1-1h2l-2-1-1-3-1-2c0-3-1-3-4-4v-1l2 1 1-2h2l-7-7v6l-6-1c-5-11-12-20-20-28l8-3 2 4 1-3 1 1 1-2h2l-2-2zm45 5h1l-1 1v-1zm-50 1l-1 1a1 1 0 101-1zm6 0a1 1 0 100 3 1 1 0 000-3zm-20 1c4 3 7 7 11 13v1l2 1s7 9 6 13c-2 0-4 0-8 3h-3l-3 1 1 1 1-1h3v11c1 2 0 2-1 3l-3-1 1 14c6-7 20-12 19-11 7 36-9 61-27 79h9l-8 16c0 1 2 3 0 5l-1 4c-5 1-9-1-15 1v-4c-2-1-2-5-1-6v-3l-5-10-1-3-6-1v-9h35l-6-8c-7-3-16 2-16 2s-8-4-13-4v-4c5 0 9 1 13 3l7-2-20-21v-4a2006 2006 0 0017 18v-44H33v-9l-1-1v-21c9-8 30-22 30-22zm15 1l2 9 1-2 2 1v-2l2-1zm68 2a1 1 0 100 2 1 1 0 000-2zm-5 0a1 1 0 100 3 1 1 0 000-3zm-67 1a1 1 0 100 3 1 1 0 000-3zm71 1l-8 8h2l1 2 2-1 1 1zm3 3a1 1 0 100 2 1 1 0 000-2zm-64 1a1 1 0 100 3 1 1 0 000-3zm5 1a1 1 0 100 3 1 1 0 000-3zm-4 2l1 10 1-2 2 1v-2h2zm49 2a1 1 0 100 3 1 1 0 000-3zm-52 1a1 1 0 100 2 1 1 0 000-2zm57 0l-1 1 1 1 1-1-1-1zm-1 2l-6 7 2 1 1 1 1-1 2 2zm4 2a1 1 0 100 2 1 1 0 000-2zm-53 2a1 1 0 000 2l2-1-2-1zm-28 1l-2 1 2 2zm34 1a1 1 0 100 2 1 1 0 000-2zm-8 1a1 1 0 100 3 1 1 0 000-3zm47 3a1 1 0 100 2 1 1 0 000-2zm-4 1a1 1 0 100 3 1 1 0 000-3zm46 1l3 2v39h-3zm-93 0c2 0 4 0 5 2 1 1-2 0-4 1h2l6 1v3l-4-1h-4v1h3c5 0 6 1 7 2 0 2-1 1-6 1h-4c-1 1 1 1 2 1h5v1l-1 1-4 1c-3 0-4 0-1 1h3c1 2 0 2-3 3h-4c-5-1-7-2-7-4-3-8 0-14 7-14h2zm51 0l-6 9 2-1 1 2 2-1 2 1zm-43 1v1h-2v-1h2zm-41 0l-3 3 4-2zm87 1a1 1 0 100 3 1 1 0 000-3zm43 1l4 4h-1v3h3l2 1h-5v3h6v-1l3 2v26h-12v-38zm-85 3h-1v-1l1 1zm4 1a1 1 0 100 2 1 1 0 000-2zm-4 0l1 1v2l-2-2 1-1zm36 3a1 1 0 100 3 1 1 0 000-3zm-38 2l1 1h-3l2-1zm34 0a1 1 0 100 3 1 1 0 000-3zm4 1l-5 9 2-1 1 2 1-1h2zm-41 2c1 0 2 0 1 1h-2l1-1zm45 0a1 1 0 100 2 1 1 0 000-2zm-38 1l-1 1a1 1 0 102 0l-1-1zm86 0v2h6v-2zm-86 2l-3 9 3-1 1 1 1-1h2zm4 1a1 1 0 100 2 1 1 0 000-2zm-8 0a1 1 0 100 3 1 1 0 000-3zm90 1v2h6v-2zm-54 3a1 1 0 100 2 1 1 0 000-2zm54 1v3h6v-3zm-135 1h2v41l-2-2zm-1 0v38l-4-5h1v-3h-4l-2-1h6v-3h-7v2l-3-4v-24zm82 1l-3 9 2-1 1 1 1-1 2 1zm-92 0v3h7v-3zm96 1a1 1 0 100 2 1 1 0 000-2zm-8 0a1 1 0 100 2 1 1 0 000-2zm-27 0a1 1 0 100 3 1 1 0 000-3zm85 1v3h6v-3zm-85 2l-1 1-2-1 3 10 3-10-2 1zm-61 0v3h7v-3zm146 3v2h6v-2h-6zm-146 2v2h7v-2zm92 0a1 1 0 100 2 1 1 0 000-2zm-35 1a1 1 0 100 3 1 1 0 000-3zm8 1a1 1 0 100 2 1 1 0 000-2zm81 0v2h6v-2h-6zm-54 1l-1 1h-2l4 8 2-9-1 1zm-92 1v2h7v-2zm61 1a1 1 0 100 2 1 1 0 000-2zm0 2l-1 2-3-1 2 11 6-11-3 1zm-61 1v2h7v-2zm97 1a1 1 0 100 2 1 1 0 000-2zm-8 0a1 1 0 100 2 1 1 0 000-2zm-89 3v3h7v-3zm93 0a1 1 0 100 3 1 1 0 000-3zm17 1c6 0 7 2 7 9 0 5-2 7-6 8h-8l-1-3 4 1 2-1-10-1-1-2h8v-1h-8l-1-3h9c2 0 1 0 0 0h-7l1-3h2l6-1h-5v-2c3-1 5-2 8-1zm-54 1a1 1 0 100 2 1 1 0 000-2zm44 0l1 2-2-1 1-1zm-36 1a1 1 0 100 3 1 1 0 000-3zm33 2c2 0 1 3-1 2-1-1 0-2 1-2zm-42 3l1 11 6-11-3 1-1-1-1 1-2-1zm39 1c1 0 2 1 1 2l-1-2zm-3 2a1 1 0 100 2 1 1 0 000-2zm5 1v2h-1c-1-1 0-2 1-2zm-44 2a1 1 0 100 2 1 1 0 000-2zm89 1l-4 2v2l4-4zm-40 1v2h-2c-1-2 1-2 2-2zm-41 1a1 1 0 100 2 1 1 0 000-2zm-5 2a1 1 0 100 2 1 1 0 000-2zm49 1a1 1 0 100 3 1 1 0 000-3zm-52 0v11l7-9-3 1-1-2-1 1zm43 3a1 1 0 100 2 1 1 0 000-2zm34 0l-1 2 4-2zm-29 1a1 1 0 100 3 1 1 0 000-3zm4 1l-2 2h-1l-1 2h-2l7 6zm-56 1a1 1 0 100 3 1 1 0 000-3zm107 2l1 85h-41l-17-23c0-3 0-7 2-12 1 1 5 0 5-4 0-3-5-4-7-2 0-3 1-7 3-8 1 1 1 2 4 2 2-1 3-3 2-5v-2-2-1c22-7 37-18 48-28zm-99 1a1 1 0 100 3 1 1 0 000-3zm-5 2a1 1 0 100 2 1 1 0 000-2zm57 0a1 1 0 100 2 1 1 0 000-2zm-61 1l-2 11 8-8h-2l-1-2-2 1zm53 3a1 1 0 100 2 1 1 0 000-2zm6 1a1 1 0 100 2 1 1 0 000-2zm-64 1a1 1 0 100 3 1 1 0 000-3zm68 1l-2 2-1-1-1 2-1 1 6 4zm5 3a1 1 0 100 3 1 1 0 000-3zm-66 1a1 1 0 100 2 1 1 0 000-2zm-5 1a1 1 0 100 3 1 1 0 000-3zm68 3a1 1 0 100 3 1 1 0 000-3zm-5 1a1 1 0 100 3 1 1 0 000-3zm-45 2v2l-1-1 1-1zm-26 2h1l-1 2v11l9 18H66v-2c4 0 5-3 4-5-1-1-3-2-5-1-3 1-3 2-4 4l1-4v-1c2-3 1-6 1-6 0-2 7-15 9-16zm-35 0c4 4 8 15 8 15s-4 4 0 8v3l-2 6h-1c-7 0-8 9-1 9l2 1 2 1h1l3 2h2l3 1h3c1-1 1 0 1 1l2 3c4 2 6-1 6-5l1-2 11 1-16 19H34v-63h3zm103 4c2 0 2 2 0 1-3-1-7 1-8 4v1-1c0-4 2-6 5-6l3 1zm-1 2l2 1v1c-3-1-6 0-8 4v-1c0-3 3-5 6-5zm-20 1h-3c-1 1 0 2 2 1h5l-4-1zm23 3c1 1 0 3-1 4-3 0-4-4 0-3l-3-1c-2 1-3 3-4 6l-1 1v-3c1-3 3-5 6-5l3 1zm-30-1v2l1 1h9l3 1 1-2v-2l-2 1h-7l-5-1zm4 6l-2 2c-1 1 0 3 1 3h1c-1-1-2-2-1-3h2c2 2 5 2 5 0l-1-1h-3l-2-1zm21 6c5 0 3 7 0 5-1-1-1-3 2-3-3-2-5 0-4 3l-1 4c-1 1-1-2-1-5 1-3 2-4 4-4zm-29 0l1 1c3 3 4 4 2 4-4-1-5 0-8 1h-2c-3-1-2 1 0 3 5 2 8 2 12 1 2-1 2-1 0 1-3 2-7 1-13-2-1-1-2-1 0 1 4 2 10 4 15 1l1-1c2 1 2-1 0-2v-2l-2-1-1-1-5-4zm-41 7c-2 0-2 0-2 4l1 3c1 10 0 14-3 15h-2c-2-1-3-3-2-5l1-2a547 547 0 012-12v-4c1-3 2-4 5-4s4 5 0 5zm64 0h-1c-1-3-3-2-4 0 0-4 5-3 5 0zm-77-2c6 0 7 1 7 8v6h-4l1-3-3-4-1-2c-1-2-1-1-1 1v1h-2c-2 1-3 0-2-1h-2c-2 1-3 1-2-1 0-5 5-6 9-5zm54 0c2 0 3 2 3 3h-1c0-3-2-3-3 0h-1c0-2 2-3 2-3zm17 0v1h-1l1-1zm6 0l1 1v1l-1-2zm-19 1v0zm-6 0l-1 1h-1l2-1zm18 3h8l-2 1h-6v-1zm-1 1c3 2 6 2 9 1h1c-5 4-11 0-10-1zm-79 3l-2 7c-9-1-4-13 2-7zm55-2l1 2c7 3 10 4 14 2l2-2h-2c-6 2-9 0-14-1l-1-1zm-26 1v9h-6v-1h5l-1-7h-5v-1h7zm2 0h6v1h-6v-1zm-26 3h-2c-1-1 0-2 1-2l1 2zm3-2v2h-1c-1-1 0-2 1-2zm-7 0l1 1c0 1-1 2-2 1l1-2zm37 1v1h-7v-1zm-27 0l1 2-2-1 1-1zm-6 4v4h-1c-2-1-2-6-1-6l2-1v3zm20-3a1 1 0 110 3 1 1 0 010-3zm6 1h7v1h-7v-1zm-23 0l1 1-1 5 1 1c-1 1-2 0-2-1-2-2-1-6 0-6h1zm-6 0l-1 5-1-1-1-3 2-1h1zm10 1v7l-2-1v-6h2zm26 1l-1 1h-6v-1h7zm-23 2v3h-1c-1-1 0-3 1-3zm21 0l-1 1h-4v-1h5z" fill="#131f67"/><path d="M197 299v-3h3l7-10-7-16h-3v-3h10v3h-3l5 12 3-4v-8h-2v-3h8v3h-3v26h3v3h-8v-3h2v-12l-8 12h3v3zm-42-23c-8-3-10-12-6-21 5-12 13-19 19-30l15 21c9 13 8 24-1 29-6 3-13-1-13-8l-1-1-1 2c0 6-7 10-12 8zm44-23l9-17 10 16c1 4 0 8-3 9s-5 0-6-3c0-2-1-1-1-1 0 3-3 5-6 4-2-1-4-4-3-8zM49 226l-8-6h28l-10 6-5-6-5 6zm69-2h-1v-2c-3-11-14-10-14-10l23-23c2 8 10 25 10 25h-8c-6 3-9 5-9 8l-1 2zm25-35c8 0 9-4 10-5 5 0 8 3 10 6 3 2 2 0 3-2l7-2v2l-5 4h-2l-2 1-14 8s-6-8-7-12zm-93 0v-43h9c2-4 6-6 9-9v16c-8 11-13 24-8 44h-3zm49 3c3-9 5-18 5-28h17l1 6zm58-20l-1-16c12-15 13-27 9-44 4 1 6 4 10 9v42l-10 1c0 2-6 6-8 8zm-53-25v-7l22-21-5 28zm-36-22c-1 1-7-5-8-9 1-2 14-9 14-9s7 10 7 14c-3 1-6 1-9 4-1 0-1-2-4 0zm-10-8c2 0 1 2 0 4l-9 3 9-7zm30-22l6 1 3-1c3 1 3-2 5-2 3 0 4-2 4-5v-1c1-1 2 0 2 1 2 5 6 11 12 10l-21 22c-3-9-6-17-11-25zm68-5l10-7 5 7 5-6 10 7-30-1zM56 87c2 1-19-24-21-34-2-5-1-11 3-14 7-5 15-3 16 5 1 2 2 2 2 0 1-10 13-11 18-4 3 5 3 13-1 20L56 87zM16 77L7 61c-2-4-1-9 2-10 3 0 6 1 6 4h1c1-6 9-4 9 1 1 4 0 6-5 13l-4 8zm1-35h4l-5-11-4 4v7h3v3H6v-3h3V17H6v-3h9v3h-3v12l8-12h-3v-3h10v3h-2l-7 10 6 15h3v3H17z" fill="#d40000"/><path d="M161 27l-87 1 17 23c18-4 34-1 50 1zm-2 2l-6 7c-1-2-5-1-4 2-5-2-6 4-2 4 0 1-4 2-5-1-4 2-6 0-7-1 5 3 8-4 2-4 3-4-5-6-5-1-5-1-4 6 0 5-2 3-6 1-7 0-2 2-6 2-7-1 5 2 5-6 0-4 2-6-6-5-4 0-5-1-4 6 0 5-4 3-7 0-7 0-3 2-7 1-7-1 4 2 5-5 0-4 1-5-6-5-5 0-4-1-4 5 1 4 0 2-4 4-6 2-1 1-3 2-5 0 3 0 3-6-2-5 1-3-1-3-4-2l-3-5zm-60 8l-1 1 1 2c4 6 13 5 16-1v-2c-1-1 0-2 1-2s2 1 1 2c-2 2 2 7 7 7 5 1 10-3 9-6v-1c0-2 4-1 2 1v1c1 6 8 7 12 5-5 7-12 2-13-3-6 9-14 7-18-1 0 0-8 14-18 0-5 11-12 4-12 3 4 2 10 1 11-5l-1-1c-2-3 4-3 3 0zm-17 0l1 2zm68 3l-1 1 1-1zm13 0c-3 0-5 4-5 9l1 10-1 3-2 1c0 2 0 3 2 4 1 0 3 0 4-2l1-3v-5c-1-3 0-8 1-10 2-4 2-6 0-7h-1zm0 1c3 0 3 3 1 4h-2c-1-1-1 0 0 0l1 3-1 8c1 6 0 9-2 10-1 1-3 0-3-1-1-2 0-3 3-3l-1-5c-1-8 0-13 1-15l3-1zm21 7l-2 1v4c-1 2-1 3 1 3 3 1 5-1 5-4 0-2-1-4-4-4zm1 1c1 0 3 2 3 4s-2 3-4 3l-2-1 2-1 2-1c1-1 0-3-2-3v1c2 0 1 2 1 2-1 1-2 0-3-1l1-3h2zm-20 14l-1 1v2l-1 2c-1 2-2 3-1 5v2c-1 5-4 11-8 15v1h1l10-8-11 9h7c-1 2-33 28-25 76 10-2 15-6 20-11v14s-4-1-3 2v11h-1c-1 4-6 4-8 4l-1 2 6 11h1v1l1 2 4 5s0-1 0 0l2 2 3 4h1l1 2c15-7 31-22 30-22l1-32h-18v-42l17 17v-5l-20-20 7-2c4 2 8 3 13 3v-5c-6 0-9-2-11-4h-4c-6 5-10 3-14 2l-4-5h33V91h-5l-3-2 3 1-1-2-6-12v-3-5l-1-2c1-2-1-3-1-3-6 2-13 0-13 0zm13 1l1 1c0 2-2 2-3 2-4 1-11 1-12-1 0-2 1-2 4-2h10zm-14 4l2 1-2 3c-1 1-2-1-1-2l1-2zm15 0l1 4-2-2 1-2zm-4 1h1v4l-2-1c-1-2 0-3 1-3zm-7 0v4c-1 1-2 0-2-2l2-2zm4 0c1 1 1 5-1 5-2-1-2-5 1-5zm-9 5h3s-3 8-7 11h-1l5-11zm16 0l5 13-8-13zm-12 1h2l2 5 3-5h1c1 0-2 8-4 9-2-2-4-7-4-9zm-1 2l5 9c2-2 4-5 5-9l7 11-7-5-5 6-5-7c-3 2-5 5-9 6l9-11zm-1 7l5 6h-13zm11 0l9 6h-13zm-68 3v1c1 6 6 11 12 10l-21 21s-3-11-10-23a262 262 0 004 0l2-1 2 1 4-2 2-1c2 0 3-2 3-5v-1 2c-1 2-1 4-4 4l-2 1c-2 1-3 2-4 1h-8a120 120 0 01-2 123h6l2 1 4-2c4-5 4-4 7-4 6 0 10 3 11 9l1 1v-1c-2-7-8-10-13-10l22-22s5 17 9 24h-7l-4 1-2 2c-2 1-4 2-4 5v2l1-1v-1l3-4 3-2 4-2 3 1h5c-22-43-21-83 0-123h-6-2c-2-1-1 0-5 4-5 5-13 1-16-8v-1zm20 5l2 1-30 29v-2zm6 0l-1 2 1 2-1 2-2-2-5 5 4 4-4 4-1-2 2-2-3-3-5 6 4 4-3 3-2-1 2-2-3-3-5 5 4 5-3 3-1-2 1-1-3-3-5 5 4 4-3 3-1-1 2-2-3-3-3 3-1-2 32-31zm2 1l-1 2-1-1 1-1zm-74 0c-1 0-19 10-30 22v22l1 9h17v43l-18-18v5l20 21-6 2c-6-4-13-3-13-3v5c4 0 8 0 13 3 4-2 9-4 16-2l5 7H33v11h5c2 3 6 9 7 15-2 3-2 5 1 8v3c5-2 10-1 14 0 1 1 1-1 1-3l1-2c2-1 1-5 0-5 0-3 10-17 10-17l-2 1h-8c21-21 30-44 28-70l-2-10c-7 3-13 6-19 12l-1-14c1 1 3 2 4 1v-12-1-1h1c2-2 5-4 8-4v-1c-2-7-4-9-6-13h-1L62 93zm0 1l2 2c-10 5-21 12-31 23v-4c12-11 21-17 29-21zm69 3l1 2-2 2 1 1v2l-3-3zm-67 1a1 1 0 110 2 1 1 0 010-2zm91 1c22 24 11 60-18 68v-2c29-10 36-43 17-63zm-87 0l1 2c-12 6-24 15-36 28v-4c11-11 23-19 35-26zm-8 1a1 1 0 110 2 1 1 0 010-2zm-4 2a1 1 0 110 3 1 1 0 010-3zm13 1a1 1 0 110 3 1 1 0 010-3zm55 1l1 1-2 2 3 3 3-2-1 4-25 24v-3l2-1-3-3-1-2 3-3 1 1-1 2 2 3 5-5-4-4 4-3 1 1-2 1 3 3 5-4-4-5 3-3 1 1-1 2 3 3 5-5-4-4zm-72 1a1 1 0 110 2 1 1 0 010-2zm20 0l1 2c-15 7-25 15-40 32v-2c12-15 24-24 39-32zm-7 0a1 1 0 110 3 1 1 0 010-3zm114 1c3 2 8 4 12 4v3c-7 1-12-3-12-3-5 3-9 3-14 2l-2-4c7 3 14 0 16-2zm-29 1l1 1c5-2 7 4 5 7v3l3 1 2 4c0 2-3 4-3 4v3l3 2c1 2 0 5-2 6l-2 1-2 3 2 3-2 4h-5l-2 2v4c0 2-3 3-5 3l-2-1-2 1-1 3-2 1v-2l1-3 4-2 3 2c1 0 3-1 3-3l-1-2 4-4h4l1-3-1-2 2-6h2c2-1 2-3 1-4l-2-2v-5s2-1 2-3c1-2 0-3-2-3h-2l-1-5c2-2 2-5 0-6h-4l-1-2zm-76 1l7 12v1c-5 0-7 2-9 4-1-1-2-2-4 0 0 0-7-4-8-10l14-7zm-26 0a1 1 0 110 2 1 1 0 010-2zm12 0a1 1 0 110 2 1 1 0 010-2zm88 1c2 3 5 9 6 14 1 6 0 14-3 19-6 10-15 12-15 13l-1-2c1 0 8-3 13-10 3-5 5-12 4-17 0-8-6-15-6-15zm-104 1a1 1 0 110 3 1 1 0 010-3zm12 1a1 1 0 110 2 1 1 0 010-2zm109 2c3 0 6 5 9 8l1 42h-10c-1 3-4 6-8 9v-16c15-17 11-35 8-43zm-124 0a1 1 0 110 3 1 1 0 010-3zm12 0a1 1 0 110 3 1 1 0 010-3zm119 0l19 20v3l-22-22zm-112 2v3l-2-2zm-11 1a1 1 0 110 3 1 1 0 010-3zm-11 0a1 1 0 110 3 1 1 0 010-3zm108 0l3 3-1 5-4-4zm-88 1h1l-1 3-9 4 9-7zm2 1l3 9-5 4 5 4-5 9 1-8-5-3c1-4 5-6 6-6 0 0-2-8 0-9zm-15 1a1 1 0 110 2 1 1 0 010-2zm98 0c5 11 2 20-7 26v-2c6-5 10-14 6-22zm-108 0a1 1 0 110 3 1 1 0 010-3zm90 0c-4 16-4 23-4 27h-16l-1-5zm-64 1l6 6v1h-3l-3-7zm-3 1v3c-1 0-12 4-21 12l6-6c4-5 15-9 15-9zm-16 1a1 1 0 110 3 1 1 0 010-3zm7 1l1 1-3 2zm21 1l1 1-2-1h1zm-12 1l1 1c-7 4-15 8-26 18v-3c7-7 15-12 25-16zm9 0h0zm3 0l1 2v11c-3 3-6-9-2-12l1-1zm-31 0a1 1 0 110 3 1 1 0 010-3zm110 1l2 4-3 3-2-4zm-82 2v1c-2 1-4 1-5 3 0 0 4 2 5 1v2c-1 0-7-2-8-4 1-1 5-3 8-3zm-32 1a1 1 0 110 2 1 1 0 010-2zm19 1l-1 4c-5 2-10 5-16 12h-3v-1c6-6 13-12 20-15zm12 0v2l-2-1 2-1zm36 1h1l-1 1zm-48 3l2 1c-5 3-10 6-14 11h-3c4-5 9-9 15-12zm94 1v5l-4 3v-5zm-84 0l3 1v1l-7 6 4-8zm-8 1l2 1-1 2-10 7h-3c3-4 8-8 12-10zm12 2v15a43 43 0 00-8 43h-3l-7-7v-42h9c3-5 8-9 9-9zm-11 2v2l-5 4h-3l8-6zm31 1v2c-30 11-36 43-18 65l-1 2a42 42 0 0119-69zm-31 2l1 3h-4l3-3zm86 1l-2 5h-5l2-5zm-33 3h5v5h-5zm-21 1v2l-2 2-5 3-3-1-1 4-4 4-4 1c-1 1-1 3 1 5l-2 5c0-1-4 0-4 2s3 4 3 4v6c0-1-3 0-3 3 1 3 4 2 4 2l2 6s-2 2-1 4 5 1 5 1l1 1-1 1h-1c-2 0-4 0-6-2-1-2 1-6 1-6l-1-3c-2 0-4-2-4-4-1-3 2-5 2-5v-3s-3-2-2-4c0-2 1-4 3-4l1-1 1-3s-2-2-1-5 5-3 6-3l2-2c-1-3 1-6 3-6l4 1 3-2 3-3zm16 5h4v4h-4zm11 0h5v4h-5zm-26 1v2c-27 12-16 39-12 42l-1 2c-5-3-17-34 13-46zm20 4h5v5h-5zm-22 3l-1 4h-5l2-4zm100 3h3c-6 7-13 12-20 15l1-1v-2c7-3 12-8 16-12zm-17 0l-3 3-1-3h4zm5 0c1 1-8 6-8 5v-1l5-4zm2 0h3c-2 3-14 10-14 9l1-2 10-7zm5 0h3c-5 6-10 9-15 11h-1l-2-1c1 0 12-6 15-10zm-94 0v2c-7 6-10 14-6 23l-1 2c-4-10-3-19 7-27zm32 0v6l-21 21 5-27zm70 2v3c-8 9-17 13-25 15v-1l4-2c11-5 16-10 21-15zm-26 0l-4 8h-4v-2c3-1 6-3 8-6zm1 0c1 2-1 8-1 8s12 3 0 8v8c0-1-2-7-4-8 4-1 7-4 7-4l-6-4c3-3 4-5 4-8zm-85 1v5l-4 2-1-5zm74 4v1c2 1 3 11 1 12s-3-1-3-1v-11l2-1zm36 1v3c-12 13-25 23-39 29l-1-2c16-8 30-19 40-30zm-2 0c-6 8-13 13-22 15v-2c12-2 22-13 22-13zm-156 1l23 23h-3l-20-20zm89 1v1l-2 3 4 4-3 3-2-1 2-2-3-3-5 5 4 5-3 3-1-1 2-2-3-3-5 5 4 4-3 3-1-1 1-2-3-3-5 5 4 5-3 3-1-1 1-2-3-3-2 2 1-2 6-7 19-18zm36 1l6 1c3 2 2 3 0 4l-6 1v-1l4-1 1-1-2-2h-3zm-82 1l3 4-3 4-3-3zm47 1v2l-2-1zm35 0l3 1-3 1zm32 2a1 1 0 110 3 1 1 0 010-3zm-72 2l1 1-1 2 3 3 3-3 1 2-33 32-1-1 2-2-3-2 1-2 3 2 5-4-4-5 3-3 2 1-2 2 3 3 5-5-4-5 3-3 1 1-1 2 3 3 4-5-4-4 4-3 1 1-2 1 3 4 5-5-4-5zm69 1a1 1 0 110 3 1 1 0 010-3zm-27 0c3 3 4 6 4 9l-7-7 1-2zm31 0v3c-10 12-21 20-33 26l-3-3c15-6 25-14 36-26zm-14 3l-4 3v-2l4-1zm-20 0c3 1 6 4 7 8l-14 8c-2-4-5-7-6-12 7 0 9-4 9-4h4zm26 0l2 2a1 1 0 11-3 0l1-2zm-10 1v2l-6 4h-1v-4l7-2zm-97 0l4 3-1 5-4-3zm49 1v2l-30 29h-1zm55 1a1 1 0 110 3 1 1 0 010-3zm11 0v3l-2-1 2-2zm-4 4a1 1 0 110 2 1 1 0 010-2zm-11 0a1 1 0 110 2 1 1 0 010-2zm-10 0h1l-2 2 1-2zm25 1v2c-7 7-15 14-28 21l-2-2c11-5 21-12 30-21zm-19 1a1 1 0 110 3 1 1 0 010-3zm12 0a1 1 0 110 3 1 1 0 010-3zm-138 6c5-3 9-3 14-2l2 3c-6-1-11-1-16 3-5-4-8-4-12-4l-1-3c6-1 10 1 13 3zm122-3a1 1 0 110 3 1 1 0 010-3zm13 0a1 1 0 110 3 1 1 0 010-3zm-17 2a1 1 0 110 3 1 1 0 010-3zm13 1a1 1 0 110 3 1 1 0 010-3zm-17 2a1 1 0 110 3 1 1 0 010-3zm13 1a1 1 0 110 3 1 1 0 010-3zm-18 1a1 1 0 110 3 1 1 0 010-3zm-61 1l4 3-4 4-1-1 2-2-2-2zm75 1a1 1 0 110 2 1 1 0 010-2zm-4 2a1 1 0 110 3 1 1 0 010-3zm-4 2a1 1 0 110 3 1 1 0 010-3zm-71 4l1 1-2 2h-1zm-22 6l-9 5-4-5zm-27 0h11l-4 5-7-5zm13 1l5 6 9-6-9 12-5-9c-4 3-5 8-5 8l-8-10c0-1 4 1 8 5 1-3 4-6 5-6zm-13 2c2 2 7 8 7 12h-2l-5-12zm26 1l-5 11h-3l8-11zm-13 1l4 10h-2l-2-5h-1l-2 5-2-1 5-9zm0 11l1 2-1 2c-1 1-2-1-2-2 0-2 1-2 2-2zm-4 0l1 4c-1 1-3 1-3-1-1-1 1-3 2-3zm7 0c2 0 2 4 1 5-2 0-3-1-2-3l1-2zm4 1c2 0 1 3 0 4s-2-1-1-2l1-2zm-15 0c1 0 2 3 1 4l-2-1c-1-1 0-3 1-3zm15 7l-5 1h-7l-3-1c0-1 1-2 5-2 3 0 9 0 10 2zm5-1c-4 0-5 6-5 8v9l-2 5c-1 2-1 4 1 5s3 0 4-1c2-2 3-6 1-16 0-4 0-5 2-5 4 0 3-5-1-5zm0 4c-1 0-2 1-2 3l1 3c1 10 1 16-2 17-3 0-5-2-3-4l2-1c2 2 2 0 0-1l-1-4 1-9c0-3 1-7 5-8 3 0 2 6-1 4zm-27 13h4c0-2 0-4 2-6-3-3-7-2-8 1-1 2 0 4 2 5zm4-7v1c-4-1-6 3-4 5 2 1 2 0 1-1v-1h3l-2 3c-5 1-6-9 2-7zm41 5l-21 25h88l-17-23c-14 3-31 2-50-2zm0 5c2 0 5 2 7 7 0 0 9-14 18 1 1-4 9-12 18-1 3-8 10-5 11-2 0-1-7-3-10 2v3c2 2 0 4-2 2v-2c2-1-2-4-4-6-3-1-8 0-11 2l-2 3v1c1 2 1 3-1 3v-3c-3-10-15-8-17-2v1l1 2c-1 2-3 1-3 0l1-2v-1c-3-7-9-6-12-4 0 0 3-4 6-4zm-4 4l4 2c3-2 5 1 5 2-5-3-6 4-2 4-2 4 6 6 5 0 5 2 5-4 1-4 1-3 5-2 7-1 2-2 7 0 7 2-5-2-6 6-1 4-1 6 7 5 5 0 5 2 4-6-1-4 0-1 4-5 7-1 1-1 6-3 8 1-5-2-4 6 0 4-1 5 6 4 4 0 6 1 4-7 0-4 0-4 5-2 5-2s3-3 6-1c-5 1-3 7 1 5 0 2 2 4 4 3l4 5-85 1 7-8c2 2 5 1 5-2 5 3 6-4 2-5l2-1zm-4 3l-1 1zm65 2l1 1-1-1z"/></svg>