<svg xmlns="http://www.w3.org/2000/svg" width="224.2" height="312.8"><rect y="590" x="1867.7" height="311.8" width="223.2" rx="10.6" ry="10.6" fill="#fff" stroke="#000" transform="matrix(1 0 0 1 -1867 -589)"/><path d="M29 23v266h165V23zm53 2h74l-10 16c-1 2-2 1-4 1-6-2-16-2-22-2l-27 3-11-18zm-50 0h48l11 21v2l-6 11c-3 4-3 8-3 11l1 1c0 2-2 3-3 4l-5 2-2 6 1 1c-15 6-25 13-25 13l-17-7zm127 0h33v94l-13-8 3-2h1c2 0 4-2 3-4-1-1 0-1 1-2v-3-1c1-1 1-3-1-4v-1c1-2 0-3-1-3l-1-1-1-2c-2-1-1-1 1-2 4-2 5-8 2-13l-2-3-2-2 6-8-5-7c0-1 4-5 4-9 1-6-3-9-8-9-3 0-6 2-6 8l2 5 3 5-6 8 6 7-3 5c-2 4-3 9 1 12l2 1v1l-3 1-7 4-4 5-1 3-20-12-1-1v-1l1-2 1-3v-3l1-1v-3l1-3 3-3-1-4-2-2-2-4v-5l1-5 1-3 13-20zm21 10l5 2c2 2 2 5 1 8l-1 3-1 1-1 2-1 2 3 4 2 3-1 2-4 6 1 2c5 6 5 11 2 14-2 2-3 2-5 2-3 0-6-3-6-7l1-5a27 27 0 014-6l-5-6-1-1 5-8-1-3-3-8c0-4 3-7 6-7zm12 106c-3 2-5 7 0 3v3c-3 5-8 2-7-3-4 1-4-3-4-5-5-1-4-7-4-7-3-2-3-5-1-8l-6-3c3 18 12 28 23 36 0 0 0 6-1 5a58 58 0 01-26-44l-8-6c-3 34 24 56 35 60v5c-17-8-36-29-39-55l-10 16-4-2 16-25-11-7-17 28s-1 2 1 2c24 3 61 33 49 81l-3-1c2-4 7-31-9-53-7-10-19-21-37-24v10l5 1-4-4c0-3 1-4 4-3h2c3-2 5 0 5 3l1 1c2 0 5 1 6 3h2c2-1 5 1 4 3l1 2c3 2 4 3 5 6l1 1h1c2-1 4 2 2 4l1 1 4 7 1 1c3 0 4 4 2 5v2l2 6v3c3 1 3 5 0 5 2 5-1 10-1 10 6 3 1 6-1 6l1 3c-5 6-11 7-17 10l-1-21 9 6v-1l-5-4-10-9h-1l2 4c2 3 4 7 4 10l-1 5-2-1c1-3 2-6-1-11l-4-6h-2l1 27-4 1c9-2 12 11 3 11-1 0-3 3-3 5 0 3 0 7-2 11l-2 3c-3 6-5 10-4 11v1c-11 3-19 3-29 4 0-1 3-11 6-16l2-7c-8 0-6-12 2-12l4-10 9-1c5-2 9 5 9 5l2-7H88s-5 2-8 1l-4-3 22-35v-1c0-1-23 34-22 35h-2l-43-27v-14c11-6 10-9 0-2v-5c7-7 1-5 0-2 0-2-1-4 1-5 3-3 7 0 7 4 4 1 3 4 4 6 5 2 2 6 4 7 4 3 1 8 0 8l7 4c-1-20-23-39-23-38v-4s27 17 27 45l9 5c-1-28-14-48-35-60l-1-5c18 8 35 25 39 54l10-16 4 2-16 26 10 6c8-10 14-23 18-29v-1c-39-6-61-43-50-80l2 1c-8 28 6 68 48 76l-1-10-5-1c2 1 5 6 3 8l-4-2-1 1c-2 2-5 1-5-2 0-2 0-2-2-2-3 0-4 0-5-2s-1-2-3-1-4-2-3-4l-2-1-5-6h-1c-3 0-5-2-4-4v-3l-2-2-1-4-1-1c-3 0-4-3-2-5l-1-2c-1-2-2-5-1-7l-1-1c-2-1-2-3 0-5v-9-2c-2-1-1-4 1-5l1-2v-4l14-7 3-1v22l2 2 6 7 3-2V89l1-1h3v-1l-2 1c-6 1-9-7-5-11l4-1 2-3c1-1 2-2 1-3-1-3 0-7 3-11s5-9 6-14l28-3c0 3-10 22-8 23 8 2 5 11-1 11l-1 2-3 8-4 1c-3-1-6 1-8 1-3 0-5-1-6-3-1-1-1-1-1 2v3h25c28 0 25 0 27-1h5c3 3 3 2 2 4l-22 35 1 1 22-36h2l42 27v14c-12 6-8 9 0 2zm-71-98l18 1c6 1 5 0 5 4v4c-2 3-1 5 1 9l3 6-2 3c-2 1-2 2-2 3l-1 2-2 1-4 1h-2l-1 2h9l-1 2v3l-1 3c-3 2-7 2-13 1-7-1-12-4-15-8l-2-3 4-1c4-2 4-11-2-12-3 0 5-12 8-21zm6 6l-4 3h2c3-2 11-5 14-4 2 2 3 1 2 0-3-4-11-1-14 1zm8 1h-1l-7 4-2 3c-1 1 0 2 2 1h2l7 1-3 3-1 1h2l5-5-1-1v-2l1-2c2-2 2-2-1-1h-1c-3 0-5 0-8 3h-1c2-2 4-4 6-4h4l-3-1zm0 5v2h-1v-1c-1-1 0-1 1-1zm-2 0l1 2h-4l3-2zm6 10h-1c-2 2-1 5 1 6l4-1h2v-2c0-1-2-1-3 1l-2 1c-2 0-3-2-1-4v-1zm-12 12c2 1 6 0 8-1l5-2c2 1 2 0 1-1-1-2-3-1-5 0-5 3-7 4-8 2-2-2 0-4 2-3 1 1 1 1 0 0-3-3-6 2-3 5zm-17 1c3 3 5 6 9 8h-12l3-8zm-38 8c-1 5 0 8 3 11s3 9 1 12c-1 2-3 0-2-1l1-7c-1-4-4-5-5-9l-1-5zm3 1h1c2 2 2 6 0 8h-2v-2l1-5v-1zm105 1l3 1-1 1c-2 1-5 0-4-2h2zm-4 0l1 1c1 0 0 2 3 2l2 1-4 1c-4 1-4 1-4 4v4l-1 4 2-6c0-2 1-3 1-1l1 3v4l1 1c-1 2 0 3 1 3l1 1h-2l-15-9 2-3c2-5 4-7 10-9l1-1zm8 4h1c1 1 0 3-2 4h-3v-2l2-1 2-1zm-6 3h1v2c-1 1-3 0-3-1l2-1zm8 1l1 1-3 3-3 1-1-3h2l2-1 2-1zM73 99c-1 3-2 4-1 7l3 7c2 2 3 3 2 4h-1l-2-3c-4-5-4-7-4-10-1-2 0-6 1-6 1-1 2 0 2 1zm77-1h-1l-1 3 2-2v-1zm28 1c2 0 2 1 2 2-1 1-3 0-3-1l1-1zm8 2v2l-3 1c-2 1-2 1-3-1l2-1 3-1h1zm-130 1l1 4 1-3zm123 1l1 2h-2c-1-1 0-2 1-2zm-33 2l2 1-17 27h-3zm38 0c2 0 2 2 0 3h-2l-1-1c0-1-1-1 1-1h1l1-1zm-5 2c1 0 2 0 1 1s-2 0-2-1h1zm-123 1l-4 5 4 6zm94 1l2 1-4 1c-2 0 0-2 2-2zm-2 3h2l3 3c0 1-3 0-5-2v-1zm-2 0c1 0 3 4 2 5s-3-2-2-3v-2zm-74 0l1 2h-1l-1-1 1-1zm86 1l4 2-4 1zm-14 5c3 0 3 1 2 2h-4c-2-1 0-2 2-2zm21 2v2h-6v-2zm-22 1h2c2 1 3 3 2 3-1 1-3 0-4-1v-2zm-2 0c1 0 2 3 1 5l-2-1v-4h1zm-85 1l-2 5 5 5zm110 4v2l-6 2v-3zm-27 0l2 1-1 1c-3 1-5 1-4-1l3-1zm40 0c-2 2 0 3 2 2l-2-2zm-42 3c2 1 5 3 4 4l-3-1c-1-1-2-2-1-3zm-2 1c1-1 2 3 1 5l-1-1v-4zm52 2l-1-1c-8 3-6 6 1 1zm-19 0v2l-6 3-1-3zm-107 4l-3 6 7 2zm109 2l1 2-6 3-1-2zm-137 4l2 2-3 4v-4zm140 2l1 2-5 4-2-3zm-134 2l3 2-4 5-3-2zm29 2v6h6zm70 2l7 4-1-6-6 2zm39-1l1 2-5 4-2-2zm-133 2l3 2-4 5-3-2zm137 3l2 2-5 5-2-2zm-131 2l2 3-5 4-2-3zm28 1l1 6c0-1 6-2 7-1zm72 0l6 7v-6zm36 1l2 2-4 6-2-2zm-132 4l2 3-5 3-2-2zm137 1h1v4l-2 2-2-1zm-33 4l6 10 1-7-7-3zm-100 1l1 3-5 3-1-3zm3 7l1 3-6 2-1-3zm-26 5l2 1c9-5 7-6-2-1zm53-3l1 1c1 2 0 4-1 4l-1-3 1-2zm5 1h2v1l-17 28-2-2zm-9 0l2 2 2 2h-1l-4-2c-1-1 0-2 1-2zm81 1l2 12 4-7c-3-1-5-3-6-5zm-102 3l1 3-6 1-1-3zm23 1c2 0 2 0 1 1h-4l3-1zm-44 1l2 2c3-3 0-3-2-2zm40 1l2 3v2h-2v-5zm-4 2h1c1 1 3 3 2 4-1 0-4-1-4-3l1-1zm-13 2v3h-6l-1-3zm15 3h2l-1 1-3 1c-2-1 0-2 2-2zm-48 0a640 640 0 0111 10h-2c-3 1-4 2-3 4v1c-2 2-2 2-1 4 0 1-2 3 0 5v2l2 3 1 1 1 2v1c-5 3-7 7-2 15l2 3-5 7 5 8-4 6c-2 4 0 10 5 12 2 0 5 0 7-2s3-6 1-9l-4-8 5-7-5-7c10-13 2-17 0-18v-1c9-1 13-6 15-13l20 12 1 2-1 2v3l-1 2v2l-1 2v3l-2 2c-2 2-2 2 1 9 3 5 3 6 2 8l-1 5v2l-1 1-1 1-13 20H32zm45 2l1 2v3c-1 1-2-1-2-3l1-2zm91-1l-2 16 2 1c-1-5 0-9 4-11-2-1-3-4-4-6zm-96 3h1l2 1c1 1 2 2 1 3l-5-3 1-1zm-7 0v3l-3-3zm86 2l1 1h-1v-1zm-76 3h2l-2 1h-3l3-1zm74 2c-1 2-1 7 1 9 2 3 4 6 4 11l-2 1c0-4 0-6-3-10-4-3-3-10-2-12s3 1 2 1zm-104-2l4 2 10 7 1 1c-2 6-6 11-13 12l-1-1-3-2c-3 0 0-2 3-2l4-1v-7c0-1 0-2-1-1v4l-1 1v-2c0-1-2-2-1-3l-1-3v-1l-2-3v-1h1zm-3 2l1 2-2 1-2-1c0-1 1-2 3-2zm2 0l1 1h-1v-1zm1 3l1 2h-2c-1-1 0-2 1-2zm-3 0l1 1v2l-5 2v-2l4-3zm1 4v1l1 1v1l-3 1c-1 1-5 3-4-1l4-2 2-1zm2 0l2 1c1 2-2 2-3 1l1-2zm1 4l1 2-2 1c-2-1-1-3 1-3zm127 0c5 3 12 5 19 7v66h-46l-12-22-1-1v-2l3-6c3-6 7-12 5-17l2-4c4 0 8-2 7-9 8-3 15-6 23-12zm-130 0l1 3-1 1-2 1c-2 2-4 0-2-3a8 8 0 014-2zm105 2l2 1c-2 2-2 3-2 5v2l-2-1 2-7zm-105 5l2 1v1h-4c-1-1 0-2 2-2zm47 1c4 0 9 1 12 3 5 1 10 6 11 8l-1 1c-6 1-8 8-3 12h3l-9 22c-8-1-14 1-23-2v-7c1-1 2-2 1-4 0-3-3-7-4-10-1-2-1-2 1-3l2-3v-2l2-1 2-1 4-1 1-1v-1h-7v-2-3l1-3 7-2zm14 2h13c-1 2-3 5-3 8h-1c-2-2-4-5-9-8zm-10 9l-6 2c-1 1-3 2-4 1l-2 1c0 1 2 3 4 2l6-3 3-1c1 0 2 1 2 3s-3 2-3 0h-1l1 2c2 1 5-1 4-4-1-2-2-3-4-3zm-10 7l-4 1c-2 0-2 1-1 2l4-1c2-2 4 1 3 3-2 1-1 1 0 0 2-1 1-6-2-5zm7 8h-1l-4 3v2h1l-1 3-1 1c-1 1 0 2 1 1h2l6-1 3-2-1 2c-4 3-7 3-9 2l-1 1h1c2 1 5 0 8-2l3-2c3-3 2-4-1-3h-3l-5-1h-2l3-3 1-1zm4 6l-2 1-2 1-1-3 5 1zm-5 0v2h-1v-3l1 1zm11 5h-1c-5 3-12 5-16 3l-1 1 2 1c4 1 9 0 13-3l3-2zm31 8s9 19 11 20H67l13-18c0 1 31 5 52-2z" fill="#131f67"/><path d="M67 287l13-18c18 3 34 1 52-2l12 20zm97-68v-11l4 2c-2-5 2-10 5-11-10-7-2-15-2-15-11-5-6-14-6-14-13-4-8-14-9-13-7 3-12-4-12-9-6 4-16-1-13-7l4 1c5-4 5 2 6 3 4-1 6 2 7 4 6 0 6-1 6 4 4 1 4 4 7 7 5 0 4 2 3 5 4 3 4 5 5 8 4 2 5 2 2 6 4 6 2 9 3 9 4 4 2 5 0 6v10c5 4-1 6-2 6v4zM32 191l-1-13 47 30-6 9zm61 20l11-23-4-25h31c4 8 6 15 15 29l-9 3v16zm27-6l-1-2h5v-2c-1-2-3 0-4 0v-2-1c1-4-5-2-3 1 1 1 0 2-1 1-2-1-4 0-4 2 0 1 2 2 3 1h1l1 1-1 3h4v-2zm72-71l-46-30 1-2c3-1 3-3 3-5l2-3 40 27zm-72-10l4 25H92c-2-8-13-27-13-26l9-22h43zm-12-9l-1-3c0-1 0-2 1-1h3l2-2c-1-1-2-2-4-1h-1v-2c1-1 0-3-2-3l-2 3c1 2 1 3-1 2-2-2-4 0-3 2l4 1v1c-1 3 1 5 4 3zM61 91l-1 13-4-3c1 4 0 9-4 11 7 7 3 12 2 16 9 5 4 15 4 14 10 0 10 8 10 12 11-1 10 8 11 9 6-3 13-2 14 6 1 4-3 0-5 0-6 4-5-2-5-3-5 1-6-2-8-4-6 2-6 0-5-4-5-1-6-4-7-6-7 0-4-4-4-5-1-1-4-4-5-8-6-2-2-5-2-7-2-3-3-5-2-8-6-3-1-6 0-7-2-5-1-6 0-9-4-4-2-4 1-7l-1-4zm32-48L83 25h72l-10 17c-19-3-35-2-52 1z" fill="#d40000"/><path d="M42 275c-6-1-7-9-1-16l1-1-4-6-1-2 5-6v-1l-1-2c-5-6-5-9-3-13 2-3 7-4 10-1 3 4 3 7-1 13l-2 3 2 2 3 5-1 2-4 5 1 1c6 8 6 16-2 17h-2zm54-96l-24 38 3 2 23-36v1l-22 36 5 3c7-4 36-1 56-2l-1 7-5-5c-4-1-9 1-12 1-2 1-5 8-5 10-4 0-8 4-7 8s3 4 6 4c-1 4-9 17-9 23 9-1 18-1 28-4 0 0 3-10 7-16 2-2 2-6 2-9-1-2 1-3 2-5l3-1c5-1 3-9 1-10-3-2-8 1-9-3-2-3-1-11-1-11l-44 1 12-24-9-8zm-29 21c0-2 1-41-36-60v-5c1 0 33 15 39 54l10-16 4 2c-6 8-17 28-17 25zm-22-14c1-4-1-2-3-2l-5-3c11-6 4-5-2-1l-3-3c12-8 7-8-1-2l1-5c6-7 0-3 0-3-2-7 6-6 6-1 2 1 4 3 5 7 4 2 3 4 3 7 2 2 5 5 1 7zm-14-32v-4c1-1 29 19 27 45l-4-3c0-19-23-39-23-38zm161 22c-19-9-37-29-38-56l-10 18-4-2c1 1 9-14 17-25 2 34 15 50 35 61zm-98-12c-18-3-44-27-37-61 2-3 19 16 19 16 0-1 16 24 15 29 13 4 39 0 39 0 22 5 44 28 36 61l-11-8c-14-14-19-26-24-38-18-2-36 1-37 1zm98-28v5c-5 5-5 5 1 4-1 5-5 5-7 4l-1-4c-3-1-4-2-4-6-4-1-4-3-4-7-4-2-3-6 0-7l2 1c-1 1-1 4 3 1l4 4c-10 6-4 4 2 0l3 3c-8 6-10 10 1 2zm1 21l-1 5a52 52 0 01-26-44l4 2c2 22 21 36 23 37zM87 101h46l-12 24 7 7 24-38-3-1-23 36-1-1 23-36-4-3-57 1 1-7c2 4 5 7 11 4h7l4-11c7 0 6-4 7-5 0-9-6-4-5-8 1-6 9-20 8-21-2-1-22 3-27 3l-7 13c-3 5-4 9-2 13-2 5-5 5-8 6-3 3-2 8 1 10 2 1 5 1 8-1zm92-33l-6-7 6-8c-2-3-6-8-5-12 1-8 12-7 13 1 0 3-2 8-5 11l5 7-5 8c2 4 5 8 5 12 0 3-4 6-7 6-11-2-5-14-1-18z" fill="#e2cf00"/><path d="M16 8v4h4v10l-1 13c-1 4-8 4-9 1v-5H6v2c0 5 2 7 6 8 4 2 9 0 10-4l1-14V12h4V8zm65 16l11 20c20-4 36-5 53-1l12-18zm3 2h3l7 14 12-3-2-11h3l2 11 17-1 3-10h3l-3 11 14 1 7-12h5l-11 15c-18-3-36-2-51 2zm6 0h11l2 9-8 2-5-11zm20 0h16l-2 8h-13zm25 0h12l-5 9-9-1zm-77 2l-8 14c-9 11-11 14-12 20-3 11 6 19 14 13 2-1 4-5 4-6s0-2 1-1v1c0 5-2 12-6 17h15c-5-6-6-12-6-17 0-2 1-2 2 0 1 12 16 10 17-2 0-6-4-13-9-20-4-6-9-12-12-19zm122 7l-2 1c-3 0-5 3-5 6l4 8 1 3-5 8 6 7-2 2-3 9c0 3 2 6 5 7 2 0 4 0 6-2l2-5c0-2-1-6-4-9l-1-2 5-8-5-7c4-6 5-7 5-11s-3-7-7-7zm0 1c5 0 7 4 6 8 0 4-4 8-4 9l5 7-5 8v1c4 5 5 8 5 11-1 3-3 5-5 5-4 1-7-2-8-6 0-3 2-6 4-9l1-2-5-7v-1l3-4 2-3-2-2c-3-5-4-7-3-10s3-5 6-5zm0 2c-2 0-3 2-4 3-1 4 3 9 4 10 3-3 5-7 4-10-1-2-2-3-4-3zm0 1c3 0 5 4 2 8l-2 3-2-2c-2-5-2-8 2-9zm-60 2c-8 0-19 2-28 4-1 5-4 10-6 14-3 4-4 8-3 10 1 3-2 7-4 7-3 0-5 2-5 5 0 5 3 8 8 7h1l-1 28-6 2-1-1a141 141 0 01-4-4l-4-3-1-1-1-1V98v-9l-2 1-12 6-1 4v2c-3 0-3 4-1 5v2 9c-3 1-2 5 0 5l1 1c-1 2 0 5 1 7l1 2c-2 2-1 5 1 5l1 1 1 4 3 3v2c-1 2 1 4 3 4h2c0 3 3 5 5 6 1 0 2 0 1 1 0 2 0 3 2 4h2c2-1 2-1 3 1s2 3 5 3l2 1c0 3 3 4 5 2h1c3 2 5 2 5 0 0-4-4-7-4-7l4 1 2 14-18 29-2-1-5-4-3-1 1-2c4-7 11-16 15-25l-4-2-10 15c-3-23-19-44-40-53l1 6c21 11 36 33 35 60l-4-3-4-2c1-30-28-47-28-46v6c12 8 22 23 23 36l-6-3c4-2 3-7 0-8v-1c1-3-1-6-3-6l-1-2c0-2-1-4-3-4l-1-1c0-5-5-6-8-3v1l-1 4 4-2-1 2-3 2 1 6 5-4 2-1-1 1-6 5v14l44 28 23-36v1l-23 35 2 2 3 1 2 2 5-3 49 1v5c-2-5-7-6-11-4h-7s-4 7-4 11c-3 0-7 2-7 5-1 4 2 7 5 7 0 0 0 4-2 7l-6 13v3c10 0 19-1 29-4v-1c-1-1 1-5 4-11 3-5 4-7 4-10v-3-1l2-4h2c5-1 7-8 2-11-2-2-3-2-6-1v-28h4l3-1 15 13-4-3v18l15-9h-1v-3c4 0 4-5 1-6v-1c1-2 2-4 1-7v-2c3 0 2-4 0-5l-1-3-2-6v-2c2-1 1-5-2-5l-1-1c-1-3-2-6-4-7l-1-1c2-2 0-6-2-5l-1 1-1-2-5-5-1-2c1-2-2-4-4-3h-2c-1-2-4-3-6-3l-1-1c0-3-2-5-5-3h-6v3l3 4-3-1s0-9-2-15l17-28 11 7-17 25 5 2 10-15c2 25 21 47 39 54v-5c-18-9-36-32-35-59l7 5c3 22 12 35 28 46v-7c-11-8-20-19-22-36l5 3-1 1c-2 1-1 5 1 7l1 1c-1 2 0 5 2 5l1 2c0 3 1 4 4 5l1 1c0 3 2 5 5 4l3-3v-4l-2 1-2 1 2-2 2-2v-6-2-13l-44-28-23 36h-1l23-36-6-4-4 1H88v-2c0-3 0-3 1-2 1 2 3 4 6 4l4-2h4l4-1a71 71 0 004-10c3 0 3 0 5-2 3-3 1-9-3-9-2 0-1-4 2-9a86 86 0 006-15h-1zm-1 2c1 0 0 4-3 10l-4 9-1 2-1 1-1 1v-1l3-9 4-11 1-2h2zm-3 0l-5 13c-5 9-5 16-1 17 3 2 7-2 5-4-1-2-3-2-4 0h1c1-1 3 0 2 2l-3 2c-4-1-3-7 1-8 5 0 7 6 3 9l-4 2c-3 0-5-2-5-5v-5l-1-1 5-12 3-9 1-1h2zm-4 0l-2 9-5 11h-2c-1 0-1-1 2-6a78 78 0 005-14h2zm-3 1l-6 14-2 5h-2l2-5 3-7 2-7h3zm-4 0v1l-3 7a88 88 0 01-4 10l-1 2c-2 5 0 8 3 8 4 1 4-5 1-6l-2 2h4c0 3-3 5-5 2l-1-3c1-2 4-4 6-2 4 2 3 8-2 9-2 1-4 0-5-1l-2-4v-3l5-11 4-11h2zm-3 0l-3 8-6 13-2-1 2-6 6-11 1-2 2-1zm-4 1l-3 9-4 8-2 2c-2 1-2 1 0-3l2-4a72 72 0 005-12h2zm-4 1h1l-4 9-1 2-5 10c0 4 4 7 6 4 1-2 0-4-2-4v1c2 0 2 3 0 3-2 1-3-1-3-3 0-3 4-4 6-2s2 6-1 8c-3 1-7-1-8-5-1-3 0-5 3-10a57 57 0 006-13h2zm-78 1l-3 5c-2 4-6 7-6 11v3c1 3 6 4 7 1h1v1l-2 6h7c-2-2-3-4-3-7h1c3 4 7 0 7-4s-5-9-6-11l-3-5zm164 8l-4 6 4 5 4-5zm0 3l2 3-2 2-2-2zm1 12s-6 6-5 10c2 4 7 5 9-1v-1l-4-8zm0 1l2 4c1 2 2 7-3 7-2 0-4-3-2-6l3-5zm-87 1l1 1-2 4-2 1 1-3 2-3zm-11 1l2 1-2 2h-2l2-3zm23 1l1 1-4 11h-3l5-10 1-2zm-2 0v1c-1 6-4 11-7 12-3 2-6 1-7-2-2-2-1-6 3-7 3 0 6 2 5 5-2 3-7 2-5-2 1-1 3 0 2 1 0 1 0 2 1 1 1-2-1-4-3-3-3 2 0 7 4 5l4-7 1-3 2-1zm-8 0l1 1v1l-1 1h-1v-2l1-1zm-10 1h2l-2 4h-2c-1-1-1-1 1-3l1-1zm5 0l-1 2c-1 4-5 9-8 10-4 2-8-1-8-5 0-6 7-8 9-2 1 2-1 5-4 5-2-1-3-4-1-5 1-1 2 0 2 2 2 0 1-2 0-3-3-1-5 2-3 5s5 2 7-1l1-2 3-4 1-2h2zm9 0v1l-1 4v1l-2-3 1-1 2-2zm8 1l2 1-4 9h-2a84 84 0 004-10zm36 14l3 2-22 35-3-2zm-56 0l50 1-2 2H88zm-28 2v12l-2-2-6-3c-1-1-1-1 1-3l7-4zm89 1l2 1-23 38-2-3zm-61 1h3v3h-3zm7 0h4v3h-4zm9 0h4v3h-4zm9 0h4v3h-4zm8 0h4v3h-4zm9 0h4v2l-1 1h-3zm22 1l40 26v3l-41-27zm-2 3l-2 3zm-62 0h45l-2 3H88zm-37 2h2c2 1 4 4 3 5s-3-1-4-3l-1-2zm79 2l-14 23c-3-5-7-9-15-6-4-3-8-4-13-1v-16zm-74 0l1 1v2l-1-3zm92 0l44 29v3l-46-30zm-98 1h2c1 1 0 3-1 3-1 2-4-1-2-3h1zm8 0l2 2c-4 24 8 48 34 55v4l-16-7a50 50 0 01-21-33c-1-7-1-14 1-21zm-3 3v2l-4 4c-2 1-2 0-2-1 0-2 2-4 4-4l2-1zm7 1h1a2 2 0 103 3h1a3 3 0 11-5-3zm2 1l1 1a1 1 0 11-1-1zm-8 1v9l-4-5 4-4zm12 2l2 2c-2 26 20 35 21 35l1 3c-15-6-26-21-24-40zm124 61v3c-18-6-38-31-37-55l-11 17-3-1 15-23c0-1 1-1 1 1 0 8 2 42 35 58zM50 113l2 1c2 1 4 5 3 5l-4-1c-2-3-2-5-1-5zm14 1a3 3 0 110 6 3 3 0 010-6zm7 0l2 2c0 22 17 28 17 28v3c-1 0-20-9-19-33zm-7 1a2 2 0 100 4 2 2 0 000-4zm0 1a1 1 0 110 2 1 1 0 010-2zm10 2l2 1h-2v-1zm92 0l4 2c1 15 9 28 22 37v4a54 54 0 01-26-43zm-116 1c2 0 2 3 0 3-1 1-2 0-2-1a2 2 0 012-2zm26 2h1c2 2 2 2 0 3s-4 0-3-2l2-1zm-21 0c2 0-1 6-4 7l-1-2c1-3 3-5 5-5zm9 0a3 3 0 110 6 3 3 0 010-6zm0 1a2 2 0 100 4 2 2 0 000-4zm-8 0l3 9-5-4 2-5zm8 1a1 1 0 110 2 1 1 0 010-2zm18 0c4 0 6 3 6 5v9l-3-5v-4c0-3-4-3-4-2l-1-2 2-1zm12 0c3 0 5 2 5 5v20h-7l-3-9-1-2 1-8c0-3 2-6 5-6zm-15 1l1 1v3h-4c-1-2 1-4 3-4zm98 1l1 1v1c-1 2 0 3 3 2l1-1 1 1-2 1c-3 2-5 1-6-1l1-3 1-1zm-73 0c3 0 6 2 6 5v18h-10v-18l1-3 3-2zm-10 1c-2 0-4 3-1 5v3c-1 3 0 6 1 8s1 1 1-1c-1-2-1-4 1-8 1-2 3-6-2-7zm85 1h1v1h-1v-1zm-74 1c-2 0-4 4-1 5l1 2c-1 1-2 3-1 4v4c1 2 1 2 1-1 0-2 0-4 2-6 1-3 3-7-2-8zm-39 0a3 3 0 110 6 3 3 0 010-6zm15 0l2 1c1 2 1 3-2 4-3 2-4-2-2-4a5 5 0 012-1zm-29 0c3 0 8 5 5 5h-1c-3 0-7-5-4-5zm14 1a2 2 0 100 4 2 2 0 000-4zm118 1l1 1-2 1c-3 1-4 2-3 3l2 1 6-4 1 1-7 5c-4 2-6-2-4-5l6-3zm-118 0a1 1 0 110 2 1 1 0 010-2zm120 1l1 1-3 1c-2 2-3 2-3 1l1-1 4-2zm-70 0c2 0 4 1 5 3l1 4v10h-11v-12c1-3 3-5 5-5zm-32 2l2 2c0 1 0 2-2 3h-1c-2 0-3-3-1-4l2-1zm106 1h1l-4 3c-3 2-3 3-3 4 1 1 2 0 3-1l5-4v2l-6 5c-4 2-6-3-3-5l7-4zm-73 0c-3 0-4 4-1 4v7c0 1 0 1 0 0l2-4c2-4 2-7-1-7zm-64 0c2 0 3 2 1 3-1 1-3 0-3-1l2-2zm5 0l1 2-2 6c-2 2-3-3-1-6l2-2zm134 1h-1a70 70 0 00-5 4h-1l7-4zm-122 0a3 3 0 110 6 3 3 0 010-6zm0 1a2 2 0 100 4 2 2 0 000-4zm-38 0c21 11 35 31 38 54l10-16 3 1-15 25-1-1c0-24-12-47-35-59zm38 1a1 1 0 110 2 1 1 0 010-2zm-9 0l4 7c-2-2-4-2-6-2zm25 0l1 1 1 3-3-1c-1-1 0-3 1-3zm106 2v2l-1 1-3 3c0 2 1 2 3 1l1-1v2l-4 2-2-2c-1-3 2-5 4-6l2-2zm-118 2zm64 0c2 0 3 3 1 4h-2c-2-1-1-4 1-4zm-3 2l1 5c-2 1-5-3-5-6 0-2 3 1 4 1zm-47-2l1 1-1 1v-2zm-14 1a2 2 0 100 4 2 2 0 000-4zm-15 1c4 0 8 3 4 3-2 1-4 0-6-2-1-1-1-1 1-1h1zm15 0a1 1 0 110 2 1 1 0 010-2zm6 2zm62 1h2c1 1 0 2-2 3s-5 0-5-1l5-2zm-76 0c1 0 2 6 0 9-1 1-2 0-2-3-1-2 0-6 2-6zm14 1a2 2 0 100 4 2 2 0 000-4zm66 0c2 1 4 6 3 8s-4-2-4-6l1-2zm-85 0c1 0 3 3 1 4h-3c-1-1-1-3 1-3l1-1zm19 1a1 1 0 110 2 1 1 0 010-2zm-12 0l5 5h-5v-5zm62 0c26 6 42 34 36 60l-3-2c1-4 2-11 1-18-2-13-12-31-34-37v-3zm14 0l1 6-6-4c2 0 3 0 5-2zm8 1l2 2-1 2c-2 1-4-1-3-3l2-1zm-66 1a3 3 0 110 6 3 3 0 010-6zm0 1a2 2 0 100 4 2 2 0 000-4zm-54 0c13 8 24 24 25 43l-3-2c-1-13-8-26-22-38v-3zm72 0h16v4l6-3v8l-6-3v4h-16v-4l-5 2v-8l5 3zm-18 1a1 1 0 110 2 1 1 0 010-2zm6 0l1 2a2 2 0 100 3l1 2h-1a3 3 0 01-1-7zm38 1h1a3 3 0 010 6v-1a2 2 0 00-1-4v-1zm23 1c4 0 5 2 2 3-1 1-3 0-5-1-2 0 0-2 3-2zm-82 0l2 1c2 0 2 1 0 2s-8 0-6-2l4-1zm22 0v3a1 1 0 010-3zm38 1a1 1 0 010 2zm6 1a3 3 0 111 6 3 3 0 01-1-6zm-61 0v1c2 1 3 5 2 7 0 2-3-2-3-5l1-3zm82 1h1v8l-2-1c-1-3 0-7 1-7zm-21 0a2 2 0 100 4 2 2 0 000-4zm-59 0l7 4-6 2c1-2 0-4-1-6zm72 1h6v5l-6-5zm-13 0a1 1 0 110 2 1 1 0 010-2zm-65 0l1 1v3c-2 1-4-1-3-2l2-2zm72 2a3 3 0 110 6 3 3 0 010-6zm19 0v1c2 0 2 2 1 3l-3-1c-1-1 0-3 2-3zm-31 1c15 5 26 23 23 39l-2-2c2-9-3-27-21-35zm12 0a2 2 0 100 4 2 2 0 000-4zm0 1a1 1 0 110 2 1 1 0 010-2zm-60 0l3 1-4 3-4-1c0-1 3-3 5-3zm-49 1c2-1 4 2 2 5l-5 4v-2l3-3c0-2-1-2-2-2l-1 1v-2l3-1zm54 0c1 0 5 6 4 7s-4-1-5-3v-4h1zm24 1l-1 14c-3 6-9 3-10-1v-13zm1 0h10v19l-3 3c-3 1-6 0-7-4v-18zm11 0h7v2l2 5v15c-3 4-8 3-9-2v-20zm8 0c12 6 21 18 20 34l-2-2c0-11-8-25-17-29zm16 1a3 3 0 110 6 3 3 0 010-6zm12 0l4 1v3c-2 0-4 0-5-2-2-1 0-2 1-2zm-12 1a2 2 0 100 4 2 2 0 000-4zm-63 0c1 0 2 3 1 4h-3c-2-1-1-4 2-4zm22 1l-2 4c-2 4-2 6 0 7 3 2 6-3 3-4-2-1-2-1-1-3v-4zm41 0a1 1 0 110 2 1 1 0 010-2zm-30 0v3l-2 6c-2 4-2 7 1 8 2 0 4-1 4-3l-2-2-1-1c0-2 3-7 0-11zm40 1l6 2-1 6-5-8zm-120 0h1l2 4-5 4-3 2-2-1 3-2c4-2 5-3 4-4 0-1-2-1-4 1l-3 2v-1l2-2c1-1 3-3 5-3zm96 1h1l-1 1v-1zm33 2c1 2-1 6-2 6-1 1-1 0-2-2 0-2 3-8 4-4zm-39-2c1 4 1 6-1 9-2 4-2 7 1 7 2 1 4 0 3-3l-1-1v-2l-1-9-1-1zm8 1c1 0 2 3 1 4s-1 0-2-1c-1-2-1-3 1-3zm17 1a3 3 0 110 6 3 3 0 010-6zm0 1a2 2 0 100 4 2 2 0 000-4zm0 1a1 1 0 110 2 1 1 0 010-2zm-14 1h1c2 1 1 3 0 4-2 1-2 1-3-1s1-3 2-3zm-97 0l3 4c-1 2-4 3-7 4l-1-1 4-2 1-2c0-1-1-1-5 1l-3 2-1-1 4-3 5-2zm129 1c1 2 0 4-2 3-1 0-2-2-1-3h3zm-36 0l3 5v2c0 3 0 5 2 4h1l1 2-1 1c-3 0-6-2-6-4v-10zm-94 2v1l-5 3-1-1 1-1 5-2zm115 1a3 3 0 110 6 3 3 0 010-6zm-14 0l2 1c1 1 0 3-2 4l-2-1v-3l2-1zm-111 0l45 30-1 2-44-29zm135 1c3 0 7 3 5 4-4 0-9-4-5-4zm-10 0a2 2 0 100 4 2 2 0 000-4zm-61 0l1 3-22 36-3-1zm61 1a1 1 0 110 2 1 1 0 010-2zm8 0l5 4-3 6-2-10zm-120 1h2c4 3 0 6 0 6l-2-1c1-1 2-2 0-3l-3 1-2-1 5-2zm101 2c2 0 2 3 0 4s-2 0-3-2c-1-1 1-2 3-2zm-101 1l-1 1-1-1h2zm127 0l1 1c1 2-2 5-4 6l-1-2 4-5zm-73 0l4 3-23 35-3-2zm60 1a3 3 0 110 6 3 3 0 010-6zm0 1a2 2 0 100 4 2 2 0 000-4zm0 1a1 1 0 110 2 1 1 0 010-2zm-51 0c3 3 5 9 15 6 3 2 7 4 13 1v16H94zm-76 0l41 27-1 3-40-26zm116 0c2 1 2 3 0 4l-2-1-1-2 3-1zm26 2l2 2-1 2c-2 1-4 0-3-2l2-2zm-26 3l2 1h-2v-1zm12 0a3 3 0 110 6 3 3 0 010-6zm9 0c2 0 6 4 5 6h-3c-2-2-4-6-2-6zm-9 1a2 2 0 100 4 2 2 0 000-4zm8 1c0 2 1 4 4 5-5 2-5 6-5 10h-1l2-15zm-8 0a1 1 0 110 2 1 1 0 010-2zm-1 5a3 3 0 012 6l-1-1a2 2 0 00-1-4l-2 2-1-1 3-2zm15 1c1 0-1 4-3 5h-3c0-2 4-5 6-5zm-15 1a1 1 0 010 3l-1-2 1-1zm14 4l2 1v2c-2 2-5 0-3-2l1-1zm-5 2c2 0 4 3 4 5l-4-2v-3zm-4 2l8 5-8 5zm-71 2h43v2H92l1-2zm-2 3h3v4h-4v-2zm41 0h4v4h-4zm-34 0h4v4h-4zm9 0h4v4h-4zm8 0h4v4h-4zm9 0h4v4h-4zm-36 5h48v2H87zm41 4c5 0 8 5 4 9s-9-1-7-5c2-2 6 0 5 2s-3 1-3-1v1l2 2c3 0 3-4 0-5-2-2-5 0-5 3l-1 2-2 5-1 1-1-2c2-7 4-11 7-12h2zm14 0c3 0 6 3 6 5 2 5-6 9-9 4-1-3 2-7 5-5 2 1 2 4 0 4s-3-1-2-2l1-1h-1v4c3 1 5-2 4-4-2-4-5-4-7 0l-1 1-4 6v1h-2v-1c2-6 6-12 10-12zm-23 2l-4 10-2-1v-1l4-9s3 0 2 1zm3 1a28 28 0 00-4 11l-2-2 4-10 2-1v2zm-80-1h-1c-2 0-5 3-5 5l-1 3c1 4 3 6 6 10l-6 7 6 8c-2 2-4 4-5 8-1 5 2 9 7 9 3 1 6-2 6-6 1-3 0-6-4-11l-1-1 1-1 5-6-6-7 1-1c4-6 5-9 4-12l-2-3c-1-2-3-2-5-2zm0 0l5 2c3 4 3 7-1 13l-2 3 5 7-1 2-4 5 3 5 2 5c1 4-2 8-6 8s-7-3-7-7l2-5 3-5-5-8 5-7s-4-5-5-9c-1-3 1-6 1-6 1-2 3-3 5-3zm114 1a26 26 0 016 17h-2c1-6-5-10-11-8-4 2-7 7-6 13 2 11 12 19 18 30l3 6 2-6c5-8 11-13 15-21 2-4 4-8 4-11 0-8-8-14-14-10-2 1-4 4-5 7v1c-1 0-2 0-1-5 2-5 3-9 6-13zM40 236l3 5 4-6c4-9-11-10-7 1zm3 4c-2-2-3-4-3-7 0-6 7-5 7 0 0 3-2 4-4 7zm96-9l1 2-2 3h-2v-1l3-4zm-13 2l-1 2v1h-2l2-5 1 2zm1 1h2v1l-1 2-2-1 1-2zm14 0l1 1v1l-2 2-1-1 1-2 1-1zm-9 0v3l-2 2-1-1 1-4h2zm-20 1l6 3v7c1 1 1 2-1 5a179 179 0 00-6 17h-3l3-8 5-13v-6c-1-4-7-3-7 1 0 2 3 3 4 1h-1c-1 1-3 0-2-2 0-2 3-3 5-1 1 2 1 4-2 6-2 1-4 0-5-2-3-4 1-8 4-8zm12 2c2 0 5 2 5 3v3l1 2c-2 7-7 13-9 21h-2v-3l3-6 5-10v-1c2-4 0-7-4-7-2 0-4 4-1 5 2 2 4-2 2-3v1c1 1 0 2-2 2-2-1-1-5 2-5 4 1 4 6 0 8-5 2-8-7-3-10h3zm11 0l4 1c3 3 2 8-3 16l-4 9-1 1h-2l7-14 2-8c0-2-2-4-4-3s-2 3-1 4l1 1c1 0 2-1 0-1-1 0-2-2 0-3s4 0 3 3c0 4-7 4-7-1 0-3 2-5 5-5zm69 2c2 1 3 3 3 5v2l-1-1c-2-2-5-1-6 2-1 2 0 6 4 12l5 7 3-7c6-8 7-12 4-14-2-2-5-2-6 0l-1 1v-2c0-2 1-4 3-5zm-89 5c1 0 0 6-4 12l-4 11h-3c4-12 7-14 8-19l1-2 2-2zm-71 1l-5 6 4 5 5-5zm88 2l-2 5a99 99 0 00-6 14h-2c1-5 7-16 9-20l1 1zm4-1v1l-2 4-6 13v1h-2c0-3 2-5 7-18h1l2-1zm-14 2l-3 6a77 77 0 00-5 13h-2c-1-1 1-6 4-12l4-8 2 1zm3-1c1 0 1 1-1 5-2 3-4 6-5 11a69 69 0 00-2 4h-2l3-10 5-9 2-1zm-81 1l2 3-3 3-2-3zm-1 12l-1 3c-3 4-3 7 0 9h4c4-3 1-8-1-10l-2-2zm0 1l4 5c1 3 0 5-2 6-3 1-6-2-4-6l2-5zm89 5c1 1-30 8-52 2l-14 20h79zm-1 2l11 19h-5l-7-16-12 3 3 13h-4l-2-13-17 1-3 12h-4l3-12-13-2-8 14h-5l12-18c17 4 33 3 51-1zm79 3c-4 0-7 2-8 6l-1 12v12h-3v3h10v-3h-3v-19l1-5c1-4 8-3 9 0v5h3v-5c0-5-4-6-8-6zm-82 4l6 12h-11l-2-11zm-46 0l9 2-2 10H76zm31 2l1 10H98l2-10z"/></svg>