<svg xmlns="http://www.w3.org/2000/svg" width="224.2" height="312.8"><rect y="590" x="2090.9" height="311.8" width="223.2" rx="10.6" ry="10.6" fill="#fff" stroke="#000" transform="translate(-2090 -589)"/><path d="M103 285l23-42 12 4c-6 16 0 38 0 38h-35zm-64-72c-1-18-2-36 1-50 0 0-8-5-7-6l18-9h2l1-1c-1-2-2-6-1-10 0-3 2-6 3-7 3-4 10-2 12-2s5-14-1-16c-2-1-6 8-3 10l-10-5-3-3c0-3 7-7 6-10-2-4-8-10-10-8s-8 6-8 9c2 5 6 5 8 10l5 6c-1 2 1 6 1 6l-19-9s4 34-1 39l5-1 21 15c8-11 11-16 22-26l10-9 3-10c-1-4-1-7-3-10l-14-13 3-2s10 8 15 15c3 4 1 9 4 10h6s31 21 25 23h-20c-8-8-13-11-18-8l-21 20-10 16c-2 1-16-12-15-10 2 14 3 32 1 44l-3 30h4l2 3c0 4-5 3-6 3l4 6-5 9-5-8 4-7c1-1-5 2-5-3-1-5 6-3 5-3 0-10-2-20-3-28zm75 22s-14-5-26-5c-4-1-11-3-16 0l-14-11 9-43c-1-13 12-13 13-2 14 14 31 29 49 44-3 6-13 10-15 17zm30-96L95 94l16-16c8 3 16 5 26 5 0 0 10 5 16 0l14 12-9 42c0 5-2 10-6 11-4 0-7-5-8-9zm33-38l3-29c-7 2-7-8 0-5l-3-8 5-8 4 8-4 7c8 0 6 8-1 6 2 11 5 23 4 34 3 19-3 44-2 44l8 6-1 39-13-5-3 3 3 7s8 7 7 9c1 0-6 9-8 9-3-1-8-6-9-9s8-7 7-9c-2-3-5-5-8-5-4-2-6-5-6-5s-2 13-3 12c-6-4-2-17-1-17l6 1c11 1 10-12 8-19v-2h4l14-7c-9-5-17-10-23-16l-14 19-16 14s-7 8-4 18c3 8 16 17 16 17l-2 3s-19-12-19-25h-8l-25-23 21-1 11 9 7 1s0-2 6-7c12-8 26-30 26-30l15 11c-1-16-4-33-2-47zm-54-74L99 70l-12-4c5-13 0-38-1-39z" fill="#e2cf00"/><path d="M30 25l1 262h163l-1-262zm113 190l23-17c2-2 3-2 4-1l3 4-1 1-4-2 1 5c-4 1-4 5 0 8l-2 6 6-3c0 1 4 4 7 0l5 3-2-7c2-2 3-4 0-7l1-5-4 2-3-2-1-4-2-3 2-1 2-1 13 6v88h-52c-6-18-1-33 0-39-2-1-17-5-17-7 6-9 13-17 21-24zM42 241c-7-3-7 6-3 6h3l-4 7 5 9 5-9-3-7c5 3 8-6 2-7l-3 1 3-29 7 5c1 16 1 29 9 52v16H33v-83l6 4-1 6 4 29zM150 28v1c1 5 6 9 9 11l1 1c-1 1-4-1-7-4l-4-7-1-2h2zm4-1l1 2 5 5v2c-2 0-6-5-7-8l1-1zm5 1c1 0 2 1 1 2l-2-1 1-1zm-3 0h1l3 4v1c-1 1-4-3-4-5zm-3 1c1 3 3 6 6 8 1 1 2 1 1 2-4-2-9-7-9-11 1-1 1 0 2 1zm-14 15l-6 1c-3 1-4 2-3 3l3-1c5-1 8-2 11 0 3 1 3 0 1-1-1-2-3-2-6-2zm17 2l4 2c1 2 0 1-1 0l-5-1c-1 1-1 1 0 0l2-1zm-19 1c-4 1-6 3-9 5-1 1-1 2 1 2l5 1h6c3-1 3-1-1 3-3 2-2 2 1 0l3-2v-2-4c1-1 1-1-1-1h-1l-4-2zm4 2c1 1 0 1-2 1l-6 1h-2c3-2 7-4 10-2zm14-1l3 1c2 1 3 2 0 1h-7l4-2zm-18 4c0 3 3 2 3 0h1c-1 2-4 4-5 0h1zm17 0c0 2 2 3 3 0h1c-1 5-5 3-4 0zm-19 0l1 2-3-1 2-1zm25 1v1h-2l1-2 1 1zm-18 1h-1l1-2v2zm10-2l1 2-2-1 1-1zm-17 30c-1-1-12-8-15-20l-1 1 3 8 2 9h-2l-3-15-1 1 3 13h-2l-2-11-1 1 2 10-2-1-1-6-1 1 1 5-3-1-1 1c0 2 26 6 24 5 0 0 12 5 18 0a2764 2764 0 0018 15l4 3c2 1 2 1 2-1l2-19c2-10 2-10 0-9-2 0-4-1-4-3 0-1 0-3 2-3h2l-2-7 5-8 4 8-4 7c7 0 7 8 0 5v1c7 3 8-7 1-6l4-7-5-9-6 9 3 7h-2c-5 0-4 7 1 6h2l-4 28h-1l-5-4c1-18-3-37-9-49V28h30v84l-5-4v-1l-1 1 7 6v82l-17-8-3-1s2 5 1 6c1 1 4 4 4 7 1 1 2 1 2 3l4-2-1 4c5 3 1 7 0 7l2 5-5-2c-2 5-6 1-6 0l-5 2 2-5c-3-2-5-4 0-7l-1-4 3 1 2-2c-2-6-11-5-14-10l-2 9c0 7-5 0-5-7l3-7c1 0 7 3 12 0 2-2 6-8 2-18-1-2 2-2 3-1l15-8c-8-4-23-15-23-16l-8 11-16 18c-10 7-12 14-10 22a773 773 0 0016 17c-12 11-20 20-26 30l17 7c-5 15-3 26 0 38H83c0-2 4-5 5-5l1-1c-2-1-6 4-6 6h-2c0-1 3-8 9-8v-1c-7 1-10 8-10 9h-1c2-8 8-10 12-11l1-1c-8 1-12 5-14 12h-1c1-7 8-13 15-13l1-1c-9 1-13 4-17 11-3-8-12-12-12-12v-2c8 3 11-4 11-8l-1-6-1-6 1-2c2 0 3-3 2-3l-4 3c-1 1 0 3 1 9 1 3 0 2-2 1l-1-1 2 3c1 0 1 1 0 0l-7 1h-1c0-9 1-15 4-22 2-5 5-8 9-8 4-1 9 1 15 4 6 4 11 11 12 18l1-1-3-7-1-9h2l2 15 1-1a917 917 0 002-3v-1s-2-7-1-9l2 1 1 5 1-1-1-4 2 1 2-2c-8-3-17-5-25-5l-4-1c-7-2-12 0-13 1l-24-18h-1l-3 26v3c3-1 5 0 6 2 0 3-2 5-5 3l-1 1 4 6-5 9-5-8 5-8h-1c-5 2-5-1-5-3s2-3 6-2c-4-23-5-37-4-35l-6-6V28h51c5 14 4 31 1 40 5 1 11 2 17 6-10 15-27 32-46 43-1 1-4-1-4-3v-2l4 2s-2-5-1-6l2-1v-5l-2-1 2-5-5 2c-2-3-5-5-7-1l-4-1-2-1 2 6c-4 2-3 6 0 7l-1 5 5-1 2 3 3 5c-1 2-2 2-5 3l8 3-2-5-1-2-3-6-2-2-4 1c-1-1 1-4 1-4-1 0-5-3-1-6l-1-6 5 3c1-5 6-3 7-1h3v3c3 3 3 5 0 7v4l-3-1-1 2c1 4 6 5 13 9l2-9c0-2 1-2 2-1 4 3 3 11 2 14-1 2-2 2-3 2h-9c-4 1-5 9-5 11l1 7c0 1 0 3-2 2h-1l-14 7 2 2s-2-1 0-2l12-6c2 1 2 1 3-1l3-1c7 1 10 0 11-3l1-1c2 0 2-1 2-2l1-2c1-1 2-2 1-4l-1-1c1-1 0-2-1-3-1-2-1-2 1-4l13-11c3-2 2-2 4-1 4 4 5 11 4 17 0 0-1 0 0 0v-11a738 738 0 01-16-18c10-9 21-20 27-30-3-3-18-7-18-7 2-3 6-20 0-39l52 1h3l-4 5-1 1c2 0 5-3 6-6h1v2c-2 3-5 6-8 6l-1 1c5 0 9-4 10-7 0-2 0-3 1-2v2c-2 7-9 9-12 9v1c7 0 12-6 13-11l1-1 1 2c-2 8-11 12-16 11v1c10 0 14-6 16-10 3 4 5 8 12 11v2h-1c-8-2-11 6-8 18 1 3 1 3-1 5l-1 2 1-1 2-1 1-4-2-7h2c1 2 2 1 0 0l-1-1v-1c3 1 5 1 8-1 1 8 0 20-7 28-5 6-14 1-18 0zm8-18h-2c-2 1-1 5 1 6l3-1h2l1-1c1-2-2-2-4 0s-4-1-2-3l1-1zm-20 8l2 3 1 5h-1l-2-8zm29 2h-1-10l-1 2v1l1-1h12l-1-2zm-25 2l3 3v2h-2l-1-5zm17 1v1c4 1 0 1 0 2l5-1c2 1 2 1 0 0-1-1 1-1 1-1 1-1 0-1-1-1h-5c-1 0-1 0 0 0zm-13 3l2 1h-2zm-44 37a1 1 0 100 2 1 1 0 000-2zm3 1l-9 4 2 1v2h3v2zm0 2a1 1 0 100 1 1 1 0 000-1zm-11 4a1 1 0 100 2l1-1-1-1zm3 1l-10 5 3 1-1 3 3-1 1 2zm0 3a1 1 0 000 1l1-1h-1zm-19 0c3 0 7 1 9 5 0 1-1 2-5 1h-5 1l7 2c2-1 3 0 2 1 0 2-2 2-5 2l-6-1c-1 0-1 0 0 0v1l6 1c4 0 4 1 2 2H59l1 1 7 1c0 1-1 2-3 2H54c-2-5-1-13 3-16l6-2zm21 3a1 1 0 100 1 1 1 0 000-1zm3 0l-10 5 3 1-1 3 2-1 2 2zm0 3a1 1 0 100 1 1 1 0 000-1zm6 6l-14 12h1l3-2 71-1-2 3h1l2-3h-45l-10-9zm-21 3a1 1 0 000 1v-1zm93 0l19 14c3 1 2 1 0 2l-10 5-3 1h-1l-5 1-6 1-2 2-2 1c-1 1-2 1-2 3l-1 1-1 3 1 2c-1 3-1 3 3 5l-18 16h-1l-4-7c-3-8 0-15 5-19l5-3c9-8 17-19 23-28zm-91 1l-10 5h3v3l2-1 1 2zm1 2l-1 1a1 1 0 101-1zm91 3l-1-3-4 11 11-6h-4l1-3zm-114 1a1 1 0 100 1 1 1 0 000-1zm3 0l-10 5 3 1-1 3 3-1 1 3zm1 3h-1l1 1a1 1 0 100-1zm105 0a1 1 0 100 1 1 1 0 000-1zm12 1l-4 9 10-4-3-1v-2h-2zm-113 2a1 1 0 100 1 1 1 0 000-1zm104 0a1 1 0 100 2 1 1 0 000-2zm-101 1l-10 5 3 1v3l2-2 2 3zm1 2l-1 1a1 1 0 001 0v-1zm105 1h-1l1 1a1 1 0 100-1zm-14 3l-1-3-4 10 10-5h-3v-3zm-10-2h-1l-2 3h-30l3 1 10 8h7c4-4 10-7 13-12zm27 2zm-23 3v1a1 1 0 100-1zm15 1l5 1c3 2 2 15-2 17-5 1-8 1-12-1l-3-4c1-2 2-2 7 0h3l-1-1h-3l-3-1c-2 0-3 0-3-2s3-2 9-1l2 1v-2h-2l-7-1c0-2 5-3 10-1h1c0-1-2-2-5-2s-3-2-1-3h5zm-11 3h-1a1 1 0 102 0h-1zm-11 4l-1-2-4 10 11-5-4-1 1-2zm-5 5a1 1 0 000 1l1-1h-1zm10 2l-1-2-3 9 9-4-3-1v-2zm-7 0a1 1 0 000 2l1-1-1-1zm2 4a1 1 0 100 1 1 1 0 000-1zm-4 2l-3 8 8-4h-2v-2h-2zm7 1a1 1 0 100 1h1l-1-1zm-11 4a1 1 0 100 1 1 1 0 000-1zm3 3a1 1 0 100 2l1-1-1-1zm-43 39l-2-1h2v1zm3-1v4l-2-2v-2h2zm3 1l1 7-2-3-1-5 2 1zm-20 0h-7l2 1-1 1h7c1 0 0 0 0 0l-1-1c-2 0-1 0 0-1 1 0 2-1 0 0zm4 2l-1 1h-8l-3 1v2h11l2-4h-1zm-3 8h-4l-1 2h3l2-1c2 0 3 2 1 3v1l2-1c0-2-1-4-3-4zm6 10c-2 0-4 2-5 3-1 2-2 3-1 4l1 1-1 1c-1 2-1 2 1 1l3-1h6l1-1c-3 4-7 3-8 2l1 1c1 1 5 0 7-1 4-3 6-6 3-4l-4-1c-3-1-5-2-7-1-3 1-1-1 3-3v-1zm-16 7h-1c0-2-2-2-3 0h-1c1-3 4-4 5 0zm17 0c-1-1-2-2-3 0h-1c1-4 5-2 4 0zm-4-2v1l-2 1 1-1 1-1zm5 0h1l1 2h-2v-2zm-17 0l1 1-1 1-1-1 1-1zm-6 0v2c-2 0-2-1-1-1l1-1zm-1 3l1 1h6l1-1c1 1 0 2-1 2h-6c-2-1-2-2-1-2zm0 2l5 1c2 0 3 0 1 1h-7l1-2zm13 2l4 3c3 1 7 0 10-1 2-1 3-3 0-2-4 1-9 2-12 1l-2-1zm-14 5c5 2 12 10 12 14h-2c-2-10-9-12-10-12v-2zm0 3c6 3 9 8 10 11h-2c-2-5-4-8-8-9v-2zm0 3c3 1 6 5 7 8h-2c-1-3-2-5-5-6v-2zm0 3c1 0 4 2 4 5h-1l-3-4v-1zm0 2s3 2 2 3h-2v-3z" fill="#131f67"/><path d="M123 28L99 70l5 3 25-45h-6zm58 28l-2 3 2 4 2-4zM90 90l-10 11c6 6 18 13 18 25h8l25 23h24l9-12 14 11-1-19c0-5 0-8 3-10-4-2-4-6-1-9-1-2-3-2-3-8l-2-2-1 1-6 7c0 4 3 6 5 4h1c0 2-2 3-4 2h-1l3 6 1 6-1 6c-1 3 0 5 1 5v1c-2 1-3 0-3-4 0-1 0-2-1-1-3 2-7-1-5-4 0-1 0-1 0 0l3 3c4 0 6-6 3-11h-1c-1 3-2 3-3 2l-1-1h1c2 0 3-2 2-5l-1-5c-1-2 0-4 1-6l3-4 3-3-2-1-3-2s-11 30-10 42c-1 15-13 11-13 0zm0 5c3 0 6 4 7 15l4 9c4 3 10 1 10-4s-7-6-8 0h-1l1-4c1-1 1-1-1-2-4-2-6-6-4-8 1 0 3 1 2 2v2c1 2 2 3 5 3l4 2c3 1 4 4 3 7v2h2c3-1 7 1 9 3l2 6v2l1 3c1 8 7 11 10 6 2-3-2-7-4-4-1 2-2 1-1 0 0-3 4-3 6-1l1 5v1l5 1c2 2 2 5-1 6-1 0-2 0-3-2h1c1 2 3 0 3-2-1-2-3-2-6-1-5 2-7 2-10-1l-3-7c0-4 0-4-1-3-5 4-11-2-7-6 1-1 2 0 1 2-1 1 1 4 3 4 5-2 4-8-1-10h-9c-9 2-13-1-15-14l-1-6c-1-3-5-5-7-3-1 1-1 3 2 3 2 0 1 2-1 2-4 0-5-6-1-8h3zm-50 2l1 4 5 2-2-5zm12 1l-1 4 3-1 2-4zm39 7a1 1 0 110 3 1 1 0 010-3zm-46 2l-3 2-1 3 4-1zm9 1h-3l1 3 3 1zm131 0l-2 2c6 5 0 9 0 9 4 3 3 7 2 11l-2 21 8 4v-42zm-70 6a1 1 0 110 3 1 1 0 010-3zm-82 4v39l8-15-6-6 5-5zm79 6a1 1 0 110 2 1 1 0 010-2zm18 4a1 1 0 110 2 1 1 0 010-2zm53 43l6 6-5 6 7 13v-39zM33 159v42l6 4 2-1c-4-5-2-8 1-10-5-1-3-8-3-12 0-6 2-13 1-19zm36 5l-9 13-15-11 2 18c2 9-3 9-3 10 7 5 1 10 0 10 4 2 4 8 4 8l1 1 1-1c2-1 5-4 6-7 1-4-3-7-5-4-1 2-2 1-1-1s3-2 4-2v-3l-2-5 1-7c1-4 1-7-1-7l-1-1c3-1 5 0 5 3v2c5-2 8 2 5 6-1 1-1 0-1-1 1-2 0-4-2-4-3 0-5 4-4 9 1 2 1 2 2 1l2-1c2 0 2 2 1 2-3-1-3 2-2 7 2 6 0 11-6 14v1l6 4 10-40v-3c0-11 10-12 13-2l2 3 53 47 9-10c-7-8-17-13-18-25h-8l-25-23-24-1zm15 1l3 2-2 1c-1-2-1-2-2-1-3 3 1 5 6 4l5-1c4 1 6 4 7 10 0 2 0 2 1 1 3-2 8-1 8 3 1 2-1 4-3 4v-1c2-1 2-4 0-5s-5 1-5 4c0 4 3 6 8 6l5-1c3 0 6 0 9 2s5 7 5 14c2 8 3 10 6 10 1 0 3-1 3-3 0-1-2-2-3-1-1 0-2-1 0-2s4 1 4 3c1 2-1 4-3 5-4 2-7-2-8-10l-2-9c-2-6-6-8-9-7-5 2-4 9 1 9 2 0 3-2 3-4l2 1-2 3c-2 1-1 1 0 2 5 1 8 6 5 8-1 1-3 0-2-1 2-2-1-5-5-6-6-1-8-6-6-10 1-2 1-2-2-1-6 0-9-1-11-5l-1-5-1-9c-3-5-10-3-9 1 0 3 3 4 5 2 1-1 2 0 0 1-3 4-8 0-7-5 1-1 1-1-1-1-5 0-7-4-4-7l2-1zm11 17a1 1 0 110 3 1 1 0 010-3zm19 5a1 1 0 110 3 1 1 0 010-3zm-4 9a1 1 0 110 3 1 1 0 010-3zm59 5l1 4 3 1-1-4zm11 1v3h2l1-4zm-47 4a1 1 0 110 3 1 1 0 010-3zm40 6h-3l-2 5 4-2zm6 0l1 3 4 2-2-5zm-58 28l-25 45h7l23-42zm-78 11l-2 3 2 3 2-3z" fill="#d40000"/><path d="M16 12c-3 0-6 2-7 6v12H6v4h3v2c0 5 1 7 4 8h9c2 2 5 1 5 1l-1-4c-3 0-4-1-3-3v-1-20c-1-3-4-5-7-5zm0 3l3 3 1 13v6c-2-3-5-5-8-6v-5l1-9 3-2zm69 11c4 14 5 28 1 41 2 0 12 3 17 6-1 2-16 21-26 30l9 9c5 5 7 8 8 15 0 3-2 6-4 9l-6 6-12 12-9 11-4 6c-10-9-22-16-22-16l14-7c2 1 4 0 3-2-2-6-1-12 2-17l5-2h4l2 1c2 1 3 0 4-6 1-5-1-11-4-11l-1 2-1 3-1 6-8-5c-3 0-5-4-5-4l1-2 4 2-1-2 1-3c2-2 2-4 0-6l-1-1 1-4h-5c-2-3-6-2-6 1l-5-2 1 5c-4 4-1 7 1 7l-2 5 5-2 2 2c0 3 3 5 4 7v2l2 4-21-10v85l5 3c2 1 2 1 1 3l2 13 2 18v3h-5c-2 2 0 6 3 6l1-1h1l-4 8 5 8 5-9-4-7h1l2 1c2 0 3-1 3-3 0-3-2-4-5-3h-1l3-29 2 1-1-2c0-4-1-6-3-7 6-3 3-8-1-10 0 0 3-1 3-3v-7l-2-18 15 12 10-13h22l27 24h7v1c1 8 6 13 11 17l7 6-9 9-55-48v-2c-1-5-5-7-8-7-3 1-6 4-6 10l1 2-10 41-6-4h-1l6 4h1l1 1v1l14 10c4-3 8-2 13-1l4 1c9 1 16 2 24 5l-28 51h54c-3-11-6-22-1-40l-17-6h1c2-4 7-12 13-17a245 245 0 0013-13l-11-10h-1c-2-1-4-6-5-9-2-8 1-14 10-20 8-6 24-28 24-28 8 7 15 10 22 15l-11 6-4 1c-2 0-3 0-2 2 3 5 1 16-3 18-3 2-6 1-9 0-2-1-2-1-3 1-2 5-3 9-1 13 2 3 4 5 5 0l1-9c2 3 4 4 8 5 3 1 6 4 5 6l-1 1-4-1 1 4c-3 2-3 5 0 7v1l-1 5 3-2h2c2 2 4 2 6 0h1l2 1 2 1-1-5-1-1 1-1c2-1 2-3 0-5v-1l1-4-5 1-2-2c0-2 0-4-4-7 1-1 0-4-1-5l7 2 3 2 10 5v-42-42l-2-1-3-3c-2-1-2-1-1-2v-7l-3-18-1-7v-3c7 3 8-7 1-6l3-7-4-9-6 9 3 7c-3-1-5 2-4 4 0 2 2 3 4 2v9a3433 3433 0 00-3 20l-2-1 2 2c0 4 0 6 3 8-5 3-2 8 1 9-2 1-4 3-3 8l1 20-15-11-8 13h-23l-26-24h-8s-1-7-4-12l-14-13 10-9 55 49v2c2 8 11 8 13 0v-4l1-3 8-33 1-4c1-2 0-2 3 0l2 1-4-3v-1l-16-12c-4 3-10 2-14 0l-3-1c-9 0-17-1-24-4l29-52h-12v1h-6v-1zm107 171zM118 28h4L98 70l-2-1v-2l-1-4c-1-1-1-1 1-1 4 1 7-4 6-7-1-2-1-2 1-2 5-1 6-7 3-10h1c4 0 7-4 6-8v-1c4-1 5-4 5-6zm-32 0h19c-3 3 2 6 2 5-4 3-3 6-1 7s5 0 5-5h1c0 1 1 8-6 7-1 0-2 1-1 2 6 6-3 9-3 8v-1c2 0 5-3 2-6-1-1-6 0-5 4-3-4-6-2-6 0-1 1 0 4 2 4-2 2-1 5 1 6s5 0 4-4l1-1c2 6-3 8-6 7-2 0-2 1-1 2 2 2 1 5 1 5l-8-2c3-12 3-25-1-38zm30 0h1c0 2-1 5-5 5v-1c2-1 4 0 4-4zm7 0h5l-25 44-4-2zm-13 3a2 2 0 110 4 2 2 0 010-4zm-52 1c-4 10-12 17-18 27-5 11-3 20 5 21 5 1 10-3 11-7v-2l1 5c-2 7-4 11-6 13h15c-3-3-5-8-6-14l1-4 1 2c0 6 6 9 11 7 6-4 6-11 5-15-5-13-15-21-20-33zm-44 4l4 4c-1 2-3 2-4 1s-2-2-2-5h2zm2 14l-5 8c-1 2-4 7-4 10 2 4 6 5 8 2 1-1 1-1 1 1s-2 4-3 5l7 1-3-6 1-1 4 2c2-1 4-3 3-6 0-3-2-6-4-9l-5-7zm83 0a2 2 0 110 4 2 2 0 010-4zm82 2l5 7-5 9-4-9zm0 2l-3 5 3 5 3-5zm0 2l2 3-2 3-1-3zm-4 10l1 1c3 1 2 5-1 5l-1-1c-2-1-1-5 1-5zm7 0c3 0 4 4 2 6l-4-1c-1-1-1-3 1-4l1-1zm-3 5l1 4v4l1 10 1 3 1 14c-1 3-5 4-7 2l-1-7a371 371 0 004-30zm-70 8s14 5 24 4l4 1 4 1h8l2-1 1 1c-10 2-31 2-44-4zm70 2l1 10c1 14 1 14-1 16v1h1l2-4-1-8a834 834 0 01-2-15zm-71 1c13 5 27 6 45 4l2 1h-1l1 3 3-1 2 2c-15 5-40 4-55-3h-1l1-2 3 1 1-3h-2zm3 3l-1 3 4 1 1-3zm6 2v2l4 1v-3zm7 1l-1 3h4l1-3zm28 0h-4l1 3 3-1zm-6 1h-4v2h4zm-16 0v2l4 1v-3zm10 0h-3v3h3zm-38 1l1 1c1 2 1 4-1 5-1 0-3-1-2-2l1-1v-3h1zm5 0c15 5 31 7 49 3l-9 33zm-7 0v2c-1 1-3 1-2-1l2-1zm4 1l1 1c2 2 2 5 0 6s-3-1-1-3v-3-1zm57 1h1l1 2c-1 1-3-1-2-2zm-2 1l2 2 1 1v2l-3-3v-2zm-52 1l1 1c2 3 1 7-1 8h-2v-2c2-1 2-3 2-5v-2zm8 1l30 27 7-26s-19 3-37-1zm37 1zm7-1v2l2 3c2 0 3 1 2 2h-3c-2-2-2-7-1-7zM48 96c2 0 3 1 3 2 0 2-1 3-2 3l-1-2v2c-1 1-3 0-3-2l3-3zm72 0c11 2 20 2 33 1l-6 24zm-8 0l1 1c1 2 2 5 1 6h-2v-2-3-2zm-72 1l4 2 2 3-4-1zm15 1l-1 3-3 1 1-4zm105 0v2l2 3v2l-1-1-1-4v-2zm-45 2h1v6c-1 1-3-1-2-2v-1l1-2v-1zm12 0l19 17 5-17h-24zm-47 1c6 6 14 11 16 18 3 8 1 19-7 24l-12 11-14 18-2 4s-1 1-4-2l-24-16 4-2c6 4 15 9 22 16l8-11 8-9c6-8 13-11 16-15 4-6 4-13 1-19-4-6-10-10-15-15zm57 0h8l-2 2h-2l-4-2zm9 0h2l-5 4h-1l-10-4h3l4 2h4l3-2zm3 0v3l-5 4-2-1-10-4-2-1a39 39 0 006 2l4 2c3 1 3 1 6-2l3-3zm-100 0l3 4-4 3-3-3zm110 0l2 4 1 2c-2 1-2 0-2-1-1-2-2-4-1-5zm-105 1c3 0 4 4 1 6l-3-1v-1l2-1-2-1c-1 0 0-2 2-2zm64 0v1c2 2 2 7 0 9l-2-1v-2c2-1 2-2 2-5v-2zm-76 0l3 1-1 1-2 1h2v2c-3 2-6-2-4-4l2-1zm78 2l1 1c2 2 2 6 1 6-2 1-3 0-2-2v-5zm38 0l1 2 2 3c2 0 2 2 1 2-1 2-4-2-4-5v-2zm-9 1l-1 2-2 2c-1 1-2 2-3 1l-5-1-4-4 9 4h1l5-4zm8 2l1 1 1 3 1 1c-1 2-3-1-3-4v-1zm-33 0v1c2 1 2 4 1 6-2 1-3-1-2-3l1-2v-2zm-79 1l-1 3-3 1 1-3zm4 0h1c1 1 2 3 1 4l-3 1-3-2 1-3 1 1 1 2v-2l1-1zm3 0l2 1 1 3-3-1zm133 1l4 3 2 1v42l-7-4v-5l2-16c0-7 1-8-3-11 5-3 3-8 1-9zm-38 0v2c-1 2-3 2-5 1l-3-2 5 1h1l2-2zm-20 1l1 4c0 2 0 4-2 5h-2c-2-1-1-3 1-3l1-6v-1l1 1zm29 0l1 1 2 3v1c-1 2-2 0-2-2l-1-3zm25 0c3 0 4 2 4 4s0 3-2 4c-4 1-6-1-6-4 0-2 2-4 4-4zm-52 2c2 2 2 6 0 6s0-2 0-2l-1-4h1zm52-1l1 2c1 1 1 3-1 3l-1 1c3 1 5-3 3-5l-2-1zm-114 1c3 1 3 5 3 7 1 3-1 7-2 8-3 3-4-6-2-11l1-2v-2zm80 0l-1 3h-1l-2-2 2 1 2-2zm9 1v1l3 4c2 0 2 2 0 2h-1l-3-6 1-1zm-106 1l1 1 3 3 6 3c3 1 6 6 4 6h-2l-1-1c-1-2-4-4-7-5s-5-4-6-6v-1h2zm82 0v1c2 1 2 5 0 5-1 1-2 0-1-1v-3l1-2zm23 2l1 2 1 2v2c-1 1-2-1-2-4v-2zm-21 1h1c2 2 1 8-1 9h-1c-2-1-2-3 0-4s1-5 1-5zm-100 1l8 4 3 7c1 1 2 2 1 3-3 2-4 2-4 4l2 3c2 2 2 2 1 5l-3 8-8 5c2-6 5-11 8-15l-6-6 5-5c-3-5-6-9-7-13zm102 0l2 3v4c-1 2-3 0-2-2v-3-2zm-103 1l7 12-5 5 6 6c-4 4-6 9-8 14zm121 0l1 2 1 2v2l-2-1v-3-2zm29 1c2 1 3 3 2 6l-1 15-1 8v-4l1-11-1-13c-2 0-2 0-1 1 2 1 2 2 0 23l-1 4-2-1v-5l-1-16c-1-5 0-7 3-7h2zm-43 3c1 1 2 6-1 5v-2-4-1l1 2zm-87-1c2 0 5 1 7 3 1 1 1 2-1 2h-2l-2-1c-3 0-4-5-2-4zm100 1l1 2c0 1 1 3 2 2l2 1-1 2h-2c-2-2-3-7-2-7zm-12 0l3 5-2 5-2-1c-1-1 0-2 1-2v-6-1zm-95 1l7 3-3 4-4-7zm98 1l1 1c1 2 2 4 1 6l-2-1v-1-4-1zm-46 1h8l24 23h-2l-23-21h-7zm-43 4c-3 4-3 10-2 15 2 4-1 4-2 2l-2-8c1-6 3-11 5-12 2 0 2 2 1 3zm102 11c0 3-2 5-4 6-8 3-11-14-4-17s9 6 8 11zm-59-11h7l20 19h-4l-1-2-16-15h-7zm53 1c-4 0-4 6-4 7 1 3 2 7 5 7s4-3 4-7c0-3-2-7-5-7zm-54 2h6l17 16h-3l-1-1-13-13h-7zm54 0c1 1 2 3 1 4s-2 0-3-2l2-2zm-101 0l-2 6-2-3zm103 4a1 1 0 110 2 1 1 0 010-2zm-51 0l12 12h-4l-10-9-6-1 1-2zm47 0a1 1 0 110 3 1 1 0 010-3zm15 0l27 19-3 1c-8-4-18-10-24-15-5 8-16 23-25 30-6 4-9 9-9 15s2 11 9 16l8 7-2 2-14-12c-3-3-5-11-4-15 1-6 3-10 8-14l6-5c17-18 23-29 23-29zm-11 3c0 2 1 3-1 3-2 1-2-1-1-3s1 0 2 0zm-59 0h6l10 9h22a1205 1205 0 0121 3H80l6-5 8-7zm-45 3l1 5-5 3 4-8zm141 14l-7 13-1 2 6 5-5 6c3 3 5 8 7 12l-7-3-3-7c-2-4-2-4 0-5 2-2 3-2 2-3l-3-5v-1l4-10zm1 1v37c-2-4-4-9-7-12l6-6-7-5 8-14zm-158 1l7 4-1 19v10l3 2c-4 2-5 6-1 10l-2 1-6-4zm112 2l-7 6-7 6h-7l-9-9H70l2-3zm35 2l-5 8-1-5zm-139 1h1l-1 9v10 9c1 1 2 0 1-1l-1-2 1-5 1-19 2 1 2 24c-1 5-8 4-8 0l1-16zm59 1h3l18 16h6l-1 2h-5zm11 0h3l10 9h6l-1 2-6-1zm-3 0l15 13h5l-1 2h-6l-17-15zm-14 0h3l23 21h6v2h-7zm78 0l3 6c1 5-2 14-4 15s-3 0-2-1c3-5 3-13 2-17-1-1 0-3 1-3zm-99 1c8 0 9 15 2 18-5 0-7-4-8-8-1-5 2-10 6-10zm-4 9c0 3 2 7 5 7 4-1 4-6 4-8-1-3-2-6-5-6-4 0-4 5-4 7zm4-6l2 3c-1 2-1 3-2 2l-1-3 1-2zm103 4l3 4-4 3 1-7zm-100 0a1 1 0 010 3l-2-2 2-1zm-5 1a1 1 0 110 2l-1-1 1-1zm3 1l1 2v3c-1 1-2 0-2-2l1-3zm10 5c1 0 2 2 0 3v5c0 2 0 2-1 1-2-4-2-9 1-9zm-4 1c1 0 2 1 1 2v3c1 2 0 2-1 1-2-3-2-6 0-6zm95 1l4 8-7-3zm-104 8l-1-3-1-1c-3 0-3-3-1-3 4-2 5 7 3 7zm15-2v4c-2-1-2-6-1-6 2-1 2 0 1 2zm71-2l2 1v7l-1 7c-1 1-4-3-4-6s0-8 2-9h1zm9 0l1 1 2 1c2 1 5 3 4 4s-3 0-3-1h-2l-4-4 2-1zm-5 1l3 1c1 2 3 4 6 4 3 2 7 4 6 8h-2c-1-3-4-5-6-5-5-1-10-6-8-8h1zm-86 0l43 37c-18-6-35-6-51-4zm19 2l-2 2-1 5c0 2 0 1-1 0v-7c1-3 4-1 4 0zm-25-2l2 4c0 2-1 2-1 0l-1-1c-2-1-2-3 0-3zm20 3v4h-1c-2-2-2-6 0-6 1-1 1 1 1 2zm-19 4c0 2 0 2-1 0l-1-1v-2c1-1 2 2 2 3zm6-2l-5 25c14-1 21-1 36 2zm18 1v5c0 2-1 1-2-1 0-1 0-5 2-4zm-28 0c2 0 3 2 3 5 0 2 0 2-1 0 0-2-1-2-2-2-2-1-2-3 0-3zm11 0l27 24c-11-2-22-2-33-1zm22 1c3 0 3 3 1 4-2 0-1 3-1 5 0 1 0 1 0 0-2-2-3-8 0-9zm-2 3l-1 3v1c-2-1-2-4-1-5s3 0 2 1zm-54-2c2 0 4 2 4 4 0 3-1 4-4 4-2 0-4-2-4-4s1-4 4-4zm0 1c-3 0-4 4-2 6 1 1 2 0 1-1s-1-4 1-4 1-1 0-1zm35 1l-3 17h22zm-12 0c2 0 3 3 3 4l-1 1-2-2v-3zm12 1l3 2c-2-1-3 1-3 1zm24 3v5l-1-1c-1-1-2-2-1-4 0-3 4-2 2 0zm-36-1l2 4-1 1-2-3c-1-1 0-2 1-2zm113 3l-1 3-1-2-1-1v2c-1 1-2 1-3-1s1-4 3-4 3 2 3 3zm-99-2l3 1 2 2-3-1h-3l-2 2 1-2 2-2zm-13 6c0 2 0 2-1 0l-2-3c-2 0-2-2-1-3 3-1 4 5 4 6zm102-6l3 2v2h-2zm-61 1c2-1 2 2 0 3v6l-2-2c-1-3-1-7 2-7zm75 0l-1 3h-2v-2zm-78 2v5l-2-2v-5c2-1 2 1 2 2zm-24-1l2 1 4 1 2 3-4-2c-4-2-3-2-7 1l-2 1 1-2 3-2 1-1zm-38 1c2 0 3 2 4 4v3l-3 31h-1l-4-29c0-3-1-8 3-9h1zm0 1l-3 2 1 15 1 3 1 6v-3l-1-5-1-12c0-3 1-4 2-5v-1zm138 1c3 0 4 4 1 5h-3v-2h2l-2-1c-1-2 1-2 2-2zm-115 4c0 1 0 1 0 0l-2-3v-1c1-2 2 4 2 4zm104-4h2v2l-2 1h2v2c-2 2-5 0-5-2s1-3 3-3zm6 0l3 3-3 3-3-3zm-95 0h1l5 2 4 1 3 3-5-2-2-1-3-1h-3l-2 1-2 2-1 1v-2l1-1 3-2 1-1zm30 2v1 5c-1 1-3-4-3-6 1-2 3-2 3 0zm-47 0l1 2v2l-1-1-1-2 1-1zm18 0l2 1 4 2 4 1h-4l-3-1h-4l-2 1h-2l3-2 1-1 1-1zm35 1l2 2-2 2-1 6c1 1 0 1 0 0-1-2-3-9 1-10zm-3 3l-1 3v1c-2-2-2-6-1-6 2-1 2 1 2 2zm-52-2c2 0 3 5 3 7-1 2-1 1-1 0l-3-4c-2 0-1-3 1-3zm20 1l3 1h-4l1-1zm95 1l2 1c1 1 0 3-1 4-3 1-6-1-5-4 1-2 2-1 3 1v-1l1-1zm-4 0l-1 3-3 2 1-4zm6 0l3 1 1 4-3-2zm-61 3c2 0 3 2 1 2v5l-1-1c-2-2-1-6 0-6zm-56 0l2 5h-1l-2-2c-1 0-1-3 1-3zm60 2v3l-1 2c0 2-1 1-1-2 0-1 0-3 2-3zm-61 1s2 2 1 3h-1l-1-1c-1 0-1-2 1-2zm24 2c11-1 23 1 33 5v2l-3-1-1 2 2 1-1 2c-12-4-24-6-45-3l-3-3h1v-2l-4 1-1-2c6-2 14-2 22-2zm39 0l1 2h-2c-1-1 0-2 1-2zm-41 1v3h4v-2zm6 1v2h4v-2zm-8 0h-4v2h4zm15 0v2l3 1v-3zm-22 0l-3 1v2h3zm28 1v2l3 1 1-2zm57 1l4 6 2 11c0 2-1 1-2-1-1-9-11-10-16-2v9c2 11 16 22 20 34 9-18 16-20 20-34 3-11-7-19-15-12l-3 5c0 3-1 2-1 0a35 35 0 015-16zm-50 0v3h3v-2zm-23 3c11 0 20 2 29 5l-2 3c-6-3-16-5-23-5l-4-1c-5-1-10-2-14 1l-2-2 16-1zm118 9l1 1c2 2 3 6 2 6l-1-1c-2-2-5-1-6 1v6c3 6 9 13 8 14l8-14 1-6c-1-2-6-3-7-1l-1 1c-1-1 0-4 2-6v-1zm-164 5c2 0 4 4 1 5h-2c-2-1-3-4 0-5h1zm81 0l4 2-23 42h-5zm-74 0l2 2c1 2 0 4-2 4-3 0-4-5 0-6zm79 2l3 1v2l1 4c1 1 0 1-2 1-3-1-6 3-5 7l-1 1c-4 2-5 5-4 9v2c-5 0-7 4-5 8l-1 1c-3 0-5 3-5 6h-4zm4 2l7 2c-3 11-3 23 0 38h-17c2-3 1-6-1-6 2-2 2-6-1-7-3 0-4 3-3 6h-1l-1-1c-1-3 1-7 5-7 3 0 3 0 2-2-3-2-2-6 1-8h2l1 2h-2c-3 1-2 6 1 6 2 0 3-1 3-3v-2c2 3 5 3 7 1 1-3-2-5-4-5h1c2-2 1-6-2-6-2 0-3 2-3 4l1 1-2 1v-1c-2-3 1-7 6-7 2 1 2 0 1-1-1-2-2-3-1-5zm-87 1l4 7-4 9-5-8zm0 4l-3 4 3 4 3-4zm0 1l2 3-2 3-2-3zm83 8a2 2 0 110 3 2 2 0 010-3zm83 9l-4 1h-2l-3-1h-2v4c4-1 5 1 4 3v18l2 6c2 3 7 2 9 1s2-3 3-5v-13h2v-3h-2v-3c0-6-3-8-7-8zm0 3c2 0 3 1 3 3v3c0 1-2 0-4-3l-2-2 3-1zm-4 5c2 2 2 4 8 6v6c0 7-1 9-3 9-2 1-4 0-4-2l-1-14v-5zm-90 2a2 2 0 110 3 2 2 0 010-3zm-3 1l1 2c-2 0-3 2-3 4h-2c0-5 4-5 4-6z"/></svg>