<svg xmlns="http://www.w3.org/2000/svg" width="224.2" height="312.8"><g transform="translate(-996 -1754)"><rect y="1754.4" x="996.1" height="311.8" width="223.2" rx="10.6" ry="10.6" fill="#fff" stroke="#000"/><path d="M1026 1780h163l1 262-164-1v-261zm116 260l-16-29c-4 1-40 6-57 2l-17 26zm-56-33h-2l1-4 1 2h2l5 1c2 0 7 0 10-2v1c-5 4-10 3-15 2h-2zm3-4h-1c-2 1-2-1 0-2v-1l-1-1c1-2 3-4 6-5 1-1 1 0 0 0l-2 2c3 0 5 0 8 2h2l2 1c2-1 1 1-2 2-4 4-9 5-12 2zm6 1l6-3c1-2 1-2-1-1-3 2-5 2-8 2h-3l6 2zm-5-5l1-1c-1-1-1 0-2 1v1h1v-1zm2 1c0-3 2-3 3 0h1c-2-5-5-3-5 0h1zm6-1v-1h-1v2l1-1zm-12-7l1-1c3-2 1-5-2-3l-3 1v-2l2-1c5-2 7 3 4 5l-2 1zm-13-5c-2-1-2-4-1-6 2 0 3-1 6 1l4 1-2 2c-2 0-3-3-6-2-2 0-2 2-1 3 2 0 1 1 0 1zm36 0v-1l2-6 2-3v2l-4 8zm-16-1c-1 0-1-1 0 0s3-1 3-3c0-1-3-2-5 0-3 2-7 2-7 0h1l5-2c4-2 8 0 7 4 0 1-3 2-4 1zm-15-5h-1v-3h12c2 0 2 0 1 1v2h-12zm25-3l1-2c3-5 3-6 1-8s-5-1-7 3l-1 2h-1l4-6c2-3 7 0 7 3l-2 7-1 2-1-1zm-24 0c0-2 6-3 8-1h-7l-1 1zm22-1l1-1 2-6c-2-1-3 0-5 4 0 2 0 1-1 1l3-6c3-1 4 0 3 4l-2 4h-1zm-9-6l1-2c2-3 2-4 1-5 0-3-4-3-5-2l-2 2-2 4c0 1 0 1 0 0l1-4c3-6 11-3 9 3l-2 4h-1zm-1-1v-2c2-3 2-4 0-4s-2 1-3 3v2h-1c-1-1 1-5 2-5 2-2 5 0 4 3l-2 3c0 1 0 0 0 0zm-47-38h-6v20l-1 12c0 5 2 9 3 14l-1 11-1 14-1 6v-3-7l1-10 1-11-3-15c-1-5 1-11 1-15 1-4 0-11-1-14l-1-2-3-1v83l6 6 6-6zm1 32l20 11c-1-6 2-7 5-8-1-12 10-9 11 1h1c2-5 4-9 8-9 4-1 7 1 8 6 0 0 11-7 11 6 5-3 8 0 10 4 2-3 7-3 9-4l4-1h5c1 1 3 0 4 2 1 0 2 2 4 1l11-5v-1l1 1 2-1a88 88 0 01-17-75l-1-1s2 1 1 2l-2 16v1c31 14 27 45 19 56l1 1c1 1 24-13 24-14l4-2-1-60-17-1v-1-13-18c-5-4-13-9-20-12l-1 6c-6 2-3 5-5 8-2 1-6 2-8 0l-3-7c-3 3-2 8-7 9-7 4-10-7-9-7-3 3-11 5-12-6-3 3-7 2-9-2l-6 2-7 2-7-1c-1 1-3 0-4-2l-3-1-11 4v1l-2 1c21 27 22 55 18 75v1h-1l2-17c0-2 1-1-1-2l-5-2c-5-4-11-9-13-15-8-12-6-27 0-39l-1-1c-18 9-28 18-28 18v59l18 2zm-9-39h-3l-2-1 1-1 4-2h1l1-1-3-1-1-1-3 2-2 1v-2l2-1 4-1 1-1v-2-1l-5 1-1 1v-2h2l3-1v-2h-3l-3 1 2-2 3-1-1-2h3v1l1 1c2 3 2 1 3 0 0 6 2 6 2 6-2 5-1 5 2 6h-2l-3 2h-2l-3 1v1c2-1 3 0 3 1v1h-1v-1zm2-6v-2l-2 1 2 1zm1-3v-2c0-1-2-1-2 1-1 1 1 1 2 1zm0-5l-2-1c-1 1-1 2 1 2l1-1zm-4-4v2c2 1 2-2 0-2zm142 6c0-3-3 0-3 0 0-3 1-4-2-6 3-3 2-4-1-5 1 0 4-1 5-3 0 0 5 1 5-2-1 1-4 1-4-2h1c-1 2 3 3 3 1l2 1s-1 3-3 3l-4 2h2l1 1 1 1 5-3v2l-3 1-3 2v2h2l4-2v2h-1a31 31 0 01-4 1v3l3-1h2l-1 1-3 1v2h1l-3 1-2-3zm3 0h-2v1c1 1 3 0 2-1zm-1-2c0-1 0-2-2-2l-1 1c0 1 2 2 3 1zm-2-3c1 0 2-1 1-2h-3c-1 1 1 3 2 2zm1-4v-1c-1-1-2 0-2 1h2zm-127-28l3-1v-1l-3-2v4zm24 33v-2c0-2 0-1-1-1l-2 1c-1 1-1 1 1 2h2zm-2-3l2-2c0-1 0-2-1-1-3 2-7-2-4-5l2-2-4 2c-1 2-2 5-1 7s4 2 6 1zm-7-3v-2h-3l1 2c2 1 2 2 2 0zm4-8c1 0 0 0 0 0l-2 1c-2 2-4 2-5 1-1-2-1-4 2-6l1-1-2 1c-4 2-5 4-5 6l1 2c4 3 8-1 10-4zm4 2v-4c-4-3-7-8-8-12-2-4-1-12 0-11l-2-4c-2 4-3 10-1 16 2 5 5 11 11 15zm-15-2c1-2 1-2-1-2-3 0-2 0-1 2h2zm1-3l3-2c3-1 3-2 1-1-3 2-6 1-7-1 0-1 1-3 4-4l1-1c1-1-4 0-6 2-4 4-1 8 4 7zm-6-6l1-1c1-2 0-1-1-2h-2l1 2 1 1zm5-4h3l-1-1c-4 1-6 0-6-2-1-2 1-3 4-3l2-1h-6c-3 1-4 2-4 5 1 2 2 3 6 3l2-1zm2-8l-3-1c-3-1-4-3-2-5l3-1h3l-4-1c-6-1-9 4-4 7l7 1zm2-8l-1-1-2-1c-2-1-3-4-2-5 2-1-1-3-2-1-2 1-2 3 0 5s7 4 7 3zm-10-1c2-1 4 0 2-1 0-1-1-3-2-1l-1 3 1-1zm70-4c-2-1-4-4-3-6l2-5v2l-2 5 3 3 3-1 3-5c0-1 1-3 1-1l-2 6-5 2zm14-2c1 1 2 2 4 1 3-1 4-3 3-8l-2-4v2c1 5 1 7-1 8-2 2-4 0-5-3v-2c-1-1-2-1-2 1l3 5zm12-13c0-2-3-9-4-8v2l1 1c3 6 2 10 0 10l-1 2c1 1 3-1 3-2l1-5zm-53-1l4-9c3-7 5-15 6-23v-2h-2v1c-1 9-3 17-6 25l-4 8-1 1v1l3-2zm-5 2c4-5 7-12 9-19l3-15v-2h-1l-1 3-2 12c-3 11-6 17-10 22l-1 1h1l2-2zm-5 3l7-11a116 116 0 008-27h-2l-4 16c-3 10-7 17-10 20l-1 2h2zm-3-1c4-2 9-13 13-27l2-10h-2l-1 5c-2 9-4 17-9 24-1 4-4 7-6 8l-1 1h3zm58 124c-3 0-6 3-8 7-5 8-9 21-10 28h2s4-19 10-27c3-5 3-5 5-5 2-1 4 1 3 3l-1-1c0-2-3-2-4 0s2 5 5 4c2-1 3-5 1-7l-3-2zm-17 0a87 87 0 00-13 37h2a85 85 0 0114-38c-1-1-2 0-3 1zm9-2c-5 4-9 13-12 21l-4 17h2c0-1 6-32 16-37l1-2-3 1zm5 0c-11 2-18 35-18 37v1l2-1 6-22c3-6 7-13 12-14h1l-3-1zm-64-10c-4 1-4 5-2 11l1 1c0 1 0 0 0 0v-3c-2-4-1-6 0-7 4-2 5 2 6 4l1 1h1l-2-5c-1-2-4-3-5-2zm-29 4v49l-7 7-8-7 1-83h-3v108h22l18-29h1v-4-3h-2l1-1 1-5-1-1c-3-4-4-11-3-16v-4zm97-53c-2-1-2-1-2 1l1 2 2-1c2-1 0-1-1-2zm8 5c-1-1-1-1-1 2-1 2-1 2 1 1 1 0 3 0 2-1l-2-2zm-63 43c-2 2-4 9-4 9-9 1-12 9-13 16v12c6-2 8 1 8 0 1-1-1-2-3-3l-1-1 3 1c1 1 1 1 1-2-1-4-1-4 2-5l2-2h1l-4 3-1 2 1 5 1 3v5a10 10 0 000 4h-5c-2 1-4 0-5-1v4c13 2 25 2 35 1a112 112 0 017-30 10 10 0 013-3l-1-2c-1-1-3 0-3 2l-3 7-1-1 3-6c1-3 3-4 5-3l1 2v-1c1 0 0-2-2-3-2 0-4 1-6 6l-2 4v-1l3-7c2-3 6-4 8-1v2l1-1-2-3c-2-2-5-2-7 0l-2 4c-2 5-2 5-3 4l4-8v-1c0-1 1-4-3-6-3-2-7 0-8 3l-2 4h-1c1-2 3-4 3-7 0-5-6-8-10-5zm-30-109l12-4v-2c-3-6 6-11 8-5l1 1 3-4c3-4 4-10 6-15l2-9-17-31h-44v87c12-10 20-14 29-18zm49-3l3-5 1-3s1-1 1 1l-1 1-2 3c-2 5-2 8 1 10a6 6 0 009-2l2-4-1 3v8c2 3 7 3 9 0 2-1 3-3 3-6l1-1 1-1c6-1 11-7 11-13l1-3a125 125 0 00-1-12h-6-1l3 2 1 2-4-2v3c1 3 0 4-2 5l-2 2v-1c1-1 0-2-2-1-3 1-4 0-5-1-1-2 1-4 2-4l-2 2c0 2 2 3 4 2l2-1h2v1h1c2-1 2-2 1-3l-1-8-1-4 1-3v-2l3 1h7v-3h-5c-9-2-29-2-29-1l-1 5-5 18v2l1-1-2 5-1 4h-1l2-5-4 5v1c1 2 3 2 3 0a63 63 0 004-8v2l-4 8-3-1c-1-2-2-1-1 1s4 2 5 0a64 64 0 005-8l-2 6c-1 2-2 4-4 4-3 1-4-1-5-3-1-1-1 0-1 1 0 2 1 2 2 3 2 2 6 1 7-1zm16 9v-2l2-4v2c-2 3-2 4 0 4 1 1 1 0 3-3l1-2-2 6c-2 1-3 1-4-1zm-11-2l-2-1c-2-2-1-5 1-10a198 198 0 001 1c-3 5-3 7 0 9 3 1 4 0 6-4 1-3 2-3 2-2l-3 5c-1 2-2 2-5 2zm0-3v-3l2-6c1 0 1 1-1 4v4c1 1 2 0 3-4l1-1v2l-1 2c-1 2-2 3-4 2zm19-7l-2-2c2 2 5 2 7 0h1c-1 2-4 3-6 2zm-6-2v-1l1-2h13v3h-14zm-6-5c-1-2 1-5 4-4v1c-5-1-4 7 2 3 4-3 6-3 7-1l-2 1-4 1c-3 1-5 2-7-1zm21 2l-4-2-2-1c1-1 2-2 4 0l5 1c1-1 1-3-1-3-1-1 0-1 1-1 2 1 2 5 0 6h-3zm-18-13l3-2 1-1c-3 2-7 0-10-1h-2l-1-1h-1l2-3 7-3c2 0 4 0 6 2h1v1 4l-6 5v-1zm3-6h-1c-1 2-2 3-4 0 0 3 4 4 5 0zm-5 2l-1-2-2 1 3 1zm6 0v-2l-1 1 1 1zm-11-2c5-3 7-3 10-2h1l-2-2c-2-1-3 0-7 2-3 1-5 3-2 2zm16-3l-1-2-5-1c-4-1-8 0-11 1h-2l3-2c3-2 7-2 10-1h6v5zm57 221v-87c-14 11-42 22-42 22 4 7-4 13-8 6-5 5-11 22-11 28l18 31zm-79-28a88 88 0 019-32v-1l-4 3c-4 9-6 18-7 26v4zm2-1c1-10 5-25 11-34l1-2-4 3a90 90 0 00-9 34zm6-1l4-17c2-7 5-12 8-16l3-5h-2l-2 2c-4 6-7 12-9 19l-4 18zm-39-4h2v-2c0-2 0-2-1-1-1 2-5 3-7 2l-1-1v2h7zm-2-2c2 0 3-1 3-2h1l-7 1c-3 0-3 0-1 1h4zm-4-3v-2l-1 1 1 1zm5 0c0-4-4-4-4 0 1-3 3-3 4 0zm2-1c1-1 1-1-1-2v2h1zm-9-4v-2l-2-9v-4c-1 0-2 6-1 10 1 3 3 7 3 5zm0-4v-6l-1-2v2l1 6zm1-8l-1-3c-3-5-3-9 0-10l1-1-1-1c-4 1-5 5-2 12l3 3zm0-3l1-2-1-1v-5l1-1-1-1-2 2c-1 2 0 4 1 6l1 2zm2-4c1-2 0-4-2-3v2c1 2 1 2 2 1zm3-5l-1-3 1-3c2 0 2 2 2 3l2 1v-1c-1-4-3-6-5-5s-2 3 0 8v1l1-1zm2-1l-1-2-1-2v3c1 2 1 2 2 1zm82-7c3-2 2-6-2-7l-1-1h-4l3 1c2 2 3 3 1 5 0 2 1 3 3 2zm3-4l1-3-1-1c-2 1-3 1-2 2l2 2zm0-4c2-1 2-5 0-6l-2-2h-6v1h1c3 0 5 1 5 3s-2 3-5 3h-2l4 1h5zm-11-1c3-5 4-19-10-30l1 3c8 7 10 16 8 25zm13-9l-3 1v1l2 1 1 1v-4zm-4 1c2-1 4-3 4-5-1-3-4-4-9-3-2 1-3 2 0 2 3-1 5 0 5 2s-2 3-5 3l-1 1h6zm-5-8c5-2 7-4 6-7-2-3-6-3-10 0-2 1-1 2 1 1l4-1c2 2 1 5-2 6l-1 1h2zm8 0c0-1-1-5-2-4l-1 2v1l3 1zm-12-7c4-3 6-7 4-9-3-3-6-1-10 3-1 2 0 1 2 0 3-3 6-2 6 1l-4 4v1h2zm8-3l-3-4-1 3 2 1h2zm-14-4c4-4 4-8 1-10-2 0-6 1-6 3l1 1c4-2 7 2 3 5v2l1-1zm42-34v-107h-23l-18 28v7h1l-1 2c-1 2-1 3 1 5 2 4 4 12 3 16l-1 3 2 2c1 1 8 3 19 10v-50l7-7 7 8v82c0 1 2 2 3 1zm-4-83l-6-6-6 6v82l6 1v-25c1-6 0-10-1-16l-1-9 2-16v-12h1v13l-2 16c0 4 0 5 2 9 2 7 0 18 0 18-1 7-1 15 2 22h3zm-43 51c2-1 3-3 2-6l-1-2h-1l1 2-1 4-2-2-1-2h-1l2 5 2 1zm0-3v-4h-1l-1 2 2 2zm5-4c3-1 3-3 1-7l-1-3v9 1zm-68-2c5-1 9-9 12-16l6-21-2 1-1 2-4 16c-2 4-3 8-8 14-1 2-3 3-5 3h-1c-1 1 0 1 1 1h2zm68-1v-3l-1-1-1 3c1 2 1 2 2 1zm-70-1c2 0 4-1 5-3a109 109 0 0012-31h-2l-4 14c-2 7-7 17-10 18-2 0-4-1-4-3l1-1c1-1 2 0 1 1-2 1 1 3 2 1 3-2-1-6-4-4s-3 6 0 7l3 1zm24-5c3-2 4-5 5-8 3-8 5-17 5-24h-2v6l-6 21-2 5c-2 1-1 2 0 0zm47-16v3c2 3 2 8 2 10v1l1 1c1-4 0-9-1-12l-2-3zm1 12l-1-7c0-1-1-1 0 0v5l1 2zm-4-17c0 2-3 3-4 0h-1c1 5 6 3 5 0zm-5 2c0-1 0-2-1-1v1h1zm7-1l-1-1v1h1zm0-4v-2h-6l-2-1-1 1-1 2 1 1c1-1 2-3 4-3 3 0 5 2 5 2zm-9 2h1c3-2 5-2 7-1l1-1c-3-2-7-1-9 2zm11-11l16-27h-89l15 28c12-3 32-6 58-1z" fill="#131f67"/><path d="M1068 2015c2-3 11 2 11 4 6-4 13-5 18 1 6-6 11-6 18-2-1-2 8-8 13-4l14 25-91 1c6-8 10-18 17-25zm-40-131c0-1-2-15 3-16 8 4 18 17 23 25 6 9 12 32 9 31l11 12c1 1-18 33-22 32l-7-4v-11s10-20 11-26c0-3-7-7-7-8-1-2-1-10-5-14h-7c-10-2-5-18-9-21zm159 7v4c-6 1-17-4-21 5 1 9 3 13 4 16 1 2 9-1 12 2 7 9 6 22 6 33l-4 2c-23-14-40-56-43-68 0-7 21-32 21-32l8 4v33l17 1zm-47-30c-12 17-16 43-15 60 2 27 20 50 19 52h-1c-4-4-7-3-9-3l-8 2c-6 0-6 0-11-2-7-5-16-9-23-11-5 0-14 3-17 1 22-42 19-69-5-113l4 3c5 2 12 1 16-1s8 1 8 1l24 13 6-1 9-2 3 1zm-53-54l-13-25 88 1-13 21c-1 1-7 5-14-3 0 1-9 8-17 0-5 4-10 7-18 2 0 1-6 7-13 4z" fill="#e2cf00"/><path d="M1097 2019c-9-8-18 0-18 0-3-3-6-6-11-5v-1c14 2 34 3 58-2l1 3c-6-3-10 0-12 4-11-6-13-1-18 1zm20-93h6c1 18 15 45 16 45-1-2-11-1-11 0-5-15-11-29-11-45zm-36 42l-3-7c7-11 12-22 14-35h5c-1 18-15 44-16 42zm78-2c10-17 8-42-19-56 0 0 1-18 3-18h12c3-8 8-17 15-23v20c-5 1-8 2-10 6l-7 2c1 20 8 39 31 56-5 5-24 14-24 14zm-114-13v-21c4-1 7 0 9-6l7 3c-5 8-9 17-16 24zm45-37l1-11h10v11zm24-1c0-3 1-7-1-10h11v11zm-21-20c-2-21-17-45-17-45l7 1h3c1-1 14 30 12 43l-5 1zm25 0c2-10 6-28 15-42l4 7c-7 11-12 23-15 35zm-66-6c-4-8-22-22-21-21 7-7 16-11 24-15l1 2c-5 8-7 25-2 35 4 10 13 16 21 21l-2 18-10-5c-1-12-3-23-11-35zm48-86c6 4 12 3 18-2 7 6 14 3 17 1 3 3 7 5 13 4l-2 3c1-2-38-5-57 1l-1-3c2 0 7 2 12-4z" fill="#d40000"/><path d="M1002 1765v3h3v26h-4v3h9v-3h-2v-8l3-4 5 12h-3v3h10v-3h-3l-6-16 6-10h2v-3h-9v3h3l-8 12v-12h2v-3zm71 16l15 30 1-1c22-4 39-4 58-1l16-27-90-1zm1 2h88l-5 8c-3-1-5 0-5 3h-1c-4-1-5 5-1 6h1c-3 3-5 1-7 0 0 0-3 2-6-1 4 1 5-3 3-5l-1-1v-3c-1-3-5-3-6 0v2c-3 0-4 3-3 5l4 1c-2 2-6 1-8-1-3 4-6 3-8 1h3c2-2 1-5-1-6h-1v-1c1-5-7-4-6 0v1l-1 1c-4 1-1 7 2 5h1c-4 5-7 1-8 1-3 4-7 1-7 1l2-1c2-1 1-5-1-5l-2-1v-1c-1-5-7-2-5 2l-1 1c-3 3 0 7 3 5h1c-1 2-4 3-7 1-2 3-6 2-7 0 4 1 6-5 0-6-1-1-1-4-5-3zm-20 3c-3 9-13 17-18 26-6 10-4 21 4 22 5 1 10-3 11-7l1-2v3c-1 5-3 12-6 15h15c-1 0-7-7-6-16l1-2v2c1 10 13 11 17 2 2-5 0-13-5-20-4-6-10-14-14-23zm7 57zm56-50a1 1 0 110 2 1 1 0 010-2zm20 0a1 1 0 010 3 1 1 0 110-3zm-39 2l2 1a1 1 0 11-2-1zm55 1l-1 2c-1-1 0-2 1-2zm-70 3l-1-2c2 0 1 1 1 2zm34-1c7 8 14 6 19 0 2 5 6 8 13 5l-2 2c-6 2-9-1-12-4-6 5-12 4-17-1-5 6-12 7-18 2-3 5-7 7-13 4l-1-1c1 0 11 4 13-6 4 6 15 7 18-1zm1 3c8 8 17 1 17 1s5 6 12 4l-1 2c-13-2-25-4-53 0 0 0 5-1 7-5 1 1 11 7 18-2zm-107 2l-3 6-6 11c-1 5 6 7 8 4 0-2 1-1 1 1l-3 5h7s-3-3-3-6h2c2 3 6 1 6-4 0-2-1-4-6-11l-3-6zm77 5h4l-3 1zm8 37l-1 1-3 1-3 2-1 1a649 649 0 01-12 0l-4-2-1-1c-2-1-14 4-13 4 14 18 26 45 17 78h-2l3-19a38 38 0 01-19-56l-2-2c-6 4-13 6-29 19v21l1 38 18 2-1 27c0 6 1 5 1 5l20 11c-1-5 2-8 5-7-1-6 2-8 6-8 2 1 3 2 5 7v1h2c1-3 3-8 7-9 5-1 7 3 7 7 6-5 12-1 12 6 2-2 7-4 10 3l3-2 2-1h3l1-1h4l2-1 2 1h2l4 1 2 2h1l1-1 11-4a83 83 0 01-17-78l2 1c-1 5-3 11-2 18 21 10 32 34 19 56l1 2c5-3 19-10 23-14h1l5-3v-57h-1v-3l-18-1v-32l-20-12v1c0 3-2 6-5 6l-1 2c0 3 0 4-3 5-3 2-5 0-7-7-1-1-1-1-2 2l-3 5-3 2h-5c-2-1-3-3-4-6h-1c-4 3-10 0-10-6 0-2 0-2-1-1-3 3-7 1-9-2v-2zm-25 2l1 2 4 2s14 18 16 44h7c-2-25-9-37-12-45h3c5 10 11 30 11 48h-11c-1-18-8-36-18-49l-1-2zm-4 3l1 3 1-1c2-2 4 1 3 4l-1 3-3-1c-3-1-4-4-2-4h1l-3-2zm10 0l5 1h4c7 13 11 29 12 43h-5a105 105 0 00-16-44zm21 1c2 0 4 2 5 5l2 1c2-1 4 2 1 2-3 1-1 6-1 6-1 1-4-4-3-5 0-4-4-7-5-5l-2 1v-4l3-1zm57 1v5c0 3-4 3-4 1l-1 3-3-2 3-2c-2 0-3-2-2-3 1-2 6-2 7-2zm-100 1l1 2c-11 19-7 43 19 56l-2 17-10-4c0-22-12-43-32-56 8-6 15-11 24-15zm78 0l3 7s-10 13-14 34h-4c3-14 8-27 15-41zm31 1l2 1c-10 9-17 20-22 31l-3-1c8-17 16-24 23-31zm3 2l2 1c1 1 1 1-1 2-2 2-3 2-3 0s1-3 2-3zm-3 2h1v4l-4 4h-1v-3-1l4-4zm5 1h1v4l-4-1 3-3zm-96 1l1 3c2-3 4-1 4 2l-1 5-6-4c-1-1 0-2 1-2h1l-2-3zm64 0l3 1c-6 9-11 18-15 37h-11c2-12 5-24 10-35l4-1s-9 20-10 33h5c3-12 8-25 14-35zm-20 1c1 0 3 1 2 3l-1 1h-4l-1 1 1-4 3-1zm-5 4l-1 2h1c2-1 4 0 4 2s-1 3-3 3h-2c1 2 1 3-1 4-1 1-4 0-4-3v-1h-1c-5 0-5-5-1-6l2 1 1-4c2-3 5 0 5 2zm35-3l1 6c-1 2-3 3-4 2l-1-1-1 3-2-1 2-2v-1c-1 1-2-1-2-2 1-2 5-3 7-4zm18 1l4 1-2 2-3 2c-4 0-4 0-2-2l3-3zm-6 1v5l-3 3-1-2 2-5 2-1zm11 1v3c-7 7-12 15-15 24l-3-1c4-11 11-20 18-26zm-61 2a2 2 0 100 4 2 2 0 000-4zm0 1a1 1 0 010 3 1 1 0 010-3zm-78 0c21 15 31 36 31 55h-1c-1-27-16-43-31-54zm129 1h3c1 0 2 0 0 2l-1 1-1 2h-5l2-3 2-2zm10 0v20c-5 0-8 2-10 5l-5-2c4-10 9-17 15-23zm-16 1l1 1-1 4-1 2-1 1-1-4a62 62 0 013-4zm-125 0c18 11 30 29 31 52l-6-3v-2h1v2h3l-1-6h-4l-1-3h2v2l3-1-1-5-5 1-1-4h1l2 2 2-1-2-6-4 2-2-3 1-1 2 2 2-1-3-5-4 2-2-3 2-1 1 2 2-2-3-4-4 2-2-3 1-1 2 2 2-2-4-4-4 3-2-2 1-1 2 1 1-2-4-4-3 4-3-2v-2l3 1 1-2-4-3zm49 1l1 4 2-2c2 1 2 3 0 7v2l-1-1-4-3c-1-1-1-3 1-3h1l-3-3zm-50 1l3 2-1 1-2-1zm76 1c1 1-2 5 2 6v2c-2 1-5-2-4-4l2-4zm9 0l1 1c3 2 3 5 1 7l-4-1 1-1c1 0 2-2 1-4v-2zm27 1v4c2 3 0 5-2 4l-1-1v4l-3-1 2-3h-1c-2 0-3-2-1-4l6-3zm16 1h2c2 0 2-1 1 1l-1 2-2 1h-3v-1l2-3h1zm-6 1l1 1-1 4-1 3c-1 2-1 2-1 0v-5l2-3zm-116 1l3 2-1 1-1-2-3 3 4 3 4-3 2 3-1 1-1-2-3 2 4 5 4-3 2 3h-1l-1-1-3 2 3 4 4-2 2 3-1 1-1-2-3 1 2 5 4-1 2 3-1 1-1-2-3 1 2 5 4-1 1 3-1 1-1-2h-2l1 5h4v4h-1v-2h-3v3l-2-1c-2-16-10-29-23-38v-2l3 2 3-3zm122 3l-1 3-4 3c-2 1-2 1-1-2l2-3 3-1h1zm-128 1c13 8 21 26 23 36h-2l-1-2c-3-13-10-24-20-32zm118 2l2 5-3-1 1-4zm-63 0v4h1c1-1 2 0 2 1l-1 5-1 2-4-3c-2-2-1-5 0-5l2 1-2-4zm51 3l2 4c1 3 0 5-2 4h-1v4l-3-1 2-3h-1c-3 0-3-4 1-6l2-2zm19 0l-1 3h-2c-3-1-3-1 1-2l2-1zm-46 1c3 0 5 2 4 6l1 6c1 1-1 2-2 1l-1-5c0-4 0-5-2-4l-1 3-1 6c-2 1-3 0-2-1v-4c0-1-1-8 4-8zm62 3h1l17 1v4l-16-1h-4c1 0 1 6-4 4-4-1-2-6 3-8h3zm-27 2l11 5c1 20 8 40 31 56-4 3-13 9-24 14l-1-1c13-22 3-45-19-56l2-18zm37 4l2 1h2c2 0 3 3 1 4v2c2 0 2 2 0 4v1c2 1 1 2 0 3v1c2 1-1 3-3 3l-2 1h-6c-2 0-3-1-4-3l-2-13c0-2 4-5 6-5l6 1zm-142 0a4 4 0 110 8 4 4 0 010-8zm48 1v3c2-1 3 0 3 2l-3 6-4-5c-1-2 0-4 2-3v1l-1-4zm-48 0c-1 0-3 1-2 2h3l2 1s0 1 0 0h1c-1-2-2-3-4-3zm116 1l2 1c2 27 16 43 31 53l-2 1a68 68 0 01-31-55zm3 1l6 3v2h-2v-2h-3l1 6 5-1v4h-1l-1-2-3 1 2 5 4-1 1 4h-1l-1-2-3 1 2 5 5-1 1 3-1 1-1-2-3 1 3 5 4-2 2 3-1 1-2-2-2 2 4 4 3-2 2 3-1 1-1-2-2 2 3 4 4-3 2 2v1l-2-1-2 2 4 4 3-4 3 2v2l-2-1-2 2 4 3v1a64 64 0 01-31-52zm-49 0l4 3c5 6 4 15-3 20l-2-1c-7-5-7-13-1-20l2-2zm24 1l3 6c0 2-1 3-3 2v3h-2l1-3c-2 1-4-1-4-2 1-3 3-4 5-6zm-24 2h-1c-1 1-3 3-3 5-2 4-1 8 2 11 2 2 3 2 5-1a10 10 0 00-2-15h-1zm55 0l3 1c3 19 12 30 22 38v2l-3-2-3 3-3-2 1-1 2 1 2-2-4-3-3 3-3-3 1-1 2 2 2-2-4-5-3 3-3-3 1-1 2 2 2-2-3-4-4 2-2-3 2-1 1 2 2-1-2-5-4 1-2-4h2l1 2 2-1-2-5-4 1-1-4h2v2h3l-1-5h-4l-1-4h1l1 2h3zm-55 1c2 0 4 3 4 4v6l-3 6c-1 0-2 0-3-2-3-4-3-8-1-11l3-3zm58 1h2c1 11 7 26 20 35v1c-10-7-19-19-22-36zm-58 0c-4 4-4 9 0 12 3-2 5-8 0-12zm-67 1c2-1 4 0 5 2l1 5 1 2c1 8 0 10-4 11l-5 1h-2l-4-2h-1c-2 0-3-2-1-4l1-1h-1c-2 0-2-3 0-4l1-2c-2 1-3-2-1-3l1-1c-1 0-2-1-1-2l3-1h2l3-1h2zm74 0h10v10h-10s2-4 0-10zm-23 0h10c-2 4-1 8-1 10h-9zm16 0c3 2 4 7 0 10-4-3-3-8 0-10zm-24 5h3l-1 4v-1c4-1 4 2 1 5l-2 2-2-3c-1-1-2-2-1-3 0-1 1-2 2-1l1 1zm47 2l2 2c2 3 2 5 1 6l-2-1 1 4-3 1 1-4h-1c-3 1-4-2-2-4l3-4zm47 5a4 4 0 110 9 4 4 0 010-9zm2 2v1c0 2-2 3-4 2h-1l1 2c2 1 5 1 5-3l-1-2zm-76 2h1c2 1 2 2 2 6v4c2 1 3-1 2-4 0-4 1-6 3-6v5c0 5 0 7-2 8s-5 0-6-3v-6-4zm-53 1l3 2c2 4-2 7-6 7l-19-1v-4l19 1c-1-3 1-5 3-5zm32 1l3 1-2 3h2v4l-5 3-2-7h4zm8 0h10c-2 11-5 24-10 36h-3c5-11 9-21 10-33h-5c-3 12-7 24-14 34l-3-1c7-11 13-24 15-36zm23 0h11c2 21 10 36 20 50h-1l-4-3c-9-13-15-30-16-44h-7c1 17 6 31 12 45l-3 1c-5-13-11-23-12-49zm18 3l3 2c2 2 2 5 0 5h-1l1 4h-3v-4 1c-2 0-3-1-3-3s3-5 3-5zm-77 0l6 3c-4 9-8 17-15 23l1-20c3 0 7 0 8-6zm39 1h3c-1 16-12 37-14 40l-1 1s-1-5-3-7c6-8 13-24 15-34zm24 0h5c2 12 6 26 16 43h-9c-9-17-11-31-12-43zm-56 2l2 1c-4 10-8 17-18 26v-3c7-6 12-15 16-24zm2 2l3 1v1l-2 1-2 1 1-3v-1zm4 2l3 1c1 1 0 2-1 3-1 3-1 3-1 1l-1-2v-3zm4 2l2 1c-6 17-21 32-21 31l-3-1c11-10 18-21 22-31zm-6 0l-1 2-1 3h-4l1-2 2-2 3-1zm2 3v4l-2 3c0 1-1 1-1-2v-3l2-4 1 2zm11-2l3 1-2 3h1c2 0 2 3 0 4l-5 3-1-6c0-1 0-2 2-2l1 1zm56 3l3 2c2 2 3 4 0 5l2 3-3 1-1-4-1 1c-2 1-3-1-2-4l2-4zm-24 1c5-1 2 8-1 8 0 0 3-6 0-6-2-1-1-3 1-2zm-9 0c2 0 3 1 1 2s-1 4-1 6c0 1-2-1-2-3-1-3-1-5 2-5zm-40 1h1l-2 4-1 1h-3v-2l2-3h3zm2 2v5l-2 4c-1 1-1 1-1-2v-3l2-4h1zm43 2c1 0 2 1 2 3v1c2-1 5 0 5 2 0 3-3 3-5 3v4c-2 2-6 0-5-3v-1h-2c-4 0-3-6 1-5h1c-1-3 0-5 3-4zm79 1l2 1v2l-3-2zm-128 1h1l-3 5h-4l3-5h3zm2 1v7l-2 2c-2 2-2 2-2-1l1-4 1-2 2-2zm13 1l3 1-3 3h1c2 0 2 2 0 4l-5 2-1-5 1-2h2l1 1zm34 1a2 2 0 100 4 2 2 0 000-4zm31 0l6 3c1 1 1 4-1 4l-1-1 3 3-3 1-1-3c-1 2-4 1-4-1l1-6zm-31 0a1 1 0 110 3 1 1 0 010-3zm-55 3h3l-3 3c-1 2-1 2-3 2-3 0-3 0-1-2l2-3h2zm3 2v5l-2 2c-2 2-2 2-2 0v-3a58 58 0 014-4zm56 0l2 5c1 5 4 8 6 6 1-2 1 0 1 0 0 7-7 4-8-2-3 1-5-2-4-2 4-1 3-4 3-7zm-9 0c1 3-3 6-6 4-1-2 0-4 2-3 1 1 3 0 4-1zm-55 3h3l-2 2-2 2v-3l1-1zm19 2l2 2-2 2c2 0 2 2 1 3l-4 2h-3v-2c0-4 1-5 2-5 1-1 2 0 3 1zm-16 0v6l-4-2 4-4zm94 1l6 2c2 1 1 3 0 4h-1l3 2-4 1v-3c-1 2-3 2-4 1l-1-4 1-3zm11 17c4 4 5 8 6 14l-1 4-1-1c0-9-11-12-16-3-2 4-1 11 5 20 5 8 11 14 15 23 4-9 11-16 16-25 8-11 5-22-4-23-5-1-9 3-10 8l-1 1v-5c1-5 3-9 6-13zm46 12l2 5 1 2h-2c-1-3-4-2-6 1-1 2 0 5 2 8l7 11 6-10 3-8c-1-4-5-5-8-2h-1l1-3 2-4zm-74 20c-30 7-55 3-58 2l-2 3-1 2-2 3v1l-2 1 1 1-2 1-3 5-6 11h92l-17-30zm0 1v2l-5-1 5-1zm-6 2l-6 4-6-3zm-51 0l1 1h-1v-1zm58 1l1 2c-2-1-10-4-13 5-2-4-13-9-18 2-2-3-11-11-19-1-3-6-5-7-11-6 4-4 10 0 12 4 7-6 13-4 18 0 7-7 13-5 18-2 3-4 6-6 12-4zm-53 0l12 1-7 4-5-5zm29 1l-6 4-7-4h13zm101 2zm-74 1h-1c-4 1-3 6 1 6h1c0 4 1 5 4 4l7 11h-90l6-9c3 0 5-1 4-4l2 1c4 0 4-5 1-6h-1c1-4 5-2 6 0 3-2 6-1 7 1h-1c-3-2-5 2-3 4l1 1c-2 3 1 6 3 5 3-1 3-2 3-4h1c3 0 4-4 2-5l-3-1c3-3 6-1 8 0 0 0 3-4 8 0-2 0-4 1-4 3s1 3 3 3l-1 2c0 2 2 3 4 3s3-2 2-4v-1c5 0 4-6 1-6l-3 1c2-4 6-4 8-2 2-1 5-3 8 0h-2c-2 1-2 5 0 6h2c-1 3 2 5 5 4 1-1 2-4 0-6 3 0 3-4 1-5-1-1-2-1-4 1 0-1 3-5 7-2 2-2 4-3 7-1zm1 3l1 2s-2-1-1-2zm-15 2a1 1 0 110 3 1 1 0 010-3zm-54 0l-1 2zm131 1v3h3l6 15-6 11h-3v2h9v-2h-2l8-13v13h-2v2h8v-2h-3v-26h3v-3h-8v3h2v7l-4 5-5-12h3v-3zm-116 1a1 1 0 110 2 1 1 0 010-2zm20 0a1 1 0 110 2 1 1 0 010-2z"/></g></svg>