<?xml version="1.0" encoding="UTF-8"?>
<svg viewBox="0 0 140 190" xmlns="http://www.w3.org/2000/svg">
 <defs>
  <linearGradient id="a" x1="2" x2="109" y1="62.1" y2="127.7" gradientUnits="userSpaceOnUse">
   <stop stop-color="#ebf0d0" offset="0"/>
   <stop stop-color="#ffffeb" offset="1"/>
  </linearGradient>
 </defs>
 <path d="m21 5h103c8.864 0 16 7.136 16 16v153c0 8.864-7.136 16-16 16h-103c-8.864 0-16-7.136-16-16v-153c0-8.864 7.136-16 16-16z" fill-opacity=".49804"/>
 <path d="m17 1h103c8.864 0 16 7.136 16 16v153c0 8.864-7.136 16-16 16h-103c-8.864 0-16-7.136-16-16v-153c0-8.864 7.136-16 16-16z" fill="#fff"/>
 <path d="m19 3h103c8.864 0 16 7.136 16 16v153c0 8.864-7.136 16-16 16h-103c-8.864 0-16-7.136-16-16v-153c0-8.864 7.136-16 16-16z" fill="#c7891f"/>
 <path d="m18 2h103c8.864 0 16 7.136 16 16v153c0 8.864-7.136 16-16 16h-103c-8.864 0-16-7.136-16-16v-153c0-8.864 7.136-16 16-16z" fill="url(#a)"/>
 <path d="m22.167 10h94.417c8.1253 0 14.667 6.5413 14.667 14.667v140.25c0 8.1253-6.5413 14.667-14.667 14.667h-94.417c-8.1253 0-14.667-6.5413-14.667-14.667v-140.25c0-8.1253 6.5413-14.667 14.667-14.667z" fill="#d80002"/>
 <path d="m22.156 9.375c-8.4608 0-15.281 6.8205-15.281 15.281v140.25c0 8.4608 6.8205 15.312 15.281 15.312h94.438c8.4608 0 15.281-6.8517 15.281-15.312v-140.25c0-8.4608-6.8205-15.281-15.281-15.281h-94.438zm0 1.25h94.438c7.7899 0 14.031 6.2414 14.031 14.031v140.25c0 7.7899-6.2414 14.062-14.031 14.062h-94.438c-7.7899 0-14.031-6.2726-14.031-14.062v-140.25c0-7.7899 6.2414-14.031 14.031-14.031z" fill="#830007"/>
 <path d="m38.906 20c-3.3734 0-6.3354 2.0787-8.375 5.1562s-3.25 7.2044-3.25 11.75c0 4.1529 2.18 8.9407 4.2188 13.531 1.6749 3.7713 2.957 7.1559 3.375 9.625-0.22742-0.16945-0.39076-0.22846-0.65625-0.46875-1.1771-1.0653-2.6309-2.7486-4.1562-4.5s-3.1352-3.5608-4.7188-5-3.1207-2.625-4.9688-2.625c-3.3734 0-6.3354 2.0787-8.375 5.1562s-3.25 7.2044-3.25 11.75 1.2104 8.6724 3.25 11.75 5.0016 5.1562 8.375 5.1562c1.8836 0 3.444-1.2252 5-2.7188s3.0953-3.3926 4.5938-5.2188 2.9378-3.5754 4.1562-4.7188c0.53351-0.50063 0.99609-0.8145 1.375-1.0312 0.0605 1.7354 0.1789 5.2756 0.21875 9.5938 0.02291 2.4826 0.01948 4.9517-0.0625 6.8438-0.04099 0.94602-0.08212 1.7435-0.15625 2.3125-0.03706 0.28449-0.09162 0.52535-0.125 0.65625-1.9317 2.3936-4.0312 2.1875-4.0312 2.1875l-1.375-0.09375 0.03125 1.375 0.0625 3.1562 0.03125 1.2188h1.2188l15.062-0.09375h1.2188l0.03125-1.2188 0.0625-3.1562 0.03125-1.375-1.375 0.09375s-2.117 0.27183-4.0625-2.1875c0.16559 0.20934 0.09974 0.14168 0.0625 0s-0.08155-0.35784-0.125-0.65625c-0.08689-0.59683-0.1861-1.4554-0.25-2.4375-0.12779-1.9642-0.17604-4.481-0.21875-7s-0.06233-5.0267-0.0625-6.9375c-1e-4 -1.157-0.00253-1.4684 0-2.0625 0.03655 0.01592 0.02026-0.02075 0.0625 0 0.3989 0.19599 0.97517 0.61787 1.5938 1.1875 1.2372 1.1392 2.7209 2.8746 4.25 4.6875s3.1104 3.7075 4.6875 5.1875 3.1257 2.6875 5 2.6875c3.3734 0 6.3354-2.0787 8.375-5.1562s3.25-7.2044 3.25-11.75-1.2104-8.6724-3.25-11.75-5.0016-5.1562-8.375-5.1562c-1.8262 0-3.3627 1.1353-4.9375 2.5312s-3.1725 3.1784-4.7188 4.875-3.0546 3.3094-4.3125 4.3438c-0.4212 0.34635-0.72504 0.52352-1.0625 0.71875 0.5302-2.5361 1.9892-5.991 3.8125-9.8125 2.1776-4.564 4.4688-9.3318 4.4688-13.5 0-4.5456-1.2104-8.6724-3.25-11.75s-5.0016-5.1562-8.375-5.1562zm59.75 0.0625-1.2812 2.5625c-8.8579 17.714-13.361 26.534-26.5 36.156l-1.3438 1 1.3125 1c12.549 9.5943 19.445 16.663 26.781 32.625l1.1562 2.5312 1.125-2.5625c6.5642-15.19 12.852-23.84 26.75-33.219l1.75-1.1875-1.875-0.96875c-13.808-7.0301-20.214-17.831-26.875-35.281l-1-2.6562zm-59.75 2.4375c2.3527 0 4.5649 1.4414 6.2812 4.0312s2.8438 6.2776 2.8438 10.375c0 3.1869-2.0522 7.8653-4.2188 12.406s-4.4678 8.8631-4.5 12.469v0.875l0.78125 0.3125c0.85978 0.35304 1.7779 0.22518 2.5625-0.09375s1.5084-0.82773 2.25-1.4375c1.4831-1.2196 3.0111-2.8916 4.5625-4.5938s3.1194-3.436 4.5312-4.6875 2.6994-1.9062 3.2812-1.9062c2.3527 0 4.5649 1.4414 6.2812 4.0312s2.8438 6.2776 2.8438 10.375-1.1274 7.7852-2.8438 10.375-3.9286 4.0312-6.2812 4.0312c-0.59117 0-1.8701-0.67576-3.2812-2s-2.9721-3.1572-4.5-4.9688-3.0339-3.6162-4.4688-4.9375c-0.71743-0.66065-1.4005-1.1912-2.1562-1.5625-0.59397-0.29183-1.3033-0.40498-2-0.3125v-0.03125l-0.3125-0.03125-1.375-0.125v1.4062c2.1e-4 0.01587-1.7e-4 1.4554 0 3.375s0.01943 4.4286 0.0625 6.9688 0.11733 5.0859 0.25 7.125c0.06633 1.0196 0.14627 1.9125 0.25 2.625 0.05187 0.35625 0.08098 0.68239 0.15625 0.96875s0.14082 0.53119 0.4375 0.90625c1.7679 2.2349 3.5643 2.7247 4.8125 2.9062v0.875l-12.625 0.09375v-0.875c1.2529-0.1909 3.0753-0.70196 4.8438-2.9375 0.29169-0.36874 0.33375-0.62193 0.40625-0.90625s0.1423-0.59057 0.1875-0.9375c0.0904-0.69386 0.14474-1.5444 0.1875-2.5312 0.08552-1.9738 0.08563-4.4628 0.0625-6.9688-0.04625-5.0118-0.21528-10.098-0.25-11.094l-0.03125-0.84375-0.78125-0.28125c-0.88316-0.33016-1.8037-0.15571-2.5625 0.21875s-1.4461 0.9274-2.1562 1.5938c-1.4202 1.3327-2.9086 3.1436-4.4062 4.9688s-3.0181 3.6676-4.4062 5-2.6505 2.0312-3.25 2.0312c-2.3527 0-4.5649-1.4414-6.2812-4.0312s-2.8438-6.2776-2.8438-10.375 1.1274-7.7852 2.8438-10.375 3.9286-4.0312 6.2812-4.0312c0.56984 0 1.8623 0.67912 3.2812 1.9688s2.9785 3.0655 4.5 4.8125 3.0014 3.4443 4.375 4.6875c0.68681 0.6216 1.3406 1.1635 2.0625 1.5s1.6751 0.48921 2.5 0.03125l0.59375-0.34375 0.0625-0.6875c0.22286-3.5795-1.9344-7.9195-3.9688-12.5s-4-9.321-4-12.531c0-4.0974 1.1274-7.7852 2.8438-10.375s3.9286-4.0312 6.2812-4.0312zm59.5 3.625c6.1371 15.439 12.749 26.125 25.312 33.125-12.328 8.6717-18.967 17.49-25.031 30.875-6.8264-14.042-13.88-21.616-25.125-30.344 11.833-9.0388 17.066-18.172 24.844-33.656zm-73.281 71.375c-1.9278 0.01296-4.0043 0.52384-6.2188 1.5312l-0.125 0.0625-0.125 0.0625c-5.9345 4.6118-8.5267 10.174-8.6562 16.062s2.099 12.069 5.375 18.375c6.5521 12.612 17.484 25.888 23.875 37.969l0.21875 0.4375 0.46875 0.15625 0.375 0.125 1 0.34375 0.5-0.9375c7.0643-13.282 17.441-27.36 23.5-40.094 3.0295-6.367 5.0027-12.431 4.8438-18s-2.6107-10.626-8.0625-14.469l-0.09375-0.0625-0.09375-0.03125c-4.3645-1.9855-8.2011-1.8852-11.25-0.4375s-5.2758 4.11-6.9375 6.9375c-1.5764 2.6824-2.6329 5.5327-3.3438 7.875-0.52456-1.7401-1.1363-3.6364-2.125-5.6875-1.2108-2.512-2.788-5.0304-4.9375-6.9688s-4.9045-3.2721-8.1875-3.25zm73.781 0.40625-1.1875 1.875c-5.144 8.1789-15.868 19.206-22.781 29.344-3.4565 5.0689-6.0165 9.9322-6.3438 14.406-0.16361 2.237 0.27081 4.3804 1.5 6.25s3.2069 3.4195 5.9375 4.5938h0.0625l0.0625 0.03125c6.5256 2.1281 11.438 1.0099 14.875-1.4688 1.9384-1.3978 3.3219-3.177 4.4688-4.9688 0.05135 1.96 0.13635 4.2554 0.15625 6.6562 0.02205 2.66-0.02069 5.3376-0.125 7.375-0.05215 1.0187-0.12689 1.8725-0.21875 2.4688-0.04171 0.27071-0.08886 0.46625-0.125 0.59375-2.4716 2.1566-5.5312 2.0625-5.5312 2.0625l-1.3438-0.0625 0.03125 1.3438 0.0625 2.875 0.03125 1.2188h1.2188l19.219-0.09375h1.2188l0.03125-1.2188 0.0625-2.8125 0.03125-1.3438-1.3438 0.0625s-3.0224 0.07048-5.5-2.0938c-0.03884-0.12808-0.10918-0.32473-0.15625-0.59375-0.10347-0.59134-0.20751-1.461-0.28125-2.4688-0.14749-2.0155-0.21346-4.6519-0.25-7.2812s-0.04324-5.246-0.03125-7.2812c8.9e-4 -0.15138-9.9e-4 -0.1378 0-0.28125 1.1855 1.9034 2.6571 3.8912 4.6875 5.5625 3.1311 2.5773 7.431 4.1543 12.125 2.1875 3.2389-1.301 5.5651-2.9014 7.0938-4.8438s2.204-4.2031 2.1562-6.5312c-0.09553-4.6564-2.7903-9.6036-6.4062-14.688-7.2319-10.168-18.471-21.092-22.406-28.906l-1-1.9688zm-73.781 2.0938c2.6112-0.01756 4.7 1.0018 6.5 2.625s3.2558 3.8656 4.375 6.1875c2.2384 4.6438 3.1306 9.5106 3.1875 9.8438h2.4375c0.06635-0.38818 1.235-6.7449 4.25-11.875 1.5075-2.5651 3.4446-4.7671 5.8438-5.9062 2.37-1.1253 5.219-1.3406 9 0.34375 4.8741 3.458 6.7978 7.575 6.9375 12.469 0.14029 4.9138-1.6803 10.655-4.625 16.844-5.6547 11.884-15.332 25.316-22.469 38.344-6.6401-12.014-16.864-24.688-22.969-36.438-3.1779-6.117-5.2085-11.94-5.0938-17.156 0.11425-5.1925 2.2498-9.8332 7.6562-14.062 1.8835-0.83176 3.5098-1.2089 4.9688-1.2188zm73.594 2.6875c4.8437 8.3493 14.988 18.287 21.562 27.531 3.5019 4.9236 5.8618 9.5936 5.9375 13.281 0.03783 1.8438-0.44853 3.4426-1.625 4.9375s-3.1027 2.9048-6.0625 4.0938c-3.7854 1.5861-6.9029 0.40243-9.5938-1.8125s-4.7439-5.5004-5.6875-7.5938l-0.34375-0.75h-2.75l0.03125 1.2812c0.00192 0.10416-0.01921 1.6428-0.03125 3.6875s-0.00565 4.6888 0.03125 7.3438 0.12694 5.3287 0.28125 7.4375c0.07716 1.0544 0.15219 1.9812 0.28125 2.7188 0.06453 0.36878 0.15011 0.6957 0.25 1s0.15427 0.59809 0.5625 0.96875c2.4045 2.1832 4.7262 2.5231 6.0938 2.625v0.46875l-16.781 0.09375v-0.5c1.3697-0.08795 3.7033-0.42623 6.125-2.625 0.41889-0.38034 0.46687-0.691 0.5625-1s0.16131-0.6584 0.21875-1.0312c0.11489-0.7457 0.19543-1.6528 0.25-2.7188 0.10914-2.1318 0.14726-4.8146 0.125-7.5s-0.09999-5.3694-0.15625-7.4375c-0.02813-1.0341-0.04376-1.9083-0.0625-2.5625s-0.03139-1.1488-0.03125-1.1562l0.03125-1.2812h-2.1562l-0.34375 0.71875c-1.2247 2.6856-3.0315 5.9494-5.875 8-2.8217 2.0348-6.6564 3.0377-12.531 1.1562-2.4086-1.0358-3.9422-2.285-4.8438-3.6562s-1.2262-2.9075-1.0938-4.7188c0.26494-3.6225 2.5528-8.2385 5.9062-13.156 6.3235-9.2732 16.06-19.464 21.719-27.844z" fill="#fff" fill-rule="evenodd"/>
</svg>
