<?xml version="1.0" encoding="UTF-8"?>
<svg viewBox="0 0 300 300" xmlns="http://www.w3.org/2000/svg">
 <path d="m149.63 7.8302c-45.522 0.51545-76.151 44.669-55.457 85.319 9.5729 18.804 11.031 19.943-6.0931 11.686-34.737-16.751-75.293 10.528-77.94 52.424-4.6982 74.363 91.771 94.415 131.94 26.552 7.4758-12.628 5.3547-12.863 5.3154 2.349-0.1294 50.135-28.381 83.466-77.017 95.093-8.5745 2.0497-13.855 5.0465-15.018 6.0986-1.1885 1.0745 40.531 1.9046 95.202 1.9046 53.53 0 97.336-0.76058 97.336-1.6786s-6.0134-6.0188-15.009-8.0552c-43.051-9.7463-68.627-31.17-77.219-72.809-7.0786-34.305-3.4359-39.689 8.7282-19.2 38.085 64.15 129.28 44.64 128.98-25.735-0.18909-44.898-39.872-73.174-79.103-56.363-14.301 6.1281-15.088 4.834-7.4028-11.912 19.416-42.305-5.8229-83.209-52.789-85.577-1.5031-0.07582-2.9926-0.11348-4.4611-0.09678z"/>
 <path d="m51.386 290.06c-3.252-5.2813 3.4698-10.36 18.594-14.05 45.26-11.041 67.1-35.345 74.103-82.46 1.1996-8.0706 1.0873-8.32-1.6216-3.6016-23.852 41.546-85.702 52.487-116.37 20.585-46.487-48.35 2.7825-133.53 63.671-110.08 2.5705 0.99003 2.4225-0.85515-0.82563-10.294-26.192-76.114 88.545-119.54 122.49-46.36 6.6314 14.294 7.0262 37.01 0.87946 50.602-4.1779 9.2386-4.1779 9.2386 0.58737 6.5961 32.962-18.278 78.626 14.372 80.935 57.869 3.8399 72.338-85.498 97.982-129.41 37.146-7.4373-10.305-8.2804-6.133-2.9284 14.49 9.2747 35.74 29.136 54.365 69.377 65.059 17.631 4.6853 19.239 5.5645 19.867 10.86 0.7146 6.0246-195.68 9.6091-199.35 3.6386zm193.27-3.8435c0-0.89706-7.1373-3.2591-15.861-5.249-41.748-9.5233-65.256-33.091-73.587-73.777-6.8644-33.521-3.339-43.171 8.457-23.151 36.933 62.683 125.37 48.005 125.08-20.76-0.18336-43.871-38.649-71.486-76.693-55.059-13.868 5.9879-14.645 4.7318-7.1919-11.631 18.828-41.337-5.6493-81.329-51.195-83.643-46.643-2.37-76.618 42.291-55.903 83.293 9.2832 18.374 8.5002 19.476-8.1053 11.407-33.686-16.367-73.006 10.282-75.572 51.221-4.556 72.662 87.259 89.614 126.22 23.303 7.2496-12.34 9.3279-11.612 9.2898 3.2516-0.12548 48.988-27.315 83.686-74.48 95.046-8.3151 2.0028-16.042 4.4826-17.17 5.5106-1.1525 1.0499 39.313 1.8692 92.33 1.8692 51.91 0 94.381-0.73396 94.381-1.631z" fill="#f00"/>
</svg>
